<svg viewBox="0 0 255 50" fill="none" xmlns="http://www.w3.org/2000/svg">
<path d="M13.3324 25C13.1342 25 12.9721 24.9369 12.8459 24.8108C12.7198 24.6667 12.6567 24.5045 12.6567 24.3243V6.75612C12.6567 6.55791 12.7198 6.39574 12.8459 6.26961C12.9721 6.14348 13.1342 6.08042 13.3324 6.08042H26.3059C26.5041 6.08042 26.6662 6.14348 26.7924 6.26961C26.9185 6.39574 26.9816 6.55791 26.9816 6.75612V9.45891C26.9816 9.65712 26.9185 9.8283 26.7924 9.97245C26.6662 10.0986 26.5041 10.1616 26.3059 10.1616H17.5218V13.3509H21.2787C23.4409 13.3509 25.1437 13.8645 26.387 14.8915C27.6302 15.9186 28.2519 17.3241 28.2519 19.1079C28.2519 19.9368 28.0987 20.7116 27.7924 21.4323C27.4861 22.135 27.0356 22.7567 26.441 23.2972C25.8644 23.8198 25.1437 24.2342 24.2788 24.5405C23.4319 24.8468 22.4319 25 21.2787 25H13.3324ZM17.5218 21.4864H20.8462C21.3688 21.4864 21.8012 21.3783 22.1436 21.162C22.5039 20.9278 22.7742 20.6305 22.9544 20.2701C23.1346 19.8917 23.2247 19.4953 23.2247 19.0809C23.2247 18.4502 23.0175 17.9097 22.603 17.4592C22.2066 17.0087 21.621 16.7835 20.8462 16.7835H17.5218V21.4864ZM30.7986 30.1353C30.6004 30.1353 30.4383 30.0632 30.3121 29.9191C30.186 29.793 30.1229 29.6398 30.1229 29.4596V11.6212C30.1229 11.4229 30.186 11.2608 30.3121 11.1346C30.4383 11.0085 30.6004 10.9455 30.7986 10.9455H33.8528C34.033 10.9455 34.1861 11.0085 34.3123 11.1346C34.4564 11.2608 34.5285 11.4229 34.5285 11.6212V12.5942C34.9609 12.0536 35.5195 11.6031 36.2042 11.2428C36.8889 10.8644 37.7268 10.6752 38.7178 10.6752C39.6188 10.6752 40.4116 10.8193 41.0963 11.1076C41.781 11.3779 42.3666 11.7833 42.8531 12.3239C43.3576 12.8644 43.745 13.5221 44.0153 14.2969C44.2856 15.0717 44.4388 15.9636 44.4748 16.9727C44.4928 17.3331 44.5018 17.6664 44.5018 17.9727C44.5018 18.279 44.4928 18.6124 44.4748 18.9728C44.4388 19.9458 44.2856 20.8197 44.0153 21.5945C43.745 22.3693 43.3666 23.027 42.8801 23.5675C42.3936 24.1081 41.799 24.5315 41.0963 24.8378C40.4116 25.1261 39.6188 25.2703 38.7178 25.2703C37.8349 25.2703 37.0601 25.1171 36.3934 24.8108C35.7448 24.4865 35.2042 24.036 34.7717 23.4594V29.4596C34.7717 29.6398 34.7087 29.793 34.5826 29.9191C34.4564 30.0632 34.2943 30.1353 34.0961 30.1353H30.7986ZM37.2583 21.6485C37.871 21.6485 38.3485 21.5224 38.6908 21.2701C39.0332 21.0179 39.2764 20.6755 39.4206 20.2431C39.5827 19.8106 39.6818 19.3331 39.7179 18.8106C39.7539 18.252 39.7539 17.6934 39.7179 17.1349C39.6818 16.6123 39.5827 16.1348 39.4206 15.7024C39.2764 15.2699 39.0332 14.9276 38.6908 14.6753C38.3485 14.4231 37.871 14.2969 37.2583 14.2969C36.6817 14.2969 36.2132 14.4321 35.8529 14.7023C35.4925 14.9546 35.2312 15.2879 35.0691 15.7024C34.9069 16.1168 34.8078 16.5673 34.7717 17.0538C34.7537 17.3961 34.7447 17.7295 34.7447 18.0538C34.7447 18.3781 34.7537 18.7205 34.7717 19.0809C34.7898 19.5313 34.8889 19.9548 35.0691 20.3512C35.2492 20.7296 35.5195 21.0449 35.8799 21.2972C36.2403 21.5314 36.6997 21.6485 37.2583 21.6485ZM53.8227 25.2703C52.3091 25.2703 51.0298 25.027 49.9847 24.5405C48.9576 24.054 48.1648 23.3603 47.6062 22.4594C47.0657 21.5404 46.7594 20.4503 46.6873 19.189C46.6693 18.8286 46.6603 18.4232 46.6603 17.9727C46.6603 17.5042 46.6693 17.0988 46.6873 16.7565C46.7594 15.4771 47.0837 14.387 47.6603 13.4861C48.2369 12.5852 49.0387 11.8914 50.0658 11.4049C51.1109 10.9184 52.3632 10.6752 53.8227 10.6752C55.3002 10.6752 56.5525 10.9184 57.5796 11.4049C58.6246 11.8914 59.4355 12.5852 60.0121 13.4861C60.5887 14.387 60.913 15.4771 60.9851 16.7565C61.0031 17.0988 61.0121 17.5042 61.0121 17.9727C61.0121 18.4232 61.0031 18.8286 60.9851 19.189C60.913 20.4503 60.5977 21.5404 60.0391 22.4594C59.4985 23.3603 58.7057 24.054 57.6606 24.5405C56.6336 25.027 55.3543 25.2703 53.8227 25.2703ZM53.8227 21.9729C54.6335 21.9729 55.2191 21.7296 55.5795 21.2431C55.9579 20.7566 56.1741 20.0269 56.2282 19.0538C56.2462 18.7836 56.2552 18.4232 56.2552 17.9727C56.2552 17.5223 56.2462 17.1619 56.2282 16.8916C56.1741 15.9366 55.9579 15.2159 55.5795 14.7294C55.2191 14.2248 54.6335 13.9726 53.8227 13.9726C53.0479 13.9726 52.4623 14.2248 52.0659 14.7294C51.6875 15.2159 51.4802 15.9366 51.4442 16.8916C51.4262 17.1619 51.4172 17.5223 51.4172 17.9727C51.4172 18.4232 51.4262 18.7836 51.4442 19.0538C51.4802 20.0269 51.6875 20.7566 52.0659 21.2431C52.4623 21.7296 53.0479 21.9729 53.8227 21.9729ZM64.3724 25C64.1742 25 64.0121 24.9369 63.8859 24.8108C63.7598 24.6667 63.6967 24.5045 63.6967 24.3243V11.6212C63.6967 11.4229 63.7598 11.2608 63.8859 11.1346C64.0121 11.0085 64.1742 10.9455 64.3724 10.9455H67.5617C67.76 10.9455 67.9221 11.0085 68.0483 11.1346C68.1744 11.2608 68.2374 11.4229 68.2374 11.6212V16.1078H73.1025V11.6212C73.1025 11.4229 73.1655 11.2608 73.2917 11.1346C73.4178 11.0085 73.58 10.9455 73.7782 10.9455H76.9675C77.1657 10.9455 77.3279 11.0085 77.454 11.1346C77.5801 11.2608 77.6432 11.4229 77.6432 11.6212V24.3243C77.6432 24.5045 77.5801 24.6667 77.454 24.8108C77.3279 24.9369 77.1657 25 76.9675 25H73.7782C73.58 25 73.4178 24.9369 73.2917 24.8108C73.1655 24.6667 73.1025 24.5045 73.1025 24.3243V19.6485H68.2374V24.3243C68.2374 24.5045 68.1744 24.6667 68.0483 24.8108C67.9221 24.9369 67.76 25 67.5617 25H64.3724ZM81.581 25C81.4008 25 81.2477 24.9369 81.1216 24.8108C80.9954 24.6667 80.9324 24.5135 80.9324 24.3513V11.6212C80.9324 11.4229 80.9954 11.2608 81.1216 11.1346C81.2477 11.0085 81.4099 10.9455 81.6081 10.9455H84.7974C84.9956 10.9455 85.1577 11.0085 85.2839 11.1346C85.41 11.2608 85.4731 11.4229 85.4731 11.6212V21.4864L84.2568 20.8917L90.9327 11.3779C91.0228 11.2518 91.1309 11.1527 91.257 11.0806C91.3832 10.9905 91.5273 10.9455 91.6895 10.9455H94.5815C94.7617 10.9455 94.9148 11.0085 95.041 11.1346C95.1671 11.2608 95.2302 11.4139 95.2302 11.5941V24.3243C95.2302 24.5045 95.1671 24.6667 95.041 24.8108C94.9148 24.9369 94.7527 25 94.5545 25H91.3652C91.167 25 91.0048 24.9369 90.8787 24.8108C90.7525 24.6667 90.6895 24.5045 90.6895 24.3243V14.7564L91.9327 14.9996L85.2028 24.5676C85.1307 24.6937 85.0316 24.8018 84.9055 24.8919C84.7793 24.964 84.6262 25 84.446 25H81.581ZM98.8437 30.1353C98.6455 30.1353 98.4833 30.0632 98.3572 29.9191C98.231 29.793 98.168 29.6398 98.168 29.4596V11.6212C98.168 11.4229 98.231 11.2608 98.3572 11.1346C98.4833 11.0085 98.6455 10.9455 98.8437 10.9455H101.898C102.078 10.9455 102.231 11.0085 102.357 11.1346C102.501 11.2608 102.574 11.4229 102.574 11.6212V12.5942C103.006 12.0536 103.565 11.6031 104.249 11.2428C104.934 10.8644 105.772 10.6752 106.763 10.6752C107.664 10.6752 108.457 10.8193 109.141 11.1076C109.826 11.3779 110.412 11.7833 110.898 12.3239C111.403 12.8644 111.79 13.5221 112.06 14.2969C112.331 15.0717 112.484 15.9636 112.52 16.9727C112.538 17.3331 112.547 17.6664 112.547 17.9727C112.547 18.279 112.538 18.6124 112.52 18.9728C112.484 19.9458 112.331 20.8197 112.06 21.5945C111.79 22.3693 111.412 23.027 110.925 23.5675C110.439 24.1081 109.844 24.5315 109.141 24.8378C108.457 25.1261 107.664 25.2703 106.763 25.2703C105.88 25.2703 105.105 25.1171 104.438 24.8108C103.79 24.4865 103.249 24.036 102.817 23.4594V29.4596C102.817 29.6398 102.754 29.793 102.628 29.9191C102.501 30.0632 102.339 30.1353 102.141 30.1353H98.8437ZM105.303 21.6485C105.916 21.6485 106.393 21.5224 106.736 21.2701C107.078 21.0179 107.321 20.6755 107.466 20.2431C107.628 19.8106 107.727 19.3331 107.763 18.8106C107.799 18.252 107.799 17.6934 107.763 17.1349C107.727 16.6123 107.628 16.1348 107.466 15.7024C107.321 15.2699 107.078 14.9276 106.736 14.6753C106.393 14.4231 105.916 14.2969 105.303 14.2969C104.727 14.2969 104.258 14.4321 103.898 14.7023C103.538 14.9546 103.276 15.2879 103.114 15.7024C102.952 16.1168 102.853 16.5673 102.817 17.0538C102.799 17.3961 102.79 17.7295 102.79 18.0538C102.79 18.3781 102.799 18.7205 102.817 19.0809C102.835 19.5313 102.934 19.9548 103.114 20.3512C103.294 20.7296 103.565 21.0449 103.925 21.2972C104.285 21.5314 104.745 21.6485 105.303 21.6485ZM116.57 30.1623C116.372 30.1623 116.21 30.0903 116.084 29.9461C115.958 29.82 115.895 29.6578 115.895 29.4596V27.2974C115.895 27.0992 115.958 26.928 116.084 26.7838C116.21 26.6577 116.372 26.5947 116.57 26.5947H117.516C117.841 26.5947 118.111 26.5316 118.327 26.4055C118.543 26.2973 118.732 26.0991 118.895 25.8108C119.075 25.5406 119.264 25.1622 119.462 24.6757L124.868 11.513C124.922 11.3509 125.012 11.2157 125.138 11.1076C125.264 10.9995 125.444 10.9455 125.679 10.9455H128.571C128.733 10.9455 128.868 11.0085 128.976 11.1346C129.102 11.2428 129.165 11.3689 129.165 11.513C129.165 11.5491 129.156 11.5941 129.138 11.6482C129.138 11.7022 129.12 11.7743 129.084 11.8644L123.949 24.2432C123.588 25.1261 123.21 25.928 122.814 26.6487C122.417 27.3695 121.994 27.9911 121.543 28.5136C121.093 29.0362 120.57 29.4416 119.976 29.7299C119.381 30.0182 118.687 30.1623 117.895 30.1623H116.57ZM119.76 24.7027L114.219 11.8644C114.165 11.7383 114.138 11.6302 114.138 11.5401C114.174 11.3779 114.246 11.2428 114.354 11.1346C114.462 11.0085 114.606 10.9455 114.786 10.9455H117.814C118.048 10.9455 118.219 11.0085 118.327 11.1346C118.453 11.2428 118.543 11.3689 118.597 11.513L122.462 21.4053L119.76 24.7027ZM131.889 25C131.709 25 131.556 24.9369 131.429 24.8108C131.303 24.6667 131.24 24.5135 131.24 24.3513V11.6212C131.24 11.4229 131.303 11.2608 131.429 11.1346C131.556 11.0085 131.718 10.9455 131.916 10.9455H135.105C135.303 10.9455 135.466 11.0085 135.592 11.1346C135.718 11.2608 135.781 11.4229 135.781 11.6212V21.4864L134.565 20.8917L141.241 11.3779C141.331 11.2518 141.439 11.1527 141.565 11.0806C141.691 10.9905 141.835 10.9455 141.997 10.9455H144.889C145.07 10.9455 145.223 11.0085 145.349 11.1346C145.475 11.2608 145.538 11.4139 145.538 11.5941V24.3243C145.538 24.5045 145.475 24.6667 145.349 24.8108C145.223 24.9369 145.061 25 144.862 25H141.673C141.475 25 141.313 24.9369 141.187 24.8108C141.06 24.6667 140.997 24.5045 140.997 24.3243V14.7564L142.241 14.9996L135.511 24.5676C135.439 24.6937 135.34 24.8018 135.213 24.8919C135.087 24.964 134.934 25 134.754 25H131.889ZM138.619 9.10755C137.484 9.10755 136.565 8.93637 135.862 8.59402C135.159 8.23365 134.646 7.76516 134.321 7.18856C134.015 6.59395 133.862 5.94528 133.862 5.24255C133.862 5.0984 133.898 4.98128 133.97 4.89119C134.06 4.78307 134.195 4.72902 134.376 4.72902H136.538C136.7 4.72902 136.826 4.78307 136.916 4.89119C137.006 4.98128 137.051 5.0984 137.051 5.24255C137.051 5.62094 137.15 5.95429 137.349 6.24259C137.565 6.53088 137.979 6.67503 138.592 6.67503C139.223 6.67503 139.637 6.53088 139.835 6.24259C140.051 5.95429 140.16 5.62094 140.16 5.24255C140.16 5.0984 140.205 4.98128 140.295 4.89119C140.385 4.78307 140.511 4.72902 140.673 4.72902H142.835C142.997 4.72902 143.124 4.78307 143.214 4.89119C143.304 4.98128 143.349 5.0984 143.349 5.24255C143.349 5.94528 143.187 6.59395 142.862 7.18856C142.556 7.76516 142.051 8.23365 141.349 8.59402C140.646 8.93637 139.736 9.10755 138.619 9.10755ZM153.743 25C153.563 25 153.419 24.955 153.311 24.8649C153.203 24.7567 153.149 24.6216 153.149 24.4594C153.149 24.3333 153.185 24.2162 153.257 24.1081L157.608 17.7295L153.879 11.8644C153.861 11.8103 153.833 11.7473 153.797 11.6752C153.761 11.6031 153.743 11.5401 153.743 11.486C153.743 11.3238 153.797 11.1977 153.906 11.1076C154.032 10.9995 154.176 10.9455 154.338 10.9455H157.798C158.014 10.9455 158.176 10.9995 158.284 11.1076C158.41 11.1977 158.5 11.2878 158.554 11.3779L161.5 16.1078H162.744V11.6212C162.744 11.4229 162.807 11.2608 162.933 11.1346C163.077 11.0085 163.248 10.9455 163.446 10.9455H166.555C166.753 10.9455 166.915 11.0085 167.041 11.1346C167.167 11.2608 167.23 11.4229 167.23 11.6212V16.1078H168.474L171.42 11.3779C171.474 11.2878 171.564 11.1977 171.69 11.1076C171.816 10.9995 171.978 10.9455 172.176 10.9455H175.636C175.798 10.9455 175.933 10.9995 176.041 11.1076C176.168 11.1977 176.231 11.3238 176.231 11.486C176.231 11.5401 176.213 11.6031 176.177 11.6752C176.159 11.7473 176.132 11.8103 176.096 11.8644L172.366 17.7295L176.717 24.1081C176.789 24.2162 176.825 24.3333 176.825 24.4594C176.825 24.6216 176.771 24.7567 176.663 24.8649C176.555 24.955 176.411 25 176.231 25H172.42C172.185 25 172.005 24.9459 171.879 24.8378C171.771 24.7297 171.69 24.6396 171.636 24.5676L168.42 19.6485H167.23V24.3243C167.23 24.5045 167.167 24.6667 167.041 24.8108C166.915 24.9369 166.753 25 166.555 25H163.446C163.248 25 163.077 24.9369 162.933 24.8108C162.807 24.6667 162.744 24.5045 162.744 24.3243V19.6485H161.554L158.338 24.5676C158.302 24.6396 158.221 24.7297 158.095 24.8378C157.969 24.9459 157.789 25 157.554 25H153.743ZM179.584 25C179.404 25 179.25 24.9369 179.124 24.8108C178.998 24.6667 178.935 24.5135 178.935 24.3513V11.6212C178.935 11.4229 178.998 11.2608 179.124 11.1346C179.25 11.0085 179.413 10.9455 179.611 10.9455H182.8C182.998 10.9455 183.161 11.0085 183.287 11.1346C183.413 11.2608 183.476 11.4229 183.476 11.6212V21.4864L182.26 20.8917L188.936 11.3779C189.026 11.2518 189.134 11.1527 189.26 11.0806C189.386 10.9905 189.53 10.9455 189.692 10.9455H192.584C192.764 10.9455 192.918 11.0085 193.044 11.1346C193.17 11.2608 193.233 11.4139 193.233 11.5941V24.3243C193.233 24.5045 193.17 24.6667 193.044 24.8108C192.918 24.9369 192.755 25 192.557 25H189.368C189.17 25 189.008 24.9369 188.881 24.8108C188.755 24.6667 188.692 24.5045 188.692 24.3243V14.7564L189.936 14.9996L183.206 24.5676C183.133 24.6937 183.034 24.8018 182.908 24.8919C182.782 24.964 182.629 25 182.449 25H179.584ZM195.955 25C195.756 25 195.585 24.9369 195.441 24.8108C195.315 24.6667 195.252 24.4955 195.252 24.2973V21.9458C195.252 21.5494 195.468 21.3242 195.9 21.2701C196.423 21.2161 196.819 20.9728 197.09 20.5404C197.36 20.1079 197.549 19.4683 197.657 18.6214C197.765 17.7745 197.819 16.7114 197.819 15.4321V11.6212C197.819 11.4229 197.883 11.2608 198.009 11.1346C198.153 11.0085 198.315 10.9455 198.495 10.9455H209.09C209.288 10.9455 209.451 11.0085 209.577 11.1346C209.721 11.2608 209.793 11.4229 209.793 11.6212V24.3243C209.793 24.5045 209.721 24.6667 209.577 24.8108C209.451 24.9369 209.288 25 209.09 25H205.901C205.721 25 205.558 24.9369 205.414 24.8108C205.288 24.6667 205.225 24.5045 205.225 24.3243V14.4861H202.144V15.9186C202.144 17.6484 202.054 19.0989 201.874 20.2701C201.693 21.4413 201.369 22.3693 200.901 23.054C200.432 23.7387 199.793 24.2342 198.982 24.5405C198.189 24.8468 197.18 25 195.955 25ZM213.739 25C213.541 25 213.379 24.9369 213.252 24.8108C213.126 24.6667 213.063 24.5045 213.063 24.3243V11.6212C213.063 11.4229 213.126 11.2608 213.252 11.1346C213.379 11.0085 213.541 10.9455 213.739 10.9455H216.955C217.135 10.9455 217.289 11.0085 217.415 11.1346C217.559 11.2608 217.631 11.4229 217.631 11.6212V15.2699H220.199C222 15.2699 223.397 15.7114 224.388 16.5943C225.397 17.4592 225.902 18.6574 225.902 20.189C225.902 21.7566 225.379 22.9549 224.334 23.7837C223.307 24.5946 221.874 25 220.036 25H213.739ZM217.55 21.8918H219.793C220.496 21.8918 221.009 21.7566 221.334 21.4864C221.658 21.2161 221.82 20.7836 221.82 20.189C221.82 19.5764 221.658 19.1169 221.334 18.8106C221.009 18.5043 220.496 18.3511 219.793 18.3511H217.55V21.8918ZM234.648 25.2703C232.521 25.2703 230.828 24.6937 229.566 23.5405C228.305 22.3873 227.647 20.6755 227.593 18.4052C227.593 18.279 227.593 18.1169 227.593 17.9187C227.593 17.7205 227.593 17.5673 227.593 17.4592C227.647 16.0357 227.963 14.8195 228.539 13.8104C229.134 12.7834 229.945 12.0086 230.972 11.486C232.017 10.9455 233.233 10.6752 234.621 10.6752C236.206 10.6752 237.513 10.9905 238.54 11.6212C239.585 12.2518 240.369 13.1077 240.891 14.1888C241.414 15.2699 241.675 16.5042 241.675 17.8916V18.5403C241.675 18.7385 241.612 18.9007 241.486 19.0268C241.36 19.1529 241.197 19.216 240.999 19.216H232.35C232.35 19.234 232.35 19.2611 232.35 19.2971C232.35 19.3331 232.35 19.3692 232.35 19.4052C232.368 19.9278 232.458 20.4052 232.621 20.8377C232.801 21.2701 233.053 21.6125 233.377 21.8648C233.72 22.117 234.134 22.2431 234.621 22.2431C234.981 22.2431 235.278 22.1891 235.513 22.081C235.765 21.9548 235.972 21.8197 236.134 21.6756C236.296 21.5134 236.422 21.3783 236.513 21.2701C236.675 21.0719 236.801 20.9548 236.891 20.9188C236.999 20.8647 237.161 20.8377 237.377 20.8377H240.729C240.909 20.8377 241.053 20.8917 241.161 20.9999C241.287 21.108 241.342 21.2521 241.324 21.4323C241.306 21.7386 241.152 22.108 240.864 22.5405C240.576 22.9729 240.152 23.4053 239.594 23.8378C239.053 24.2522 238.368 24.5946 237.54 24.8649C236.711 25.1351 235.747 25.2703 234.648 25.2703ZM232.35 16.5402H236.918V16.4862C236.918 15.8916 236.828 15.3871 236.648 14.9726C236.486 14.5402 236.224 14.2068 235.864 13.9726C235.522 13.7383 235.107 13.6212 234.621 13.6212C234.152 13.6212 233.747 13.7383 233.404 13.9726C233.062 14.2068 232.801 14.5402 232.621 14.9726C232.44 15.3871 232.35 15.8916 232.35 16.4862V16.5402ZM236.215 8.59402C236.035 8.59402 235.882 8.53996 235.756 8.43185C235.648 8.32374 235.594 8.17058 235.594 7.97238V5.51283C235.594 5.33264 235.648 5.1885 235.756 5.08038C235.882 4.95425 236.035 4.89119 236.215 4.89119H238.702C238.882 4.89119 239.026 4.95425 239.134 5.08038C239.26 5.1885 239.323 5.33264 239.323 5.51283V7.97238C239.323 8.17058 239.26 8.32374 239.134 8.43185C239.026 8.53996 238.882 8.59402 238.702 8.59402H236.215ZM230.62 8.59402C230.44 8.59402 230.296 8.53996 230.188 8.43185C230.08 8.32374 230.026 8.17058 230.026 7.97238V5.51283C230.026 5.33264 230.08 5.1885 230.188 5.08038C230.296 4.95425 230.44 4.89119 230.62 4.89119H233.107C233.287 4.89119 233.431 4.95425 233.539 5.08038C233.666 5.1885 233.729 5.33264 233.729 5.51283V7.97238C233.729 8.17058 233.666 8.32374 233.539 8.43185C233.431 8.53996 233.287 8.59402 233.107 8.59402H230.62Z" fill="#1C1C1C"/>
<path d="M13.983 45.6953C13.8914 45.6953 13.8181 45.6678 13.7631 45.6129C13.7081 45.5579 13.6806 45.4846 13.6806 45.393V38.8515C13.6806 38.7599 13.7081 38.6866 13.7631 38.6317C13.8181 38.5767 13.8914 38.5492 13.983 38.5492H14.2166C14.3082 38.5492 14.3815 38.5767 14.4365 38.6317C14.4915 38.6866 14.5189 38.7599 14.5189 38.8515V41.6413H15.9894L18.0095 38.7553C18.0553 38.6821 18.1057 38.6317 18.1607 38.6042C18.2157 38.5675 18.2844 38.5492 18.3668 38.5492H18.6417C18.7242 38.5492 18.7883 38.5675 18.8341 38.6042C18.8891 38.6317 18.9165 38.6775 18.9165 38.7416C18.9165 38.7599 18.9074 38.7828 18.8891 38.8103C18.8799 38.8378 18.8662 38.8699 18.8478 38.9065L16.7177 41.9573L19.1089 45.3243C19.1547 45.3792 19.1777 45.4388 19.1777 45.5029C19.1777 45.567 19.1547 45.6174 19.1089 45.6541C19.0631 45.6816 18.999 45.6953 18.9165 45.6953H18.5592C18.4768 45.6953 18.4081 45.6816 18.3531 45.6541C18.2981 45.6174 18.2477 45.567 18.2019 45.5029L16.0306 42.4658H14.5189V45.393C14.5189 45.4846 14.4915 45.5579 14.4365 45.6129C14.3815 45.6678 14.3082 45.6953 14.2166 45.6953H13.983ZM20.9348 45.6953C20.8431 45.6953 20.7699 45.6678 20.7149 45.6129C20.6599 45.5579 20.6324 45.4846 20.6324 45.393V38.8515C20.6324 38.7599 20.6599 38.6866 20.7149 38.6317C20.7699 38.5767 20.8431 38.5492 20.9348 38.5492H23.642C24.4025 38.5492 24.9842 38.7187 25.3873 39.0577C25.7996 39.3967 26.0057 39.8502 26.0057 40.4182C26.0057 40.8579 25.9233 41.1832 25.7584 41.3939C25.5935 41.6046 25.3553 41.7833 25.0438 41.9299C25.4102 42.0673 25.6851 42.3101 25.8683 42.6582C26.0516 43.0064 26.1432 43.3545 26.1432 43.7026C26.1432 44.3531 25.9187 44.8479 25.4698 45.1868C25.03 45.5258 24.4437 45.6953 23.7107 45.6953H20.9348ZM21.4707 44.8982H23.6008C24.1047 44.8982 24.5124 44.7975 24.8239 44.5959C25.1446 44.3944 25.3049 44.0966 25.3049 43.7026C25.3049 43.2812 25.1629 42.9743 24.8789 42.7819C24.5949 42.5895 24.1688 42.4933 23.6008 42.4933H21.4707V44.8982ZM21.4707 41.6962H23.5046C24.0085 41.6962 24.4116 41.5817 24.714 41.3527C25.0163 41.1236 25.1675 40.8121 25.1675 40.4182C25.1675 40.0151 25.0163 39.7356 24.714 39.5799C24.4116 39.4241 24.0085 39.3463 23.5046 39.3463H21.4707V41.6962ZM30.0047 45.8327C29.565 45.8327 29.1573 45.7411 28.7816 45.5579C28.4152 45.3747 28.1174 45.1319 27.8884 44.8295C27.6593 44.518 27.5448 44.1699 27.5448 43.7851C27.5448 43.1621 27.7967 42.6628 28.3006 42.2872C28.8045 41.9115 29.4596 41.6688 30.2658 41.5588L32.4371 41.2565V40.7755C32.4371 40.2899 32.286 39.9097 31.9836 39.6349C31.6905 39.3509 31.2186 39.2088 30.5682 39.2088C30.0917 39.2088 29.707 39.305 29.4138 39.4974C29.1206 39.6807 28.9191 39.9235 28.8091 40.2258C28.7633 40.3632 28.6763 40.4319 28.548 40.4319H28.3281C28.2182 40.4319 28.1403 40.4044 28.0945 40.3495C28.0487 40.2853 28.0258 40.212 28.0258 40.1296C28.0258 40.0013 28.0716 39.841 28.1632 39.6486C28.264 39.4562 28.4152 39.2684 28.6167 39.0852C28.8183 38.8928 29.0794 38.7324 29.4 38.6042C29.7207 38.4759 30.1101 38.4118 30.5682 38.4118C31.1087 38.4118 31.553 38.4851 31.9012 38.6317C32.2585 38.7782 32.5333 38.9706 32.7257 39.2088C32.9273 39.4379 33.0693 39.6944 33.1517 39.9784C33.2342 40.2624 33.2754 40.5419 33.2754 40.8167V45.393C33.2754 45.4846 33.2479 45.5579 33.193 45.6129C33.138 45.6678 33.0647 45.6953 32.9731 45.6953H32.7395C32.6479 45.6953 32.5746 45.6678 32.5196 45.6129C32.4646 45.5579 32.4371 45.4846 32.4371 45.393V44.7471C32.3272 44.912 32.1714 45.0769 31.9699 45.2418C31.7683 45.4067 31.5072 45.5487 31.1866 45.6678C30.8751 45.7778 30.4811 45.8327 30.0047 45.8327ZM30.1421 45.0357C30.5636 45.0357 30.9484 44.9441 31.2965 44.7608C31.6447 44.5776 31.9195 44.2982 32.1211 43.9225C32.3318 43.5377 32.4371 43.0568 32.4371 42.4796V42.0123L30.6644 42.2597C29.9131 42.3605 29.3451 42.5345 28.9603 42.7819C28.5755 43.0293 28.3831 43.3408 28.3831 43.7164C28.3831 44.0187 28.4701 44.2661 28.6442 44.4585C28.8183 44.6509 29.0382 44.7975 29.3038 44.8982C29.5787 44.9899 29.8581 45.0357 30.1421 45.0357ZM35.7647 48.3064C35.673 48.3064 35.5997 48.2789 35.5448 48.2239C35.4898 48.169 35.4623 48.0957 35.4623 48.0041V38.8515C35.4623 38.7599 35.4898 38.6866 35.5448 38.6317C35.5997 38.5767 35.673 38.5492 35.7647 38.5492H35.9983C36.0899 38.5492 36.1632 38.5767 36.2182 38.6317C36.2731 38.6866 36.3006 38.7599 36.3006 38.8515V39.4974C36.5297 39.1859 36.8274 38.9294 37.1939 38.7279C37.5695 38.5171 38.0413 38.4118 38.6094 38.4118C39.1499 38.4118 39.6034 38.508 39.9699 38.7004C40.3363 38.8836 40.6341 39.131 40.8631 39.4425C41.0922 39.754 41.2617 40.1021 41.3716 40.4869C41.4815 40.8717 41.5411 41.2656 41.5502 41.6688C41.5594 41.8062 41.564 41.9573 41.564 42.1223C41.564 42.2872 41.5594 42.4383 41.5502 42.5758C41.5411 42.9789 41.4815 43.3728 41.3716 43.7576C41.2617 44.1424 41.0922 44.4906 40.8631 44.802C40.6341 45.1135 40.3363 45.3655 39.9699 45.5579C39.6034 45.7411 39.1499 45.8327 38.6094 45.8327C38.0413 45.8327 37.5695 45.7274 37.1939 45.5167C36.8274 45.3059 36.5297 45.0494 36.3006 44.7471V48.0041C36.3006 48.0957 36.2731 48.169 36.2182 48.2239C36.1632 48.2789 36.0899 48.3064 35.9983 48.3064H35.7647ZM38.5269 45.0357C39.0674 45.0357 39.4935 44.9166 39.805 44.6784C40.1164 44.4402 40.3409 44.1287 40.4783 43.7439C40.6158 43.3591 40.6936 42.9468 40.712 42.507C40.7211 42.2505 40.7211 41.994 40.712 41.7375C40.6936 41.2977 40.6158 40.8854 40.4783 40.5006C40.3409 40.1159 40.1164 39.8044 39.805 39.5662C39.4935 39.3279 39.0674 39.2088 38.5269 39.2088C38.0047 39.2088 37.5832 39.3325 37.2626 39.5799C36.9419 39.8273 36.7037 40.1388 36.548 40.5144C36.4014 40.8809 36.3189 41.2519 36.3006 41.6275C36.2914 41.765 36.2869 41.9436 36.2869 42.1635C36.2869 42.3834 36.2914 42.562 36.3006 42.6994C36.3098 43.0659 36.3922 43.4278 36.548 43.7851C36.7129 44.1424 36.9557 44.4402 37.2763 44.6784C37.6061 44.9166 38.023 45.0357 38.5269 45.0357ZM45.6188 45.6953C45.5272 45.6953 45.4539 45.6678 45.3989 45.6129C45.3439 45.5579 45.3164 45.4846 45.3164 45.393V39.3463H42.8016C42.71 39.3463 42.6367 39.3188 42.5817 39.2638C42.5267 39.2088 42.4992 39.1356 42.4992 39.0439V38.8515C42.4992 38.7599 42.5267 38.6866 42.5817 38.6317C42.6367 38.5767 42.71 38.5492 42.8016 38.5492H48.6696C48.7612 38.5492 48.8345 38.5767 48.8895 38.6317C48.9445 38.6866 48.972 38.7599 48.972 38.8515V39.0439C48.972 39.1356 48.9445 39.2088 48.8895 39.2638C48.8345 39.3188 48.7612 39.3463 48.6696 39.3463H46.1547V45.393C46.1547 45.4846 46.1273 45.5579 46.0723 45.6129C46.0173 45.6678 45.944 45.6953 45.8524 45.6953H45.6188ZM50.5396 45.6953C50.4663 45.6953 50.4021 45.6678 50.3472 45.6129C50.2922 45.5579 50.2647 45.4938 50.2647 45.4205V38.8515C50.2647 38.7599 50.2922 38.6866 50.3472 38.6317C50.4021 38.5767 50.4754 38.5492 50.5671 38.5492H50.8007C50.8923 38.5492 50.9656 38.5767 51.0206 38.6317C51.0755 38.6866 51.103 38.7599 51.103 38.8515V45.0219L50.8556 44.6234L55.3357 38.7553C55.3815 38.7004 55.4273 38.6546 55.4731 38.6179C55.5281 38.5721 55.6014 38.5492 55.693 38.5492H55.9541C56.0274 38.5492 56.0915 38.5767 56.1465 38.6317C56.2015 38.6775 56.229 38.737 56.229 38.8103V45.393C56.229 45.4846 56.2015 45.5579 56.1465 45.6129C56.0915 45.6678 56.0182 45.6953 55.9266 45.6953H55.693C55.6014 45.6953 55.5281 45.6678 55.4731 45.6129C55.4182 45.5579 55.3907 45.4846 55.3907 45.393V39.6349L55.6793 39.5662L51.158 45.4892C51.1213 45.535 51.0755 45.5808 51.0206 45.6266C50.9656 45.6724 50.8923 45.6953 50.8007 45.6953H50.5396ZM58.7673 48.3064C58.6756 48.3064 58.6023 48.2789 58.5474 48.2239C58.4924 48.169 58.4649 48.0957 58.4649 48.0041V38.8515C58.4649 38.7599 58.4924 38.6866 58.5474 38.6317C58.6023 38.5767 58.6756 38.5492 58.7673 38.5492H59.0009C59.0925 38.5492 59.1658 38.5767 59.2208 38.6317C59.2757 38.6866 59.3032 38.7599 59.3032 38.8515V39.4974C59.5323 39.1859 59.83 38.9294 60.1965 38.7279C60.5721 38.5171 61.0439 38.4118 61.612 38.4118C62.1525 38.4118 62.606 38.508 62.9725 38.7004C63.3389 38.8836 63.6367 39.131 63.8657 39.4425C64.0948 39.754 64.2643 40.1021 64.3742 40.4869C64.4841 40.8717 64.5437 41.2656 64.5529 41.6688C64.562 41.8062 64.5666 41.9573 64.5666 42.1223C64.5666 42.2872 64.562 42.4383 64.5529 42.5758C64.5437 42.9789 64.4841 43.3728 64.3742 43.7576C64.2643 44.1424 64.0948 44.4906 63.8657 44.802C63.6367 45.1135 63.3389 45.3655 62.9725 45.5579C62.606 45.7411 62.1525 45.8327 61.612 45.8327C61.0439 45.8327 60.5721 45.7274 60.1965 45.5167C59.83 45.3059 59.5323 45.0494 59.3032 44.7471V48.0041C59.3032 48.0957 59.2757 48.169 59.2208 48.2239C59.1658 48.2789 59.0925 48.3064 59.0009 48.3064H58.7673ZM61.5295 45.0357C62.07 45.0357 62.4961 44.9166 62.8076 44.6784C63.119 44.4402 63.3435 44.1287 63.4809 43.7439C63.6184 43.3591 63.6962 42.9468 63.7146 42.507C63.7237 42.2505 63.7237 41.994 63.7146 41.7375C63.6962 41.2977 63.6184 40.8854 63.4809 40.5006C63.3435 40.1159 63.119 39.8044 62.8076 39.5662C62.4961 39.3279 62.07 39.2088 61.5295 39.2088C61.0073 39.2088 60.5858 39.3325 60.2652 39.5799C59.9445 39.8273 59.7063 40.1388 59.5506 40.5144C59.404 40.8809 59.3215 41.2519 59.3032 41.6275C59.294 41.765 59.2895 41.9436 59.2895 42.1635C59.2895 42.3834 59.294 42.562 59.3032 42.6994C59.3124 43.0659 59.3948 43.4278 59.5506 43.7851C59.7155 44.1424 59.9583 44.4402 60.2789 44.6784C60.6087 44.9166 61.0256 45.0357 61.5295 45.0357ZM66.7387 45.6953C66.647 45.6953 66.5737 45.6678 66.5188 45.6129C66.4638 45.5579 66.4363 45.4846 66.4363 45.393V38.8515C66.4363 38.7599 66.4638 38.6866 66.5188 38.6317C66.5737 38.5767 66.647 38.5492 66.7387 38.5492H66.9723C67.0639 38.5492 67.1372 38.5767 67.1922 38.6317C67.2471 38.6866 67.2746 38.7599 67.2746 38.8515V40.9404H68.7863C69.7208 40.9404 70.385 41.1603 70.779 41.6C71.1821 42.0398 71.3836 42.6307 71.3836 43.3728C71.3836 44.1791 71.1546 44.77 70.6965 45.1456C70.2476 45.5121 69.5421 45.6953 68.5802 45.6953H66.7387ZM67.2746 44.8982H68.7038C69.3452 44.8982 69.8124 44.7883 70.1056 44.5684C70.3987 44.3394 70.5453 43.9409 70.5453 43.3728C70.5453 42.8231 70.4033 42.4154 70.1193 42.1497C69.8353 41.8749 69.3635 41.7375 68.7038 41.7375H67.2746V44.8982ZM72.7304 45.6953C72.6388 45.6953 72.5655 45.6678 72.5105 45.6129C72.4555 45.5579 72.4281 45.4846 72.4281 45.393V38.8515C72.4281 38.7599 72.4555 38.6866 72.5105 38.6317C72.5655 38.5767 72.6388 38.5492 72.7304 38.5492H72.964C73.0556 38.5492 73.1289 38.5767 73.1839 38.6317C73.2389 38.6866 73.2664 38.7599 73.2664 38.8515V45.393C73.2664 45.4846 73.2389 45.5579 73.1839 45.6129C73.1289 45.6678 73.0556 45.6953 72.964 45.6953H72.7304ZM95.9311 45.8327C95.2714 45.8327 94.7172 45.6953 94.2682 45.4205C93.8285 45.1456 93.4895 44.77 93.2513 44.2936C93.0223 43.8172 92.8986 43.2858 92.8802 42.6994C92.8711 42.562 92.8665 42.3696 92.8665 42.1223C92.8665 41.8749 92.8711 41.6825 92.8802 41.5451C92.8986 40.9496 93.0223 40.4182 93.2513 39.9509C93.4895 39.4745 93.8285 39.0989 94.2682 38.8241C94.7172 38.5492 95.2714 38.4118 95.9311 38.4118C96.5907 38.4118 97.1404 38.5492 97.5802 38.8241C98.0291 39.0989 98.3681 39.4745 98.5971 39.9509C98.8353 40.4182 98.9636 40.9496 98.9819 41.5451C98.9911 41.6825 98.9957 41.8749 98.9957 42.1223C98.9957 42.3696 98.9911 42.562 98.9819 42.6994C98.9636 43.2858 98.8353 43.8172 98.5971 44.2936C98.3681 44.77 98.0291 45.1456 97.5802 45.4205C97.1404 45.6953 96.5907 45.8327 95.9311 45.8327ZM95.9311 45.0357C96.5724 45.0357 97.0946 44.8295 97.4977 44.4173C97.9008 44.005 98.1161 43.4095 98.1436 42.6307C98.1528 42.4933 98.1574 42.3238 98.1574 42.1223C98.1574 41.9207 98.1528 41.7512 98.1436 41.6138C98.1161 40.8259 97.9008 40.2304 97.4977 39.8273C97.0946 39.415 96.5724 39.2088 95.9311 39.2088C95.2898 39.2088 94.7676 39.415 94.3644 39.8273C93.9613 40.2304 93.746 40.8259 93.7185 41.6138C93.7094 41.7512 93.7048 41.9207 93.7048 42.1223C93.7048 42.3238 93.7094 42.4933 93.7185 42.6307C93.746 43.4095 93.9613 44.005 94.3644 44.4173C94.7676 44.8295 95.2898 45.0357 95.9311 45.0357ZM103.058 45.6953C102.967 45.6953 102.893 45.6678 102.838 45.6129C102.783 45.5579 102.756 45.4846 102.756 45.393V39.3463H100.241C100.149 39.3463 100.076 39.3188 100.021 39.2638C99.9661 39.2088 99.9386 39.1356 99.9386 39.0439V38.8515C99.9386 38.7599 99.9661 38.6866 100.021 38.6317C100.076 38.5767 100.149 38.5492 100.241 38.5492H106.109C106.201 38.5492 106.274 38.5767 106.329 38.6317C106.384 38.6866 106.411 38.7599 106.411 38.8515V39.0439C106.411 39.1356 106.384 39.2088 106.329 39.2638C106.274 39.3188 106.201 39.3463 106.109 39.3463H103.594V45.393C103.594 45.4846 103.567 45.5579 103.512 45.6129C103.457 45.6678 103.383 45.6953 103.292 45.6953H103.058ZM110.356 45.8327C109.468 45.8327 108.762 45.5441 108.24 44.967C107.718 44.3806 107.42 43.6156 107.347 42.672C107.338 42.5345 107.333 42.3513 107.333 42.1223C107.333 41.8932 107.338 41.71 107.347 41.5726C107.393 40.9496 107.539 40.3999 107.787 39.9235C108.034 39.4471 108.373 39.076 108.804 38.8103C109.243 38.5446 109.761 38.4118 110.356 38.4118C110.998 38.4118 111.543 38.5538 111.992 38.8378C112.441 39.1218 112.784 39.5295 113.022 40.0609C113.27 40.5923 113.394 41.2244 113.394 41.9573V42.1635C113.394 42.2551 113.361 42.3284 113.297 42.3834C113.242 42.4383 113.169 42.4658 113.077 42.4658H108.185C108.185 42.4658 108.185 42.4841 108.185 42.5208C108.185 42.5574 108.185 42.5849 108.185 42.6032C108.203 43.0155 108.3 43.4095 108.474 43.7851C108.648 44.1516 108.895 44.4539 109.216 44.6921C109.536 44.9212 109.917 45.0357 110.356 45.0357C110.75 45.0357 111.076 44.9761 111.332 44.857C111.598 44.7379 111.809 44.6097 111.964 44.4722C112.12 44.3256 112.221 44.2157 112.267 44.1424C112.349 44.0233 112.413 43.9546 112.459 43.9363C112.505 43.9088 112.578 43.895 112.679 43.895H112.899C112.981 43.895 113.05 43.9225 113.105 43.9775C113.169 44.0233 113.197 44.0874 113.187 44.1699C113.178 44.2982 113.105 44.4585 112.968 44.6509C112.839 44.8341 112.651 45.0173 112.404 45.2006C112.166 45.3838 111.873 45.535 111.525 45.6541C111.176 45.7732 110.787 45.8327 110.356 45.8327ZM108.185 41.6962H112.555V41.6413C112.555 41.1832 112.468 40.7709 112.294 40.4044C112.12 40.038 111.868 39.7494 111.538 39.5387C111.208 39.3188 110.815 39.2088 110.356 39.2088C109.898 39.2088 109.504 39.3188 109.175 39.5387C108.854 39.7494 108.607 40.038 108.432 40.4044C108.268 40.7709 108.185 41.1832 108.185 41.6413V41.6962ZM114.753 45.6953C114.661 45.6953 114.583 45.6678 114.519 45.6129C114.464 45.5487 114.437 45.4709 114.437 45.3792V45.1594C114.437 44.967 114.528 44.8708 114.711 44.8708C115.005 44.8708 115.257 44.7333 115.467 44.4585C115.687 44.1836 115.857 43.7301 115.976 43.098C116.095 42.4567 116.154 41.6046 116.154 40.5419V38.8515C116.154 38.7599 116.182 38.6866 116.237 38.6317C116.292 38.5767 116.365 38.5492 116.457 38.5492H120.387C120.479 38.5492 120.552 38.5767 120.607 38.6317C120.662 38.6866 120.689 38.7599 120.689 38.8515V45.393C120.689 45.4846 120.662 45.5579 120.607 45.6129C120.552 45.6678 120.479 45.6953 120.387 45.6953H120.153C120.062 45.6953 119.989 45.6678 119.934 45.6129C119.879 45.5579 119.851 45.4846 119.851 45.393V39.3463H116.993V40.6381C116.993 41.5268 116.942 42.2918 116.841 42.9331C116.741 43.5744 116.59 44.1012 116.388 44.5135C116.196 44.9166 115.962 45.2143 115.687 45.4067C115.412 45.5991 115.101 45.6953 114.753 45.6953ZM123.184 45.6953C123.111 45.6953 123.047 45.6678 122.992 45.6129C122.937 45.5579 122.909 45.4938 122.909 45.4205V38.8515C122.909 38.7599 122.937 38.6866 122.992 38.6317C123.047 38.5767 123.12 38.5492 123.212 38.5492H123.445C123.537 38.5492 123.61 38.5767 123.665 38.6317C123.72 38.6866 123.748 38.7599 123.748 38.8515V45.0219L123.5 44.6234L127.98 38.7553C128.026 38.7004 128.072 38.6546 128.118 38.6179C128.173 38.5721 128.246 38.5492 128.338 38.5492H128.599C128.672 38.5492 128.736 38.5767 128.791 38.6317C128.846 38.6775 128.874 38.737 128.874 38.8103V45.393C128.874 45.4846 128.846 45.5579 128.791 45.6129C128.736 45.6678 128.663 45.6953 128.571 45.6953H128.338C128.246 45.6953 128.173 45.6678 128.118 45.6129C128.063 45.5579 128.035 45.4846 128.035 45.393V39.6349L128.324 39.5662L123.803 45.4892C123.766 45.535 123.72 45.5808 123.665 45.6266C123.61 45.6724 123.537 45.6953 123.445 45.6953H123.184ZM149.113 45.6953C149.022 45.6953 148.948 45.6678 148.893 45.6129C148.838 45.5579 148.811 45.4846 148.811 45.393V38.8515C148.811 38.7599 148.838 38.6866 148.893 38.6317C148.948 38.5767 149.022 38.5492 149.113 38.5492H153.002C153.094 38.5492 153.167 38.5767 153.222 38.6317C153.277 38.6866 153.305 38.7599 153.305 38.8515V39.0439C153.305 39.1356 153.277 39.2088 153.222 39.2638C153.167 39.3188 153.094 39.3463 153.002 39.3463H149.649V45.393C149.649 45.4846 149.622 45.5579 149.567 45.6129C149.512 45.6678 149.438 45.6953 149.347 45.6953H149.113ZM157.276 45.8327C156.616 45.8327 156.062 45.6953 155.613 45.4205C155.173 45.1456 154.834 44.77 154.596 44.2936C154.367 43.8172 154.243 43.2858 154.225 42.6994C154.216 42.562 154.211 42.3696 154.211 42.1223C154.211 41.8749 154.216 41.6825 154.225 41.5451C154.243 40.9496 154.367 40.4182 154.596 39.9509C154.834 39.4745 155.173 39.0989 155.613 38.8241C156.062 38.5492 156.616 38.4118 157.276 38.4118C157.935 38.4118 158.485 38.5492 158.925 38.8241C159.374 39.0989 159.713 39.4745 159.942 39.9509C160.18 40.4182 160.308 40.9496 160.327 41.5451C160.336 41.6825 160.34 41.8749 160.34 42.1223C160.34 42.3696 160.336 42.562 160.327 42.6994C160.308 43.2858 160.18 43.8172 159.942 44.2936C159.713 44.77 159.374 45.1456 158.925 45.4205C158.485 45.6953 157.935 45.8327 157.276 45.8327ZM157.276 45.0357C157.917 45.0357 158.439 44.8295 158.842 44.4173C159.246 44.005 159.461 43.4095 159.488 42.6307C159.498 42.4933 159.502 42.3238 159.502 42.1223C159.502 41.9207 159.498 41.7512 159.488 41.6138C159.461 40.8259 159.246 40.2304 158.842 39.8273C158.439 39.415 157.917 39.2088 157.276 39.2088C156.635 39.2088 156.112 39.415 155.709 39.8273C155.306 40.2304 155.091 40.8259 155.063 41.6138C155.054 41.7512 155.05 41.9207 155.05 42.1223C155.05 42.3238 155.054 42.4933 155.063 42.6307C155.091 43.4095 155.306 44.005 155.709 44.4173C156.112 44.8295 156.635 45.0357 157.276 45.0357ZM164.925 45.8327C164.284 45.8327 163.739 45.7091 163.29 45.4617C162.841 45.2052 162.497 44.8387 162.259 44.3623C162.03 43.8859 161.906 43.3224 161.888 42.672C161.879 42.5345 161.874 42.3513 161.874 42.1223C161.874 41.8932 161.879 41.71 161.888 41.5726C161.906 40.9129 162.03 40.3495 162.259 39.8822C162.497 39.4058 162.841 39.0439 163.29 38.7966C163.739 38.54 164.284 38.4118 164.925 38.4118C165.411 38.4118 165.828 38.4805 166.176 38.6179C166.533 38.7462 166.826 38.9203 167.055 39.1401C167.284 39.3509 167.458 39.5845 167.577 39.841C167.697 40.0975 167.761 40.3495 167.77 40.5968C167.779 40.6885 167.752 40.7618 167.687 40.8167C167.623 40.8717 167.55 40.8992 167.468 40.8992H167.275C167.184 40.8992 167.115 40.8809 167.069 40.8442C167.032 40.7984 166.991 40.7205 166.945 40.6106C166.753 40.0884 166.487 39.7265 166.148 39.5249C165.818 39.3142 165.411 39.2088 164.925 39.2088C164.302 39.2088 163.785 39.4012 163.372 39.786C162.969 40.1617 162.754 40.7801 162.726 41.6413C162.708 41.9619 162.708 42.2826 162.726 42.6032C162.754 43.4644 162.969 44.0874 163.372 44.4722C163.785 44.8479 164.302 45.0357 164.925 45.0357C165.411 45.0357 165.818 44.9349 166.148 44.7333C166.487 44.5226 166.753 44.1562 166.945 43.6339C166.991 43.524 167.032 43.4507 167.069 43.4141C167.115 43.3682 167.184 43.3453 167.275 43.3453H167.468C167.55 43.3453 167.623 43.3728 167.687 43.4278C167.752 43.4828 167.779 43.5561 167.77 43.6477C167.761 43.8492 167.719 44.0508 167.646 44.2523C167.573 44.4539 167.458 44.6509 167.303 44.8433C167.156 45.0357 166.973 45.2052 166.753 45.3517C166.533 45.4983 166.267 45.6129 165.956 45.6953C165.654 45.7869 165.31 45.8327 164.925 45.8327ZM171.771 45.6953C171.679 45.6953 171.606 45.6678 171.551 45.6129C171.496 45.5579 171.468 45.4846 171.468 45.393V39.3463H168.954C168.862 39.3463 168.789 39.3188 168.734 39.2638C168.679 39.2088 168.651 39.1356 168.651 39.0439V38.8515C168.651 38.7599 168.679 38.6866 168.734 38.6317C168.789 38.5767 168.862 38.5492 168.954 38.5492H174.822C174.913 38.5492 174.987 38.5767 175.041 38.6317C175.096 38.6866 175.124 38.7599 175.124 38.8515V39.0439C175.124 39.1356 175.096 39.2088 175.041 39.2638C174.987 39.3188 174.913 39.3463 174.822 39.3463H172.307V45.393C172.307 45.4846 172.279 45.5579 172.224 45.6129C172.169 45.6678 172.096 45.6953 172.004 45.6953H171.771ZM179.069 45.8327C178.18 45.8327 177.475 45.5441 176.953 44.967C176.43 44.3806 176.133 43.6156 176.059 42.672C176.05 42.5345 176.046 42.3513 176.046 42.1223C176.046 41.8932 176.05 41.71 176.059 41.5726C176.105 40.9496 176.252 40.3999 176.499 39.9235C176.747 39.4471 177.085 39.076 177.516 38.8103C177.956 38.5446 178.473 38.4118 179.069 38.4118C179.71 38.4118 180.255 38.5538 180.704 38.8378C181.153 39.1218 181.497 39.5295 181.735 40.0609C181.982 40.5923 182.106 41.2244 182.106 41.9573V42.1635C182.106 42.2551 182.074 42.3284 182.01 42.3834C181.955 42.4383 181.882 42.4658 181.79 42.4658H176.898C176.898 42.4658 176.898 42.4841 176.898 42.5208C176.898 42.5574 176.898 42.5849 176.898 42.6032C176.916 43.0155 177.012 43.4095 177.186 43.7851C177.36 44.1516 177.608 44.4539 177.928 44.6921C178.249 44.9212 178.629 45.0357 179.069 45.0357C179.463 45.0357 179.788 44.9761 180.045 44.857C180.31 44.7379 180.521 44.6097 180.677 44.4722C180.833 44.3256 180.933 44.2157 180.979 44.1424C181.062 44.0233 181.126 43.9546 181.172 43.9363C181.217 43.9088 181.291 43.895 181.391 43.895H181.611C181.694 43.895 181.763 43.9225 181.817 43.9775C181.882 44.0233 181.909 44.0874 181.9 44.1699C181.891 44.2982 181.817 44.4585 181.68 44.6509C181.552 44.8341 181.364 45.0173 181.117 45.2006C180.878 45.3838 180.585 45.535 180.237 45.6541C179.889 45.7732 179.5 45.8327 179.069 45.8327ZM176.898 41.6962H181.268V41.6413C181.268 41.1832 181.181 40.7709 181.007 40.4044C180.833 40.038 180.581 39.7494 180.251 39.5387C179.921 39.3188 179.527 39.2088 179.069 39.2088C178.611 39.2088 178.217 39.3188 177.887 39.5387C177.566 39.7494 177.319 40.038 177.145 40.4044C176.98 40.7709 176.898 41.1832 176.898 41.6413V41.6962ZM184.221 45.6953C184.129 45.6953 184.056 45.6678 184.001 45.6129C183.946 45.5579 183.919 45.4846 183.919 45.393V38.8515C183.919 38.7599 183.946 38.6866 184.001 38.6317C184.056 38.5767 184.129 38.5492 184.221 38.5492H186.928C187.689 38.5492 188.27 38.7187 188.674 39.0577C189.086 39.3967 189.292 39.8502 189.292 40.4182C189.292 40.8579 189.21 41.1832 189.045 41.3939C188.88 41.6046 188.642 41.7833 188.33 41.9299C188.697 42.0673 188.971 42.3101 189.155 42.6582C189.338 43.0064 189.429 43.3545 189.429 43.7026C189.429 44.3531 189.205 44.8479 188.756 45.1868C188.316 45.5258 187.73 45.6953 186.997 45.6953H184.221ZM184.757 44.8982H186.887C187.391 44.8982 187.799 44.7975 188.11 44.5959C188.431 44.3944 188.591 44.0966 188.591 43.7026C188.591 43.2812 188.449 42.9743 188.165 42.7819C187.881 42.5895 187.455 42.4933 186.887 42.4933H184.757V44.8982ZM184.757 41.6962H186.791C187.295 41.6962 187.698 41.5817 188 41.3527C188.303 41.1236 188.454 40.8121 188.454 40.4182C188.454 40.0151 188.303 39.7356 188 39.5799C187.698 39.4241 187.295 39.3463 186.791 39.3463H184.757V41.6962ZM191.669 45.6953C191.578 45.6953 191.504 45.6678 191.449 45.6129C191.395 45.5579 191.367 45.4846 191.367 45.393V38.8515C191.367 38.7599 191.395 38.6866 191.449 38.6317C191.504 38.5767 191.578 38.5492 191.669 38.5492H191.903C191.995 38.5492 192.068 38.5767 192.123 38.6317C192.178 38.6866 192.205 38.7599 192.205 38.8515V40.9404H193.717C194.651 40.9404 195.316 41.1603 195.71 41.6C196.113 42.0398 196.314 42.6307 196.314 43.3728C196.314 44.1791 196.085 44.77 195.627 45.1456C195.178 45.5121 194.473 45.6953 193.511 45.6953H191.669ZM192.205 44.8982H193.635C194.276 44.8982 194.743 44.7883 195.036 44.5684C195.329 44.3394 195.476 43.9409 195.476 43.3728C195.476 42.8231 195.334 42.4154 195.05 42.1497C194.766 41.8749 194.294 41.7375 193.635 41.7375H192.205V44.8982ZM197.661 45.6953C197.569 45.6953 197.496 45.6678 197.441 45.6129C197.386 45.5579 197.359 45.4846 197.359 45.393V38.8515C197.359 38.7599 197.386 38.6866 197.441 38.6317C197.496 38.5767 197.569 38.5492 197.661 38.5492H197.895C197.986 38.5492 198.06 38.5767 198.115 38.6317C198.17 38.6866 198.197 38.7599 198.197 38.8515V45.393C198.197 45.4846 198.17 45.5579 198.115 45.6129C198.06 45.6678 197.986 45.6953 197.895 45.6953H197.661ZM203.078 45.8327C202.189 45.8327 201.484 45.5441 200.962 44.967C200.44 44.3806 200.142 43.6156 200.069 42.672C200.059 42.5345 200.055 42.3513 200.055 42.1223C200.055 41.8932 200.059 41.71 200.069 41.5726C200.114 40.9496 200.261 40.3999 200.508 39.9235C200.756 39.4471 201.095 39.076 201.525 38.8103C201.965 38.5446 202.483 38.4118 203.078 38.4118C203.719 38.4118 204.265 38.5538 204.713 38.8378C205.162 39.1218 205.506 39.5295 205.744 40.0609C205.992 40.5923 206.115 41.2244 206.115 41.9573V42.1635C206.115 42.2551 206.083 42.3284 206.019 42.3834C205.964 42.4383 205.891 42.4658 205.799 42.4658H200.907C200.907 42.4658 200.907 42.4841 200.907 42.5208C200.907 42.5574 200.907 42.5849 200.907 42.6032C200.925 43.0155 201.021 43.4095 201.195 43.7851C201.369 44.1516 201.617 44.4539 201.937 44.6921C202.258 44.9212 202.638 45.0357 203.078 45.0357C203.472 45.0357 203.797 44.9761 204.054 44.857C204.32 44.7379 204.53 44.6097 204.686 44.4722C204.842 44.3256 204.943 44.2157 204.988 44.1424C205.071 44.0233 205.135 43.9546 205.181 43.9363C205.227 43.9088 205.3 43.895 205.401 43.895H205.62C205.703 43.895 205.772 43.9225 205.827 43.9775C205.891 44.0233 205.918 44.0874 205.909 44.1699C205.9 44.2982 205.827 44.4585 205.689 44.6509C205.561 44.8341 205.373 45.0173 205.126 45.2006C204.888 45.3838 204.594 45.535 204.246 45.6541C203.898 45.7732 203.509 45.8327 203.078 45.8327ZM200.907 41.6962H205.277V41.6413C205.277 41.1832 205.19 40.7709 205.016 40.4044C204.842 40.038 204.59 39.7494 204.26 39.5387C203.93 39.3188 203.536 39.2088 203.078 39.2088C202.62 39.2088 202.226 39.3188 201.896 39.5387C201.576 39.7494 201.328 40.038 201.154 40.4044C200.989 40.7709 200.907 41.1832 200.907 41.6413V41.6962ZM210.935 47.207C210.843 47.207 210.77 47.1795 210.715 47.1245C210.66 47.0696 210.633 46.9963 210.633 46.9047V45.2006C210.633 45.109 210.66 45.0357 210.715 44.9807C210.77 44.9257 210.843 44.8982 210.935 44.8982H210.976C211.233 44.8891 211.457 44.7425 211.649 44.4585C211.842 44.1745 211.988 43.7164 212.089 43.0842C212.199 42.4429 212.254 41.5955 212.254 40.5419V38.8515C212.254 38.7599 212.282 38.6866 212.337 38.6317C212.392 38.5767 212.465 38.5492 212.556 38.5492H216.514C216.606 38.5492 216.679 38.5767 216.734 38.6317C216.789 38.6866 216.817 38.7599 216.817 38.8515V44.8708H217.49C217.582 44.8708 217.655 44.8982 217.71 44.9532C217.765 45.0082 217.792 45.0815 217.792 45.1731V46.9047C217.792 46.9963 217.765 47.0696 217.71 47.1245C217.655 47.1795 217.582 47.207 217.49 47.207H217.256C217.165 47.207 217.092 47.1795 217.037 47.1245C216.982 47.0696 216.954 46.9963 216.954 46.9047V45.6953H211.471V46.9047C211.471 46.9963 211.443 47.0696 211.388 47.1245C211.333 47.1795 211.26 47.207 211.168 47.207H210.935ZM212.185 44.8982L215.978 44.8708V39.3463H213.092V40.6381C213.092 41.7375 213.015 42.6307 212.859 43.3179C212.703 44.005 212.479 44.5318 212.185 44.8982ZM222.11 45.8327C221.45 45.8327 220.896 45.6953 220.447 45.4205C220.007 45.1456 219.668 44.77 219.43 44.2936C219.201 43.8172 219.077 43.2858 219.059 42.6994C219.05 42.562 219.045 42.3696 219.045 42.1223C219.045 41.8749 219.05 41.6825 219.059 41.5451C219.077 40.9496 219.201 40.4182 219.43 39.9509C219.668 39.4745 220.007 39.0989 220.447 38.8241C220.896 38.5492 221.45 38.4118 222.11 38.4118C222.77 38.4118 223.319 38.5492 223.759 38.8241C224.208 39.0989 224.547 39.4745 224.776 39.9509C225.014 40.4182 225.142 40.9496 225.161 41.5451C225.17 41.6825 225.174 41.8749 225.174 42.1223C225.174 42.3696 225.17 42.562 225.161 42.6994C225.142 43.2858 225.014 43.8172 224.776 44.2936C224.547 44.77 224.208 45.1456 223.759 45.4205C223.319 45.6953 222.77 45.8327 222.11 45.8327ZM222.11 45.0357C222.751 45.0357 223.273 44.8295 223.677 44.4173C224.08 44.005 224.295 43.4095 224.322 42.6307C224.332 42.4933 224.336 42.3238 224.336 42.1223C224.336 41.9207 224.332 41.7512 224.322 41.6138C224.295 40.8259 224.08 40.2304 223.677 39.8273C223.273 39.415 222.751 39.2088 222.11 39.2088C221.469 39.2088 220.946 39.415 220.543 39.8273C220.14 40.2304 219.925 40.8259 219.897 41.6138C219.888 41.7512 219.884 41.9207 219.884 42.1223C219.884 42.3238 219.888 42.4933 219.897 42.6307C219.925 43.4095 220.14 44.005 220.543 44.4173C220.946 44.8295 221.469 45.0357 222.11 45.0357ZM227.354 45.6953C227.263 45.6953 227.189 45.6678 227.134 45.6129C227.079 45.5579 227.052 45.4846 227.052 45.393V38.8103C227.052 38.737 227.079 38.6775 227.134 38.6317C227.199 38.5767 227.263 38.5492 227.327 38.5492H227.643C227.78 38.5492 227.886 38.6179 227.959 38.7553L230.501 43.5652L233.044 38.7553C233.117 38.6179 233.222 38.5492 233.36 38.5492H233.676C233.749 38.5492 233.813 38.5767 233.868 38.6317C233.923 38.6775 233.951 38.737 233.951 38.8103V45.393C233.951 45.4846 233.923 45.5579 233.868 45.6129C233.813 45.6678 233.74 45.6953 233.648 45.6953H233.415C233.323 45.6953 233.25 45.6678 233.195 45.6129C233.14 45.5579 233.112 45.4846 233.112 45.393V39.4837H233.511L231.106 44.1424C231.06 44.234 231.005 44.3211 230.941 44.4035C230.877 44.486 230.776 44.5272 230.639 44.5272H230.364C230.226 44.5272 230.126 44.486 230.062 44.4035C229.997 44.3211 229.942 44.234 229.897 44.1424L227.56 39.7448H227.89V45.393C227.89 45.4846 227.863 45.5579 227.808 45.6129C227.753 45.6678 227.68 45.6953 227.588 45.6953H227.354ZM238.102 45.8327C237.662 45.8327 237.254 45.7411 236.879 45.5579C236.512 45.3747 236.214 45.1319 235.985 44.8295C235.756 44.518 235.642 44.1699 235.642 43.7851C235.642 43.1621 235.894 42.6628 236.398 42.2872C236.902 41.9115 237.557 41.6688 238.363 41.5588L240.534 41.2565V40.7755C240.534 40.2899 240.383 39.9097 240.081 39.6349C239.788 39.3509 239.316 39.2088 238.665 39.2088C238.189 39.2088 237.804 39.305 237.511 39.4974C237.218 39.6807 237.016 39.9235 236.906 40.2258C236.86 40.3632 236.773 40.4319 236.645 40.4319H236.425C236.315 40.4319 236.237 40.4044 236.192 40.3495C236.146 40.2853 236.123 40.212 236.123 40.1296C236.123 40.0013 236.169 39.841 236.26 39.6486C236.361 39.4562 236.512 39.2684 236.714 39.0852C236.915 38.8928 237.176 38.7324 237.497 38.6042C237.818 38.4759 238.207 38.4118 238.665 38.4118C239.206 38.4118 239.65 38.4851 239.998 38.6317C240.356 38.7782 240.63 38.9706 240.823 39.2088C241.024 39.4379 241.166 39.6944 241.249 39.9784C241.331 40.2624 241.372 40.5419 241.372 40.8167V45.393C241.372 45.4846 241.345 45.5579 241.29 45.6129C241.235 45.6678 241.162 45.6953 241.07 45.6953H240.837C240.745 45.6953 240.672 45.6678 240.617 45.6129C240.562 45.5579 240.534 45.4846 240.534 45.393V44.7471C240.424 44.912 240.269 45.0769 240.067 45.2418C239.865 45.4067 239.604 45.5487 239.284 45.6678C238.972 45.7778 238.578 45.8327 238.102 45.8327ZM238.239 45.0357C238.661 45.0357 239.045 44.9441 239.394 44.7608C239.742 44.5776 240.017 44.2982 240.218 43.9225C240.429 43.5377 240.534 43.0568 240.534 42.4796V42.0123L238.761 42.2597C238.01 42.3605 237.442 42.5345 237.057 42.7819C236.673 43.0293 236.48 43.3408 236.48 43.7164C236.48 44.0187 236.567 44.2661 236.741 44.4585C236.915 44.6509 237.135 44.7975 237.401 44.8982C237.676 44.9899 237.955 45.0357 238.239 45.0357Z" fill="#1C1C1C"/>
<circle cx="83.4135" cy="42.6185" r="2.29042" fill="#1C1C1C"/>
<circle cx="139.048" cy="42.6185" r="2.29042" fill="#1C1C1C"/>
</svg>
