<?xml version="1.0" encoding="UTF-8"?>
<svg width="120px" height="120px" viewBox="0 0 120 120" version="1.1" xmlns="http://www.w3.org/2000/svg" xmlns:xlink="http://www.w3.org/1999/xlink">
    <title>Artboard</title>
    <g id="Artboard" stroke="none" stroke-width="1" fill="none" fill-rule="evenodd">
        <path d="M28.9678418,25.1312295 C36.786901,24.8050723 48.0418809,19.0314307 60.035592,16.5646609 C72.073627,14.0896548 84.697722,13.6704274 92.9985981,11.9630438 C103.979427,9.70465221 108.120425,6.77335543 108.664624,11.636063 C108.808266,12.9110412 104.616377,15.8151582 105.085061,18.1097895 C106.272777,23.9213181 110.230734,31.3504546 111.908475,39.5645099 C113.848054,49.0601324 113.509059,59.3530282 114.740278,65.3778767 C115.676824,69.9630212 123.211062,72.0319781 118.416696,74.3126077 C111.951978,77.3855687 111.512022,72.6035768 104.590932,74.0268083 C103.614165,74.2277738 102.620982,74.2055359 101.63847,73.980685 C100.032961,51.6833918 95.1680053,46.2515564 93.83911,39.0192673 C94.4030081,37.702284 95.8624126,35.9479535 96.32453,34.7133332 C97.116614,32.598253 96.5461494,30.6668423 96.1316391,28.8416797 C92.8927133,21.5278512 85.026047,24.4995058 85.026047,24.4995058 C85.026047,24.4995058 77.9604937,26.3938533 70.2949265,27.7528417 C64.1133881,28.8482687 57.5411431,29.429751 53.9697882,29.6644854 C45.9701503,30.1891373 25.0197341,35.8433526 25.3267179,36.444602 C24.7332705,35.3137589 24.3630841,34.4489481 24.2547369,33.9168836 C23.4880981,30.1685465 17.3287217,31.0704206 17.3960283,29.1950167 C17.519971,25.7333026 18.5574779,25.5644586 28.9678418,25.1312295 L28.9678418,25.1312295 Z M86.2309996,62.0166454 C86.5379835,66.7673394 86.0537042,75.31167 82.8632063,81.0383648 C79.3763951,87.3004186 74.0764093,90.8617918 74.0764093,90.8617918 C74.0764093,90.8617918 82.5332397,92.8796836 87.1174771,83.2349842 C91.7017144,73.5894611 86.9598811,63.061831 86.2309996,62.0166454 L86.2309996,62.0166454 Z M100.439263,94.4931735 C94.0123014,97.5488383 93.5748084,92.7940262 86.693117,94.2090214 C77.8619962,96.025124 65.5120525,100.729695 53.2154616,103.25906 C40.593829,105.854316 28.052636,106.269426 21.2185518,107.674537 C18.5492698,108.223898 16.7664652,112.775274 15.2578119,111.88493 C9.23715282,108.332617 15.3234769,107.896917 14.0799461,101.807826 C12.8511899,95.7928606 8.66422575,87.1801687 6.81821862,78.1391895 C5.07399222,69.5981534 8.00593419,60.1428887 6.81903943,54.3297129 C6.0573255,50.6027902 -0.0667559809,51.4997225 0.000550637683,49.6350257 C0.122851689,46.1930787 1.1546129,46.025882 11.5050575,45.5951238 C19.278972,45.2706139 30.4699286,39.5299175 42.3946914,37.0771493 C54.3629574,34.6161449 66.9148209,34.1993885 75.167269,32.5018884 C86.0857159,30.2566749 90.2020901,27.3426743 90.7446472,32.1773785 C90.8866477,33.4441204 86.719383,36.3325884 87.1856045,38.613218 C88.3659328,44.3918014 92.3009075,51.7789329 93.9687984,59.9452176 C95.8977075,69.385657 95.5603536,79.6200751 96.784185,85.6103312 C97.7158071,90.1682959 105.206541,92.2257219 100.439263,94.4931735 L100.439263,94.4931735 Z" id="Fill-4" fill="#F51449"></path>
    </g>
</svg>