<svg width="28" height="27" viewBox="0 0 28 27" fill="none" xmlns="http://www.w3.org/2000/svg">
<path fill-rule="evenodd" clip-rule="evenodd" d="M6.63326 0C3.35409 0 0.695801 2.6583 0.695801 5.93747V20.7811C0.695801 24.0603 3.3541 26.7186 6.63327 26.7186H21.4769C24.7561 26.7186 27.4144 24.0603 27.4144 20.7811V5.93746C27.4144 2.65829 24.7561 0 21.4769 0H6.63326ZM22.4149 10.3482L13.3061 19.457L13.2895 19.4738C13.0538 19.7095 12.7662 19.862 12.4634 19.931C11.9098 20.0574 11.3055 19.905 10.8743 19.4738L10.8536 19.4527L5.89698 14.4961C5.23012 13.8293 5.23012 12.7481 5.89698 12.0812C6.56385 11.4143 7.64505 11.4143 8.31191 12.0812L12.082 15.8513L20 7.93322C20.6669 7.26636 21.7481 7.26636 22.4149 7.93322C23.0818 8.60009 23.0818 9.68129 22.4149 10.3482Z" fill="white"/>
</svg>
