<svg width="40" height="40" fill="none" xmlns="http://www.w3.org/2000/svg"><path d="M33.758 37.93H6.172V0h21.38l6.206 6.207v31.724z" fill="#E3E4D8"/><path d="M27.551 0v6.207h6.207L27.55 0z" fill="#D0CEBD"/><path d="M6.172 27.586h27.586V40H6.172V27.586z" fill="#B53438"/><path d="M10.31 37.931a.69.69 0 01-.69-.69v-6.896a.69.69 0 011.38 0v6.897a.69.69 0 01-.69.689zm19.31-6.896h-4.138a.69.69 0 010-1.38h4.138a.69.69 0 010 1.38zm0 3.448h-4.138a.69.69 0 010-1.38h4.138a.69.69 0 010 1.38z" fill="#fff"/><path d="M25.482 37.931a.69.69 0 01-.69-.69v-6.896a.69.69 0 011.38 0v6.897a.69.69 0 01-.69.689z" fill="#fff"/><path d="M19.469 7.433c-.067.022-.914 1.192.066 2.182.653-1.435-.036-2.192-.066-2.182zm.418 5.744a48.112 48.112 0 01-1.839 5.133 34.674 34.674 0 014.465-1.37c-.928-1.065-1.855-2.394-2.627-3.763zm5.133 4.466c.56.426.697.641 1.064.641.16 0 .619-.007.83-.299.103-.142.143-.233.159-.28-.085-.046-.197-.134-.808-.134-.348 0-.783.014-1.245.072zm-9.37 3.017c-1.47.815-2.068 1.485-2.11 1.862-.008.063-.026.227.295.47.103-.032.7-.301 1.815-2.332zm-1.83 3.479c-.24 0-.47-.077-.665-.221-.715-.531-.812-1.121-.766-1.523.124-1.104 1.508-2.261 4.113-3.44 1.034-2.237 2.017-4.994 2.603-7.297-.685-1.474-1.352-3.387-.867-4.509.17-.393.384-.695.78-.825a3.46 3.46 0 01.698-.116c.361 0 .707.43.874.71.31.52.312 1.124.263 1.708-.048.567-.144 1.13-.255 1.688-.082.41-.173.817-.271 1.223.926 1.889 2.238 3.814 3.495 5.132.902-.161 1.677-.242 2.309-.242 1.075 0 1.728.247 1.994.757.22.422.13.916-.269 1.466-.383.529-.91.808-1.525.808-.837 0-1.81-.521-2.895-1.55a33.272 33.272 0 00-6.066 1.915c-.575 1.204-1.125 2.173-1.638 2.885-.703.976-1.31 1.43-1.912 1.43z" fill="#B53438"/><path d="M12.379 35.172h-2.07a.69.69 0 01-.689-.69v-4.137c0-.38.31-.69.69-.69h2.069a2.761 2.761 0 012.758 2.76 2.761 2.761 0 01-2.758 2.758zm-1.38-1.379h1.38a1.38 1.38 0 00-.001-2.759H11v2.76zm7.587 4.138h-.69a.69.69 0 01-.69-.69v-6.896c0-.38.31-.69.69-.69h.69a4.143 4.143 0 014.138 4.138 4.142 4.142 0 01-4.138 4.138zm0-1.38h.007-.007zm0-5.516v5.517a2.761 2.761 0 002.758-2.759 2.761 2.761 0 00-2.758-2.758z" fill="#fff"/></svg>