<svg viewBox="0 0 72 72" fill="none" xmlns="http://www.w3.org/2000/svg">
<rect width="72" height="72" rx="36" fill="#EE204D"/>
<path d="M14.3777 53.434C14.299 53.434 14.2346 53.409 14.1845 53.3589C14.1344 53.3088 14.1094 53.2444 14.1094 53.1657V46.1882C14.1094 46.1095 14.1344 46.0451 14.1845 45.995C14.2346 45.9449 14.299 45.9198 14.3777 45.9198H15.7625C15.8412 45.9198 15.9056 45.9449 15.9557 45.995C16.0058 46.0451 16.0309 46.1095 16.0309 46.1882V48.7752H16.6857L18.2744 46.1238C18.3102 46.0666 18.3603 46.02 18.4247 45.9843C18.4891 45.9413 18.5714 45.9198 18.6716 45.9198H20.2173C20.2889 45.9198 20.3462 45.9449 20.3891 45.995C20.432 46.0379 20.4535 46.088 20.4535 46.1453C20.4535 46.1882 20.4392 46.2311 20.4106 46.2741L18.4139 49.5374L20.6038 53.0691C20.6253 53.0977 20.636 53.137 20.636 53.1871C20.636 53.2587 20.6109 53.3195 20.5608 53.3696C20.5179 53.4126 20.4607 53.434 20.3891 53.434H18.8004C18.6859 53.434 18.6 53.409 18.5427 53.3589C18.4927 53.3088 18.4533 53.2659 18.4247 53.2301L16.7608 50.4928H16.0309V53.1657C16.0309 53.2444 16.0058 53.3088 15.9557 53.3589C15.9056 53.409 15.8412 53.434 15.7625 53.434H14.3777Z" fill="#FDFDFD"/>
<path d="M24.5023 53.5414C23.9369 53.5414 23.4217 53.4627 22.9565 53.3052C22.4985 53.1406 22.1264 52.9045 21.8401 52.5967C21.5538 52.289 21.3857 51.9133 21.3356 51.4696C21.3284 51.4052 21.3463 51.3515 21.3892 51.3086C21.4393 51.2657 21.4966 51.2442 21.561 51.2442H22.9565C23.0424 51.2442 23.1068 51.2585 23.1497 51.2871C23.1927 51.3158 23.2356 51.3658 23.2785 51.4374C23.3501 51.602 23.4789 51.738 23.665 51.8453C23.8582 51.9527 24.123 52.0063 24.4593 52.0063C24.8744 52.0063 25.1964 51.8811 25.4254 51.6306C25.6616 51.3802 25.7797 51.0259 25.7797 50.5679V50.3962H23.6972C23.6185 50.3962 23.5541 50.3675 23.504 50.3103C23.4539 50.253 23.4288 50.185 23.4288 50.1063V49.2476C23.4288 49.1688 23.4539 49.1009 23.504 49.0436C23.5541 48.9864 23.6185 48.9577 23.6972 48.9577H25.7797V48.8074C25.7797 48.3065 25.6652 47.9415 25.4362 47.7125C25.2072 47.4764 24.8816 47.3583 24.4593 47.3583C24.123 47.3583 23.8582 47.4155 23.665 47.53C23.4789 47.6445 23.3608 47.7805 23.3107 47.9379C23.2678 48.0095 23.2284 48.0596 23.1927 48.0882C23.1569 48.1169 23.096 48.1312 23.0102 48.1312H21.6039C21.5395 48.1312 21.4823 48.1097 21.4322 48.0668C21.3821 48.0167 21.3606 47.9594 21.3678 47.895C21.425 47.4298 21.5968 47.0434 21.883 46.7357C22.1693 46.4279 22.5378 46.1989 22.9887 46.0487C23.4396 45.8912 23.9441 45.8125 24.5023 45.8125C25.132 45.8125 25.6867 45.9234 26.1661 46.1453C26.6528 46.36 27.0356 46.6927 27.3147 47.1436C27.601 47.5873 27.7548 48.1598 27.7763 48.8611C27.7835 49.083 27.787 49.2762 27.787 49.4408C27.7942 49.5982 27.7942 49.7592 27.787 49.9238C27.787 50.0813 27.7835 50.2709 27.7763 50.4928C27.7548 51.2012 27.6046 51.7809 27.3255 52.2318C27.0464 52.6826 26.6671 53.0154 26.1876 53.2301C25.7081 53.4376 25.1463 53.5414 24.5023 53.5414Z" fill="#FDFDFD"/>
<path d="M29.3264 53.434C29.2477 53.434 29.1833 53.409 29.1332 53.3589C29.0831 53.3088 29.0581 53.2444 29.0581 53.1657V46.1882C29.0581 46.1095 29.0831 46.0451 29.1332 45.995C29.1833 45.9449 29.2477 45.9198 29.3264 45.9198H30.7112C30.7899 45.9198 30.8543 45.9449 30.9044 45.995C30.9545 46.0451 30.9796 46.1095 30.9796 46.1882V51.7165H32.6434V46.1882C32.6434 46.1095 32.6685 46.0451 32.7186 45.995C32.7758 45.9449 32.8402 45.9198 32.9118 45.9198H34.2966C34.3753 45.9198 34.4397 45.9449 34.4898 45.995C34.547 46.0451 34.5756 46.1095 34.5756 46.1882V51.7165H36.2288V46.1882C36.2288 46.1095 36.2538 46.0451 36.3039 45.995C36.3612 45.9449 36.4256 45.9198 36.4971 45.9198H37.8819C37.9606 45.9198 38.025 45.9449 38.0751 45.995C38.1324 46.0451 38.161 46.1095 38.161 46.1882V53.1657C38.161 53.2444 38.1324 53.3088 38.0751 53.3589C38.025 53.409 37.9606 53.434 37.8819 53.434H29.3264Z" fill="#FDFDFD"/>
<path d="M39.9247 53.434C39.846 53.434 39.7816 53.409 39.7315 53.3589C39.6814 53.3088 39.6564 53.2444 39.6564 53.1657V46.1882C39.6564 46.1095 39.6814 46.0451 39.7315 45.995C39.7816 45.9449 39.846 45.9198 39.9247 45.9198H45.0666C45.1453 45.9198 45.2097 45.9449 45.2598 45.995C45.3171 46.0451 45.3457 46.1095 45.3457 46.1882V47.2617C45.3457 47.3404 45.3171 47.4084 45.2598 47.4656C45.2097 47.5157 45.1453 47.5408 45.0666 47.5408H41.5779V48.8182H43.0807C43.9395 48.8182 44.6157 49.0221 45.1095 49.43C45.6033 49.838 45.8502 50.3926 45.8502 51.0939C45.8502 51.4231 45.7894 51.7308 45.6677 52.0171C45.5461 52.2962 45.3672 52.5431 45.131 52.7578C44.902 52.9653 44.6157 53.1299 44.2722 53.2515C43.9287 53.3732 43.5315 53.434 43.0807 53.434H39.9247ZM41.5779 52.0385H42.9089C43.1165 52.0385 43.2882 51.9956 43.4242 51.9097C43.5673 51.8167 43.6747 51.6986 43.7462 51.5555C43.8178 51.4052 43.8536 51.2478 43.8536 51.0832C43.8536 50.8327 43.7713 50.618 43.6067 50.4391C43.4492 50.2602 43.2167 50.1707 42.9089 50.1707H41.5779V52.0385Z" fill="#FDFDFD"/>
<path d="M49.5775 53.5414C49.0122 53.5414 48.4969 53.4627 48.0317 53.3052C47.5737 53.1406 47.2016 52.9045 46.9154 52.5967C46.6291 52.289 46.4609 51.9133 46.4108 51.4696C46.4037 51.4052 46.4216 51.3515 46.4645 51.3086C46.5146 51.2657 46.5719 51.2442 46.6363 51.2442H48.0317C48.1176 51.2442 48.182 51.2585 48.225 51.2871C48.2679 51.3158 48.3109 51.3658 48.3538 51.4374C48.4254 51.602 48.5542 51.738 48.7402 51.8453C48.9335 51.9527 49.1982 52.0063 49.5346 52.0063C49.9497 52.0063 50.2717 51.8811 50.5007 51.6306C50.7369 51.3802 50.8549 51.0259 50.8549 50.5679V50.3962H48.7724C48.6937 50.3962 48.6293 50.3675 48.5792 50.3103C48.5291 50.253 48.5041 50.185 48.5041 50.1063V49.2476C48.5041 49.1688 48.5291 49.1009 48.5792 49.0436C48.6293 48.9864 48.6937 48.9577 48.7724 48.9577H50.8549V48.8074C50.8549 48.3065 50.7404 47.9415 50.5114 47.7125C50.2824 47.4764 49.9568 47.3583 49.5346 47.3583C49.1982 47.3583 48.9335 47.4155 48.7402 47.53C48.5542 47.6445 48.4361 47.7805 48.386 47.9379C48.3431 48.0095 48.3037 48.0596 48.2679 48.0882C48.2321 48.1169 48.1713 48.1312 48.0854 48.1312H46.6792C46.6148 48.1312 46.5575 48.1097 46.5074 48.0668C46.4574 48.0167 46.4359 47.9594 46.443 47.895C46.5003 47.4298 46.672 47.0434 46.9583 46.7357C47.2446 46.4279 47.6131 46.1989 48.064 46.0487C48.5148 45.8912 49.0193 45.8125 49.5775 45.8125C50.2073 45.8125 50.7619 45.9234 51.2414 46.1453C51.728 46.36 52.1109 46.6927 52.39 47.1436C52.6762 47.5873 52.8301 48.1598 52.8516 48.8611C52.8587 49.083 52.8623 49.2762 52.8623 49.4408C52.8695 49.5982 52.8695 49.7592 52.8623 49.9238C52.8623 50.0813 52.8587 50.2709 52.8516 50.4928C52.8301 51.2012 52.6798 51.7809 52.4007 52.2318C52.1216 52.6826 51.7423 53.0154 51.2629 53.2301C50.7834 53.4376 50.2216 53.5414 49.5775 53.5414Z" fill="#FDFDFD"/>
<path d="M54.4017 53.434C54.323 53.434 54.2586 53.409 54.2085 53.3589C54.1584 53.3088 54.1333 53.2444 54.1333 53.1657V46.1882C54.1333 46.1095 54.1584 46.0451 54.2085 45.995C54.2586 45.9449 54.323 45.9198 54.4017 45.9198H55.7865C55.8652 45.9198 55.9296 45.9449 55.9797 45.995C56.0298 46.0451 56.0548 46.1095 56.0548 46.1882V48.7752H56.7096L58.2983 46.1238C58.3341 46.0666 58.3842 46.02 58.4486 45.9843C58.513 45.9413 58.5953 45.9198 58.6955 45.9198H60.2413C60.3129 45.9198 60.3701 45.9449 60.4131 45.995C60.456 46.0379 60.4775 46.088 60.4775 46.1453C60.4775 46.1882 60.4632 46.2311 60.4345 46.2741L58.4379 49.5374L60.6278 53.0691C60.6492 53.0977 60.66 53.137 60.66 53.1871C60.66 53.2587 60.6349 53.3195 60.5848 53.3696C60.5419 53.4126 60.4846 53.434 60.4131 53.434H58.8243C58.7098 53.434 58.624 53.409 58.5667 53.3589C58.5166 53.3088 58.4773 53.2659 58.4486 53.2301L56.7848 50.4928H56.0548V53.1657C56.0548 53.2444 56.0298 53.3088 55.9797 53.3589C55.9296 53.409 55.8652 53.434 55.7865 53.434H54.4017Z" fill="#FDFDFD"/>
<path d="M20.8858 39.6161C19.4013 39.6161 18.1357 39.4448 17.089 39.1022C16.0423 38.7407 15.1859 38.2839 14.5198 37.732C13.8537 37.161 13.3589 36.5616 13.0353 35.9335C12.7118 35.2865 12.5405 34.6679 12.5215 34.078C12.5215 33.9067 12.5786 33.7639 12.6928 33.6498C12.826 33.5356 12.9782 33.4785 13.1495 33.4785H16.8606C17.089 33.4785 17.2698 33.526 17.403 33.6212C17.5363 33.6973 17.66 33.8306 17.7742 34.0209C17.9264 34.3825 18.1453 34.6774 18.4307 34.9058C18.7352 35.1342 19.0968 35.296 19.5155 35.3911C19.9342 35.4673 20.391 35.5053 20.8858 35.5053C21.8564 35.5053 22.6081 35.2865 23.141 34.8487C23.6929 34.392 23.9689 33.7735 23.9689 32.9932C23.9689 32.1748 23.7119 31.5944 23.1981 31.2518C22.6843 30.8902 21.9515 30.7094 21 30.7094H17.8312C17.6219 30.7094 17.4506 30.6428 17.3174 30.5096C17.1842 30.3764 17.1176 30.2051 17.1176 29.9957V28.3971C17.1176 28.1687 17.1651 27.9689 17.2603 27.7976C17.3555 27.6263 17.4601 27.5026 17.5743 27.4265L22.256 23.4584H14.32C14.1296 23.4584 13.9584 23.3918 13.8061 23.2586C13.6729 23.1254 13.6063 22.9541 13.6063 22.7448V20.0613C13.6063 19.852 13.6729 19.6807 13.8061 19.5475C13.9584 19.4143 14.1296 19.3477 14.32 19.3477H27.4516C27.661 19.3477 27.8322 19.4143 27.9655 19.5475C28.1177 19.6807 28.1938 19.852 28.1938 20.0613V22.4878C28.1938 22.6972 28.1463 22.8875 28.0511 23.0588C27.9559 23.211 27.8513 23.3347 27.7371 23.4299L23.3979 27.455L23.5978 27.5121C24.6825 27.6453 25.6532 27.9403 26.5096 28.3971C27.366 28.8348 28.0416 29.4533 28.5364 30.2526C29.0312 31.052 29.2786 32.0701 29.2786 33.3072C29.2786 34.6013 28.9075 35.7242 28.1653 36.6757C27.4421 37.6083 26.4525 38.3315 25.1964 38.8453C23.9403 39.3592 22.5035 39.6161 20.8858 39.6161Z" fill="#FDFDFD"/>
<path d="M53.9614 39.8093C53.7371 39.8093 53.6249 39.7118 53.6249 39.5167C53.6249 39.4582 53.6444 39.4046 53.6834 39.3558L60.91 29.8472C60.9782 29.7594 61.0465 29.6911 61.1148 29.6424C61.1831 29.5936 61.2854 29.5692 61.422 29.5692H62.4606C62.6849 29.5692 62.7971 29.6668 62.7971 29.8618C62.7971 29.9203 62.7776 29.974 62.7386 30.0227L55.512 39.5313C55.4438 39.6191 55.3755 39.6874 55.3072 39.7361C55.239 39.7849 55.1366 39.8093 55 39.8093H53.9614ZM61.3196 39.8824C60.6564 39.8824 60.1249 39.7069 59.7251 39.3558C59.335 39.0047 59.1155 38.5366 59.0668 37.9514C59.057 37.6979 59.0521 37.4736 59.0521 37.2785C59.0521 37.0835 59.057 36.8494 59.0668 36.5764C59.1058 35.9815 59.3155 35.5085 59.6958 35.1574C60.0859 34.7965 60.6272 34.6161 61.3196 34.6161C62.0218 34.6161 62.563 34.7965 62.9434 35.1574C63.3237 35.5085 63.5334 35.9815 63.5724 36.5764C63.5919 36.8494 63.6016 37.0835 63.6016 37.2785C63.6016 37.4736 63.5919 37.6979 63.5724 37.9514C63.5334 38.5366 63.314 39.0047 62.9141 39.3558C62.5143 39.7069 61.9827 39.8824 61.3196 39.8824ZM61.3196 38.5951C61.4854 38.5951 61.6122 38.561 61.6999 38.4927C61.7975 38.4244 61.8706 38.3367 61.9194 38.2294C61.9681 38.1124 61.9925 37.9905 61.9925 37.8637C62.012 37.6394 62.0218 37.4346 62.0218 37.2493C62.0218 37.064 62.012 36.864 61.9925 36.6495C61.9827 36.4642 61.9291 36.2984 61.8316 36.1521C61.7341 35.9961 61.5634 35.9181 61.3196 35.9181C61.0758 35.9181 60.9051 35.9961 60.8076 36.1521C60.7101 36.2984 60.6564 36.4642 60.6467 36.6495C60.6369 36.864 60.632 37.064 60.632 37.2493C60.632 37.4346 60.6369 37.6394 60.6467 37.8637C60.6564 37.9905 60.6808 38.1124 60.7198 38.2294C60.7686 38.3367 60.8417 38.4244 60.9392 38.4927C61.0368 38.561 61.1635 38.5951 61.3196 38.5951ZM55.1317 34.7331C54.4588 34.7331 53.9224 34.5625 53.5225 34.2211C53.1324 33.8701 52.9179 33.4019 52.8789 32.8168C52.8594 32.5632 52.8496 32.3438 52.8496 32.1585C52.8594 31.9635 52.8691 31.7294 52.8789 31.4563C52.9081 30.8614 53.1129 30.3884 53.4933 30.0374C53.8834 29.6765 54.4295 29.4961 55.1317 29.4961C55.8338 29.4961 56.3751 29.6765 56.7555 30.0374C57.1358 30.3884 57.3406 30.8614 57.3699 31.4563C57.3894 31.7294 57.3991 31.9635 57.3991 32.1585C57.3991 32.3438 57.3894 32.5632 57.3699 32.8168C57.3406 33.4019 57.126 33.8701 56.7262 34.2211C56.3263 34.5625 55.7948 34.7331 55.1317 34.7331ZM55.1317 33.4751C55.2877 33.4751 55.4145 33.4409 55.512 33.3727C55.6095 33.2947 55.6827 33.202 55.7314 33.0947C55.7802 32.9777 55.8046 32.8607 55.8046 32.7436C55.8241 32.5193 55.8338 32.3145 55.8338 32.1292C55.8338 31.944 55.8241 31.744 55.8046 31.5295C55.7948 31.3442 55.7363 31.1784 55.629 31.0321C55.5315 30.8761 55.3657 30.798 55.1317 30.798C54.8879 30.798 54.7123 30.8761 54.605 31.0321C54.5075 31.1784 54.4539 31.3442 54.4441 31.5295C54.4344 31.744 54.4295 31.944 54.4295 32.1292C54.4295 32.3145 54.4344 32.5193 54.4441 32.7436C54.4539 32.8607 54.4783 32.9777 54.5173 33.0947C54.566 33.202 54.6392 33.2947 54.7367 33.3727C54.8342 33.4409 54.9659 33.4751 55.1317 33.4751Z" fill="#FDFDFD"/>
<g class="eye">
	<circle cx="40.7129" cy="28.959" r="10.8027" fill="#FDFDFD"/>
	<circle cx="40.7118" cy="28.9599" r="4.44817" fill="#1C1C1C"/>
	<circle cx="42.6166" cy="27.685" r="1.27091" fill="#FDFDFD"/>
</g>
<style>
.eye {
    transform-origin: 41px 29px;
    animation: blink forwards infinite 10s ease-in-out;
}

@keyframes blink {
    0%,
    100%,
    2%,
    60%,
    62% {
        transform: scaleX(1) scaleY(1);
    }
    1%,
    61% {
        transform: scaleX(1.3) scaleY(.1);
    }
}
</style>
</svg>
