<svg viewBox="0 0 192 45" fill="none" xmlns="http://www.w3.org/2000/svg">
<rect x="0.785156" width="191" height="44.5667" rx="4.77978" fill="#EE204D"/>
<path d="M16.1086 30.7734C15.9333 30.7734 15.7899 30.7177 15.6784 30.6061C15.5669 30.4946 15.5111 30.3512 15.5111 30.176V14.6417C15.5111 14.4664 15.5669 14.323 15.6784 14.2115C15.7899 14.1 15.9333 14.0442 16.1086 14.0442H19.1916C19.3668 14.0442 19.5102 14.1 19.6217 14.2115C19.7492 14.323 19.8129 14.4664 19.8129 14.6417V20.4013H21.2708L24.7839 14.4983C24.8636 14.3708 24.9751 14.2673 25.1185 14.1876C25.2619 14.092 25.4451 14.0442 25.6682 14.0442H29.1335C29.2769 14.0442 29.3964 14.1 29.492 14.2115C29.5876 14.3071 29.6354 14.4186 29.6354 14.5461C29.6354 14.6417 29.6035 14.7373 29.5398 14.8329L25.0946 22.0981L29.97 29.9609C30.0178 30.0246 30.0417 30.1122 30.0417 30.2238C30.0417 30.3831 29.9859 30.5185 29.8744 30.63C29.7788 30.7256 29.6513 30.7734 29.492 30.7734H25.9549C25.7 30.7734 25.5088 30.7177 25.3814 30.6061C25.2698 30.4787 25.1822 30.3831 25.1185 30.3194L21.4141 24.2251H19.8129V30.176C19.8129 30.3353 19.7492 30.4787 19.6217 30.6061C19.5102 30.7177 19.3668 30.7734 19.1916 30.7734H16.1086ZM38.6494 31.0124C37.3907 31.0124 36.2515 30.8372 35.2318 30.4867C34.2121 30.1202 33.3757 29.5944 32.7224 28.9093C32.0851 28.2242 31.7107 27.3878 31.5992 26.3999C31.5833 26.2565 31.6231 26.1371 31.7187 26.0415C31.8302 25.9459 31.9577 25.8981 32.1011 25.8981H35.2079C35.3991 25.8981 35.5425 25.9299 35.6381 25.9937C35.7337 26.0574 35.8293 26.1609 35.9249 26.3043C36.0842 26.6867 36.371 26.9974 36.7853 27.2364C37.2154 27.4754 37.8049 27.5949 38.5538 27.5949C39.4779 27.5949 40.1948 27.3161 40.7047 26.7584C41.2304 26.2008 41.4933 25.4121 41.4933 24.3924V24.01H36.8569C36.6817 24.01 36.5383 23.9463 36.4268 23.8189C36.3152 23.6914 36.2595 23.54 36.2595 23.3648V21.4529C36.2595 21.2776 36.3152 21.1262 36.4268 20.9988C36.5383 20.8713 36.6817 20.8076 36.8569 20.8076H41.4933V20.4491C41.4933 19.3498 41.2384 18.5452 40.7286 18.0353C40.2187 17.5095 39.4938 17.2467 38.5538 17.2467C37.8049 17.2467 37.2154 17.3741 36.7853 17.629C36.371 17.884 36.1081 18.1867 35.9966 18.5372C35.9169 18.6965 35.8293 18.8081 35.7337 18.8718C35.654 18.9355 35.5186 18.9674 35.3274 18.9674H32.1967C32.0533 18.9674 31.9258 18.9196 31.8143 18.824C31.7028 18.7125 31.655 18.585 31.6709 18.4416C31.7983 17.406 32.1807 16.5456 32.818 15.8605C33.4553 15.1754 34.2759 14.6656 35.2796 14.331C36.2834 13.9805 37.4066 13.8052 38.6494 13.8052C40.0514 13.8052 41.2862 14.0522 42.3537 14.5461C43.4371 15.0241 44.2895 15.7649 44.9109 16.7687C45.5482 17.7565 45.8987 19.0311 45.9624 20.5925C45.9784 21.0864 45.9863 21.5166 45.9863 21.883C45.9863 22.2336 45.9863 22.592 45.9863 22.9585C45.9863 23.309 45.9784 23.7312 45.9624 24.2251C45.8987 25.8025 45.5561 27.093 44.9348 28.0968C44.3293 29.1005 43.4849 29.8414 42.4015 30.3194C41.334 30.7814 40.0833 31.0124 38.6494 31.0124ZM49.3897 30.7734C49.2144 30.7734 49.071 30.7177 48.9595 30.6061C48.848 30.4787 48.7922 30.3353 48.7922 30.176V14.6417C48.7922 14.4664 48.848 14.323 48.9595 14.2115C49.071 14.1 49.2144 14.0442 49.3897 14.0442H52.4726C52.6479 14.0442 52.7913 14.1 52.9028 14.2115C53.0303 14.323 53.094 14.4664 53.094 14.6417V26.9496H56.7744V14.6417C56.7744 14.4664 56.8302 14.323 56.9417 14.2115C57.0692 14.1 57.2126 14.0442 57.3719 14.0442H60.4788C60.654 14.0442 60.7974 14.1 60.909 14.2115C61.0205 14.323 61.0762 14.4664 61.0762 14.6417V26.9496H64.7567V14.6417C64.7567 14.4664 64.8124 14.323 64.924 14.2115C65.0514 14.1 65.1948 14.0442 65.3541 14.0442H68.4371C68.6124 14.0442 68.7558 14.1 68.8673 14.2115C68.9947 14.323 69.0585 14.4664 69.0585 14.6417V30.176C69.0585 30.3353 68.9947 30.4787 68.8673 30.6061C68.7558 30.7177 68.6124 30.7734 68.4371 30.7734H49.3897ZM73.0085 30.7734C72.8333 30.7734 72.6899 30.7177 72.5783 30.6061C72.4668 30.4787 72.411 30.3353 72.411 30.176V14.6417C72.411 14.4664 72.4668 14.323 72.5783 14.2115C72.6899 14.1 72.8333 14.0442 73.0085 14.0442H84.48C84.6552 14.0442 84.7986 14.1 84.9102 14.2115C85.0217 14.323 85.0775 14.4664 85.0775 14.6417V17.0316C85.0775 17.2068 85.0217 17.3582 84.9102 17.4856C84.7986 17.5972 84.6552 17.6529 84.48 17.6529H76.7128V20.473H80.0348C81.9467 20.473 83.4523 20.9271 84.5517 21.8352C85.651 22.7434 86.2007 23.9861 86.2007 25.5635C86.2007 26.2964 86.0653 26.9815 85.7944 27.6188C85.5236 28.2402 85.1253 28.7898 84.5995 29.2678C84.0896 29.7299 83.4523 30.0963 82.6876 30.3672C81.9387 30.638 81.0545 30.7734 80.0348 30.7734H73.0085ZM76.7128 27.6666H79.6524C80.1145 27.6666 80.4968 27.571 80.7996 27.3798C81.1182 27.1727 81.3572 26.9098 81.5165 26.5911C81.6759 26.2565 81.7555 25.906 81.7555 25.5396C81.7555 24.9819 81.5723 24.504 81.2058 24.1056C80.8553 23.7073 80.3375 23.5082 79.6524 23.5082H76.7128V27.6666ZM94.499 31.0124C93.2404 31.0124 92.1012 30.8372 91.0815 30.4867C90.0618 30.1202 89.2254 29.5944 88.5721 28.9093C87.9348 28.2242 87.5604 27.3878 87.4489 26.3999C87.4329 26.2565 87.4728 26.1371 87.5684 26.0415C87.6799 25.9459 87.8074 25.8981 87.9507 25.8981H91.0576C91.2488 25.8981 91.3922 25.9299 91.4878 25.9937C91.5834 26.0574 91.679 26.1609 91.7746 26.3043C91.9339 26.6867 92.2207 26.9974 92.6349 27.2364C93.0651 27.4754 93.6546 27.5949 94.4034 27.5949C95.3275 27.5949 96.0445 27.3161 96.5544 26.7584C97.0801 26.2008 97.343 25.4121 97.343 24.3924V24.01H92.7066C92.5314 24.01 92.388 23.9463 92.2764 23.8189C92.1649 23.6914 92.1092 23.54 92.1092 23.3648V21.4529C92.1092 21.2776 92.1649 21.1262 92.2764 20.9988C92.388 20.8713 92.5314 20.8076 92.7066 20.8076H97.343V20.4491C97.343 19.3498 97.0881 18.5452 96.5782 18.0353C96.0684 17.5095 95.3435 17.2467 94.4034 17.2467C93.6546 17.2467 93.0651 17.3741 92.6349 17.629C92.2207 17.884 91.9578 18.1867 91.8463 18.5372C91.7666 18.6965 91.679 18.8081 91.5834 18.8718C91.5037 18.9355 91.3683 18.9674 91.1771 18.9674H88.0463C87.9029 18.9674 87.7755 18.9196 87.664 18.824C87.5524 18.7125 87.5046 18.585 87.5206 18.4416C87.648 17.406 88.0304 16.5456 88.6677 15.8605C89.305 15.1754 90.1255 14.6656 91.1293 14.331C92.1331 13.9805 93.2563 13.8052 94.499 13.8052C95.9011 13.8052 97.1359 14.0522 98.2034 14.5461C99.2868 15.0241 100.139 15.7649 100.761 16.7687C101.398 17.7565 101.748 19.0311 101.812 20.5925C101.828 21.0864 101.836 21.5166 101.836 21.883C101.836 22.2336 101.836 22.592 101.836 22.9585C101.836 23.309 101.828 23.7312 101.812 24.2251C101.748 25.8025 101.406 27.093 100.784 28.0968C100.179 29.1005 99.3346 29.8414 98.2512 30.3194C97.1837 30.7814 95.933 31.0124 94.499 31.0124ZM105.239 30.7734C105.064 30.7734 104.921 30.7177 104.809 30.6061C104.698 30.4946 104.642 30.3512 104.642 30.176V14.6417C104.642 14.4664 104.698 14.323 104.809 14.2115C104.921 14.1 105.064 14.0442 105.239 14.0442H108.322C108.498 14.0442 108.641 14.1 108.753 14.2115C108.88 14.323 108.944 14.4664 108.944 14.6417V20.4013H110.402L113.915 14.4983C113.994 14.3708 114.106 14.2673 114.249 14.1876C114.393 14.092 114.576 14.0442 114.799 14.0442H118.264C118.408 14.0442 118.527 14.1 118.623 14.2115C118.718 14.3071 118.766 14.4186 118.766 14.5461C118.766 14.6417 118.734 14.7373 118.671 14.8329L114.225 22.0981L119.101 29.9609C119.149 30.0246 119.172 30.1122 119.172 30.2238C119.172 30.3831 119.117 30.5185 119.005 30.63C118.91 30.7256 118.782 30.7734 118.623 30.7734H115.086C114.831 30.7734 114.64 30.7177 114.512 30.6061C114.401 30.4787 114.313 30.3831 114.249 30.3194L110.545 24.2251H108.944V30.176C108.944 30.3353 108.88 30.4787 108.753 30.6061C108.641 30.7177 108.498 30.7734 108.322 30.7734H105.239ZM132.581 31.0124C131.354 31.0124 130.295 30.869 129.403 30.5822C128.526 30.2795 127.809 29.8971 127.252 29.4351C126.694 28.9571 126.28 28.4552 126.009 27.9295C125.738 27.3878 125.595 26.8699 125.579 26.376C125.579 26.2326 125.627 26.1132 125.722 26.0176C125.834 25.922 125.961 25.8742 126.105 25.8742H129.235C129.411 25.8742 129.554 25.914 129.666 25.9937C129.777 26.0574 129.881 26.1689 129.976 26.3282C130.104 26.631 130.287 26.8779 130.526 27.0691C130.781 27.2603 131.084 27.3957 131.434 27.4754C131.785 27.5391 132.167 27.571 132.581 27.571C133.394 27.571 134.023 27.3878 134.469 27.0213C134.931 26.6389 135.162 26.1211 135.162 25.4679C135.162 24.7828 134.947 24.2968 134.517 24.01C134.087 23.7073 133.473 23.556 132.677 23.556H130.024C129.849 23.556 129.705 23.5002 129.594 23.3887C129.482 23.2771 129.427 23.1338 129.427 22.9585V21.6202C129.427 21.429 129.466 21.2617 129.546 21.1183C129.626 20.9749 129.713 20.8713 129.809 20.8076L133.728 17.4856H127.084C126.925 17.4856 126.782 17.4299 126.654 17.3184C126.543 17.2068 126.487 17.0634 126.487 16.8882V14.6417C126.487 14.4664 126.543 14.323 126.654 14.2115C126.782 14.1 126.925 14.0442 127.084 14.0442H138.078C138.253 14.0442 138.397 14.1 138.508 14.2115C138.636 14.323 138.699 14.4664 138.699 14.6417V16.6731C138.699 16.8483 138.659 17.0077 138.58 17.1511C138.5 17.2785 138.413 17.3821 138.317 17.4617L134.684 20.8315L134.852 20.8793C135.776 20.9908 136.588 21.2298 137.289 21.5963C138.006 21.9627 138.572 22.4885 138.986 23.1736C139.4 23.8428 139.607 24.6951 139.607 25.7308C139.607 26.8142 139.297 27.7542 138.675 28.5508C138.07 29.3315 137.241 29.937 136.19 30.3672C135.138 30.7973 133.935 31.0124 132.581 31.0124ZM163.596 30.7734C163.229 30.7734 163.046 30.6141 163.046 30.2955C163.046 30.1999 163.078 30.1122 163.142 30.0326L174.948 14.4983C175.059 14.3549 175.171 14.2434 175.282 14.1637C175.394 14.084 175.561 14.0442 175.784 14.0442H177.481C177.848 14.0442 178.031 14.2035 178.031 14.5222C178.031 14.6178 177.999 14.7054 177.935 14.7851L166.129 30.3194C166.018 30.4628 165.906 30.5743 165.795 30.6539C165.683 30.7336 165.516 30.7734 165.293 30.7734H163.596ZM175.617 30.8929C174.534 30.8929 173.665 30.6061 173.012 30.0326C172.375 29.459 172.016 28.6942 171.937 27.7383C171.921 27.324 171.913 26.9576 171.913 26.6389C171.913 26.3203 171.921 25.9379 171.937 25.4918C172 24.5199 172.343 23.7472 172.964 23.1736C173.601 22.5841 174.486 22.2893 175.617 22.2893C176.764 22.2893 177.648 22.5841 178.27 23.1736C178.891 23.7472 179.234 24.5199 179.297 25.4918C179.329 25.9379 179.345 26.3203 179.345 26.6389C179.345 26.9576 179.329 27.324 179.297 27.7383C179.234 28.6942 178.875 29.459 178.222 30.0326C177.569 30.6061 176.7 30.8929 175.617 30.8929ZM175.617 28.7898C175.888 28.7898 176.095 28.7341 176.238 28.6225C176.398 28.4951 176.517 28.3437 176.597 28.1685C176.676 27.9773 176.724 27.7861 176.74 27.5949C176.772 27.2284 176.788 26.8938 176.788 26.5911C176.788 26.2884 176.772 25.9618 176.74 25.6113C176.724 25.3086 176.629 25.0377 176.453 24.7987C176.294 24.5438 176.015 24.4163 175.617 24.4163C175.235 24.4163 174.956 24.5438 174.781 24.7987C174.621 25.0377 174.534 25.3086 174.518 25.6113C174.502 25.9618 174.494 26.2884 174.494 26.5911C174.494 26.8938 174.502 27.2284 174.518 27.5949C174.534 27.7861 174.573 27.9773 174.637 28.1685C174.717 28.3437 174.836 28.4951 174.996 28.6225C175.155 28.7341 175.362 28.7898 175.617 28.7898ZM165.508 22.4805C164.408 22.4805 163.532 22.2017 162.879 21.6441C162.242 21.0705 161.891 20.3057 161.827 19.3498C161.795 18.9355 161.78 18.5691 161.78 18.2504C161.795 17.9318 161.811 17.5494 161.827 17.1033C161.875 16.1473 162.21 15.3825 162.831 14.809C163.468 14.2195 164.361 13.9247 165.508 13.9247C166.655 13.9247 167.539 14.2195 168.161 14.809C168.782 15.3825 169.116 16.1473 169.164 17.1033C169.196 17.5494 169.212 17.9318 169.212 18.2504C169.212 18.5691 169.196 18.9355 169.164 19.3498C169.116 20.3057 168.766 21.0705 168.113 21.6441C167.459 22.2017 166.591 22.4805 165.508 22.4805ZM165.508 20.4013C165.763 20.4013 165.97 20.3455 166.129 20.234C166.288 20.1225 166.408 19.9791 166.488 19.8038C166.567 19.6126 166.607 19.4215 166.607 19.2303C166.639 18.8638 166.655 18.5292 166.655 18.2265C166.655 17.9238 166.639 17.5972 166.607 17.2467C166.591 16.9439 166.496 16.6731 166.32 16.4341C166.161 16.1792 165.89 16.0517 165.508 16.0517C165.109 16.0517 164.831 16.1792 164.671 16.4341C164.512 16.6731 164.416 16.9439 164.384 17.2467C164.369 17.5972 164.361 17.9238 164.361 18.2265C164.361 18.5292 164.369 18.8638 164.384 19.2303C164.416 19.4215 164.464 19.6126 164.528 19.8038C164.592 19.9791 164.703 20.1225 164.862 20.234C165.022 20.3455 165.237 20.4013 165.508 20.4013Z" fill="#FDFDFD"/>

<g class="eye">
    <circle cx="149.471" cy="22.0843" r="9.08433" fill="#FDFDFD"/>
	<circle cx="149.608" cy="21.9515" r="3.7953" fill="#1C1C1C"/>
	<circle cx="151.233" cy="20.8658" r="1.08457" fill="#FDFDFD"/>
</g>


<style>
    .eye {
        transform-origin: 150px 22px;
        animation: blink forwards infinite 10s ease-in-out;
    }

    @keyframes blink {
        0%,
        100%,
        2%,
        60%,
        62% {
            transform: scaleX(1) scaleY(1);
        }
        1%,
        61% {
            transform: scaleX(1.3) scaleY(.1);
        }
    }
    </style>
</svg>
