<svg viewBox="0 0 82 16" fill="none" xmlns="http://www.w3.org/2000/svg">
<path d="M0 2.58313C0 1.15651 1.15651 0 2.58313 0H79.4169C80.8435 0 82 1.15651 82 2.58313V12.8438C82 14.2698 80.844 15.4257 79.4181 15.4257H2.58192C1.15597 15.4257 0 14.2698 0 12.8438V2.58313Z" fill="#1C1C1C"/>
<path d="M4.94978 10.2305C4.88666 10.2305 4.83502 10.2104 4.79485 10.1702C4.75469 10.1243 4.73461 10.0727 4.73461 10.0153V4.42094C4.73461 4.35782 4.75469 4.30618 4.79485 4.26601C4.83502 4.22585 4.88666 4.20577 4.94978 4.20577H9.081C9.14411 4.20577 9.19576 4.22585 9.23592 4.26601C9.27608 4.30618 9.29617 4.35782 9.29617 4.42094V5.28161C9.29617 5.34472 9.27608 5.39923 9.23592 5.44513C9.19576 5.4853 9.14411 5.50538 9.081 5.50538H6.28382V6.52097H7.48015C8.16869 6.52097 8.71091 6.6845 9.10682 7.01156C9.50273 7.33861 9.70068 7.78616 9.70068 8.3542C9.70068 8.61814 9.65191 8.86487 9.55437 9.09438C9.45683 9.31816 9.31338 9.51611 9.12403 9.68825C8.94042 9.85464 8.71091 9.98661 8.43549 10.0842C8.16582 10.1817 7.84737 10.2305 7.48015 10.2305H4.94978ZM6.28382 9.1116H7.34244C7.50884 9.1116 7.64655 9.07717 7.75556 9.00832C7.87032 8.93372 7.95639 8.83905 8.01377 8.72429C8.07114 8.6038 8.09983 8.47757 8.09983 8.3456C8.09983 8.14477 8.03385 7.97264 7.90188 7.8292C7.77565 7.68575 7.58917 7.61403 7.34244 7.61403H6.28382V9.1116ZM10.5117 11.8657C10.4485 11.8657 10.3969 11.8428 10.3567 11.7969C10.3166 11.7567 10.2965 11.708 10.2965 11.6506V5.97014C10.2965 5.90703 10.3166 5.85539 10.3567 5.81522C10.3969 5.77506 10.4485 5.75498 10.5117 5.75498H11.4842C11.5416 5.75498 11.5904 5.77506 11.6305 5.81522C11.6764 5.85539 11.6994 5.90703 11.6994 5.97014V6.27999C11.8371 6.10785 12.015 5.96441 12.233 5.84965C12.451 5.72916 12.7179 5.66891 13.0334 5.66891C13.3203 5.66891 13.5728 5.71481 13.7908 5.80662C14.0089 5.89268 14.1953 6.02178 14.3503 6.19392C14.5109 6.36605 14.6343 6.57548 14.7203 6.82221C14.8064 7.06894 14.8552 7.35296 14.8667 7.67427C14.8724 7.78903 14.8753 7.89518 14.8753 7.99272C14.8753 8.09027 14.8724 8.19641 14.8667 8.31117C14.8552 8.62101 14.8064 8.8993 14.7203 9.14602C14.6343 9.39275 14.5138 9.60218 14.3589 9.77431C14.2039 9.94645 14.0146 10.0813 13.7908 10.1788C13.5728 10.2706 13.3203 10.3165 13.0334 10.3165C12.7523 10.3165 12.5056 10.2678 12.2933 10.1702C12.0867 10.0669 11.9146 9.9235 11.7769 9.73989V11.6506C11.7769 11.708 11.7568 11.7567 11.7166 11.7969C11.6764 11.8428 11.6248 11.8657 11.5617 11.8657H10.5117ZM12.5687 9.16324C12.7638 9.16324 12.9158 9.12307 13.0248 9.04274C13.1338 8.96241 13.2113 8.85339 13.2572 8.71569C13.3088 8.57798 13.3404 8.42593 13.3519 8.25953C13.3634 8.08166 13.3634 7.90379 13.3519 7.72591C13.3404 7.55952 13.3088 7.40747 13.2572 7.26976C13.2113 7.13205 13.1338 7.02303 13.0248 6.9427C12.9158 6.86237 12.7638 6.82221 12.5687 6.82221C12.3851 6.82221 12.2359 6.86524 12.1211 6.95131C12.0064 7.03164 11.9232 7.13779 11.8715 7.26976C11.8199 7.40173 11.7883 7.54517 11.7769 7.70009C11.7711 7.80911 11.7682 7.91526 11.7682 8.01854C11.7682 8.12182 11.7711 8.23084 11.7769 8.3456C11.7826 8.48904 11.8141 8.62388 11.8715 8.75011C11.9289 8.87061 12.015 8.97102 12.1297 9.05135C12.2445 9.12594 12.3908 9.16324 12.5687 9.16324ZM17.8434 10.3165C17.3614 10.3165 16.954 10.2391 16.6212 10.0842C16.2942 9.92923 16.0417 9.70833 15.8638 9.42144C15.6917 9.12881 15.5942 8.78167 15.5712 8.38002C15.5655 8.26527 15.5626 8.13617 15.5626 7.99272C15.5626 7.84354 15.5655 7.71444 15.5712 7.60542C15.5942 7.19804 15.6974 6.8509 15.881 6.56401C16.0647 6.27712 16.32 6.05621 16.647 5.90129C16.9798 5.74637 17.3786 5.66891 17.8434 5.66891C18.3139 5.66891 18.7127 5.74637 19.0397 5.90129C19.3725 6.05621 19.6307 6.27712 19.8143 6.56401C19.9979 6.8509 20.1012 7.19804 20.1242 7.60542C20.1299 7.71444 20.1328 7.84354 20.1328 7.99272C20.1328 8.13617 20.1299 8.26527 20.1242 8.38002C20.1012 8.78167 20.0008 9.12881 19.8229 9.42144C19.6508 9.70833 19.3983 9.92923 19.0655 10.0842C18.7385 10.2391 18.3311 10.3165 17.8434 10.3165ZM17.8434 9.26652C18.1016 9.26652 18.2881 9.18906 18.4028 9.03414C18.5233 8.87921 18.5922 8.64683 18.6094 8.33699C18.6151 8.25092 18.618 8.13617 18.618 7.99272C18.618 7.84928 18.6151 7.73452 18.6094 7.64845C18.5922 7.34435 18.5233 7.11484 18.4028 6.95992C18.2881 6.79926 18.1016 6.71893 17.8434 6.71893C17.5966 6.71893 17.4102 6.79926 17.2839 6.95992C17.1634 7.11484 17.0975 7.34435 17.086 7.64845C17.0802 7.73452 17.0774 7.84928 17.0774 7.99272C17.0774 8.13617 17.0802 8.25092 17.086 8.33699C17.0975 8.64683 17.1634 8.87921 17.2839 9.03414C17.4102 9.18906 17.5966 9.26652 17.8434 9.26652ZM21.2028 10.2305C21.1397 10.2305 21.0881 10.2104 21.0479 10.1702C21.0077 10.1243 20.9876 10.0727 20.9876 10.0153V5.97014C20.9876 5.90703 21.0077 5.85539 21.0479 5.81522C21.0881 5.77506 21.1397 5.75498 21.2028 5.75498H22.2184C22.2815 5.75498 22.3332 5.77506 22.3733 5.81522C22.4135 5.85539 22.4336 5.90703 22.4336 5.97014V7.39886H23.9828V5.97014C23.9828 5.90703 24.0029 5.85539 24.043 5.81522C24.0832 5.77506 24.1348 5.75498 24.198 5.75498H25.2135C25.2767 5.75498 25.3283 5.77506 25.3685 5.81522C25.4086 5.85539 25.4287 5.90703 25.4287 5.97014V10.0153C25.4287 10.0727 25.4086 10.1243 25.3685 10.1702C25.3283 10.2104 25.2767 10.2305 25.2135 10.2305H24.198C24.1348 10.2305 24.0832 10.2104 24.043 10.1702C24.0029 10.1243 23.9828 10.0727 23.9828 10.0153V8.52634H22.4336V10.0153C22.4336 10.0727 22.4135 10.1243 22.3733 10.1702C22.3332 10.2104 22.2815 10.2305 22.2184 10.2305H21.2028ZM26.6827 10.2305C26.6253 10.2305 26.5765 10.2104 26.5364 10.1702C26.4962 10.1243 26.4761 10.0755 26.4761 10.0239V5.97014C26.4761 5.90703 26.4962 5.85539 26.5364 5.81522C26.5765 5.77506 26.6282 5.75498 26.6913 5.75498H27.7069C27.77 5.75498 27.8216 5.77506 27.8618 5.81522C27.902 5.85539 27.922 5.90703 27.922 5.97014V9.1116L27.5347 8.92225L29.6606 5.89268C29.6893 5.85252 29.7237 5.82096 29.7639 5.79801C29.804 5.76932 29.8499 5.75498 29.9016 5.75498H30.8225C30.8799 5.75498 30.9287 5.77506 30.9688 5.81522C31.009 5.85539 31.0291 5.90416 31.0291 5.96154V10.0153C31.0291 10.0727 31.009 10.1243 30.9688 10.1702C30.9287 10.2104 30.877 10.2305 30.8139 10.2305H29.7983C29.7352 10.2305 29.6835 10.2104 29.6434 10.1702C29.6032 10.1243 29.5831 10.0727 29.5831 10.0153V6.96852L29.979 7.04598L27.836 10.0928C27.813 10.1329 27.7815 10.1674 27.7413 10.196C27.7011 10.219 27.6524 10.2305 27.595 10.2305H26.6827ZM32.1797 11.8657C32.1166 11.8657 32.065 11.8428 32.0248 11.7969C31.9847 11.7567 31.9646 11.708 31.9646 11.6506V5.97014C31.9646 5.90703 31.9847 5.85539 32.0248 5.81522C32.065 5.77506 32.1166 5.75498 32.1797 5.75498H33.1523C33.2097 5.75498 33.2585 5.77506 33.2986 5.81522C33.3445 5.85539 33.3675 5.90703 33.3675 5.97014V6.27999C33.5052 6.10785 33.683 5.96441 33.9011 5.84965C34.1191 5.72916 34.3859 5.66891 34.7015 5.66891C34.9884 5.66891 35.2409 5.71481 35.4589 5.80662C35.6769 5.89268 35.8634 6.02178 36.0183 6.19392C36.179 6.36605 36.3024 6.57548 36.3884 6.82221C36.4745 7.06894 36.5233 7.35296 36.5347 7.67427C36.5405 7.78903 36.5433 7.89518 36.5433 7.99272C36.5433 8.09027 36.5405 8.19641 36.5347 8.31117C36.5233 8.62101 36.4745 8.8993 36.3884 9.14602C36.3024 9.39275 36.1819 9.60218 36.0269 9.77431C35.872 9.94645 35.6827 10.0813 35.4589 10.1788C35.2409 10.2706 34.9884 10.3165 34.7015 10.3165C34.4204 10.3165 34.1736 10.2678 33.9613 10.1702C33.7548 10.0669 33.5826 9.9235 33.4449 9.73989V11.6506C33.4449 11.708 33.4248 11.7567 33.3847 11.7969C33.3445 11.8428 33.2929 11.8657 33.2298 11.8657H32.1797ZM34.2367 9.16324C34.4318 9.16324 34.5839 9.12307 34.6929 9.04274C34.8019 8.96241 34.8794 8.85339 34.9253 8.71569C34.9769 8.57798 35.0085 8.42593 35.02 8.25953C35.0314 8.08166 35.0314 7.90379 35.02 7.72591C35.0085 7.55952 34.9769 7.40747 34.9253 7.26976C34.8794 7.13205 34.8019 7.02303 34.6929 6.9427C34.5839 6.86237 34.4318 6.82221 34.2367 6.82221C34.0531 6.82221 33.904 6.86524 33.7892 6.95131C33.6744 7.03164 33.5912 7.13779 33.5396 7.26976C33.488 7.40173 33.4564 7.54517 33.4449 7.70009C33.4392 7.80911 33.4363 7.91526 33.4363 8.01854C33.4363 8.12182 33.4392 8.23084 33.4449 8.3456C33.4507 8.48904 33.4822 8.62388 33.5396 8.75011C33.597 8.87061 33.683 8.97102 33.7978 9.05135C33.9126 9.12594 34.0589 9.16324 34.2367 9.16324ZM37.8245 11.8744C37.7614 11.8744 37.7098 11.8514 37.6696 11.8055C37.6294 11.7653 37.6094 11.7137 37.6094 11.6506V10.962C37.6094 10.8989 37.6294 10.8444 37.6696 10.7985C37.7098 10.7583 37.7614 10.7383 37.8245 10.7383H38.1258C38.229 10.7383 38.3151 10.7182 38.384 10.678C38.4528 10.6436 38.5131 10.5805 38.5647 10.4887C38.6221 10.4026 38.6823 10.2821 38.7455 10.1272L40.4668 5.93572C40.484 5.88408 40.5127 5.84104 40.5529 5.80662C40.593 5.77219 40.6504 5.75498 40.725 5.75498H41.6459C41.6976 5.75498 41.7406 5.77506 41.775 5.81522C41.8152 5.84965 41.8353 5.88982 41.8353 5.93572C41.8353 5.94719 41.8324 5.96154 41.8267 5.97875C41.8267 5.99596 41.8209 6.01892 41.8094 6.0476L40.1742 9.98948C40.0594 10.2706 39.9389 10.526 39.8127 10.7555C39.6865 10.985 39.5516 11.1829 39.4082 11.3493C39.2647 11.5157 39.0983 11.6448 38.909 11.7366C38.7196 11.8284 38.4987 11.8744 38.2463 11.8744H37.8245ZM38.8401 10.1358L37.0757 6.0476C37.0585 6.00744 37.0499 5.97301 37.0499 5.94432C37.0614 5.89268 37.0844 5.84965 37.1188 5.81522C37.1532 5.77506 37.1991 5.75498 37.2565 5.75498H38.2204C38.295 5.75498 38.3495 5.77506 38.384 5.81522C38.4241 5.84965 38.4528 5.88982 38.47 5.93572L39.7008 9.08578L38.8401 10.1358ZM42.7026 10.2305C42.6452 10.2305 42.5964 10.2104 42.5563 10.1702C42.5161 10.1243 42.496 10.0755 42.496 10.0239V5.97014C42.496 5.90703 42.5161 5.85539 42.5563 5.81522C42.5964 5.77506 42.6481 5.75498 42.7112 5.75498H43.7268C43.7899 5.75498 43.8415 5.77506 43.8817 5.81522C43.9219 5.85539 43.942 5.90703 43.942 5.97014V9.1116L43.5547 8.92225L45.6805 5.89268C45.7092 5.85252 45.7436 5.82096 45.7838 5.79801C45.824 5.76932 45.8699 5.75498 45.9215 5.75498H46.8424C46.8998 5.75498 46.9486 5.77506 46.9887 5.81522C47.0289 5.85539 47.049 5.90416 47.049 5.96154V10.0153C47.049 10.0727 47.0289 10.1243 46.9887 10.1702C46.9486 10.2104 46.8969 10.2305 46.8338 10.2305H45.8182C45.7551 10.2305 45.7035 10.2104 45.6633 10.1702C45.6231 10.1243 45.6031 10.0727 45.6031 10.0153V6.96852L45.999 7.04598L43.8559 10.0928C43.8329 10.1329 43.8014 10.1674 43.7612 10.196C43.7211 10.219 43.6723 10.2305 43.6149 10.2305H42.7026ZM44.8457 5.16972C44.4842 5.16972 44.1916 5.11521 43.9678 5.00619C43.744 4.89144 43.5805 4.74225 43.4772 4.55864C43.3797 4.3693 43.3309 4.16273 43.3309 3.93896C43.3309 3.89306 43.3424 3.85576 43.3653 3.82707C43.394 3.79265 43.437 3.77543 43.4944 3.77543H44.1829C44.2346 3.77543 44.2748 3.79265 44.3034 3.82707C44.3321 3.85576 44.3465 3.89306 44.3465 3.93896C44.3465 4.05945 44.378 4.1656 44.4411 4.25741C44.51 4.34921 44.642 4.39512 44.8371 4.39512C45.0379 4.39512 45.1699 4.34921 45.233 4.25741C45.3018 4.1656 45.3362 4.05945 45.3362 3.93896C45.3362 3.89306 45.3506 3.85576 45.3793 3.82707C45.408 3.79265 45.4481 3.77543 45.4998 3.77543H46.1883C46.24 3.77543 46.2801 3.79265 46.3088 3.82707C46.3375 3.85576 46.3518 3.89306 46.3518 3.93896C46.3518 4.16273 46.3002 4.3693 46.1969 4.55864C46.0994 4.74225 45.9387 4.89144 45.7149 5.00619C45.4912 5.11521 45.2014 5.16972 44.8457 5.16972ZM49.6619 10.2305C49.6045 10.2305 49.5586 10.2161 49.5242 10.1874C49.4897 10.153 49.4725 10.11 49.4725 10.0583C49.4725 10.0182 49.484 9.98087 49.5069 9.94645L50.8926 7.91526L49.7049 6.0476C49.6992 6.03039 49.6906 6.01031 49.6791 5.98736C49.6676 5.96441 49.6619 5.94432 49.6619 5.92711C49.6619 5.87547 49.6791 5.83531 49.7135 5.80662C49.7537 5.77219 49.7996 5.75498 49.8512 5.75498H50.9529C51.0217 5.75498 51.0734 5.77219 51.1078 5.80662C51.148 5.83531 51.1766 5.864 51.1939 5.89268L52.132 7.39886H52.5279V5.97014C52.5279 5.90703 52.548 5.85539 52.5881 5.81522C52.634 5.77506 52.6886 5.75498 52.7517 5.75498H53.7414C53.8046 5.75498 53.8562 5.77506 53.8964 5.81522C53.9365 5.85539 53.9566 5.90703 53.9566 5.97014V7.39886H54.3525L55.2907 5.89268C55.3079 5.864 55.3366 5.83531 55.3767 5.80662C55.4169 5.77219 55.4685 5.75498 55.5316 5.75498H56.6333C56.6849 5.75498 56.728 5.77219 56.7624 5.80662C56.8026 5.83531 56.8226 5.87547 56.8226 5.92711C56.8226 5.94432 56.8169 5.96441 56.8054 5.98736C56.7997 6.01031 56.7911 6.03039 56.7796 6.0476L55.5919 7.91526L56.9776 9.94645C57.0005 9.98087 57.012 10.0182 57.012 10.0583C57.012 10.11 56.9948 10.153 56.9604 10.1874C56.9259 10.2161 56.88 10.2305 56.8226 10.2305H55.6091C55.5345 10.2305 55.4771 10.2133 55.437 10.1788C55.4025 10.1444 55.3767 10.1157 55.3595 10.0928L54.3353 8.52634H53.9566V10.0153C53.9566 10.0727 53.9365 10.1243 53.8964 10.1702C53.8562 10.2104 53.8046 10.2305 53.7414 10.2305H52.7517C52.6886 10.2305 52.634 10.2104 52.5881 10.1702C52.548 10.1243 52.5279 10.0727 52.5279 10.0153V8.52634H52.1492L51.125 10.0928C51.1135 10.1157 51.0877 10.1444 51.0475 10.1788C51.0074 10.2133 50.95 10.2305 50.8754 10.2305H49.6619ZM57.8904 10.2305C57.833 10.2305 57.7843 10.2104 57.7441 10.1702C57.7039 10.1243 57.6839 10.0755 57.6839 10.0239V5.97014C57.6839 5.90703 57.7039 5.85539 57.7441 5.81522C57.7843 5.77506 57.8359 5.75498 57.899 5.75498H58.9146C58.9777 5.75498 59.0294 5.77506 59.0695 5.81522C59.1097 5.85539 59.1298 5.90703 59.1298 5.97014V9.1116L58.7425 8.92225L60.8683 5.89268C60.897 5.85252 60.9315 5.82096 60.9716 5.79801C61.0118 5.76932 61.0577 5.75498 61.1093 5.75498H62.0303C62.0876 5.75498 62.1364 5.77506 62.1766 5.81522C62.2167 5.85539 62.2368 5.90416 62.2368 5.96154V10.0153C62.2368 10.0727 62.2167 10.1243 62.1766 10.1702C62.1364 10.2104 62.0848 10.2305 62.0216 10.2305H61.0061C60.9429 10.2305 60.8913 10.2104 60.8511 10.1702C60.811 10.1243 60.7909 10.0727 60.7909 10.0153V6.96852L61.1868 7.04598L59.0437 10.0928C59.0208 10.1329 58.9892 10.1674 58.949 10.196C58.9089 10.219 58.8601 10.2305 58.8027 10.2305H57.8904ZM63.1035 10.2305C63.0404 10.2305 62.9858 10.2104 62.9399 10.1702C62.8998 10.1243 62.8797 10.0698 62.8797 10.0067V9.25791C62.8797 9.13168 62.9485 9.05996 63.0863 9.04274C63.2526 9.02553 63.3789 8.94807 63.4649 8.81036C63.551 8.67265 63.6113 8.46896 63.6457 8.19928C63.6801 7.92961 63.6973 7.59108 63.6973 7.18369V5.97014C63.6973 5.90703 63.7174 5.85539 63.7576 5.81522C63.8035 5.77506 63.8551 5.75498 63.9125 5.75498H67.2863C67.3494 5.75498 67.4011 5.77506 67.4413 5.81522C67.4872 5.85539 67.5101 5.90703 67.5101 5.97014V10.0153C67.5101 10.0727 67.4872 10.1243 67.4413 10.1702C67.4011 10.2104 67.3494 10.2305 67.2863 10.2305H66.2707C66.2134 10.2305 66.1617 10.2104 66.1158 10.1702C66.0757 10.1243 66.0556 10.0727 66.0556 10.0153V6.88246H65.0744V7.33861C65.0744 7.88944 65.0457 8.35134 64.9883 8.72429C64.931 9.09725 64.8277 9.39275 64.6785 9.61079C64.5293 9.82882 64.3256 9.98661 64.0674 10.0842C63.815 10.1817 63.4936 10.2305 63.1035 10.2305ZM68.7667 10.2305C68.7036 10.2305 68.6519 10.2104 68.6118 10.1702C68.5716 10.1243 68.5515 10.0727 68.5515 10.0153V5.97014C68.5515 5.90703 68.5716 5.85539 68.6118 5.81522C68.6519 5.77506 68.7036 5.75498 68.7667 5.75498H69.7909C69.8483 5.75498 69.897 5.77506 69.9372 5.81522C69.9831 5.85539 70.0061 5.90703 70.0061 5.97014V7.13205H70.8237C71.3975 7.13205 71.8422 7.27263 72.1577 7.55378C72.479 7.8292 72.6397 8.21076 72.6397 8.69847C72.6397 9.19766 72.4733 9.57923 72.1405 9.84317C71.8135 10.1014 71.3573 10.2305 70.772 10.2305H68.7667ZM69.9802 9.2407H70.6946C70.9184 9.2407 71.0819 9.19766 71.1852 9.1116C71.2885 9.02553 71.3401 8.88782 71.3401 8.69847C71.3401 8.50339 71.2885 8.35707 71.1852 8.25953C71.0819 8.16199 70.9184 8.11322 70.6946 8.11322H69.9802V9.2407ZM75.4248 10.3165C74.7477 10.3165 74.2084 10.1329 73.8067 9.76571C73.4051 9.39849 73.1956 8.85339 73.1784 8.13043C73.1784 8.09027 73.1784 8.03863 73.1784 7.97551C73.1784 7.91239 73.1784 7.86362 73.1784 7.8292C73.1956 7.37591 73.2961 6.98861 73.4797 6.66729C73.669 6.34023 73.9272 6.09351 74.2543 5.92711C74.5871 5.75498 74.9744 5.66891 75.4162 5.66891C75.9211 5.66891 76.3371 5.76932 76.6642 5.97014C76.9969 6.17097 77.2465 6.44351 77.4129 6.78778C77.5793 7.13205 77.6625 7.52509 77.6625 7.9669V8.17346C77.6625 8.23658 77.6425 8.28822 77.6023 8.32838C77.5621 8.36855 77.5105 8.38863 77.4474 8.38863H74.6932C74.6932 8.39437 74.6932 8.40298 74.6932 8.41445C74.6932 8.42593 74.6932 8.4374 74.6932 8.44888C74.699 8.61528 74.7276 8.76733 74.7793 8.90503C74.8367 9.04274 74.917 9.15176 75.0203 9.23209C75.1293 9.31242 75.2613 9.35258 75.4162 9.35258C75.5309 9.35258 75.6256 9.33537 75.7002 9.30094C75.7805 9.26078 75.8465 9.21775 75.8982 9.17184C75.9498 9.1202 75.99 9.07717 76.0187 9.04274C76.0703 8.97963 76.1105 8.94233 76.1391 8.93085C76.1736 8.91364 76.2252 8.90503 76.2941 8.90503H77.3613C77.4187 8.90503 77.4646 8.92225 77.499 8.95667C77.5392 8.9911 77.5564 9.037 77.5506 9.09438C77.5449 9.19193 77.4961 9.30955 77.4043 9.44726C77.3125 9.58497 77.1777 9.72267 76.9998 9.86038C76.8277 9.99235 76.6096 10.1014 76.3457 10.1874C76.0818 10.2735 75.7748 10.3165 75.4248 10.3165ZM74.6932 7.53657H76.1478V7.51935C76.1478 7.33001 76.1191 7.16935 76.0617 7.03738C76.01 6.89967 75.9268 6.79352 75.8121 6.71893C75.7031 6.64434 75.5711 6.60704 75.4162 6.60704C75.267 6.60704 75.1379 6.64434 75.0289 6.71893C74.9199 6.79352 74.8367 6.89967 74.7793 7.03738C74.7219 7.16935 74.6932 7.33001 74.6932 7.51935V7.53657ZM75.924 5.00619C75.8666 5.00619 75.8178 4.98898 75.7777 4.95455C75.7432 4.92013 75.726 4.87135 75.726 4.80824V4.02503C75.726 3.96765 75.7432 3.92175 75.7777 3.88732C75.8178 3.84715 75.8666 3.82707 75.924 3.82707H76.7158C76.7732 3.82707 76.8191 3.84715 76.8535 3.88732C76.8937 3.92175 76.9137 3.96765 76.9137 4.02503V4.80824C76.9137 4.87135 76.8937 4.92013 76.8535 4.95455C76.8191 4.98898 76.7732 5.00619 76.7158 5.00619H75.924ZM74.1424 5.00619C74.085 5.00619 74.0391 4.98898 74.0047 4.95455C73.9703 4.92013 73.953 4.87135 73.953 4.80824V4.02503C73.953 3.96765 73.9703 3.92175 74.0047 3.88732C74.0391 3.84715 74.085 3.82707 74.1424 3.82707H74.9342C74.9916 3.82707 75.0375 3.84715 75.0719 3.88732C75.1121 3.92175 75.1322 3.96765 75.1322 4.02503V4.80824C75.1322 4.87135 75.1121 4.92013 75.0719 4.95455C75.0375 4.98898 74.9916 5.00619 74.9342 5.00619H74.1424Z" fill="#FDFDFD"/>
</svg>
