<svg viewBox="0 0 211 51" fill="none" xmlns="http://www.w3.org/2000/svg">
<path d="M172.156 21.2094C172.156 19.4819 170.771 18.0859 169.067 18.0859C167.351 18.0859 165.967 19.4819 165.979 21.2094C165.979 22.9369 167.364 24.3329 169.067 24.3329C170.771 24.3329 172.156 22.9369 172.156 21.2094Z" fill="#EE204D"/>
<path fill-rule="evenodd" clip-rule="evenodd" d="M13.0161 9.22056C12.9929 9.10589 12.9664 8.99453 12.9386 8.88575C12.6065 7.6575 11.5392 8.2355 11.3125 7.38964C10.9831 6.1607 14.4506 5.94327 15.3209 5.72187C17.5793 5.15113 20.6943 3.79356 23.9483 2.8947C27.217 2.04555 30.5917 1.6644 32.8342 1.02935C33.6972 0.786082 36.8101 -0.759753 37.1395 0.469225C37.3656 1.31506 36.1532 1.3482 36.4793 2.5785C36.946 4.26354 38.2558 6.35492 38.9115 8.73065C39.6724 11.477 39.7871 14.507 40.2677 16.2404C40.4222 16.7953 40.7377 17.0677 41.0041 17.2891C41.7771 17.7822 41.8381 18.7991 40.9007 19.0503C40.4029 19.1836 39.7075 19.4016 38.9115 19.3924C38.4958 19.3877 38.3314 19.2028 38.2863 18.88C38.1074 17.6265 37.888 15.9003 37.5048 14.5202C37.1595 13.2694 36.4031 11.2344 35.7124 10.1154C35.3319 9.49895 34.8321 8.75318 35.2185 8.25804C35.8801 7.41151 35.6601 6.0838 34.9845 5.29299C34.2375 4.416 32.9489 4.4445 31.5867 4.80975C30.9509 4.98011 30.2642 5.24459 29.7134 5.45606C29.4177 5.57007 29.1691 5.66618 29.0982 5.68607C28.1323 5.95918 26.7854 6.20643 25.3139 6.47556C23.7521 6.76192 22.0504 7.07412 20.2382 7.54481L20.2256 7.54746C18.4199 8.04659 16.7905 8.62724 15.2951 9.16024C14.8066 9.33457 14.3326 9.50359 13.8812 9.66003C13.8812 9.66003 13.1686 9.94571 13.0161 9.22056ZM25.7772 28.2411C22.5662 28.9445 19.2598 29.2706 16.9795 29.8519C15.3819 30.2517 14.788 31.2566 13.9806 31.4734C13.0433 31.7246 12.6608 30.9404 13.0831 30.1271C13.2024 29.8015 13.3409 29.4085 13.1971 28.8504C12.7828 27.3019 11.3331 25.8515 10.2725 21.7609C9.21252 17.6709 10.0484 16.6236 9.64671 15.1248C9.3146 13.8958 8.2487 14.4738 8.02199 13.628C7.69254 12.3984 11.1601 12.1816 12.0284 11.9609C14.9623 11.2171 17.7372 9.94306 20.6571 9.13306C23.591 8.3747 26.6316 8.09033 29.5436 7.26767C30.4067 7.02375 33.5176 5.47859 33.847 6.70757C34.0737 7.55343 32.862 7.58657 33.1888 8.81682C33.5905 10.3156 34.8381 10.8042 35.9643 14.8768C37.0918 18.9496 36.5615 20.9303 36.9765 22.4788C37.131 23.0336 37.4478 23.3054 37.7136 23.5268C38.4865 24.0206 38.5468 24.891 37.6102 25.1415C36.8021 25.3583 35.7853 24.7849 34.2024 25.237C31.936 25.8734 28.9099 27.2449 25.7772 28.2411ZM31.2141 11.6599C33.7489 15.6551 32.4139 21.0065 31.5535 23.2106C31.5336 23.2623 31.4939 23.3988 31.708 23.306C34.9037 22.1745 34.8864 14.7304 31.346 11.5684C31.346 11.5684 31.0344 11.3762 31.2141 11.6599Z" fill="#EE204D"/>
<path fill-rule="evenodd" clip-rule="evenodd" d="M147.834 15.6486C147.834 10.8712 151.706 7 156.483 7C161.247 7 165.13 10.8845 165.13 15.6486C165.13 20.4253 161.259 24.2965 156.483 24.2965C151.706 24.2965 147.834 20.4253 147.834 15.6486ZM156.483 19.6477C158.69 19.6477 160.482 17.8559 160.482 15.6486C160.482 13.4286 158.703 11.6488 156.483 11.6488C154.275 11.6488 152.483 13.4406 152.483 15.6486C152.483 17.8553 154.275 19.6477 156.483 19.6477Z" fill="#1C1C1C"/>
<path fill-rule="evenodd" clip-rule="evenodd" d="M178.233 23.8535C178.623 23.7792 178.901 23.4929 178.901 23.0872L178.904 21.379C178.921 20.9753 179.25 20.6511 179.66 20.6511C182.83 20.6511 185.095 19.5727 186.332 17.8996C187.65 16.1171 187.848 13.6161 187.151 11.5253C186.538 9.68981 185.159 8.14398 183.115 7.56929C182.031 7.26564 180.646 7.1397 179.261 7.1788C177.86 7.21791 176.461 7.42611 175.371 7.78803C175.044 7.90138 174.757 8.04919 174.553 8.26395C174.35 8.47673 174.227 8.7591 174.227 9.14296L174.226 10.4002C174.224 14.1725 174.221 17.9449 174.224 21.7177C174.242 22.2971 174.289 22.7512 174.478 23.1012C174.909 23.896 176.021 23.9928 176.827 23.9881C177.33 23.9861 177.841 23.9351 178.233 23.8535ZM179.711 16.3066C179.353 16.3066 178.905 16.0117 178.904 15.6232V12.2837C178.904 11.9668 179.32 11.6817 179.605 11.6453C179.782 11.5922 180.115 11.579 180.465 11.5903C181.483 11.6234 182.278 11.7997 182.844 12.7861C183.284 13.5524 183.262 14.5102 182.743 15.2335C182.171 16.0302 181.363 16.2562 180.46 16.2954C180.209 16.306 179.962 16.3066 179.711 16.3066Z" fill="#1C1C1C"/>
<path d="M84.5315 11.7393C84.8218 11.7393 85.0419 11.9787 85.0419 12.2611C85.0439 15.4164 85.0419 21.721 85.0419 21.721C85.0598 22.3003 85.1088 22.7571 85.2984 23.1071C85.7293 23.9019 86.8402 23.998 87.6469 23.994C88.15 23.9914 88.661 23.941 89.0541 23.8594C89.4432 23.7845 89.7209 23.4988 89.7209 23.0925L89.7163 12.2558C89.7163 11.9648 89.9337 11.746 90.2234 11.7393H92.5798C93.3745 11.7393 93.8657 11.4477 94.1507 10.9777C94.4384 10.5051 94.5206 9.8495 94.4974 9.12898C94.4331 8.50849 94.2787 7.30469 93.4514 7.30469H82.0988C81.67 7.32126 81.3458 7.41744 81.1032 7.58912C80.453 8.05046 80.3589 9.28939 80.4013 9.9708C80.4444 10.6695 80.6366 11.7393 81.5308 11.7393H84.5315Z" fill="#1C1C1C"/>
<path d="M127.786 23.8516C128.175 23.7774 128.454 23.491 128.454 23.0853C128.454 21.8526 128.454 20.6197 128.454 19.3869C128.454 16.116 128.455 12.8451 128.452 9.57523C128.434 8.9959 128.387 8.54178 128.197 8.19114C127.767 7.39704 126.655 7.3002 125.849 7.30484C125.346 7.30749 124.835 7.35787 124.442 7.4388C124.053 7.5137 123.774 7.80005 123.774 8.20572C123.775 9.55601 123.775 10.9063 123.775 12.2566C123.775 13.4544 122.656 14.1086 121.548 14.1206C120.423 14.1338 119.246 13.4856 119.246 12.2566C119.246 11.8984 119.247 11.5407 119.247 11.183C119.247 10.6476 119.247 10.1121 119.247 9.57523C119.229 8.9959 119.181 8.54178 118.992 8.19114C118.561 7.39704 117.45 7.3002 116.643 7.30484C116.14 7.30749 115.629 7.35787 115.237 7.4388C114.847 7.5137 114.568 7.80005 114.568 8.20572C114.569 9.88412 114.569 11.5612 114.569 13.2403C114.569 15.0022 115.41 16.507 116.837 17.5344C117.999 18.3716 119.473 18.8297 120.932 18.8297C121.658 18.8297 122.38 18.7037 123.081 18.5221C123.187 18.4956 123.285 18.485 123.378 18.5029C123.631 18.5513 123.757 18.7634 123.775 19.0013C123.775 19.9062 123.775 20.811 123.776 21.7158C123.793 22.2952 123.842 22.7493 124.031 23.0993C124.461 23.8941 125.572 23.9909 126.38 23.9862C126.883 23.9842 127.394 23.9332 127.786 23.8516Z" fill="#1C1C1C"/>
<path d="M131.767 7.4388C131.378 7.5137 131.1 7.80005 131.1 8.20572C131.1 12.7093 131.102 17.2122 131.106 21.7158C131.123 22.2952 131.171 22.7493 131.36 23.0993C131.79 23.8941 132.902 23.9909 133.709 23.9862C134.211 23.9842 134.723 23.9332 135.115 23.8516C135.505 23.7774 135.783 23.491 135.783 23.0853C135.783 21.625 135.783 20.166 135.78 18.7064C135.792 18.2961 136.125 17.9686 136.536 17.9686H140.257C140.64 17.9686 140.964 18.257 141.008 18.6374C141.009 19.0948 141.009 19.5521 141.011 20.0093C141.012 20.5785 141.013 21.1475 141.014 21.7158C141.032 22.2952 141.08 22.7493 141.27 23.0993C141.699 23.8941 142.811 23.9909 143.618 23.9862C144.12 23.9842 144.632 23.9332 145.024 23.8516C145.413 23.7774 145.692 23.491 145.692 23.0853C145.692 21.2315 145.692 19.3776 145.692 17.5238C145.692 14.8742 145.692 12.2246 145.689 9.57523C145.672 8.9959 145.623 8.54178 145.434 8.19114C145.004 7.39704 143.892 7.3002 143.085 7.30484C142.583 7.30749 142.071 7.35787 141.679 7.4388C141.29 7.5137 141.011 7.80005 141.011 8.20572C141.011 9.63098 141.012 11.0562 141.013 12.4815V12.533C141.014 12.9519 140.676 13.2913 140.257 13.2913H136.538C136.121 13.2913 135.78 12.9539 135.78 12.535L135.778 9.57523C135.76 8.9959 135.713 8.54178 135.523 8.19114C135.092 7.39704 133.98 7.3002 133.174 7.30484C132.671 7.30749 132.16 7.35787 131.767 7.4388Z" fill="#1C1C1C"/>
<path fill-rule="evenodd" clip-rule="evenodd" d="M97.8902 9.53288C99.4551 7.96783 101.617 7 104.006 7C106.388 7 108.55 7.97114 110.116 9.53752C111.683 11.1039 112.654 13.2662 112.654 15.6486C112.654 18.037 111.686 20.1992 110.122 21.7636C108.557 23.3287 106.395 24.2965 104.006 24.2965C101.617 24.2965 99.4551 23.3287 97.8902 21.7636C96.3252 20.1992 95.3574 18.0363 95.3574 15.6486C95.3574 13.2602 96.3252 11.0973 97.8902 9.53288ZM106.835 18.4751C107.557 17.7525 108.005 16.7543 108.005 15.6486C108.005 14.5369 107.56 13.538 106.839 12.8161C106.116 12.0929 105.114 11.6481 104.006 11.6481C102.9 11.6481 101.901 12.0969 101.179 12.8194C100.453 13.5446 100.006 14.5462 100.006 15.6486C100.006 16.7523 100.454 17.7525 101.178 18.4758C101.902 19.1996 102.902 19.6477 104.006 19.6477C105.107 19.6477 106.11 19.2003 106.835 18.4751Z" fill="#1C1C1C"/>
<path d="M60.4942 23.6764C59.4249 24.1 58.202 24.2757 57.2388 24.2942L57.0413 24.2962C54.6012 24.2962 52.3885 23.4106 50.7738 21.9105C49.1597 20.4104 48.1435 18.2952 48.0957 15.8359L48.0938 15.6529C48.0938 13.5907 48.8235 11.6677 50.0592 10.161C51.2935 8.65624 53.0328 7.56585 55.0546 7.16675C55.7089 7.0375 56.4838 6.98646 57.2594 7.00303C58.07 7.0196 58.8821 7.11107 59.5648 7.26286C60.0779 7.3776 60.5737 7.56386 61.0033 7.81177C61.4918 8.09348 61.8955 8.4554 62.1461 8.88366C62.396 9.30987 62.4941 9.80369 62.3714 10.3513C62.3144 10.6071 62.2084 10.8762 62.048 11.1546C61.5416 11.8819 61.1863 12.2345 60.819 12.3485C60.4538 12.4618 60.0693 12.3412 59.5032 12.1225C58.8257 11.8567 58.1072 11.6564 57.3846 11.5948C56.6608 11.5331 55.9323 11.6094 55.2369 11.8964C54.4779 12.21 53.8522 12.7376 53.416 13.3899C52.9785 14.0448 52.7312 14.8257 52.7312 15.645C52.7312 16.7905 53.1555 17.745 53.8548 18.4397C54.5899 19.1701 55.6307 19.6137 56.8007 19.6899C57.3356 19.7244 58.0223 19.6236 58.6879 19.4387C59.3666 19.2503 60.0262 18.9746 60.4856 18.667C60.7308 18.5033 60.9767 18.4052 61.2552 18.439C61.5363 18.4742 61.8538 18.6419 62.2442 19.0104C62.683 19.4804 62.929 20.0167 62.9727 20.5682C63.0171 21.1171 62.862 21.6811 62.5014 22.2134C62.0513 22.8757 61.3182 23.3503 60.4942 23.6764Z" fill="#1C1C1C"/>
<path d="M194.977 12.2148C195.203 12.6701 195.675 12.7073 195.92 12.2817C195.947 12.2293 198.126 7.97962 198.126 7.97962C198.258 7.71381 198.406 7.53087 198.57 7.40817C198.734 7.28621 198.915 7.22324 199.115 7.19673C199.967 7.08272 200.734 7.15629 201.316 7.4095C202.528 7.93653 202.776 9.32593 202.142 10.4249L195.864 22.5921C195.334 23.6129 193.992 23.9736 192.924 23.9736C191.938 23.9736 190.984 23.5963 190.84 22.5112C190.8 22.2057 190.893 22.0254 191.104 21.6188V21.6183L192.603 18.6977C192.755 18.4306 192.747 18.0163 192.572 17.761L188.204 9.28417C187.987 8.86319 187.978 8.57287 188.102 8.33225C188.593 7.39028 190.353 7.06151 191.225 7.23119C191.954 7.37371 192.623 7.77612 193.029 8.44162L194.977 12.2148Z" fill="#1C1C1C"/>
<path d="M73.991 8.41288C73.4886 9.38402 72.1356 11.9998 71.9779 12.3212H72.0196L71.9911 12.3703C71.9096 12.5121 71.8135 12.6056 71.7141 12.6547C71.6504 12.6865 71.5841 12.7004 71.5198 12.6977C71.4555 12.6951 71.3925 12.6765 71.3329 12.6421C71.2381 12.5877 71.1532 12.4929 71.0896 12.3656L69.1872 8.67073C69.1606 8.61969 69.1328 8.57064 69.1036 8.52358C68.6973 7.85742 68.0364 7.45898 67.3066 7.31713C66.5767 7.17528 65.776 7.28929 65.0925 7.64729C65.0296 7.6811 64.9666 7.71623 64.9063 7.75335C64.5762 7.97938 64.3104 8.17625 64.1838 8.41819C64.0592 8.65814 64.0698 8.94913 64.2859 9.3701L68.6575 17.8609C68.7424 17.9855 68.7888 18.1479 68.7934 18.3137C68.7987 18.4787 68.7629 18.6471 68.6847 18.7836L67.1859 21.7036C66.9751 22.1112 66.8823 22.2915 66.9227 22.5972C66.9877 23.0883 67.2204 23.4377 67.5512 23.6717C67.937 23.9434 68.4573 24.0595 69.0055 24.0595C69.6008 24.0595 70.2716 23.9481 70.8424 23.6796C71.309 23.4595 71.7094 23.1341 71.9461 22.6774C72.3769 21.8521 73.8372 19.0209 75.2429 16.2892C76.7641 13.3354 78.2164 10.5116 78.2164 10.507L78.2197 10.4937C78.4888 9.87453 78.575 9.34028 78.516 8.89345C78.4716 8.56401 78.3457 8.28164 78.1554 8.04832C77.9652 7.81433 77.7073 7.63006 77.3991 7.4955C76.8158 7.24223 76.0489 7.16865 75.1958 7.28266C74.997 7.30918 74.8147 7.37215 74.6516 7.49411C74.4872 7.6168 74.3394 7.79975 74.2078 8.06555C74.2075 8.06648 74.1899 8.09452 74.1581 8.14536L74.1579 8.14556C74.1204 8.20555 74.0631 8.29715 73.991 8.41288Z" fill="#1C1C1C"/>
<path d="M31.0017 45.1992C30.9184 45.1992 30.8517 45.1742 30.8017 45.1242C30.7517 45.0742 30.7267 45.0076 30.7267 44.9242V36.7367C30.7267 36.6451 30.7517 36.5742 30.8017 36.5242C30.8517 36.4742 30.9184 36.4492 31.0017 36.4492H36.2017C36.2934 36.4492 36.3642 36.4742 36.4142 36.5242C36.4642 36.5742 36.4892 36.6451 36.4892 36.7367V36.9242C36.4892 37.0076 36.4642 37.0742 36.4142 37.1242C36.3642 37.1742 36.2934 37.1992 36.2017 37.1992H31.5142V40.1617H34.3017C35.1434 40.1617 35.7892 40.3909 36.2392 40.8492C36.6976 41.2992 36.9267 41.8992 36.9267 42.6492C36.9267 42.9242 36.8726 43.2117 36.7642 43.5117C36.6642 43.8117 36.5059 44.0909 36.2892 44.3492C36.0809 44.5992 35.8101 44.8034 35.4767 44.9617C35.1517 45.1201 34.7601 45.1992 34.3017 45.1992H31.0017ZM31.5142 44.4492H34.1767C34.5934 44.4492 34.9476 44.3659 35.2392 44.1992C35.5309 44.0326 35.7517 43.8117 35.9017 43.5367C36.0601 43.2534 36.1392 42.9451 36.1392 42.6117C36.1392 42.1034 35.9767 41.6951 35.6517 41.3867C35.3351 41.0701 34.8434 40.9117 34.1767 40.9117H31.5142V44.4492ZM40.9372 45.3242C40.3372 45.3242 39.833 45.1992 39.4247 44.9492C39.0247 44.6992 38.7163 44.3576 38.4997 43.9242C38.2913 43.4909 38.1788 43.0076 38.1622 42.4742C38.1538 42.3492 38.1497 42.1742 38.1497 41.9492C38.1497 41.7242 38.1538 41.5492 38.1622 41.4242C38.1788 40.8826 38.2913 40.3992 38.4997 39.9742C38.7163 39.5409 39.0247 39.1992 39.4247 38.9492C39.833 38.6992 40.3372 38.5742 40.9372 38.5742C41.5372 38.5742 42.0372 38.6992 42.4372 38.9492C42.8455 39.1992 43.1538 39.5409 43.3622 39.9742C43.5788 40.3992 43.6955 40.8826 43.7122 41.4242C43.7205 41.5492 43.7247 41.7242 43.7247 41.9492C43.7247 42.1742 43.7205 42.3492 43.7122 42.4742C43.6955 43.0076 43.5788 43.4909 43.3622 43.9242C43.1538 44.3576 42.8455 44.6992 42.4372 44.9492C42.0372 45.1992 41.5372 45.3242 40.9372 45.3242ZM40.9372 44.5992C41.5205 44.5992 41.9955 44.4117 42.3622 44.0367C42.7288 43.6617 42.9247 43.1201 42.9497 42.4117C42.958 42.2867 42.9622 42.1326 42.9622 41.9492C42.9622 41.7659 42.958 41.6117 42.9497 41.4867C42.9247 40.7701 42.7288 40.2284 42.3622 39.8617C41.9955 39.4867 41.5205 39.2992 40.9372 39.2992C40.3538 39.2992 39.8788 39.4867 39.5122 39.8617C39.1455 40.2284 38.9497 40.7701 38.9247 41.4867C38.9163 41.6117 38.9122 41.7659 38.9122 41.9492C38.9122 42.1326 38.9163 42.2867 38.9247 42.4117C38.9497 43.1201 39.1455 43.6617 39.5122 44.0367C39.8788 44.4117 40.3538 44.5992 40.9372 44.5992ZM45.0199 45.1992C44.9366 45.1992 44.8657 45.1742 44.8074 45.1242C44.7574 45.0659 44.7324 44.9951 44.7324 44.9117V44.7117C44.7324 44.5367 44.8157 44.4492 44.9824 44.4492C45.2491 44.4492 45.4782 44.3242 45.6699 44.0742C45.8699 43.8242 46.0241 43.4117 46.1324 42.8367C46.2407 42.2534 46.2949 41.4784 46.2949 40.5117V38.9742C46.2949 38.8909 46.3199 38.8242 46.3699 38.7742C46.4199 38.7242 46.4866 38.6992 46.5699 38.6992H50.1449C50.2282 38.6992 50.2949 38.7242 50.3449 38.7742C50.3949 38.8242 50.4199 38.8909 50.4199 38.9742V44.9242C50.4199 45.0076 50.3949 45.0742 50.3449 45.1242C50.2949 45.1742 50.2282 45.1992 50.1449 45.1992H49.9324C49.8491 45.1992 49.7824 45.1742 49.7324 45.1242C49.6824 45.0742 49.6574 45.0076 49.6574 44.9242V39.4242H47.0574V40.5992C47.0574 41.4076 47.0116 42.1034 46.9199 42.6867C46.8282 43.2701 46.6907 43.7492 46.5074 44.1242C46.3324 44.4909 46.1199 44.7617 45.8699 44.9367C45.6199 45.1117 45.3366 45.1992 45.0199 45.1992ZM54.8517 45.3242C54.0434 45.3242 53.4017 45.0617 52.9267 44.5367C52.4517 44.0034 52.1809 43.3076 52.1142 42.4492C52.1059 42.3242 52.1017 42.1576 52.1017 41.9492C52.1017 41.7409 52.1059 41.5742 52.1142 41.4492C52.1559 40.8826 52.2892 40.3826 52.5142 39.9492C52.7392 39.5159 53.0476 39.1784 53.4392 38.9367C53.8392 38.6951 54.3101 38.5742 54.8517 38.5742C55.4351 38.5742 55.9309 38.7034 56.3392 38.9617C56.7476 39.2201 57.0601 39.5909 57.2767 40.0742C57.5017 40.5576 57.6142 41.1326 57.6142 41.7992V41.9867C57.6142 42.0701 57.5851 42.1367 57.5267 42.1867C57.4767 42.2367 57.4101 42.2617 57.3267 42.2617H52.8767C52.8767 42.2617 52.8767 42.2784 52.8767 42.3117C52.8767 42.3451 52.8767 42.3701 52.8767 42.3867C52.8934 42.7617 52.9809 43.1201 53.1392 43.4617C53.2976 43.7951 53.5226 44.0701 53.8142 44.2867C54.1059 44.4951 54.4517 44.5992 54.8517 44.5992C55.2101 44.5992 55.5059 44.5451 55.7392 44.4367C55.9809 44.3284 56.1726 44.2117 56.3142 44.0867C56.4559 43.9534 56.5476 43.8534 56.5892 43.7867C56.6642 43.6784 56.7226 43.6159 56.7642 43.5992C56.8059 43.5742 56.8726 43.5617 56.9642 43.5617H57.1642C57.2392 43.5617 57.3017 43.5867 57.3517 43.6367C57.4101 43.6784 57.4351 43.7367 57.4267 43.8117C57.4184 43.9284 57.3517 44.0742 57.2267 44.2492C57.1101 44.4159 56.9392 44.5826 56.7142 44.7492C56.4976 44.9159 56.2309 45.0534 55.9142 45.1617C55.5976 45.2701 55.2434 45.3242 54.8517 45.3242ZM52.8767 41.5617H56.8517V41.5117C56.8517 41.0951 56.7726 40.7201 56.6142 40.3867C56.4559 40.0534 56.2267 39.7909 55.9267 39.5992C55.6267 39.3992 55.2684 39.2992 54.8517 39.2992C54.4351 39.2992 54.0767 39.3992 53.7767 39.5992C53.4851 39.7909 53.2601 40.0534 53.1017 40.3867C52.9517 40.7201 52.8767 41.0951 52.8767 41.5117V41.5617ZM61.6755 45.3242C60.8671 45.3242 60.2255 45.0617 59.7505 44.5367C59.2755 44.0034 59.0046 43.3076 58.938 42.4492C58.9296 42.3242 58.9255 42.1576 58.9255 41.9492C58.9255 41.7409 58.9296 41.5742 58.938 41.4492C58.9796 40.8826 59.113 40.3826 59.338 39.9492C59.563 39.5159 59.8713 39.1784 60.263 38.9367C60.663 38.6951 61.1338 38.5742 61.6755 38.5742C62.2588 38.5742 62.7546 38.7034 63.163 38.9617C63.5713 39.2201 63.8838 39.5909 64.1005 40.0742C64.3255 40.5576 64.438 41.1326 64.438 41.7992V41.9867C64.438 42.0701 64.4088 42.1367 64.3505 42.1867C64.3005 42.2367 64.2338 42.2617 64.1505 42.2617H59.7005C59.7005 42.2617 59.7005 42.2784 59.7005 42.3117C59.7005 42.3451 59.7005 42.3701 59.7005 42.3867C59.7171 42.7617 59.8046 43.1201 59.963 43.4617C60.1213 43.7951 60.3463 44.0701 60.638 44.2867C60.9296 44.4951 61.2755 44.5992 61.6755 44.5992C62.0338 44.5992 62.3296 44.5451 62.563 44.4367C62.8046 44.3284 62.9963 44.2117 63.138 44.0867C63.2796 43.9534 63.3713 43.8534 63.413 43.7867C63.488 43.6784 63.5463 43.6159 63.588 43.5992C63.6296 43.5742 63.6963 43.5617 63.788 43.5617H63.988C64.063 43.5617 64.1255 43.5867 64.1755 43.6367C64.2338 43.6784 64.2588 43.7367 64.2505 43.8117C64.2421 43.9284 64.1755 44.0742 64.0505 44.2492C63.9338 44.4159 63.763 44.5826 63.538 44.7492C63.3213 44.9159 63.0546 45.0534 62.738 45.1617C62.4213 45.2701 62.0671 45.3242 61.6755 45.3242ZM59.7005 41.5617H63.6755V41.5117C63.6755 41.0951 63.5963 40.7201 63.438 40.3867C63.2796 40.0534 63.0505 39.7909 62.7505 39.5992C62.4505 39.3992 62.0921 39.2992 61.6755 39.2992C61.2588 39.2992 60.9005 39.3992 60.6005 39.5992C60.3088 39.7909 60.0838 40.0534 59.9255 40.3867C59.7755 40.7201 59.7005 41.0951 59.7005 41.5117V41.5617ZM71.7468 45.1992C71.6635 45.1992 71.5968 45.1742 71.5468 45.1242C71.4968 45.0742 71.4718 45.0076 71.4718 44.9242V37.4742L69.2343 39.1992C69.1677 39.2492 69.0968 39.2701 69.0218 39.2617C68.9552 39.2534 68.8968 39.2159 68.8468 39.1492L68.7093 38.9742C68.6593 38.9076 68.6385 38.8409 68.6468 38.7742C68.6552 38.6992 68.6927 38.6367 68.7593 38.5867L71.4218 36.5367C71.4802 36.4951 71.5343 36.4701 71.5843 36.4617C71.6343 36.4534 71.6885 36.4492 71.7468 36.4492H71.9843C72.0677 36.4492 72.1343 36.4742 72.1843 36.5242C72.2343 36.5742 72.2593 36.6409 72.2593 36.7242V44.9242C72.2593 45.0076 72.2343 45.0742 72.1843 45.1242C72.1343 45.1742 72.0677 45.1992 71.9843 45.1992H71.7468ZM77.1273 45.3242C76.5606 45.3242 76.0856 45.2326 75.7023 45.0492C75.3273 44.8659 75.0231 44.6159 74.7898 44.2992C74.5648 43.9742 74.4023 43.6034 74.3023 43.1867C74.2023 42.7701 74.144 42.3326 74.1273 41.8742C74.1273 41.6492 74.1231 41.4201 74.1148 41.1867C74.1148 40.9534 74.1148 40.7201 74.1148 40.4867C74.1231 40.2451 74.1273 40.0076 74.1273 39.7742C74.1356 39.3159 74.1898 38.8784 74.2898 38.4617C74.3981 38.0451 74.5648 37.6784 74.7898 37.3617C75.0231 37.0367 75.3273 36.7826 75.7023 36.5992C76.0856 36.4159 76.5606 36.3242 77.1273 36.3242C77.694 36.3242 78.1648 36.4159 78.5398 36.5992C78.9231 36.7826 79.2273 37.0367 79.4523 37.3617C79.6856 37.6784 79.8523 38.0451 79.9523 38.4617C80.0606 38.8784 80.119 39.3159 80.1273 39.7742C80.1356 40.0076 80.1398 40.2451 80.1398 40.4867C80.1398 40.7201 80.1398 40.9534 80.1398 41.1867C80.1398 41.4201 80.1356 41.6492 80.1273 41.8742C80.119 42.3326 80.0606 42.7701 79.9523 43.1867C79.8523 43.6034 79.6856 43.9742 79.4523 44.2992C79.2273 44.6159 78.9231 44.8659 78.5398 45.0492C78.1648 45.2326 77.694 45.3242 77.1273 45.3242ZM77.1273 44.5742C77.869 44.5742 78.419 44.3284 78.7773 43.8367C79.1356 43.3451 79.3231 42.6701 79.3398 41.8117C79.3481 41.5701 79.3523 41.3451 79.3523 41.1367C79.3523 40.9201 79.3523 40.7076 79.3523 40.4992C79.3523 40.2826 79.3481 40.0617 79.3398 39.8367C79.3231 38.9951 79.1356 38.3242 78.7773 37.8242C78.419 37.3242 77.869 37.0742 77.1273 37.0742C76.394 37.0742 75.844 37.3242 75.4773 37.8242C75.119 38.3242 74.9315 38.9951 74.9148 39.8367C74.9148 40.0617 74.9106 40.2826 74.9023 40.4992C74.9023 40.7076 74.9023 40.9201 74.9023 41.1367C74.9106 41.3451 74.9148 41.5701 74.9148 41.8117C74.9315 42.6701 75.119 43.3451 75.4773 43.8367C75.844 44.3284 76.394 44.5742 77.1273 44.5742ZM84.8299 45.3242C84.2633 45.3242 83.7883 45.2326 83.4049 45.0492C83.0299 44.8659 82.7258 44.6159 82.4924 44.2992C82.2674 43.9742 82.1049 43.6034 82.0049 43.1867C81.9049 42.7701 81.8466 42.3326 81.8299 41.8742C81.8299 41.6492 81.8258 41.4201 81.8174 41.1867C81.8174 40.9534 81.8174 40.7201 81.8174 40.4867C81.8258 40.2451 81.8299 40.0076 81.8299 39.7742C81.8383 39.3159 81.8924 38.8784 81.9924 38.4617C82.1008 38.0451 82.2674 37.6784 82.4924 37.3617C82.7258 37.0367 83.0299 36.7826 83.4049 36.5992C83.7883 36.4159 84.2633 36.3242 84.8299 36.3242C85.3966 36.3242 85.8674 36.4159 86.2424 36.5992C86.6258 36.7826 86.9299 37.0367 87.1549 37.3617C87.3883 37.6784 87.5549 38.0451 87.6549 38.4617C87.7633 38.8784 87.8216 39.3159 87.8299 39.7742C87.8383 40.0076 87.8424 40.2451 87.8424 40.4867C87.8424 40.7201 87.8424 40.9534 87.8424 41.1867C87.8424 41.4201 87.8383 41.6492 87.8299 41.8742C87.8216 42.3326 87.7633 42.7701 87.6549 43.1867C87.5549 43.6034 87.3883 43.9742 87.1549 44.2992C86.9299 44.6159 86.6258 44.8659 86.2424 45.0492C85.8674 45.2326 85.3966 45.3242 84.8299 45.3242ZM84.8299 44.5742C85.5716 44.5742 86.1216 44.3284 86.4799 43.8367C86.8383 43.3451 87.0258 42.6701 87.0424 41.8117C87.0508 41.5701 87.0549 41.3451 87.0549 41.1367C87.0549 40.9201 87.0549 40.7076 87.0549 40.4992C87.0549 40.2826 87.0508 40.0617 87.0424 39.8367C87.0258 38.9951 86.8383 38.3242 86.4799 37.8242C86.1216 37.3242 85.5716 37.0742 84.8299 37.0742C84.0966 37.0742 83.5466 37.3242 83.1799 37.8242C82.8216 38.3242 82.6341 38.9951 82.6174 39.8367C82.6174 40.0617 82.6133 40.2826 82.6049 40.4992C82.6049 40.7076 82.6049 40.9201 82.6049 41.1367C82.6133 41.3451 82.6174 41.5701 82.6174 41.8117C82.6341 42.6701 82.8216 43.3451 83.1799 43.8367C83.5466 44.3284 84.0966 44.5742 84.8299 44.5742ZM95.7552 45.3242C95.1886 45.3242 94.7136 45.2326 94.3302 45.0492C93.9552 44.8659 93.6511 44.6159 93.4177 44.2992C93.1927 43.9742 93.0302 43.6034 92.9302 43.1867C92.8302 42.7701 92.7719 42.3326 92.7552 41.8742C92.7552 41.6492 92.7511 41.4201 92.7427 41.1867C92.7427 40.9534 92.7427 40.7201 92.7427 40.4867C92.7511 40.2451 92.7552 40.0076 92.7552 39.7742C92.7636 39.3159 92.8177 38.8784 92.9177 38.4617C93.0261 38.0451 93.1927 37.6784 93.4177 37.3617C93.6511 37.0367 93.9552 36.7826 94.3302 36.5992C94.7136 36.4159 95.1886 36.3242 95.7552 36.3242C96.3219 36.3242 96.7927 36.4159 97.1677 36.5992C97.5511 36.7826 97.8552 37.0367 98.0802 37.3617C98.3136 37.6784 98.4802 38.0451 98.5802 38.4617C98.6886 38.8784 98.7469 39.3159 98.7552 39.7742C98.7636 40.0076 98.7677 40.2451 98.7677 40.4867C98.7677 40.7201 98.7677 40.9534 98.7677 41.1867C98.7677 41.4201 98.7636 41.6492 98.7552 41.8742C98.7469 42.3326 98.6886 42.7701 98.5802 43.1867C98.4802 43.6034 98.3136 43.9742 98.0802 44.2992C97.8552 44.6159 97.5511 44.8659 97.1677 45.0492C96.7927 45.2326 96.3219 45.3242 95.7552 45.3242ZM95.7552 44.5742C96.4969 44.5742 97.0469 44.3284 97.4052 43.8367C97.7636 43.3451 97.9511 42.6701 97.9677 41.8117C97.9761 41.5701 97.9802 41.3451 97.9802 41.1367C97.9802 40.9201 97.9802 40.7076 97.9802 40.4992C97.9802 40.2826 97.9761 40.0617 97.9677 39.8367C97.9511 38.9951 97.7636 38.3242 97.4052 37.8242C97.0469 37.3242 96.4969 37.0742 95.7552 37.0742C95.0219 37.0742 94.4719 37.3242 94.1052 37.8242C93.7469 38.3242 93.5594 38.9951 93.5427 39.8367C93.5427 40.0617 93.5386 40.2826 93.5302 40.4992C93.5302 40.7076 93.5302 40.9201 93.5302 41.1367C93.5386 41.3451 93.5427 41.5701 93.5427 41.8117C93.5594 42.6701 93.7469 43.3451 94.1052 43.8367C94.4719 44.3284 95.0219 44.5742 95.7552 44.5742ZM103.458 45.3242C102.891 45.3242 102.416 45.2326 102.033 45.0492C101.658 44.8659 101.354 44.6159 101.12 44.2992C100.895 43.9742 100.733 43.6034 100.633 43.1867C100.533 42.7701 100.475 42.3326 100.458 41.8742C100.458 41.6492 100.454 41.4201 100.445 41.1867C100.445 40.9534 100.445 40.7201 100.445 40.4867C100.454 40.2451 100.458 40.0076 100.458 39.7742C100.466 39.3159 100.52 38.8784 100.62 38.4617C100.729 38.0451 100.895 37.6784 101.12 37.3617C101.354 37.0367 101.658 36.7826 102.033 36.5992C102.416 36.4159 102.891 36.3242 103.458 36.3242C104.025 36.3242 104.495 36.4159 104.87 36.5992C105.254 36.7826 105.558 37.0367 105.783 37.3617C106.016 37.6784 106.183 38.0451 106.283 38.4617C106.391 38.8784 106.45 39.3159 106.458 39.7742C106.466 40.0076 106.47 40.2451 106.47 40.4867C106.47 40.7201 106.47 40.9534 106.47 41.1867C106.47 41.4201 106.466 41.6492 106.458 41.8742C106.45 42.3326 106.391 42.7701 106.283 43.1867C106.183 43.6034 106.016 43.9742 105.783 44.2992C105.558 44.6159 105.254 44.8659 104.87 45.0492C104.495 45.2326 104.025 45.3242 103.458 45.3242ZM103.458 44.5742C104.2 44.5742 104.75 44.3284 105.108 43.8367C105.466 43.3451 105.654 42.6701 105.67 41.8117C105.679 41.5701 105.683 41.3451 105.683 41.1367C105.683 40.9201 105.683 40.7076 105.683 40.4992C105.683 40.2826 105.679 40.0617 105.67 39.8367C105.654 38.9951 105.466 38.3242 105.108 37.8242C104.75 37.3242 104.2 37.0742 103.458 37.0742C102.725 37.0742 102.175 37.3242 101.808 37.8242C101.45 38.3242 101.262 38.9951 101.245 39.8367C101.245 40.0617 101.241 40.2826 101.233 40.4992C101.233 40.7076 101.233 40.9201 101.233 41.1367C101.241 41.3451 101.245 41.5701 101.245 41.8117C101.262 42.6701 101.45 43.3451 101.808 43.8367C102.175 44.3284 102.725 44.5742 103.458 44.5742ZM111.161 45.3242C110.594 45.3242 110.119 45.2326 109.736 45.0492C109.361 44.8659 109.056 44.6159 108.823 44.2992C108.598 43.9742 108.436 43.6034 108.336 43.1867C108.236 42.7701 108.177 42.3326 108.161 41.8742C108.161 41.6492 108.156 41.4201 108.148 41.1867C108.148 40.9534 108.148 40.7201 108.148 40.4867C108.156 40.2451 108.161 40.0076 108.161 39.7742C108.169 39.3159 108.223 38.8784 108.323 38.4617C108.431 38.0451 108.598 37.6784 108.823 37.3617C109.056 37.0367 109.361 36.7826 109.736 36.5992C110.119 36.4159 110.594 36.3242 111.161 36.3242C111.727 36.3242 112.198 36.4159 112.573 36.5992C112.956 36.7826 113.261 37.0367 113.486 37.3617C113.719 37.6784 113.886 38.0451 113.986 38.4617C114.094 38.8784 114.152 39.3159 114.161 39.7742C114.169 40.0076 114.173 40.2451 114.173 40.4867C114.173 40.7201 114.173 40.9534 114.173 41.1867C114.173 41.4201 114.169 41.6492 114.161 41.8742C114.152 42.3326 114.094 42.7701 113.986 43.1867C113.886 43.6034 113.719 43.9742 113.486 44.2992C113.261 44.6159 112.956 44.8659 112.573 45.0492C112.198 45.2326 111.727 45.3242 111.161 45.3242ZM111.161 44.5742C111.902 44.5742 112.452 44.3284 112.811 43.8367C113.169 43.3451 113.356 42.6701 113.373 41.8117C113.381 41.5701 113.386 41.3451 113.386 41.1367C113.386 40.9201 113.386 40.7076 113.386 40.4992C113.386 40.2826 113.381 40.0617 113.373 39.8367C113.356 38.9951 113.169 38.3242 112.811 37.8242C112.452 37.3242 111.902 37.0742 111.161 37.0742C110.427 37.0742 109.877 37.3242 109.511 37.8242C109.152 38.3242 108.965 38.9951 108.948 39.8367C108.948 40.0617 108.944 40.2826 108.936 40.4992C108.936 40.7076 108.936 40.9201 108.936 41.1367C108.944 41.3451 108.948 41.5701 108.948 41.8117C108.965 42.6701 109.152 43.3451 109.511 43.8367C109.877 44.3284 110.427 44.5742 111.161 44.5742ZM119.523 45.1992C119.44 45.1992 119.373 45.1742 119.323 45.1242C119.273 45.0742 119.248 45.0076 119.248 44.9242V38.9742C119.248 38.8909 119.273 38.8242 119.323 38.7742C119.373 38.7242 119.44 38.6992 119.523 38.6992H121.986C122.677 38.6992 123.207 38.8534 123.573 39.1617C123.948 39.4701 124.136 39.8826 124.136 40.3992C124.136 40.7992 124.061 41.0951 123.911 41.2867C123.761 41.4784 123.544 41.6409 123.261 41.7742C123.594 41.8992 123.844 42.1201 124.011 42.4367C124.177 42.7534 124.261 43.0701 124.261 43.3867C124.261 43.9784 124.057 44.4284 123.648 44.7367C123.248 45.0451 122.715 45.1992 122.048 45.1992H119.523ZM120.011 44.4742H121.948C122.407 44.4742 122.777 44.3826 123.061 44.1992C123.352 44.0159 123.498 43.7451 123.498 43.3867C123.498 43.0034 123.369 42.7242 123.111 42.5492C122.852 42.3742 122.465 42.2867 121.948 42.2867H120.011V44.4742ZM120.011 41.5617H121.861C122.319 41.5617 122.686 41.4576 122.961 41.2492C123.236 41.0409 123.373 40.7576 123.373 40.3992C123.373 40.0326 123.236 39.7784 122.961 39.6367C122.686 39.4951 122.319 39.4242 121.861 39.4242H120.011V41.5617ZM127.773 45.3242C127.373 45.3242 127.002 45.2409 126.661 45.0742C126.327 44.9076 126.057 44.6867 125.848 44.4117C125.64 44.1284 125.536 43.8117 125.536 43.4617C125.536 42.8951 125.765 42.4409 126.223 42.0992C126.682 41.7576 127.277 41.5367 128.011 41.4367L129.986 41.1617V40.7242C129.986 40.2826 129.848 39.9367 129.573 39.6867C129.307 39.4284 128.877 39.2992 128.286 39.2992C127.852 39.2992 127.502 39.3867 127.236 39.5617C126.969 39.7284 126.786 39.9492 126.686 40.2242C126.644 40.3492 126.565 40.4117 126.448 40.4117H126.248C126.148 40.4117 126.077 40.3867 126.036 40.3367C125.994 40.2784 125.973 40.2117 125.973 40.1367C125.973 40.0201 126.015 39.8742 126.098 39.6992C126.19 39.5242 126.327 39.3534 126.511 39.1867C126.694 39.0117 126.932 38.8659 127.223 38.7492C127.515 38.6326 127.869 38.5742 128.286 38.5742C128.777 38.5742 129.182 38.6409 129.498 38.7742C129.823 38.9076 130.073 39.0826 130.248 39.2992C130.432 39.5076 130.561 39.7409 130.636 39.9992C130.711 40.2576 130.748 40.5117 130.748 40.7617V44.9242C130.748 45.0076 130.723 45.0742 130.673 45.1242C130.623 45.1742 130.557 45.1992 130.473 45.1992H130.261C130.177 45.1992 130.111 45.1742 130.061 45.1242C130.011 45.0742 129.986 45.0076 129.986 44.9242V44.3367C129.886 44.4867 129.744 44.6367 129.561 44.7867C129.377 44.9367 129.14 45.0659 128.848 45.1742C128.565 45.2742 128.207 45.3242 127.773 45.3242ZM127.898 44.5992C128.282 44.5992 128.632 44.5159 128.948 44.3492C129.265 44.1826 129.515 43.9284 129.698 43.5867C129.89 43.2367 129.986 42.7992 129.986 42.2742V41.8492L128.373 42.0742C127.69 42.1659 127.173 42.3242 126.823 42.5492C126.473 42.7742 126.298 43.0576 126.298 43.3992C126.298 43.6742 126.377 43.8992 126.536 44.0742C126.694 44.2492 126.894 44.3826 127.136 44.4742C127.386 44.5576 127.64 44.5992 127.898 44.5992ZM133.012 47.5742C132.929 47.5742 132.862 47.5492 132.812 47.4992C132.762 47.4492 132.737 47.3826 132.737 47.2992V38.9742C132.737 38.8909 132.762 38.8242 132.812 38.7742C132.862 38.7242 132.929 38.6992 133.012 38.6992H133.225C133.308 38.6992 133.375 38.7242 133.425 38.7742C133.475 38.8242 133.5 38.8909 133.5 38.9742V39.5617C133.708 39.2784 133.979 39.0451 134.312 38.8617C134.654 38.6701 135.083 38.5742 135.6 38.5742C136.092 38.5742 136.504 38.6617 136.837 38.8367C137.171 39.0034 137.442 39.2284 137.65 39.5117C137.858 39.7951 138.012 40.1117 138.112 40.4617C138.212 40.8117 138.267 41.1701 138.275 41.5367C138.283 41.6617 138.287 41.7992 138.287 41.9492C138.287 42.0992 138.283 42.2367 138.275 42.3617C138.267 42.7284 138.212 43.0867 138.112 43.4367C138.012 43.7867 137.858 44.1034 137.65 44.3867C137.442 44.6701 137.171 44.8992 136.837 45.0742C136.504 45.2409 136.092 45.3242 135.6 45.3242C135.083 45.3242 134.654 45.2284 134.312 45.0367C133.979 44.8451 133.708 44.6117 133.5 44.3367V47.2992C133.5 47.3826 133.475 47.4492 133.425 47.4992C133.375 47.5492 133.308 47.5742 133.225 47.5742H133.012ZM135.525 44.5992C136.017 44.5992 136.404 44.4909 136.687 44.2742C136.971 44.0576 137.175 43.7742 137.3 43.4242C137.425 43.0742 137.496 42.6992 137.512 42.2992C137.521 42.0659 137.521 41.8326 137.512 41.5992C137.496 41.1992 137.425 40.8242 137.3 40.4742C137.175 40.1242 136.971 39.8409 136.687 39.6242C136.404 39.4076 136.017 39.2992 135.525 39.2992C135.05 39.2992 134.667 39.4117 134.375 39.6367C134.083 39.8617 133.867 40.1451 133.725 40.4867C133.592 40.8201 133.517 41.1576 133.5 41.4992C133.492 41.6242 133.487 41.7867 133.487 41.9867C133.487 42.1867 133.492 42.3492 133.5 42.4742C133.508 42.8076 133.583 43.1367 133.725 43.4617C133.875 43.7867 134.096 44.0576 134.387 44.2742C134.687 44.4909 135.067 44.5992 135.525 44.5992ZM140.238 45.1992C140.171 45.1992 140.113 45.1742 140.063 45.1242C140.013 45.0742 139.988 45.0159 139.988 44.9492V38.9742C139.988 38.8909 140.013 38.8242 140.063 38.7742C140.113 38.7242 140.18 38.6992 140.263 38.6992H140.476C140.559 38.6992 140.626 38.7242 140.676 38.7742C140.726 38.8242 140.751 38.8909 140.751 38.9742V44.5867L140.526 44.2242L144.601 38.8867C144.642 38.8367 144.684 38.7951 144.726 38.7617C144.776 38.7201 144.842 38.6992 144.926 38.6992H145.163C145.23 38.6992 145.288 38.7242 145.338 38.7742C145.388 38.8159 145.413 38.8701 145.413 38.9367V44.9242C145.413 45.0076 145.388 45.0742 145.338 45.1242C145.288 45.1742 145.221 45.1992 145.138 45.1992H144.926C144.842 45.1992 144.776 45.1742 144.726 45.1242C144.676 45.0742 144.651 45.0076 144.651 44.9242V39.6867L144.913 39.6242L140.801 45.0117C140.767 45.0534 140.726 45.0951 140.676 45.1367C140.626 45.1784 140.559 45.1992 140.476 45.1992H140.238ZM149.184 45.3242C148.784 45.3242 148.414 45.2409 148.072 45.0742C147.739 44.9076 147.468 44.6867 147.259 44.4117C147.051 44.1284 146.947 43.8117 146.947 43.4617C146.947 42.8951 147.176 42.4409 147.634 42.0992C148.093 41.7576 148.689 41.5367 149.422 41.4367L151.397 41.1617V40.7242C151.397 40.2826 151.259 39.9367 150.984 39.6867C150.718 39.4284 150.289 39.2992 149.697 39.2992C149.264 39.2992 148.914 39.3867 148.647 39.5617C148.38 39.7284 148.197 39.9492 148.097 40.2242C148.055 40.3492 147.976 40.4117 147.859 40.4117H147.659C147.559 40.4117 147.489 40.3867 147.447 40.3367C147.405 40.2784 147.384 40.2117 147.384 40.1367C147.384 40.0201 147.426 39.8742 147.509 39.6992C147.601 39.5242 147.739 39.3534 147.922 39.1867C148.105 39.0117 148.343 38.8659 148.634 38.7492C148.926 38.6326 149.28 38.5742 149.697 38.5742C150.189 38.5742 150.593 38.6409 150.909 38.7742C151.234 38.9076 151.484 39.0826 151.659 39.2992C151.843 39.5076 151.972 39.7409 152.047 39.9992C152.122 40.2576 152.159 40.5117 152.159 40.7617V44.9242C152.159 45.0076 152.134 45.0742 152.084 45.1242C152.034 45.1742 151.968 45.1992 151.884 45.1992H151.672C151.589 45.1992 151.522 45.1742 151.472 45.1242C151.422 45.0742 151.397 45.0076 151.397 44.9242V44.3367C151.297 44.4867 151.155 44.6367 150.972 44.7867C150.789 44.9367 150.551 45.0659 150.259 45.1742C149.976 45.2742 149.618 45.3242 149.184 45.3242ZM149.309 44.5992C149.693 44.5992 150.043 44.5159 150.359 44.3492C150.676 44.1826 150.926 43.9284 151.109 43.5867C151.301 43.2367 151.397 42.7992 151.397 42.2742V41.8492L149.784 42.0742C149.101 42.1659 148.584 42.3242 148.234 42.5492C147.884 42.7742 147.709 43.0576 147.709 43.3992C147.709 43.6742 147.789 43.8992 147.947 44.0742C148.105 44.2492 148.305 44.3826 148.547 44.4742C148.797 44.5576 149.051 44.5992 149.309 44.5992ZM154.411 45.1992C154.328 45.1992 154.261 45.1742 154.211 45.1242C154.161 45.0742 154.136 45.0076 154.136 44.9242V38.9742C154.136 38.8909 154.161 38.8242 154.211 38.7742C154.261 38.7242 154.328 38.6992 154.411 38.6992H154.624C154.707 38.6992 154.774 38.7242 154.824 38.7742C154.874 38.8242 154.899 38.8909 154.899 38.9742V41.5117H158.799V38.9742C158.799 38.8909 158.824 38.8242 158.874 38.7742C158.924 38.7242 158.99 38.6992 159.074 38.6992H159.286C159.369 38.6992 159.436 38.7242 159.486 38.7742C159.536 38.8242 159.561 38.8909 159.561 38.9742V44.9242C159.561 45.0076 159.536 45.0742 159.486 45.1242C159.436 45.1742 159.369 45.1992 159.286 45.1992H159.074C158.99 45.1992 158.924 45.1742 158.874 45.1242C158.824 45.0742 158.799 45.0076 158.799 44.9242V42.2367H154.899V44.9242C154.899 45.0076 154.874 45.0742 154.824 45.1242C154.774 45.1742 154.707 45.1992 154.624 45.1992H154.411ZM163.57 45.1992C163.486 45.1992 163.42 45.1742 163.37 45.1242C163.32 45.0742 163.295 45.0076 163.295 44.9242V39.4242H161.007C160.924 39.4242 160.857 39.3992 160.807 39.3492C160.757 39.2992 160.732 39.2326 160.732 39.1492V38.9742C160.732 38.8909 160.757 38.8242 160.807 38.7742C160.857 38.7242 160.924 38.6992 161.007 38.6992H166.345C166.428 38.6992 166.495 38.7242 166.545 38.7742C166.595 38.8242 166.62 38.8909 166.62 38.9742V39.1492C166.62 39.2326 166.595 39.2992 166.545 39.3492C166.495 39.3992 166.428 39.4242 166.345 39.4242H164.057V44.9242C164.057 45.0076 164.032 45.0742 163.982 45.1242C163.932 45.1742 163.866 45.1992 163.782 45.1992H163.57ZM170.271 45.3242C169.671 45.3242 169.167 45.1992 168.758 44.9492C168.358 44.6992 168.05 44.3576 167.833 43.9242C167.625 43.4909 167.512 43.0076 167.496 42.4742C167.487 42.3492 167.483 42.1742 167.483 41.9492C167.483 41.7242 167.487 41.5492 167.496 41.4242C167.512 40.8826 167.625 40.3992 167.833 39.9742C168.05 39.5409 168.358 39.1992 168.758 38.9492C169.167 38.6992 169.671 38.5742 170.271 38.5742C170.871 38.5742 171.371 38.6992 171.771 38.9492C172.179 39.1992 172.487 39.5409 172.696 39.9742C172.912 40.3992 173.029 40.8826 173.046 41.4242C173.054 41.5492 173.058 41.7242 173.058 41.9492C173.058 42.1742 173.054 42.3492 173.046 42.4742C173.029 43.0076 172.912 43.4909 172.696 43.9242C172.487 44.3576 172.179 44.6992 171.771 44.9492C171.371 45.1992 170.871 45.3242 170.271 45.3242ZM170.271 44.5992C170.854 44.5992 171.329 44.4117 171.696 44.0367C172.062 43.6617 172.258 43.1201 172.283 42.4117C172.292 42.2867 172.296 42.1326 172.296 41.9492C172.296 41.7659 172.292 41.6117 172.283 41.4867C172.258 40.7701 172.062 40.2284 171.696 39.8617C171.329 39.4867 170.854 39.2992 170.271 39.2992C169.687 39.2992 169.212 39.4867 168.846 39.8617C168.479 40.2284 168.283 40.7701 168.258 41.4867C168.25 41.6117 168.246 41.7659 168.246 41.9492C168.246 42.1326 168.25 42.2867 168.258 42.4117C168.283 43.1201 168.479 43.6617 168.846 44.0367C169.212 44.4117 169.687 44.5992 170.271 44.5992ZM175.041 45.1992C174.958 45.1992 174.891 45.1742 174.841 45.1242C174.791 45.0742 174.766 45.0076 174.766 44.9242V38.9742C174.766 38.8909 174.791 38.8242 174.841 38.7742C174.891 38.7242 174.958 38.6992 175.041 38.6992H177.503C178.195 38.6992 178.724 38.8534 179.091 39.1617C179.466 39.4701 179.653 39.8826 179.653 40.3992C179.653 40.7992 179.578 41.0951 179.428 41.2867C179.278 41.4784 179.062 41.6409 178.778 41.7742C179.112 41.8992 179.362 42.1201 179.528 42.4367C179.695 42.7534 179.778 43.0701 179.778 43.3867C179.778 43.9784 179.574 44.4284 179.166 44.7367C178.766 45.0451 178.233 45.1992 177.566 45.1992H175.041ZM175.528 44.4742H177.466C177.924 44.4742 178.295 44.3826 178.578 44.1992C178.87 44.0159 179.016 43.7451 179.016 43.3867C179.016 43.0034 178.887 42.7242 178.628 42.5492C178.37 42.3742 177.983 42.2867 177.466 42.2867H175.528V44.4742ZM175.528 41.5617H177.378C177.837 41.5617 178.203 41.4576 178.478 41.2492C178.753 41.0409 178.891 40.7576 178.891 40.3992C178.891 40.0326 178.753 39.7784 178.478 39.6367C178.203 39.4951 177.837 39.4242 177.378 39.4242H175.528V41.5617Z" fill="#1C1C1C"/>
</svg>
