<?xml version="1.0"?>
<svg xmlns="http://www.w3.org/2000/svg" width="148" height="28" viewBox="0 0 148 28">
    <g fill="none" fill-rule="evenodd">
        <g fill="#FFF">
            <g>
                <path fill-rule="nonzero" d="M11.584 15.155c-.139 0-.272.053-.371.151-.1.098-.155.23-.156.37v.28c.056 1.085.883 2.17 2.29 2.278l.02.001h.278c.139 0 .272-.054.371-.151.099-.098.155-.23.155-.37 0-.139-.056-.272-.155-.37-.099-.097-.232-.151-.37-.15h-.237c-.809-.07-1.262-.673-1.298-1.277v-.241c-.001-.14-.057-.272-.156-.37-.098-.097-.232-.152-.37-.151z" transform="translate(-233.000000, -11.000000) translate(233.000000, 11.000000)"/>
                <path d="M13.028 6.738c-2.722.12-4.826 2.33-4.963 5.02-.068 1.35-.122 2.557-.122 3.68 0 1.046.047 2.094.108 3.298.138 2.678 2.239 4.868 4.948 4.988.41.019.808.03 1.172.03.377 0 .788-.012 1.212-.032 2.692-.122 4.785-2.286 4.917-4.947.058-1.158.1-2.193.1-3.338 0-1.277-.047-2.457-.11-3.73-.13-2.669-2.225-4.846-4.925-4.967-.398-.018-.795-.028-1.194-.03-.356 0-.743.01-1.143.029zm-3.45 5.33c.104-2.052 1.68-3.728 3.708-3.82.31-.015.61-.023.886-.023.29 0 .606.01.932.024 2.008.096 3.572 1.74 3.67 3.77.008.193.017.358.025.508.027.507.044.839.044 1.528 0 .679-.019 1.065-.047 1.646l-.015.297c-.097 2.024-1.66 3.656-3.66 3.752-.332.015-.655.025-.95.025-.283 0-.593-.01-.912-.024-2.016-.094-3.588-1.75-3.69-3.79l-.02-.369c-.029-.562-.049-.936-.049-1.537 0-.579.019-.896.046-1.377l.033-.61z" transform="translate(-233.000000, -11.000000) translate(233.000000, 11.000000)"/>
                <path d="M7.49.525h13.364c2.933 0 3.692.301 4.424.689.791.418 1.4 1.02 1.823 1.802.392.725.696 1.474.696 4.375v.457c0 .21-.17.381-.382.39l-.198.01c-1.775.092-3.154 1.768-3.244 3.82-.01.237-.02.433-.029.607v.003c-.024.481-.04.798-.04 1.377 0 .6.017.975.043 1.537l.017.37c.09 2.038 1.465 3.695 3.229 3.79l.222.01c.211.006.38.178.382.39v.457c0 2.9-.305 3.65-.696 4.375-.412.77-1.047 1.399-1.823 1.802-.732.388-1.49.689-4.424.689H7.49c-2.933 0-3.69-.301-4.424-.688-.775-.403-1.41-1.032-1.823-1.803-.391-.725-.695-1.475-.695-4.375v-.457c0-.21.17-.381.382-.39l.253-.012c1.75-.096 3.118-1.73 3.203-3.752l.012-.292V15.7c.026-.581.042-.967.042-1.646 0-.69-.015-1.022-.038-1.528l-.022-.508c-.086-2.03-1.455-3.675-3.211-3.77L.93 8.24c-.212-.007-.38-.179-.383-.39V7.39c0-2.9.303-3.65.695-4.375.412-.77 1.048-1.4 1.824-1.802C3.799.826 4.557.525 7.49.525zm5.48 4.88c-3.467.15-6.083 2.956-6.253 6.286-.068 1.35-.124 2.587-.124 3.746 0 1.084.05 2.161.11 3.367.171 3.322 2.79 6.1 6.236 6.254.423.018.842.03 1.232.03.404 0 .836-.013 1.274-.032 3.42-.156 6.038-2.902 6.203-6.215.058-1.165.102-2.226.102-3.404 0-1.31-.049-2.514-.112-3.794-.163-3.32-2.779-6.082-6.211-6.236-.418-.02-.837-.03-1.255-.031-.381 0-.79.011-1.203.029z" transform="translate(-233.000000, -11.000000) translate(233.000000, 11.000000)"/>
                <path fill-rule="nonzero" d="M119.758 6.234c-.586.573-1.464.82-2.618.82-1.151 0-2.053-.247-2.621-.82-.586-.55-.854-1.398-.854-2.49v-.139h1.875v.14c0 .585.13.962.35 1.168l.006.007c.223.226.634.338 1.24.338.607 0 .997-.112 1.22-.338l.007-.007c.226-.206.374-.586.374-1.169v-.139h1.874v.14c0 1.095-.29 1.942-.853 2.49z" transform="translate(-233.000000, -11.000000) translate(233.000000, 11.000000)"/>
                <path d="M107.514 17.252c.182-.248.305-.558.391-.97l.027-.116h2.18l-.024.162c-.11.704-.312 1.307-.635 1.796-.295.487-.7.899-1.182 1.202-.476.3-1.018.506-1.62.642-.628.136-1.296.182-2.025.182-.91 0-1.71-.09-2.427-.297-.691-.17-1.329-.51-1.854-.99-.5-.468-.884-1.092-1.154-1.866-.271-.756-.405-1.709-.405-2.835 0-1.151.13-2.128.401-2.905.268-.774.651-1.42 1.152-1.909l.002-.003c.498-.46 1.111-.805 1.831-1.01h.004c.785-.198 1.592-.297 2.401-.294 1.69 0 3.04.432 4.037 1.307.98.887 1.47 2.222 1.47 3.99v1.636h-9.101c.013.642.116 1.176.274 1.573.15.396.4.746.726 1.015.309.254.682.422 1.124.51.452.086.95.132 1.511.132.436 0 .823-.02 1.207-.087h.007c.336-.044.662-.145.963-.3l.003-.004h.003c.281-.122.504-.307.713-.561zm-5.445-6.634c-.309.23-.559.548-.747.973-.175.394-.281.89-.316 1.524h6.847c-.01-.593-.096-1.067-.25-1.46-.168-.43-.377-.744-.661-.995-.3-.24-.646-.414-1.018-.51-.443-.098-.896-.15-1.35-.153-.518 0-.97.046-1.398.133-.4.079-.779.245-1.107.488z" transform="translate(-233.000000, -11.000000) translate(233.000000, 11.000000)"/>
                <path fill-rule="nonzero" d="M125.532 16.048c.056-.603.085-1.207.086-1.813V8.383h9.177v11.438h-2.204v-9.485h-4.835v4.167c0 1.796-.264 3.143-.764 4-.514.9-1.354 1.319-2.488 1.319h-.486v-2.065h.137c.273 0 .49-.045.658-.14l.006-.003.004-.003c.157-.07.315-.241.439-.492.12-.248.205-.586.27-1.07zm-30.286-.031c-.085.453-.233.812-.414 1.085-.186.27-.425.499-.703.672-.298.17-.624.284-.963.338-.398.064-.802.094-1.206.088-.586 0-1.1-.046-1.549-.154-.462-.108-.833-.296-1.117-.585l-.003-.004c-.31-.293-.539-.693-.71-1.213-.168-.516-.257-1.214-.257-2.075 0-.882.086-1.584.257-2.145.171-.544.4-.966.71-1.256l.003-.003c.284-.29.655-.481 1.117-.586.508-.12 1.028-.178 1.549-.175.404 0 .791.042 1.14.088.337.066.649.17.94.338.267.168.497.38.706.656.185.271.332.61.415 1.039l.02.112h2.207l-.03-.165c-.134-.746-.337-1.39-.655-1.904-.3-.487-.692-.91-1.155-1.244l-.004-.004c-.488-.317-1.03-.543-1.6-.666-.65-.14-1.315-.207-1.98-.203-.912 0-1.71.112-2.424.294h-.003c-.72.205-1.353.55-1.854 1.011l-.003.004c-.5.488-.884 1.133-1.152 1.907-.27.777-.4 1.754-.4 2.905 0 1.127.133 2.08.4 2.835.268.774.655 1.399 1.155 1.866.525.48 1.163.821 1.854.99.716.207 1.518.297 2.426.297.734 0 1.402-.067 2.025-.202.58-.125 1.132-.36 1.625-.69.48-.325.863-.74 1.182-1.27.319-.513.521-1.158.634-1.929l.024-.16h-2.18l-.027.108zm50.247 0l.02-.115v.007h2.187l-.024.16c-.113.77-.315 1.416-.634 1.929-.319.53-.702.945-1.182 1.27-.493.33-1.044.565-1.624.69-.624.136-1.292.202-2.025.202-.909 0-1.71-.091-2.427-.297-.69-.169-1.329-.51-1.854-.99-.5-.467-.884-1.092-1.155-1.866-.267-.756-.4-1.709-.4-2.835 0-1.15.13-2.128.4-2.905.267-.774.652-1.42 1.152-1.908l.003-.003c.5-.46 1.135-.806 1.854-1.011h.003c.793-.2 1.607-.298 2.424-.294.709 0 1.356.067 1.98.203.607.136 1.148.366 1.6.665l.004.005c.463.334.855.757 1.155 1.244.318.513.52 1.158.654 1.904l.03.165h-2.206l-.02-.112c-.066-.371-.207-.725-.415-1.04-.193-.26-.432-.482-.706-.655-.292-.164-.61-.278-.939-.338-.378-.054-.76-.083-1.14-.088-.584 0-1.101.067-1.55.175-.463.105-.833.296-1.117.586l-.004.003c-.308.29-.537.712-.709 1.256-.171.561-.257 1.262-.257 2.145 0 .86.09 1.559.257 2.075.172.52.401.92.71 1.213l.003.004c.284.289.654.477 1.117.586.449.107.963.154 1.55.154.434 0 .822-.021 1.205-.088.339-.055.665-.17.963-.339.267-.167.493-.376.702-.672.182-.273.33-.632.415-1.085z" transform="translate(-233.000000, -11.000000) translate(233.000000, 11.000000)"/>
                <path d="M82.862 9.01c-.908-.648-2.17-.962-3.742-.962-.754 0-1.443.066-2.026.206-.606.136-1.127.366-1.558.67l-.004.003c-.435.328-.778.742-1.048 1.252-.275.513-.453 1.155-.542 1.904l-.017.157h2.138l.017-.119c.065-.435.168-.774.333-1.043l.007-.007c.143-.271.325-.477.568-.641.244-.164.531-.272.888-.335.414-.056.832-.085 1.25-.087 1.087 0 1.817.199 2.266.53.435.321.668.872.668 1.695v.788c-.255-.003-.488-.02-.71-.035l-.085-.007h-.014c-.277 0-.559-.02-.843-.045h-.014c-.147 0-.29-.004-.445-.01h-.014c-.157-.008-.325-.011-.503-.011-.165 0-.333-.004-.515-.01h-.03c-.192-.008-.398-.011-.617-.011-.953 0-1.738.112-2.347.321h-.004c-.603.226-1.083.502-1.43.858-.339.323-.592.726-.736 1.171-.125.398-.187.812-.182 1.228 0 .656.09 1.239.32 1.713.205.464.503.86.897 1.143.37.304.826.513 1.343.65.521.14 1.083.184 1.7.184.936 0 1.793-.161 2.56-.526.73-.343 1.32-.927 1.669-1.654v1.845h2.203v-7.599c-.003-1.461-.476-2.56-1.401-3.216zm-.805 6.76c-.041.519-.172.938-.37 1.244-.199.31-.475.563-.803.732-.36.182-.746.305-1.144.367-.422.062-.848.091-1.275.087-.96 0-1.651-.133-2.08-.384-.4-.233-.61-.666-.61-1.374 0-.237.021-.464.1-.663l.006-.014c.055-.19.189-.39.411-.55l.007-.008c.196-.156.518-.285.953-.397.428-.087 1.032-.153 1.768-.153.21 0 .425.003.655.01h.03c.24.007.494.01.758.01.49.022 1.032.043 1.597.064v1.029h-.003zm-24.89-1.727c.792.101 1.436.325 1.906.712.476.436.727 1.08.723 1.96 0 .445-.092.84-.23 1.21-.144.385-.383.727-.695.994-.341.296-.736.524-1.162.672h-.003c-.48.164-1.022.23-1.645.23h-6.408V8.384h5.927c.713 0 1.323.09 1.82.25h.007c.494.183.884.391 1.206.674.319.282.555.59.696.949.137.348.206.7.206 1.078 0 .826-.227 1.492-.656 1.928l-.002.003c-.419.405-.98.656-1.69.74v.038zm-1.737-3.707h-3.57v2.776h3.968c.596 0 .983-.15 1.186-.412.202-.289.322-.617.322-1.032-.004-.192-.032-.383-.083-.569-.034-.136-.119-.247-.246-.376-.13-.112-.322-.196-.583-.283-.326-.074-.66-.11-.994-.104zm.196 7.533c.623 0 1.103-.109 1.47-.318.339-.192.52-.54.52-1.084 0-.44-.123-.785-.363-1.071-.223-.261-.692-.418-1.453-.418h-3.94v2.89h3.766z" transform="translate(-233.000000, -11.000000) translate(233.000000, 11.000000)"/>
                <path fill-rule="nonzero" d="M63.727 16.079L63.727 8.384 61.52 8.384 61.52 19.822 62.815 19.822 69.593 12.209 69.593 19.823 71.797 19.823 71.797 8.383 70.501 8.383z" transform="translate(-233.000000, -11.000000) translate(233.000000, 11.000000)"/>
                <path d="M42.306 8.048c1.573 0 2.834.314 3.742.962.921.656 1.395 1.755 1.395 3.216v7.595h-2.204v-1.844c-.349.727-.938 1.311-1.669 1.653-.767.366-1.624.527-2.56.527-.616 0-1.179-.046-1.7-.185-.517-.136-.972-.345-1.343-.65-.394-.281-.692-.679-.897-1.143-.23-.474-.32-1.057-.32-1.712 0-.39.045-.81.183-1.228.143-.446.396-.849.736-1.172.35-.352.83-.627 1.426-.854h.004c.61-.21 1.394-.321 2.347-.321.219 0 .425.003.616.01h.031c.182.007.35.01.515.01.177 0 .345.004.504.011h.013c.154.007.298.01.445.01h.014c.288.025.569.046.846.046h.014l.085.007c.222.015.455.032.71.035v-.795c0-.823-.233-1.374-.668-1.695-.45-.331-1.179-.53-2.265-.53-.473 0-.905.042-1.251.087-.36.063-.644.171-.888.335-.24.162-.437.383-.569.642l-.003.003v.007c-.161.269-.267.607-.332 1.043l-.017.119h-2.139l.017-.158c.09-.749.268-1.39.542-1.904.27-.509.614-.924 1.048-1.251l.004-.004c.432-.304.952-.53 1.563-.666.582-.14 1.271-.206 2.025-.206zm2.563 8.967c.198-.308.326-.726.37-1.246h.003v-1.03c-.565-.02-1.11-.04-1.596-.061-.264 0-.518-.004-.758-.01h-.03c-.23-.008-.446-.011-.655-.011-.737 0-1.34.066-1.768.154-.436.11-.758.24-.953.396l-.007.007c-.223.162-.356.36-.41.552l-.008.014c-.079.199-.1.425-.1.662 0 .708.21 1.141.61 1.374.429.252 1.121.384 2.08.384.436 0 .844-.021 1.275-.087.398-.062.785-.185 1.145-.367.328-.168.605-.42.802-.732z" transform="translate(-233.000000, -11.000000) translate(233.000000, 11.000000)"/>
                <path fill-rule="nonzero" d="M114.206 16.079L114.206 8.384 112.004 8.384 112.004 19.822 113.295 19.822 120.073 12.209 120.073 19.823 122.277 19.823 122.277 8.383 120.982 8.383 114.206 16.08z" transform="translate(-233.000000, -11.000000) translate(233.000000, 11.000000)"/>
            </g>
        </g>
    </g>
</svg>
