<svg width="11" height="10" viewBox="0 0 11 10" fill="none" xmlns="http://www.w3.org/2000/svg">
<path fill-rule="evenodd" clip-rule="evenodd" d="M10.1587 0.14483C10.3502 -0.0467012 10.6607 -0.0467011 10.8523 0.14483C11.0438 0.336361 11.0438 0.646895 10.8523 0.838426L6.69068 5L10.8523 9.16157C11.0438 9.3531 11.0438 9.66364 10.8523 9.85517C10.6607 10.0467 10.3502 10.0467 10.1587 9.85517L5.99708 5.6936L1.83551 9.85517C1.64398 10.0467 1.33344 10.0467 1.14191 9.85517C0.950382 9.66364 0.950382 9.3531 1.14191 9.16157L5.30349 5L1.14191 0.838426C0.950382 0.646895 0.950382 0.336361 1.14191 0.14483C1.33344 -0.0467011 1.64398 -0.0467012 1.83551 0.14483L5.99708 4.3064L10.1587 0.14483Z" fill="#464646"/>
</svg>
