<svg xmlns="http://www.w3.org/2000/svg" width="266" height="78" viewBox="0 0 266 78">
    <g fill="none" fill-rule="evenodd">
        <g>
            <g>
                <g>
                    <g>
                        <path fill="#6BB7BF" d="M107.114 16.648s-2.666 2.004-5.739 1.837c-2.283-.123-4.617-2.122-4.71-2.257L95 19.458s4.256 2.319 7.773 1.466c1.077-.26 2.79-1.423 3.548-2.27.838-.932.793-2.006.793-2.006" transform="translate(-1043 -877) translate(-15 876) rotate(180 662 39.5)"/>
                        <path fill="#86D1CD" d="M106.733 10.096L111.195 8s-.186 9.483-7.862 12.734c0 0 4.634-6.7 3.4-10.638" transform="translate(-1043 -877) translate(-15 876) rotate(180 662 39.5)"/>
                        <path fill="#6BB7BF" d="M8.923 42.13s-3.74-2.825-4.705-7.042c-.716-3.132 1.081-7.061 1.228-7.238l-5.01-.999s-1.485 6.648 1.028 11.07c.77 1.355 3.003 3.221 4.44 3.918 1.585.768 3.02.291 3.02.291" transform="translate(-1043 -877) translate(-15 876) rotate(180 662 39.5)"/>
                        <path fill="#86D1CD" d="M17.63 39.081l4.559 5.217s-12.886 3.42-20.251-5.694c0 0 10.848 3.667 15.692.477" transform="translate(-1043 -877) translate(-15 876) rotate(180 662 39.5)"/>
                        <path fill="#6BB7BF" d="M250.404 66.725s-.567-4.444 1.671-7.92c1.664-2.58 5.55-3.976 5.77-3.997l-2.663-4.092s-5.54 3.427-6.884 8.098c-.412 1.43-.194 4.204.29 5.653.53 1.595 1.816 2.258 1.816 2.258" transform="translate(-1043 -877) translate(-15 876) rotate(180 662 39.5)"/>
                        <path fill="#86D1CD" d="M258.302 70.64l-.522 6.602s-10.944-6.525-9.632-17.649c0 0 4.738 9.867 10.154 11.048" transform="translate(-1043 -877) translate(-15 876) rotate(180 662 39.5)"/>
                        <path fill="#F1A34F" d="M150.057 16.619s1.11-2.39 6.048-1.134c2.213.563 6.043 3.817.978 6.566-5.27 2.858-6.932-.128-6.932-.128s8.485-1.393 7.273-4.82c-1.337-3.784-4.892.31-4.892.31s-1.026-.633-2.475-.794" transform="translate(-1043 -877) translate(-15 876) rotate(180 662 39.5)"/>
                        <path fill="#DB7714" d="M149.232 21.766s-1.138-1.763.57-3.355l2.105 1.677s-2.048 1.616 0 3.07c0 0-2.38-.655-2.675-1.392" transform="translate(-1043 -877) translate(-15 876) rotate(180 662 39.5)"/>
                        <path fill="#5685D8" d="M248.693 2.88s6.483-4.502 11.35 2.21l5.345-2.298s-2.64-4.167-12.999-2.32c-6.778 1.21-3.696 2.409-3.696 2.409" transform="translate(-1043 -877) translate(-15 876) rotate(180 662 39.5)"/>
                        <path fill="#739AF0" d="M242.312 7.285S244.077 0 257.372 0c0 0-4.983.473-8.876 6.938l-6.184.347" transform="translate(-1043 -877) translate(-15 876) rotate(180 662 39.5)"/>
                        <path fill="#ED7D2B" d="M206.196 32.144s-3.58-2.262-3.958-4.994c0 0-3.485.189-4.238 1.32 0 0 1.602 4.522 3.485 5.37 0 0 4.24.282 4.711-1.696" transform="translate(-1043 -877) translate(-15 876) rotate(180 662 39.5)"/>
                        <path fill="#739AF0" d="M65.21 31.655s-3.581-2.26-3.958-4.993c0 0-3.486.188-4.24 1.319 0 0 1.602 4.523 3.487 5.37 0 0 4.24.283 4.71-1.696" transform="translate(-1043 -877) translate(-15 876) rotate(180 662 39.5)"/>
                        <path fill="#F99746" d="M128.982 68.974s3.676-2.323 4.064-5.127c0 0 3.577.192 4.352 1.353 0 0-1.644 4.643-3.58 5.514 0 0-4.352.29-4.836-1.74" transform="translate(-1043 -877) translate(-15 876) rotate(180 662 39.5)"/>
                    </g>
                </g>
            </g>
        </g>
    </g>
</svg>
