<svg width="50" height="50" viewBox="0 0 50 50" fill="none" xmlns="http://www.w3.org/2000/svg">
<g id="calendar (4)">
<path id="Shape" fill-rule="evenodd" clip-rule="evenodd" d="M45.8333 5H41.6667V3.33333C41.6667 1.49238 40.1743 0 38.3333 0C36.4924 0 35 1.49238 35 3.33333V5H28.3333V3.33333C28.3333 1.49238 26.841 0 25 0C23.159 0 21.6667 1.49238 21.6667 3.33333V5H15V3.33333C15 1.49238 13.5076 0 11.6667 0C9.82572 0 8.33333 1.49238 8.33333 3.33333V5H4.16667C1.86548 5 0 6.86548 0 9.16667V42.5C0 43.6051 0.438987 44.6649 1.22039 45.4463C2.00179 46.2277 3.0616 46.6667 4.16667 46.6667H27.5C27.9602 46.6667 28.3333 46.2936 28.3333 45.8333C28.3333 45.3731 27.9602 45 27.5 45H4.16667C2.78766 44.9959 1.67079 43.879 1.66667 42.5V16.6667H48.3333V30.8333C48.3333 31.2936 48.7064 31.6667 49.1667 31.6667C49.6269 31.6667 50 31.2936 50 30.8333V9.16667C50 6.86548 48.1345 5 45.8333 5ZM36.6667 3.33333C36.6667 2.41286 37.4129 1.66667 38.3333 1.66667C39.2538 1.66667 40 2.41286 40 3.33333V8.33333C40 9.25381 39.2538 10 38.3333 10C37.4129 10 36.6667 9.25381 36.6667 8.33333V3.33333ZM25 1.66667C24.0795 1.66667 23.3333 2.41286 23.3333 3.33333V8.33333C23.3333 9.25381 24.0795 10 25 10C25.9205 10 26.6667 9.25381 26.6667 8.33333V3.33333C26.6667 2.41286 25.9205 1.66667 25 1.66667ZM10 3.33333C10 2.41286 10.7462 1.66667 11.6667 1.66667C12.5871 1.66667 13.3333 2.41286 13.3333 3.33333V8.33333C13.3333 9.25381 12.5871 10 11.6667 10C10.7462 10 10 9.25381 10 8.33333V3.33333ZM1.66667 15H48.3333V9.16667C48.3292 7.78766 47.2123 6.67078 45.8333 6.66667H41.6667V8.33333C41.6667 10.1743 40.1743 11.6667 38.3333 11.6667C36.4924 11.6667 35 10.1743 35 8.33333V6.66667H28.3333V8.33333C28.3333 10.1743 26.841 11.6667 25 11.6667C23.1591 11.6667 21.6667 10.1743 21.6667 8.33333V6.66667H15V8.33333C15 10.1743 13.5076 11.6667 11.6667 11.6667C9.82572 11.6667 8.33333 10.1743 8.33333 8.33333V6.66667H4.16667C2.78766 6.67078 1.67079 7.78766 1.66667 9.16667V15Z" fill="black"/>
<path id="Shape_2" fill-rule="evenodd" clip-rule="evenodd" d="M21.6667 20.8333C22.5872 20.8333 23.3334 21.5795 23.3334 22.5V25C23.3334 25.9205 22.5872 26.6667 21.6667 26.6667H18.3334C17.4129 26.6667 16.6667 25.9205 16.6667 25V22.5C16.6667 21.5795 17.4129 20.8333 18.3334 20.8333H21.6667ZM18.3334 22.5V25H21.6667V22.5H18.3334Z" fill="black"/>
<path id="Shape_3" fill-rule="evenodd" clip-rule="evenodd" d="M11.6667 20.8333C12.5872 20.8333 13.3334 21.5795 13.3334 22.5V25C13.3334 25.9205 12.5872 26.6667 11.6667 26.6667H8.33335C7.41288 26.6667 6.66669 25.9205 6.66669 25V22.5C6.66669 21.5795 7.41288 20.8333 8.33335 20.8333H11.6667ZM8.33335 22.5V25H11.6667V22.5H8.33335Z" fill="black"/>
<path id="Shape_4" fill-rule="evenodd" clip-rule="evenodd" d="M43.3334 25C43.3334 25.9205 42.5872 26.6667 41.6667 26.6667H38.3334C37.4129 26.6667 36.6667 25.9205 36.6667 25V22.5C36.6667 21.5795 37.4129 20.8333 38.3334 20.8333H41.6667C42.5872 20.8333 43.3334 21.5795 43.3334 22.5V25ZM41.6667 22.5H38.3334V25H41.6667V22.5Z" fill="black"/>
<path id="Shape_5" fill-rule="evenodd" clip-rule="evenodd" d="M21.6667 28.3333C22.5872 28.3333 23.3334 29.0795 23.3334 30V32.5C23.3334 33.4205 22.5872 34.1667 21.6667 34.1667H18.3334C17.4129 34.1667 16.6667 33.4205 16.6667 32.5V30C16.6667 29.0795 17.4129 28.3333 18.3334 28.3333H21.6667ZM18.3334 30V32.5H21.6667V30H18.3334Z" fill="#6FA759"/>
<path id="Shape_6" fill-rule="evenodd" clip-rule="evenodd" d="M11.6667 28.3333C12.5872 28.3333 13.3334 29.0795 13.3334 30V32.5C13.3334 33.4205 12.5872 34.1667 11.6667 34.1667H8.33335C7.41288 34.1667 6.66669 33.4205 6.66669 32.5V30C6.66669 29.0795 7.41288 28.3333 8.33335 28.3333H11.6667ZM8.33335 30V32.5H11.6667V30H8.33335Z" fill="#6FA759"/>
<path id="Shape_7" fill-rule="evenodd" clip-rule="evenodd" d="M18.3334 35.8333H21.6667C22.5872 35.8333 23.3334 36.5795 23.3334 37.5V40C23.3334 40.9205 22.5872 41.6667 21.6667 41.6667H18.3334C17.4129 41.6667 16.6667 40.9205 16.6667 40V37.5C16.6667 36.5795 17.4129 35.8333 18.3334 35.8333ZM18.3334 37.5V40H21.6667V37.5H18.3334Z" fill="black"/>
<path id="Shape_8" fill-rule="evenodd" clip-rule="evenodd" d="M31.6667 26.6667H28.3334C27.4129 26.6667 26.6667 25.9205 26.6667 25V22.5C26.6667 21.5795 27.4129 20.8333 28.3334 20.8333H31.6667C32.5872 20.8333 33.3334 21.5795 33.3334 22.5V25C33.3334 25.9205 32.5872 26.6667 31.6667 26.6667ZM31.6667 22.5H28.3334V25H31.6667V22.5Z" fill="black"/>
<path id="Path" d="M26.6667 32.5C26.6667 33.4205 27.4129 34.1667 28.3334 34.1667C28.7936 34.1667 29.1667 33.7936 29.1667 33.3333C29.1667 32.8731 28.7936 32.5 28.3334 32.5V30H31.6667C32.1269 30 32.5 29.6269 32.5 29.1667C32.5 28.7064 32.1269 28.3333 31.6667 28.3333H28.3334C27.4129 28.3333 26.6667 29.0795 26.6667 30V32.5Z" fill="black"/>
<path id="Shape_9" fill-rule="evenodd" clip-rule="evenodd" d="M8.33335 35.8333H11.6667C12.5872 35.8333 13.3334 36.5795 13.3334 37.5V40C13.3334 40.9205 12.5872 41.6667 11.6667 41.6667H8.33335C7.41288 41.6667 6.66669 40.9205 6.66669 40V37.5C6.66669 36.5795 7.41288 35.8333 8.33335 35.8333ZM8.33335 37.5V40H11.6667V37.5H8.33335Z" fill="black"/>
<path id="Shape_10" fill-rule="evenodd" clip-rule="evenodd" d="M28.3333 39.1667C28.3333 33.1836 33.1836 28.3333 39.1666 28.3333C45.1469 28.3402 49.9931 33.1864 50 39.1667C50 45.1498 45.1497 50 39.1666 50C33.1836 50 28.3333 45.1498 28.3333 39.1667ZM30 39.1667C30 44.2293 34.104 48.3333 39.1666 48.3333C44.2268 48.3274 48.3273 44.2268 48.3333 39.1667C48.3333 34.1041 44.2293 30 39.1666 30C34.104 30 30 34.1041 30 39.1667Z" fill="#6FA759"/>
<path id="Path_2" d="M43.9817 35.6733L37.5 42.155L34.5542 39.2083C34.2272 38.8925 33.7074 38.897 33.386 39.2185C33.0645 39.5399 33.06 40.0597 33.3758 40.3867L36.9108 43.9225C37.2362 44.2478 37.7638 44.2478 38.0892 43.9225L45.16 36.8517C45.4758 36.5247 45.4713 36.0049 45.1498 35.6835C44.8284 35.362 44.3086 35.3575 43.9817 35.6733Z" fill="#6FA759"/>
</g>
</svg>
