<svg xmlns="http://www.w3.org/2000/svg" width="28" height="28" viewBox="0 0 28 28">
    <defs>
        <filter id="0f1nfp1xha">
            <feColorMatrix in="SourceGraphic" values="0 0 0 0 1.000000 0 0 0 0 1.000000 0 0 0 0 1.000000 0 0 0 1.000000 0"/>
        </filter>
    </defs>
    <g fill="none" fill-rule="evenodd">
        <g>
            <g>
                <g>
                    <g filter="url(#0f1nfp1xha)" transform="translate(-1654 -42) translate(1508 26) translate(130)">
                        <g>
                            <path fill="#000" fill-rule="nonzero" d="M27.18 13.18h-.055V1.695c0-.453-.367-.82-.82-.82H14.82V.82c0-.453-.367-.82-.82-.82-.453 0-.82.367-.82.82v.055H1.695c-.453 0-.82.367-.82.82V13.18H.82c-.453 0-.82.367-.82.82 0 .453.367.82.82.82h.055v11.54c0 .452.367.82.82.82H13.18c0 .453.367.82.82.82.453 0 .82-.367.82-.82h11.485c.453 0 .82-.368.82-.82V14.82h.055c.453 0 .82-.367.82-.82 0-.453-.367-.82-.82-.82zM25.484 2.516V13.18h-3.019c.32-.52.504-1.133.504-1.787 0-3.207-4.019-4.66-6.067-2.185l-2.018 2.437-.064-.023V2.516h10.664zM16.378 13.18c-.06-.172-.137-.336-.23-.488l2.018-2.438c1.068-1.29 3.162-.535 3.162 1.14 0 .984-.801 1.786-1.786 1.786h-3.164zm-7.92 0c-.985 0-1.786-.802-1.786-1.787 0-1.674 2.095-2.428 3.162-1.139l2.018 2.438c-.093.152-.17.316-.23.488H8.458zM14 14.875c-.482 0-.875-.393-.875-.875s.393-.875.875-.875.875.393.875.875-.393.875-.875.875zM2.516 2.515H13.18v9.107l-.064.023-2.018-2.437c-2.044-2.47-6.067-1.028-6.067 2.185 0 .654.185 1.266.504 1.787h-3.02V2.516zm0 23.024V14.82h9.106c.06.172.137.336.23.488l-3.241 3.916c-.289.349-.24.866.109 1.155.348.288.865.24 1.155-.11l3.24-3.914.065.023v9.161H2.516zm22.968 0H14.82v-9.161l.064-.023 3.241 3.915c.29.35.807.397 1.155.109.35-.29.398-.806.109-1.155l-3.241-3.916c.093-.152.17-.316.23-.488h9.106v10.72z" transform="translate(16 16)"/>
                        </g>
                    </g>
                </g>
            </g>
        </g>
    </g>
</svg>
