<svg xmlns="http://www.w3.org/2000/svg" width="38" height="44" viewBox="0 0 38 44">
    <g fill="none" fill-rule="evenodd">
        <g fill-rule="nonzero">
            <g>
                <g>
                    <g>
                        <g>
                            <path fill="#417505" d="M25.993 29.333H10.951c-1.382 0-2.507-1.128-2.507-2.514V15.086c0-1.386 1.125-2.515 2.507-2.515h15.042c1.382 0 2.507 1.129 2.507 2.515v3.352c0 .463-.374.838-.836.838-.46 0-.835-.375-.835-.838v-3.352c0-.463-.375-.838-.836-.838H10.951c-.46 0-.835.375-.835.838v11.733c0 .463.374.838.835.838h15.042c.461 0 .836-.375.836-.838v-3.352c0-.463.374-.838.835-.838.462 0 .836.375.836.838v3.352c0 1.386-1.125 2.514-2.507 2.514z" transform="translate(-1221 -251) translate(1184 218) translate(30 29) translate(7 4)"/>
                            <path fill="#000" d="M37.133 22c-.479 0-.867-.367-.867-.82 0-9.041-7.78-16.397-17.341-16.397h-4.336c-.478 0-.867-.368-.867-.82 0-.453.389-.82.867-.82h4.336C29.442 3.143 38 11.235 38 21.18c0 .453-.388.82-.867.82zM23.41 40.857h-4.335C8.558 40.857 0 32.765 0 22.82c0-.453.388-.82.867-.82s.867.367.867.82c0 9.041 7.78 16.397 17.341 16.397h4.336c.478 0 .867.368.867.82 0 .453-.389.82-.867.82z" transform="translate(-1221 -251) translate(1184 218) translate(30 29) translate(7 4)"/>
                            <path fill="#000" d="M17.066 8.381c-.225 0-.45-.082-.623-.245l-3.519-3.353c-.343-.327-.343-.858 0-1.185l3.52-3.353c.342-.327.9-.327 1.243 0 .343.327.343.859 0 1.185l-2.896 2.76 2.896 2.76c.343.326.343.858 0 1.185-.17.164-.396.246-.621.246zM18.825 44c-.226 0-.45-.082-.623-.245-.343-.327-.343-.858 0-1.185l2.896-2.76-2.896-2.76c-.343-.327-.343-.859 0-1.186.343-.327.9-.327 1.244 0l3.519 3.354c.343.327.343.858 0 1.185l-3.52 3.354c-.17.16-.395.243-.62.243z" transform="translate(-1221 -251) translate(1184 218) translate(30 29) translate(7 4)"/>
                            <path fill="#417505" d="M29.767 24.095H24.7c-1.397 0-2.533-1.057-2.533-2.357v-1.571c0-1.3 1.136-2.357 2.533-2.357h5.067c.466 0 .844.352.844.785v4.715c0 .433-.378.785-.844.785zM24.7 19.381c-.466 0-.844.352-.844.786v1.571c0 .434.378.786.844.786h4.222V19.38H24.7z" transform="translate(-1221 -251) translate(1184 218) translate(30 29) translate(7 4)"/>
                        </g>
                    </g>
                </g>
            </g>
        </g>
    </g>
</svg>
