<svg xmlns="http://www.w3.org/2000/svg" width="52" height="52" viewBox="0 0 52 52">
    <g fill="none" fill-rule="evenodd">
        <g>
            <g>
                <g>
                    <g>
                        <path d="M0 0H52V52H0z" transform="translate(-788 -121) translate(314 92) translate(474 29)"/>
                        <g fill-rule="nonzero">
                            <path fill="#2D6CB4" d="M11.774 32.607c-.176 0-.353-.052-.508-.157-.367-.249-.5-.726-.314-1.129l4.841-10.489H10.87c-.305 0-.589-.153-.756-.407-.168-.255-.197-.576-.077-.856l5.435-12.68c.143-.333.47-.549.832-.549h7.247c.304 0 .588.154.756.408.168.254.196.576.075.856l-2.184 5.079 6.11.868c.335.048.616.28.727.599.112.32.035.676-.199.922L12.431 32.325c-.176.186-.416.282-.657.282zm.468-13.587h4.967c.309 0 .597.158.763.418.166.26.189.587.06.868l-3.14 6.801 11.42-12.01-5.542-.788c-.28-.04-.524-.207-.663-.453-.137-.246-.153-.542-.042-.801l2.109-4.903H16.9L12.242 19.02z" transform="translate(-788 -121) translate(314 92) translate(474 29) translate(7 6)"/>
                            <path fill="#000" d="M19.473 38.947c-5.201 0-10.091-2.026-13.77-5.704C2.027 29.565 0 24.675 0 19.473c0-5.201 2.026-10.091 5.704-13.77C9.382 2.027 14.272 0 19.474 0c5.201 0 10.091 2.026 13.77 5.704 3.677 3.678 5.703 8.568 5.703 13.77 0 5.2-2.026 10.091-5.704 13.77-3.678 3.677-8.568 5.703-13.77 5.703zm0-37.136c-9.738 0-17.662 7.924-17.662 17.662 0 9.74 7.924 17.662 17.662 17.662 9.74 0 17.662-7.923 17.662-17.662 0-9.738-7.923-17.662-17.662-17.662z" transform="translate(-788 -121) translate(314 92) translate(474 29) translate(7 6)"/>
                            <path fill="#000" d="M9.963 30.706c-.22 0-.44-.08-.614-.24-3.063-2.822-4.82-6.829-4.82-10.993 0-5.05 2.523-9.722 6.748-12.498.418-.275.98-.159 1.255.26.274.418.158.979-.26 1.254-3.714 2.44-5.932 6.546-5.932 10.984 0 3.66 1.544 7.18 4.237 9.661.368.34.391.912.052 1.28-.178.194-.422.292-.666.292zM19.473 34.418c-.5 0-.905-.405-.905-.906 0-.5.405-.905.905-.905 7.242 0 13.134-5.892 13.134-13.134 0-4.726-2.559-9.109-6.677-11.439-.435-.246-.588-.799-.342-1.234.246-.436.8-.589 1.234-.342 4.686 2.65 7.596 7.638 7.596 13.016 0 8.24-6.704 14.944-14.945 14.944z" transform="translate(-788 -121) translate(314 92) translate(474 29) translate(7 6)"/>
                        </g>
                    </g>
                </g>
            </g>
        </g>
    </g>
</svg>
