<?xml version="1.0" encoding="UTF-8"?>
<svg width="13px" height="16px" viewBox="0 0 13 16" version="1.1" xmlns="http://www.w3.org/2000/svg" xmlns:xlink="http://www.w3.org/1999/xlink">
    <title>hot-sale</title>
    <defs>
        <filter color-interpolation-filters="auto" id="filter-1">
            <feColorMatrix in="SourceGraphic" type="matrix" values="0 0 0 0 0.078431 0 0 0 0 0.768627 0 0 0 0 0.019608 0 0 0 1.000000 0"></feColorMatrix>
        </filter>
        <filter color-interpolation-filters="auto" id="filter-2">
            <feColorMatrix in="SourceGraphic" type="matrix" values="0 0 0 0 0.019608 0 0 0 0 0.768627 0 0 0 0 0.498039 0 0 0 1.000000 0"></feColorMatrix>
        </filter>
    </defs>
    <g id="карточка-в-поиске---состояния" stroke="none" stroke-width="1" fill="none" fill-rule="evenodd">
        <g id="Group-5" transform="translate(-340.000000, -697.000000)" filter="url(#filter-1)">
            <g transform="translate(340.000000, 697.000000)" filter="url(#filter-2)" id="hot-sale">
                <g>
                    <path d="M7.98485725,10.5944779 C7.84946595,10.5944779 7.71407465,10.7175866 7.71407465,11.1299507 C7.71407465,11.5423147 7.84946595,11.6654234 7.98485725,11.6654234 C8.12024855,11.6654234 8.25563984,11.5423147 8.25563984,11.1299507 C8.25563984,10.7175553 8.12024855,10.5944779 7.98485725,10.5944779 Z" id="Path" fill="#000000" fill-rule="nonzero"></path>
                    <path d="M4.8276973,8.56340363 C4.692306,8.56340363 4.5569147,8.68651231 4.5569147,9.09887635 C4.5569147,9.51124039 4.692306,9.63434907 4.8276973,9.63434907 C4.96308859,9.63434907 5.09847989,9.51124039 5.09847989,9.09887635 C5.09847989,8.68651231 4.96308859,8.56340363 4.8276973,8.56340363 Z" id="Path" fill="#000000" fill-rule="nonzero"></path>
                    <path d="M11.0909132,5.67626107 C9.73443559,4.17796961 8.92831161,2.85902398 8.49086229,2.01637383 C8.01710221,1.10366183 7.86185102,0.537693432 7.86066255,0.533189456 L7.71964167,0 L7.21598229,0.224667089 C7.15712195,0.250909006 5.76555335,0.885563036 4.98582583,2.44509606 C4.59441393,3.22800597 4.51613155,4.09968175 4.51941547,4.69301806 C4.52132327,5.03832289 4.27668692,5.33815009 3.93775518,5.40592867 C3.70012453,5.45340809 3.45567584,5.37953037 3.28416143,5.20800394 L2.34599262,4.26976941 L2.02326155,4.71481855 C1.98976557,4.76101558 1.201062,5.84881966 1.05747654,6.06616779 C0.356312867,7.12763612 -0.00929680781,8.36413396 0.000179644838,9.64198081 C0.0128774659,11.3486437 0.683985456,12.9475865 1.88987187,14.1443305 C3.09569574,15.3409807 4.69965572,16 6.40629291,16 C9.93869537,16 12.8125,13.1259628 12.8125,9.59331285 C12.8125,8.31246335 12.1850212,6.88476546 11.0909132,5.67626107 Z M7.98485725,12.3301039 C7.33251451,12.3301039 6.84014555,11.8992861 6.84014555,11.1299507 C6.84014555,10.3667769 7.33248323,9.92976612 7.98485725,9.92976612 C8.63723126,9.92976612 9.12956894,10.3667456 9.12956894,11.1299507 C9.12956894,11.8992861 8.63719998,12.3301039 7.98485725,12.3301039 Z M7.35712827,7.96024615 L8.3971924,7.96024615 L5.45542628,12.2685496 L4.41536214,12.2685496 L7.35712827,7.96024615 Z M3.68301688,9.09887635 C3.68301688,8.33570261 4.17535456,7.89872309 4.82772857,7.89872309 C5.48010258,7.89872309 5.97244027,8.33570261 5.97244027,9.09887635 C5.97244027,9.86821178 5.48010258,10.2990609 4.82772857,10.2990609 C4.17535456,10.2990609 3.68301688,9.86821178 3.68301688,9.09887635 Z" id="Shape" fill="#000000" fill-rule="nonzero"></path>
                </g>
            </g>
        </g>
    </g>
</svg>