<?xml version="1.0" encoding="UTF-8"?>
<svg width="28px" height="28px" viewBox="0 0 28 28" version="1.1" xmlns="http://www.w3.org/2000/svg" xmlns:xlink="http://www.w3.org/1999/xlink">
    <!-- Generator: Sketch 62 (91390) - https://sketch.com -->
    <title>ico_copy</title>
    <desc>Created with Sketch.</desc>
    <g id="расчет-цены-в-карточке-объекта-NEW" stroke="none" stroke-width="1" fill="none" fill-rule="evenodd">
        <g id="даты--выбраны" transform="translate(-2616.000000, -403.000000)">
            <g id="Group-38" transform="translate(2596.000000, 388.000000)">
                <g id="ico_copy" transform="translate(20.000000, 15.000000)">
                    <ellipse id="Oval-21" fill="#EDEDEF" cx="14" cy="14.0012239" rx="14" ry="14.0012239"></ellipse>
                    <g id="copy" transform="translate(7.000000, 7.000000)" fill="#000000" fill-rule="nonzero">
                        <path d="M9.69074135,14 L1.74755652,14 C0.783543898,14 -8.46604111e-16,13.2807312 -8.46604111e-16,12.3957977 L-8.46604111e-16,4.52079772 C-8.46604111e-16,3.63586426 0.783543898,2.91670228 1.74755652,2.91670228 L2.06520943,2.91670228 C2.32829121,2.91670228 2.54180518,3.11270143 2.54180518,3.35420228 C2.54180518,3.59570313 2.32829121,3.79170228 2.06520943,3.79170228 L1.74755652,3.79170228 C1.30970745,3.79170228 0.953191489,4.11886595 0.953191489,4.52079772 L0.953191489,12.3957977 C0.953191489,12.7977295 1.30970745,13.125 1.74755652,13.125 L9.69074135,13.125 C10.1285904,13.125 10.4851064,12.7977295 10.4851064,12.3957977 L10.4851064,12.1042023 C10.4851064,11.8627014 10.6986204,11.6667023 10.9617021,11.6667023 C11.2247839,11.6667023 11.4382979,11.8627014 11.4382979,12.1042023 L11.4382979,12.3957977 C11.4382979,13.2807312 10.654754,14 9.69074135,14 Z" id="Path"></path>
                        <path d="M12.2326629,10.5 L5.56032248,10.5 C4.59630986,10.5 3.81276596,9.78073119 3.81276596,8.89579772 L3.81276596,1.60420228 C3.81276596,0.719268813 4.59630986,7.77156117e-16 5.56032248,7.77156117e-16 L12.2326629,7.77156117e-16 C13.1966755,7.77156117e-16 13.9801031,0.719268813 13.9801031,1.60420228 L13.9801031,8.89579772 C13.9801031,9.78073119 13.1966755,10.5 12.2326629,10.5 Z M5.56032248,0.875 C5.1224734,0.875 4.76595745,1.20227051 4.76595745,1.60420228 L4.76595745,8.89579772 C4.76595745,9.29772949 5.1224734,9.625 5.56032248,9.625 L12.2326629,9.625 C12.670512,9.625 13.0269116,9.29772949 13.0269116,8.89579772 L13.0269116,1.60420228 C13.0269116,1.20227051 12.670512,0.875 12.2326629,0.875 L5.56032248,0.875 Z" id="Shape"></path>
                    </g>
                </g>
            </g>
        </g>
    </g>
</svg>