<?xml version="1.0" encoding="UTF-8"?>
<svg width="18px" height="16px" viewBox="0 0 18 16" version="1.1" xmlns="http://www.w3.org/2000/svg" xmlns:xlink="http://www.w3.org/1999/xlink">
    <title>Fill 1</title>
    <g id="карточка-в-поиске---состояния" stroke="none" stroke-width="1" fill="none" fill-rule="evenodd">
        <g id="карточка-в-поиске--new" transform="translate(-287.000000, -829.000000)" fill="#f51449">
            <g id="Group-2" transform="translate(282.000000, 822.000000)">
                <path d="M20.4451988,14.5623214 L13.9998924,21.1100681 L7.55482348,14.5623214 C6.20728888,13.1936107 6.20728888,10.9667338 7.55482348,9.59729919 C8.20754205,8.93420646 9.07567615,8.56969546 9.99855478,8.56969546 C10.9214334,8.56969546 11.78933,8.93420646 12.4417517,9.59729919 L13.4536941,10.6257474 C13.7438638,10.9200464 14.2564554,10.9200464 14.5463282,10.6257474 L15.5580331,9.59729919 C16.2105141,8.93420646 17.0784107,8.56969546 18.0017644,8.56969546 C18.9248805,8.56969546 19.7925396,8.93420646 20.4451988,9.59729919 C21.7927334,10.9667338 21.7927334,13.1936107 20.4451988,14.5623214 L20.4451988,14.5623214 Z M18.0017644,7 C19.3374832,7 20.5929259,7.52803728 21.5374173,8.48747992 C23.4874979,10.468615 23.4874979,13.6916691 21.5375954,15.6721407 L21.5375954,15.6721407 L14.5507814,22.7700016 C14.4002043,22.9231529 14.2021265,23 14.0045237,23 C13.9542324,23 13.9041192,22.9952951 13.8542435,22.9851614 C13.7058039,22.9578366 13.5636581,22.8864183 13.4493003,22.7700016 L13.4493003,22.7700016 L6.46242685,15.6721407 C4.51252438,13.6916691 4.51252438,10.468615 6.46242685,8.48747992 C7.4068589,7.52803728 8.66283596,7 9.99855478,7 C11.3340361,7 12.5901913,7.52803728 13.5346233,8.48747992 L13.5346233,8.48747992 L13.9998924,8.96038514 L14.4653989,8.48747992 C15.410306,7.52803728 16.6658081,7 18.0017644,7 Z" id="Fill-1"></path>
            </g>
        </g>
    </g>
</svg>