<?xml version="1.0" encoding="UTF-8"?>
<svg width="29px" height="33px" viewBox="0 0 29 33" version="1.1" xmlns="http://www.w3.org/2000/svg" xmlns:xlink="http://www.w3.org/1999/xlink">
    <title>location</title>
    <g id="приоритетное" stroke="none" stroke-width="1" fill="none" fill-rule="evenodd">
        <g id="что-нужно-сделать" transform="translate(-514.000000, -218.000000)" fill-rule="nonzero">
            <g id="popup-null-rayoni-3" transform="translate(325.000000, 105.000000)">
                <g id="popup-null-rayoni">
                    <g id="location" transform="translate(189.000000, 113.000000)">
                        <path d="M19.870464,21.65024 C23.357376,16.178688 22.91904,16.861312 23.01952,16.718656 C24.289024,14.928064 24.96,12.820608 24.96,10.624 C24.96,4.79872 20.232896,0 14.4,0 C8.586112,0 3.84,4.789248 3.84,10.624 C3.84,12.8192 4.525056,14.981824 5.83616,16.796544 L8.929408,21.650304 C5.622208,22.158528 0,23.673088 0,27.008 C0,28.22368 0.793472,29.95616 4.573568,31.306176 C7.213056,32.248832 10.702784,32.768 14.4,32.768 C21.3136,32.768 28.8,30.817792 28.8,27.008 C28.8,23.672512 23.184384,22.159552 19.870464,21.65024 Z M7.439936,15.74048 C7.429376,15.723968 7.418368,15.70784 7.406848,15.691968 C6.31584,14.19104 5.76,12.412224 5.76,10.624 C5.76,5.822848 9.625984,1.92 14.4,1.92 C19.164096,1.92 23.04,5.824576 23.04,10.624 C23.04,12.415104 22.494656,14.133568 21.462656,15.594944 C21.370176,15.716928 21.852672,14.96736 14.4,26.661696 L7.439936,15.74048 Z M14.4,30.848 C6.848384,30.848 1.92,28.628288 1.92,27.008 C1.92,25.918976 4.452352,24.12832 10.063872,23.430336 L13.5904,28.963968 C13.766656,29.240576 14.071936,29.408 14.399936,29.408 C14.727936,29.408 15.03328,29.240512 15.209472,28.963968 L18.735936,23.430336 C24.347584,24.12832 26.88,25.918976 26.88,27.008 C26.88,28.614528 21.995968,30.848 14.4,30.848 Z" id="Shape" fill="#000000"></path>
                        <path d="M14.4,5.824 C11.75328,5.824 9.6,7.97728 9.6,10.624 C9.6,13.27072 11.75328,15.424 14.4,15.424 C17.04672,15.424 19.2,13.27072 19.2,10.624 C19.2,7.97728 17.04672,5.824 14.4,5.824 Z M14.4,13.504 C12.811968,13.504 11.52,12.212032 11.52,10.624 C11.52,9.035968 12.811968,7.744 14.4,7.744 C15.988032,7.744 17.28,9.035968 17.28,10.624 C17.28,12.212032 15.988032,13.504 14.4,13.504 Z" id="Shape" fill="#E10600"></path>
                    </g>
                </g>
            </g>
        </g>
    </g>
</svg>