<?xml version="1.0" encoding="utf-8"?>
<svg version="1.1" xmlns="http://www.w3.org/2000/svg" xmlns:xlink="http://www.w3.org/1999/xlink" viewBox="0 0 123 31" fill="#b74746">
	<path d="M0,15c0,8.3,6.7,15,15,15c8.3,0,15-6.7,15-15c0-8.3-6.7-15-15-15C6.7,0,0,6.7,0,15z M5.2,15
		c0-5.2,4-9.4,9.1-9.8v5.2c-2.2,0.3-3.9,2.2-3.9,4.5c0,2.5,2,4.6,4.6,4.6s4.6-2,4.6-4.6c0-2.3-1.7-4.2-3.9-4.5V5.2
		c5.1,0.3,9.1,4.6,9.1,9.8c0,5.4-4.4,9.8-9.8,9.8S5.2,20.4,5.2,15z M13,2.6c0-1.1,0.9-2,2-2c1.1,0,2,0.9,2,2c0,1.1-0.9,2-2,2
		C13.9,4.6,13,3.7,13,2.6z"/>

	<path d="M40,18.3h-4.3c-0.7,0-1.1-0.4-1.1-1.1v-4.3c0-0.8,0.4-1.1,1.1-1.1H40c0.7,0,1.1,0.4,1.1,1.1v4.3
		C41.1,17.9,40.7,18.3,40,18.3z M43.7,12.7c0-2.4-1.2-3.6-3.5-3.6h-4.7c-2.4,0-3.5,1.2-3.5,3.6v4.5c0,2.4,1.2,3.6,3.5,3.6h4.7
		c2.3,0,3.5-1.2,3.5-3.6V12.7z"/>
	<polygon points="56.7,9.1 45,9.1 45,11.7 49.6,11.7 49.6,20.9 52.2,20.9 52.2,11.7 56.7,11.7 		"/>
	<path d="M69.8,12.7c0-2.3-1.1-3.5-3.3-3.5H58v2.6H66c0.8,0,1.2,0.3,1.2,1c0,0.7-0.4,1-1.2,1h-3.4v2.6H66
		c0.8,0,1.2,0.3,1.2,1c0,0.7-0.4,1-1.2,1H58v2.6H66c2.5,0,3.8-1,3.8-3.1c0-1-0.2-2-0.7-2.7C69.6,14.2,69.8,13.4,69.8,12.7z"/>
	<path d="M79.1,18.3h-4.3c-0.7,0-1.1-0.4-1.1-1.1v-4.3c0-0.8,0.4-1.1,1.1-1.1h4.3c0.7,0,1.1,0.4,1.1,1.1v4.3
		C80.2,17.9,79.8,18.3,79.1,18.3z M82.8,12.7c0-2.4-1.2-3.6-3.5-3.6h-4.7c-2.4,0-3.5,1.2-3.5,3.6v4.5c0,2.4,1.2,3.6,3.5,3.6h4.7
		c2.3,0,3.5-1.2,3.5-3.6V12.7z"/>
	<path d="M93.3,17.3c0-0.7-0.4-1-1.1-1h-5.4v2h5.4C92.9,18.3,93.3,17.9,93.3,17.3z M93.3,12.7c0-0.7-0.4-1-1.1-1h-5.4
		v2h5.4C92.9,13.7,93.3,13.4,93.3,12.7z M95.9,17.3c0,2.4-1.2,3.5-3.5,3.5h-8.2V9.1h8.2c2.3,0,3.5,1.2,3.5,3.5
		c0,1.1-0.3,1.9-0.7,2.3C95.6,15.5,95.9,16.3,95.9,17.3z"/>
	<polygon points="108.9,20.9 106.3,20.9 106.3,12.7 99.8,20.9 97.2,20.9 97.2,9.1 99.8,9.1 99.8,17.3 106.3,9.1 
		108.9,9.1 		"/>
	<polygon points="117.5,15 122.2,9.1 119.2,9.1 115.5,13.7 112.8,13.7 112.8,9.1 110.2,9.1 110.2,20.9 112.8,20.9 
		112.8,16.3 115.5,16.3 119.2,20.9 122.2,20.9 		"/>
</svg>
