<svg width="33" height="28" viewBox="0 0 33 28" fill="none" xmlns="http://www.w3.org/2000/svg">
<path fill-rule="evenodd" clip-rule="evenodd" d="M7.96621 4.38519C10.1165 4.29652 13.2116 2.72699 16.5098 2.05641C19.8203 1.3836 23.2919 1.26963 25.5747 0.805488C28.5944 0.191556 29.7332 -0.605301 29.8828 0.7166C29.9223 1.0632 28.7696 1.85266 28.8984 2.47645C29.2251 4.05628 30.3135 6.07585 30.7749 8.3088C31.3083 10.8901 31.215 13.6882 31.5536 15.326C31.8112 16.5725 33.8831 17.1349 32.5646 17.7549C30.7868 18.5903 30.6659 17.2903 28.7626 17.6772C28.494 17.7318 28.2208 17.7258 27.9506 17.6647C27.5091 11.6033 26.1713 10.1266 25.8058 8.16058C25.9609 7.80256 26.3622 7.32566 26.4893 6.99003C26.7071 6.41506 26.5502 5.89002 26.4363 5.39385C25.5456 3.40563 23.3822 4.21346 23.3822 4.21346C23.3822 4.21346 21.4392 4.72843 19.3312 5.09786C17.6312 5.39565 15.8239 5.55372 14.8417 5.61753C12.6418 5.76015 6.88048 7.29722 6.9649 7.46067C6.80171 7.15325 6.6999 6.91816 6.67011 6.77352C6.45928 5.75456 4.76545 5.99973 4.78396 5.48991C4.81805 4.54886 5.10336 4.50296 7.96621 4.38519ZM23.7135 14.4123C23.7979 15.7037 23.6647 18.0265 22.7873 19.5832C21.8285 21.2856 20.371 22.2537 20.371 22.2537C20.371 22.2537 22.6966 22.8022 23.9573 20.1804C25.2179 17.5583 23.9139 14.6964 23.7135 14.4123ZM27.6208 23.2409C25.8534 24.0715 25.7331 22.779 23.8406 23.1636C21.412 23.6573 18.0158 24.9362 14.6343 25.6238C11.1633 26.3293 7.71447 26.4422 5.8351 26.8242C5.10105 26.9735 4.61078 28.2108 4.1959 27.9687C2.54022 27.003 4.21396 26.8846 3.87199 25.2293C3.53408 23.5942 2.38266 21.2529 1.87501 18.7951C1.39535 16.4733 2.20163 13.9029 1.87524 12.3226C1.66576 11.3095 -0.0183579 11.5533 0.000151425 11.0464C0.0337842 10.1107 0.317518 10.0653 3.16389 9.94819C5.30172 9.85998 8.37923 8.2994 11.6585 7.63263C14.9498 6.96362 18.4016 6.85032 20.671 6.38887C23.6736 5.77852 24.8056 4.98636 24.9548 6.30065C24.9938 6.64501 23.8478 7.43022 23.976 8.0502C24.3006 9.62108 25.3827 11.6292 25.8414 13.8492C26.3719 16.4155 26.2791 19.1977 26.6157 20.8261C26.8718 22.0652 28.9318 22.6245 27.6208 23.2409Z" fill="#F51449"/>
</svg>
