<svg width="14" height="18" viewBox="0 0 14 18" fill="none" xmlns="http://www.w3.org/2000/svg">
<path fill-rule="evenodd" clip-rule="evenodd" d="M0.0201416 6.51888C0.0201416 2.92437 2.94451 0 6.53906 0C10.1336 0 13.0579 2.92437 13.058 6.51888C13.058 10.9798 7.22418 17.5287 6.97581 17.8053C6.74293 18.0647 6.33561 18.0651 6.10231 17.8053C5.85393 17.5287 0.0201416 10.9798 0.0201416 6.51888ZM3.25926 6.51888C3.25926 8.32739 4.73055 9.79871 6.53906 9.79871C8.34753 9.79871 9.81882 8.32743 9.81882 6.51892C9.81882 4.71041 8.34753 3.23909 6.53906 3.23909C4.73059 3.23909 3.25926 4.71037 3.25926 6.51888Z" fill="#999999"/>
</svg>
