<?xml version="1.0" encoding="UTF-8"?>
<svg width="40px" height="30px" viewBox="0 0 40 30" version="1.1" xmlns="http://www.w3.org/2000/svg" xmlns:xlink="http://www.w3.org/1999/xlink">
    <title>Group 24</title>
    <g id="приоритетное" stroke="none" stroke-width="1" fill="none" fill-rule="evenodd">
        <g id="что-нужно-сделать" transform="translate(-853.000000, -217.000000)">
            <g id="popup-null-rayoni-3" transform="translate(325.000000, 105.000000)">
                <g id="popup-null-rayoni">
                    <g id="Group-24" transform="translate(528.000000, 112.000000)">
                        <g id="message" transform="translate(0.000000, 9.000000)" fill="#000000" fill-rule="nonzero">
                            <path d="M27.3632812,0.0356835938 L2.63671875,0.0356835938 C1.18283203,0.0356835938 0,1.21851563 0,2.67240234 L0,17.9525977 C0,19.4064844 1.18283203,20.5893164 2.63671875,20.5893164 L27.3632812,20.5893164 C28.817168,20.5893164 30,19.4064844 30,17.9525977 L30,2.67240234 C30,1.21851563 28.817168,0.0356835938 27.3632812,0.0356835938 Z M27.0191602,1.79349609 L26.6672461,2.08652344 L16.0461328,10.9307227 C15.4399219,11.4354492 14.5599609,11.4354492 13.9538672,10.9307227 L3.33275391,2.08652344 L2.98083984,1.79349609 L27.0191602,1.79349609 Z M1.7578125,3.06251953 L10.4116406,10.2685547 L1.7578125,16.0279102 L1.7578125,3.06251953 Z M27.3632812,18.8315039 L2.63671875,18.8315039 C2.21203125,18.8315039 1.85683594,18.5286914 1.77544922,18.1277344 L11.8210547,11.4421289 L12.8291016,12.281543 C13.4580469,12.8052539 14.229082,13.0671094 15.0000586,13.0671094 C15.7710352,13.0671094 16.5420117,12.8052539 17.1710156,12.281543 L18.1790625,11.4421289 L28.2246094,18.1276758 C28.1431641,18.52875 27.7879687,18.8315039 27.3632812,18.8315039 Z M28.2421875,16.0279102 L19.5883594,10.2686133 L28.2421875,3.06251953 L28.2421875,16.0279102 Z" id="Shape"></path>
                        </g>
                        <rect id="Rectangle" fill="#F51449" x="16" y="0" width="24" height="18" rx="8.5"></rect>
                        <path d="M27.196,13 L27.196,11.68 L25.564,11.68 L25.564,4.456 L24.688,4.456 L21.952,6.664 L22.612,7.564 L23.68,6.832 L24.256,6.124 L24.076,6.94 L24.076,11.68 L22.408,11.68 L22.408,13 L27.196,13 Z M31.396,13.168 C32.34,13.168 33.066,12.808 33.574,12.088 C34.082,11.368 34.336,10.268 34.336,8.788 C34.336,7.3 34.1,6.202 33.628,5.494 C33.156,4.786 32.416,4.432 31.408,4.432 C30.464,4.432 29.74,4.79 29.236,5.506 C28.732,6.222 28.48,7.316 28.48,8.788 C28.48,10.196 28.716,11.278 29.188,12.034 C29.66,12.79 30.396,13.168 31.396,13.168 Z M31.408,11.848 C30.92,11.848 30.57,11.582 30.358,11.05 C30.146,10.518 30.04,9.764 30.04,8.788 C30.04,7.756 30.146,6.992 30.358,6.496 C30.57,6 30.916,5.752 31.396,5.752 C31.9,5.752 32.256,6.016 32.464,6.544 C32.672,7.072 32.776,7.82 32.776,8.788 C32.776,9.852 32.666,10.628 32.446,11.116 C32.226,11.604 31.88,11.848 31.408,11.848 Z" id="10" fill="#FFFFFF" fill-rule="nonzero"></path>
                    </g>
                </g>
            </g>
        </g>
    </g>
</svg>