<svg id="Слой_1" data-name="Слой 1" xmlns="http://www.w3.org/2000/svg" viewBox="0 0 30.96 40.6"><defs><style>.cls-1,.cls-3{fill:#FFA900;}.cls-1{stroke:#fff;stroke-miterlimit:10;}.cls-2{fill:#fff;}</style></defs><title>Безымянный-11</title><path class="cls-1" d="M43,18A15,15,0,0,0,28,33c0,10.4,11.78,21.6,15,24.45C49.5,51.69,58,41.74,58,33A15,15,0,0,0,43,18Zm6.6,24.79-.16.11a11.8,11.8,0,0,1-12.86,0l-.16-.11a11.83,11.83,0,1,1,13.19,0Z" transform="translate(-27.52 -17.53)"/><circle class="cls-2" cx="15.58" cy="15.78" r="13.11"/><path class="cls-3" d="M32.71,31.16h-.6a.3.3,0,1,0,0,.6h.6a.3.3,0,1,0,0-.6Z" transform="translate(-27.52 -17.53)"/><path class="cls-3" d="M40.69,31.16h-.6a.3.3,0,1,0,0,.6h.6a.3.3,0,0,0,0-.6Z" transform="translate(-27.52 -17.53)"/><path class="cls-3" d="M36.4,34.85a.3.3,0,0,0-.3.3v.6a.3.3,0,0,0,.6,0v-.6A.3.3,0,0,0,36.4,34.85Z" transform="translate(-27.52 -17.53)"/><path class="cls-3" d="M36.4,26.87a.3.3,0,0,0-.3.3v.6a.3.3,0,1,0,.6,0v-.6A.3.3,0,0,0,36.4,26.87Z" transform="translate(-27.52 -17.53)"/><path class="cls-3" d="M38.81,35l-.3-.52a.3.3,0,0,0-.52.3l.3.52a.3.3,0,1,0,.52-.3Z" transform="translate(-27.52 -17.53)"/><path class="cls-3" d="M34.82,28.11l-.3-.52a.3.3,0,0,0-.52.3l.3.52a.3.3,0,1,0,.52-.3Z" transform="translate(-27.52 -17.53)"/><path class="cls-3" d="M40.27,33.34l-.52-.3a.3.3,0,1,0-.3.52l.52.3a.3.3,0,1,0,.3-.52Z" transform="translate(-27.52 -17.53)"/><path class="cls-3" d="M33.36,29.35l-.52-.3a.3.3,0,0,0-.3.52l.52.3a.3.3,0,0,0,.3-.52Z" transform="translate(-27.52 -17.53)"/><path class="cls-3" d="M40.38,29.16a.3.3,0,0,0-.41-.11l-.52.3a.3.3,0,1,0,.3.52l.52-.3A.3.3,0,0,0,40.38,29.16Z" transform="translate(-27.52 -17.53)"/><path class="cls-3" d="M33.47,33.15a.3.3,0,0,0-.41-.11l-.52.3a.3.3,0,0,0,.3.52l.52-.3A.3.3,0,0,0,33.47,33.15Z" transform="translate(-27.52 -17.53)"/><path class="cls-3" d="M38.7,27.48a.3.3,0,0,0-.41.11l-.3.52a.3.3,0,1,0,.52.3l.3-.52A.3.3,0,0,0,38.7,27.48Z" transform="translate(-27.52 -17.53)"/><path class="cls-3" d="M34.71,34.4a.3.3,0,0,0-.41.11L34,35a.3.3,0,1,0,.52.3l.3-.52A.3.3,0,0,0,34.71,34.4Z" transform="translate(-27.52 -17.53)"/><path class="cls-3" d="M36.4,28.67a2.79,2.79,0,1,0,2.79,2.79A2.8,2.8,0,0,0,36.4,28.67Zm0,1.8a1,1,0,0,0-1,1,.3.3,0,0,1-.6,0,1.6,1.6,0,0,1,1.6-1.6.3.3,0,1,1,0,.6Z" transform="translate(-27.52 -17.53)"/><path class="cls-3" d="M50.79,41.07a2,2,0,0,1-2.6,0,3.17,3.17,0,0,0-3.92,0,2,2,0,0,1-2.6,0,3.17,3.17,0,0,0-3.92,0,2,2,0,0,1-2.6,0,3.06,3.06,0,0,0-2-.68v1.15a1.93,1.93,0,0,1,1.3.47,3.17,3.17,0,0,0,3.92,0A2,2,0,0,1,41,42a3.17,3.17,0,0,0,3.92,0,2,2,0,0,1,2.6,0,3.17,3.17,0,0,0,3.92,0,1.93,1.93,0,0,1,1.3-.47V40.39A3.06,3.06,0,0,0,50.79,41.07Z" transform="translate(-27.52 -17.53)"/><path class="cls-3" d="M52.16,27.32a6.25,6.25,0,0,0-3-3l.27-.74-1.08-.39-.27.74a6.31,6.31,0,0,0-7.53,3.94l-.23.64.66.12A9.86,9.86,0,0,1,44,29.7l.13.08h.21a6,6,0,0,1,1.49.19L43.18,37.3H43a15.77,15.77,0,0,0-8.16,2.26,5,5,0,0,1,1,.58c.34.24.37.26.64.26s.31,0,.64-.26a4.31,4.31,0,0,1,5.24,0c.34.24.37.26.64.26s.31,0,.64-.26a4.31,4.31,0,0,1,5.24,0c.33.24.37.26.64.26s.31,0,.64-.26a5,5,0,0,1,1-.58,15.74,15.74,0,0,0-6.76-2.2l2.55-7a6,6,0,0,1,1.31.85l.12.1.15,0a9.86,9.86,0,0,1,3.05,1.11l.59.33.23-.64A6.26,6.26,0,0,0,52.16,27.32Z" transform="translate(-27.52 -17.53)"/></svg>