<svg width="28" height="40" viewBox="0 0 28 40" fill="none" xmlns="http://www.w3.org/2000/svg">
<path d="M14 0C6.28036 0 0 6.36863 0 14.1967C0 23.9116 12.5286 38.1736 13.062 38.776C13.5631 39.3418 14.4378 39.3408 14.938 38.776C15.4714 38.1736 28 23.9116 28 14.1967C27.9998 6.36863 21.7196 0 14 0Z" fill="#444444"/>
<path d="M19.6765 13.2194C19.6762 13.2191 19.6759 13.2189 19.6756 13.2186L14.7806 8.32373C14.5719 8.11499 14.2945 8 13.9995 8C13.7044 8 13.427 8.1149 13.2182 8.32364L8.32576 13.216C8.32411 13.2177 8.32246 13.2194 8.32081 13.2211C7.89235 13.652 7.89308 14.3512 8.32292 14.781C8.5193 14.9775 8.77867 15.0913 9.05598 15.1032C9.06724 15.1043 9.0786 15.1049 9.09004 15.1049H9.28514V18.7072C9.28514 19.42 9.86512 20 10.5781 20H12.4932C12.6873 20 12.8448 19.8426 12.8448 19.6484V16.8242C12.8448 16.4989 13.1094 16.2343 13.4347 16.2343H14.5643C14.8895 16.2343 15.1541 16.4989 15.1541 16.8242V19.6484C15.1541 19.8426 15.3115 20 15.5057 20H17.4208C18.1338 20 18.7138 19.42 18.7138 18.7072V15.1049H18.8947C19.1897 15.1049 19.4671 14.99 19.6759 14.7812C20.1062 14.3506 20.1064 13.6503 19.6765 13.2194Z" fill="white"/>
</svg>
