<svg width="14" height="14" viewBox="0 0 14 14" fill="none" xmlns="http://www.w3.org/2000/svg">
<path d="M2.6756 2.7746C4.79734 0.906032 7.9726 0.877461 10.1237 2.58318L8.41866 2.64603C8.19857 2.6546 8.02836 2.83175 8.03716 3.04603C8.04597 3.2546 8.22205 3.41746 8.43334 3.41746C8.43921 3.41746 8.44214 3.41746 8.44801 3.41746L11.0657 3.32318C11.2799 3.3146 11.4472 3.14603 11.4472 2.93746V2.90889C11.4472 2.90318 11.4472 2.90032 11.4472 2.8946V2.89175V2.89175L11.3504 0.371747C11.3416 0.157461 11.1567 -0.00825337 10.9395 0.000318054C10.7194 0.00888948 10.5492 0.186032 10.558 0.400318L10.6196 1.98032C9.55437 1.13175 8.24259 0.640318 6.83984 0.571747C5.10254 0.486032 3.43274 1.06603 2.14443 2.20318C0.371921 3.76603 -0.379343 6.14318 0.184105 8.40603C0.228124 8.58318 0.389529 8.70032 0.568541 8.70032C0.600822 8.70032 0.630168 8.69746 0.662449 8.68889C0.873742 8.63746 1.0058 8.42889 0.952977 8.22318C0.45996 6.2346 1.11732 4.14603 2.6756 2.7746Z" fill="#ffffff"/>
<path d="M12.9556 5.58607C12.9028 5.38035 12.6885 5.25178 12.4773 5.30321C12.266 5.35464 12.1339 5.56321 12.1867 5.76892C12.6827 7.7575 12.0224 9.84607 10.4641 11.2175C9.36948 12.1804 7.99608 12.6546 6.62854 12.6546C5.32263 12.6546 4.01966 12.2232 2.96906 11.3718L4.69462 11.2204C4.91179 11.2004 5.07319 11.0146 5.05265 10.8004C5.03211 10.5861 4.84135 10.4318 4.62126 10.4518L2.01238 10.6804C1.79521 10.7004 1.63381 10.8861 1.65435 11.1004L1.88912 13.6404C1.90673 13.8404 2.07987 13.9918 2.28236 13.9918C2.2941 13.9918 2.30584 13.9918 2.31758 13.9889C2.53474 13.9689 2.69614 13.7832 2.6756 13.5689L2.53474 12.0232C3.60001 12.8632 4.90592 13.3518 6.29986 13.4204C6.41138 13.4261 6.5229 13.4289 6.63148 13.4289C8.24846 13.4289 9.7862 12.8518 10.9953 11.7889C12.7678 10.2261 13.519 7.85178 12.9556 5.58607Z" fill="#ffffff"/>
</svg>
