<svg width="278" height="177" viewBox="0 0 278 177" fill="none" xmlns="http://www.w3.org/2000/svg">
<path fill-rule="evenodd" clip-rule="evenodd" d="M254.979 23.4031L277.648 18.6543L259.128 125.348L22.21 176.584L26.4466 158.52L240.938 110.239L254.979 23.4031Z" fill="#F51449"/>
<path fill-rule="evenodd" clip-rule="evenodd" d="M236.831 104.312L0 158.52L18.9612 52.0406L253.626 0L236.831 104.312Z" fill="#F51449"/>
<path d="M178.675 30.5747C180.602 30.1783 181.844 29.1387 182.652 25.748L186.956 24.8623C185.825 31.0208 182.607 35.4301 177.596 36.4612C172.649 37.4792 171.051 34.0613 172.052 27.9291L176.421 27.0302C175.999 30.3413 176.813 30.9581 178.675 30.5747Z" fill="#FFFFFE"/>
<path d="M153.909 106.256L161.169 104.762L172.413 74.476L178.162 58.3045L169.969 102.951L176.329 101.642L187.961 38.2499L180.188 39.8489L169.604 67.2106L164.475 81.6857L171.836 41.5679L165.542 42.8633L153.909 106.256Z" fill="#FFFFFE"/>
<path fill-rule="evenodd" clip-rule="evenodd" d="M150.633 106.929L143.503 108.396L144.393 97.1463L135.72 98.931L132.388 110.683L125.9 112.018L144.727 47.1454L155.071 45.0176L150.633 106.929ZM138.198 90.1417L145.008 88.7412L147.486 57.3827L138.198 90.1417Z" fill="#FFFFFE"/>
<path fill-rule="evenodd" clip-rule="evenodd" d="M131.358 66.105L131.775 63.8411C133.568 54.0608 131.302 49.9088 123.978 51.4151L113.315 53.6102L101.683 117.002L112.796 114.716C119.863 113.261 124.488 107.255 126.283 97.4743L127.229 92.3128C128.459 85.611 127.863 81.1157 124.455 79.8125C127.984 77.0818 130.162 72.6252 131.358 66.105ZM115.645 77.9658L118.719 61.2122L122.124 60.512C124.629 59.9964 125.356 61.7641 124.525 66.2918L123.877 69.824C122.947 74.895 121.041 76.8559 118.407 77.3977L115.645 77.9658ZM110.411 106.492L113.983 87.0219L117.131 86.3742C120.343 85.7133 121.36 87.2468 120.28 93.1333L119.266 98.6573C118.402 103.367 116.834 105.171 114.457 105.66L110.411 106.492Z" fill="#FFFFFE"/>
<path fill-rule="evenodd" clip-rule="evenodd" d="M98.4057 117.676L91.2756 119.142L92.1654 107.893L83.4927 109.678L80.1621 121.43L73.6738 122.765L92.5006 57.8923L102.843 55.7637L98.4057 117.676ZM85.9706 100.889L92.7801 99.4873L95.2581 68.1296L85.9706 100.889Z" fill="#FFFFFE"/>
<path fill-rule="evenodd" clip-rule="evenodd" d="M64.6173 124.63L63.0547 133.142L70.0574 131.701L73.2475 114.315L70.1639 114.949L80.1674 60.4316L60.3814 64.5025L50.2843 111.109C49.474 114.849 48.6569 117.283 47.0372 119.708L44.275 120.276L41.085 137.664L47.9586 136.249L49.5205 127.736L64.6173 124.63ZM53.7181 118.333C55.1571 116.556 56.1813 114.34 57.255 109.501L65.336 72.1978L71.3107 70.9681L62.9686 116.429L53.7181 118.333Z" fill="#FFFFFE"/>
<path d="M42.6765 114.505L44.2221 106.082L37.5407 107.457L35.8793 116.513C35.0482 121.041 33.3358 122.962 31.0873 123.424C28.8394 123.887 27.725 122.548 28.556 118.02L34.8373 83.7884C35.6677 79.2607 37.3971 77.2489 39.6456 76.7867C41.8941 76.3237 42.9917 77.7535 42.1605 82.2812L40.9139 89.0736L47.5952 87.6986L48.7252 81.5408C50.586 71.398 48.0526 66.3423 41.1147 67.7699C34.1762 69.1974 29.5153 75.7339 27.6547 85.8768L21.6058 118.841C19.7443 128.984 22.2786 134.039 29.2165 132.611C36.1542 131.183 40.8158 124.647 42.6765 114.505Z" fill="#FFFFFE"/>
<path d="M206.296 72.7318L204.752 81.1542C202.89 91.2962 198.229 97.8327 191.292 99.2603C184.354 100.688 181.82 95.6323 183.68 85.4894L189.73 52.5256C191.591 42.3828 196.251 35.8471 203.189 34.4195C210.127 32.9912 212.661 38.0468 210.8 48.1896L209.669 54.3482L202.989 55.7223L204.235 48.9308C205.066 44.4024 203.969 42.9725 201.72 43.4354C199.472 43.8984 197.743 45.9096 196.912 50.438L190.63 84.6693C189.801 89.1978 190.914 90.5365 193.163 90.0742C195.412 89.6114 197.124 87.6907 197.955 83.1621L199.616 74.1068L206.296 72.7318Z" fill="#FFFFFE"/>
<path fill-rule="evenodd" clip-rule="evenodd" d="M207.162 87.8903C206.597 90.9688 206.117 93.2466 204.979 95.7462L212.173 94.266L212.207 94.1802C212.873 92.5199 213.314 91.4206 214.245 86.3453L216.072 76.3841C217.153 70.4976 218.965 68.0327 222.177 67.3719L224.618 66.8695L219.883 92.6793L226.949 91.2254L238.581 27.833L227.917 30.0273C220.593 31.5345 216.564 36.9819 214.771 46.7624L213.857 51.743C212.66 58.264 213.357 62.2159 216.122 63.6511C212.206 66.4607 210.169 71.4985 208.957 78.1091L207.162 87.8903ZM221.654 46.304C222.485 41.7754 223.943 39.5588 226.447 39.0433L229.852 38.3423L226.28 57.8126L223.518 58.3815C220.884 58.9232 219.577 57.624 220.507 52.5522L221.654 46.304Z" fill="#FFFFFE"/>
</svg>
