<svg xmlns="http://www.w3.org/2000/svg" width="16" height="16" viewBox="0 0 16 16">
    <defs>
        <filter id="gf7spsuu4a" color-interpolation-filters="auto">
            <feColorMatrix in="SourceGraphic" values="0 0 0 0 0.000000 0 0 0 0 0.000000 0 0 0 0 0.000000 0 0 0 1.000000 0"/>
        </filter>
    </defs>
    <g fill="none" fill-rule="evenodd">
        <g>
            <g filter="url(#gf7spsuu4a)" transform="translate(-342.000000, -1020.000000) translate(313.000000, 1012.000000)">
                <g fill="#000" fill-rule="nonzero">
                    <path d="M4.07 4.32l-1.386.108c-.386.03-.73.232-.943.555L.143 7.4c-.162.245-.188.551-.07.82.12.268.363.455.653.5l1.27.196C2.291 7.341 3.002 5.77 4.07 4.321zM7.084 14.005l.196 1.269c.045.29.232.534.5.652.112.05.23.074.348.074.165 0 .329-.048.472-.143l2.418-1.598c.322-.213.524-.557.554-.943l.107-1.386c-1.448 1.067-3.02 1.778-4.595 2.075zM6.606 13.125c.045 0 .089-.004.133-.011.66-.11 1.296-.296 1.903-.54L3.426 7.358c-.244.607-.43 1.243-.54 1.903-.043.26.044.525.23.712l2.911 2.91c.155.156.364.242.58.242zM14.724 7.094c1.277-2.468 1.324-5.076 1.257-6.3-.022-.418-.357-.752-.776-.775-.199-.011-.435-.019-.7-.019-1.369 0-3.533.207-5.599 1.276-1.642.85-3.795 2.72-5.065 5.177.015.011.03.024.043.038l5.625 5.625c.014.013.027.028.038.043 2.458-1.27 4.328-3.423 5.177-5.065zm-5.42-3.712c.913-.913 2.4-.913 3.314 0 .442.443.686 1.032.686 1.658 0 .626-.244 1.214-.686 1.657-.457.457-1.058.685-1.658.685-.6 0-1.2-.228-1.657-.685-.443-.443-.686-1.031-.686-1.657 0-.626.243-1.215.686-1.658z" transform="translate(29.000000, 8.000000)"/>
                    <path d="M9.966 6.034c.548.548 1.44.548 1.989 0 .265-.265.412-.619.412-.994 0-.376-.147-.729-.412-.995-.274-.274-.635-.41-.995-.41s-.72.136-.994.41c-.266.266-.412.62-.412.995s.146.729.412.994zM.478 13.186c.12 0 .24-.046.332-.138l1.53-1.53c.183-.183.183-.48 0-.663-.183-.183-.48-.183-.663 0l-1.53 1.53c-.183.183-.183.48 0 .663.091.092.211.138.331.138zM3.743 12.257c-.183-.183-.48-.183-.663 0L.137 15.2c-.183.183-.183.48 0 .663.092.091.212.137.332.137.12 0 .24-.046.331-.137l2.943-2.943c.183-.183.183-.48 0-.663zM4.482 13.66l-1.53 1.53c-.183.183-.183.48 0 .663.091.092.211.138.331.138.12 0 .24-.046.332-.138l1.53-1.53c.183-.183.183-.48 0-.663-.183-.183-.48-.183-.663 0z" transform="translate(29.000000, 8.000000)"/>
                </g>
            </g>
        </g>
    </g>
</svg>
