<?xml version="1.0" encoding="UTF-8"?>
<svg width="13px" height="12px" viewBox="0 0 13 12" version="1.1" xmlns="http://www.w3.org/2000/svg" xmlns:xlink="http://www.w3.org/1999/xlink">
    <title>star</title>
    <g id="карточка-в-поиске---состояния" stroke="none" stroke-width="1" fill="none" fill-rule="evenodd">
        <g id="Group-4" transform="translate(-80.000000, -2.000000)" fill="#F51449" fill-rule="nonzero">
            <g id="Group-3" transform="translate(80.000000, 0.000000)">
                <g id="star" transform="translate(0.000000, 2.000000)">
                    <path d="M12.9659878,4.53411885 C12.8803923,4.28056208 12.646914,4.10104692 12.3717786,4.07706698 L8.6190663,3.74889535 L7.13597331,0.404315115 C7.02647457,0.158592413 6.77732527,0 6.5,0 C6.22269034,0 5.97344183,0.158592413 5.86463739,0.404315115 L4.3815444,3.74889535 L0.628237058,4.07706698 C0.353101624,4.1015246 0.120119256,4.28103976 0.0340278557,4.53411885 C-0.0515676332,4.78767565 0.0274817227,5.0657856 0.235569015,5.24157478 L3.07232034,7.63756221 L2.23590469,11.1860197 C2.17470839,11.4469329 2.27984303,11.716731 2.50459317,11.8732216 C2.62539886,11.9577724 2.76733063,12 2.90975834,12 C3.03215097,12 3.15464277,11.9686637 3.26404231,11.9056089 L6.5,10.0418614 L9.73537819,11.9056089 C9.97272464,12.0422276 10.2711682,12.0297122 10.4954224,11.8732216 C10.7201726,11.716731 10.8253072,11.4469329 10.7641109,11.1860197 L9.92769528,7.63756221 L12.7644466,5.24157478 C12.9724347,5.0657856 13.0515832,4.78824888 12.9659878,4.53411885 Z" id="Path"></path>
                </g>
            </g>
        </g>
    </g>
</svg>