<svg width="16" height="16" viewBox="0 0 16 16" fill="none" xmlns="http://www.w3.org/2000/svg">
<path d="M6.40028 14.5138C6.53199 14.5466 6.66628 14.5758 6.79956 14.6003C7.14799 14.6651 7.37834 15.0002 7.3139 15.349C7.28207 15.5205 7.18463 15.6634 7.05234 15.7567C6.91599 15.8527 6.74246 15.896 6.56564 15.8631C6.40691 15.8337 6.24694 15.799 6.08997 15.7599C5.7459 15.6742 5.53628 15.3257 5.62212 14.9818C5.70775 14.6376 6.05601 14.4281 6.40028 14.5138Z" fill="#999999"/>
<path d="M1.65191 5.90718C1.60693 6.04274 1.52106 6.1534 1.41259 6.22986C1.25177 6.34313 1.04133 6.38124 0.840509 6.31484C0.503822 6.20305 0.321401 5.83999 0.432783 5.50348C0.48353 5.35007 0.539839 5.19618 0.599822 5.04634C0.73153 4.71707 1.10502 4.55676 1.43447 4.68847C1.76356 4.82011 1.92394 5.19371 1.79213 5.52308C1.74173 5.64902 1.69452 5.77829 1.65191 5.90718Z" fill="#999999"/>
<path d="M4.31385 13.597C4.42712 13.6718 4.54403 13.7442 4.6618 13.812C4.96906 13.9892 5.0743 14.382 4.89713 14.6891C4.84903 14.7727 4.78496 14.841 4.71117 14.8931C4.5131 15.0325 4.24408 15.0534 4.02012 14.9243C3.8801 14.8436 3.74087 14.7577 3.60597 14.6685C3.31021 14.4731 3.2288 14.0747 3.42431 13.7788C3.61977 13.4828 4.01799 13.4015 4.31385 13.597Z" fill="#999999"/>
<path d="M0.0335644 7.70059C0.0475388 7.34619 0.346045 7.07034 0.700552 7.08418C1.05461 7.09815 1.33066 7.39676 1.31676 7.75103C1.31144 7.88648 1.31006 8.02395 1.31319 8.15927C1.31817 8.38152 1.20946 8.57963 1.04053 8.6987C0.939899 8.76957 0.81777 8.81245 0.685341 8.81547C0.330938 8.82334 0.0372384 8.54224 0.0293757 8.18766C0.0258392 8.02598 0.0271782 7.86217 0.0335644 7.70059Z" fill="#999999"/>
<path d="M1.75678 11.9078C2.04097 11.6946 2.44303 11.7525 2.65587 12.0362C2.73738 12.1448 2.82321 12.2521 2.91111 12.3554C3.14081 12.6253 3.10836 13.0307 2.83849 13.2605C2.82311 13.2736 2.80756 13.2856 2.79142 13.2968C2.52313 13.486 2.15025 13.4425 1.93333 13.1879C1.82836 13.0647 1.72605 12.9365 1.62864 12.8068C1.41576 12.5231 1.47338 12.1208 1.75678 11.9078Z" fill="#999999"/>
<path d="M0.812885 9.5867C1.15125 9.48061 1.5116 9.66897 1.61762 10.0073C1.65821 10.1366 1.70319 10.2665 1.75173 10.3937C1.85834 10.6737 1.7562 10.9819 1.52204 11.147C1.47908 11.1772 1.43177 11.2027 1.38037 11.2222C1.04907 11.3486 0.678087 11.1824 0.551804 10.8509C0.494156 10.6997 0.440662 10.5452 0.392284 10.3915C0.286362 10.053 0.474585 9.6928 0.812885 9.5867Z" fill="#999999"/>
<path d="M9.20176 14.6061C9.77584 14.503 10.3265 14.3275 10.8487 14.0827C10.8549 14.0795 10.8604 14.0758 10.8669 14.0728C10.99 14.0149 11.1128 13.9529 11.2319 13.888C11.2323 13.8876 11.2331 13.8873 11.2337 13.887C11.4522 13.7667 11.6654 13.6336 11.8726 13.4877C14.8931 11.36 15.6193 7.17158 13.4914 4.15112C13.0288 3.49457 12.4688 2.94683 11.8446 2.5127C11.8369 2.50734 11.8292 2.50202 11.8216 2.49663C9.62185 0.980954 6.63497 0.878808 4.29921 2.4363L4.80087 3.16114C4.94034 3.36289 4.85454 3.50992 4.61038 3.48794L2.43126 3.29285C2.18679 3.27088 2.0406 3.05941 2.10635 2.82332L2.69151 0.714963C2.75703 0.478602 2.92475 0.45031 3.06436 0.652027L3.56719 1.37859C5.28132 0.227924 7.33725 -0.21084 9.37787 0.143014C9.5834 0.178585 9.78604 0.222122 9.9859 0.2728C9.98745 0.273074 9.98868 0.273246 9.98992 0.273521C9.99764 0.275409 10.0055 0.277916 10.013 0.28001C11.7726 0.73189 13.3079 1.75819 14.4034 3.2225C14.4127 3.23345 14.4222 3.24416 14.4309 3.25608C14.4673 3.30514 14.5035 3.35534 14.5389 3.40554C14.5968 3.4878 14.6538 3.57213 14.7084 3.65646C14.7153 3.66662 14.7205 3.67695 14.7265 3.68722C15.6305 5.08811 16.0666 6.70768 15.9918 8.35651C15.9916 8.36193 15.9919 8.36739 15.9918 8.37295C15.9845 8.53402 15.9718 8.69732 15.9544 8.85807C15.9535 8.86844 15.9512 8.87826 15.9494 8.88863C15.9315 9.05028 15.909 9.2123 15.8808 9.37429C15.5943 11.0271 14.8147 12.5144 13.6464 13.6716C13.6437 13.6743 13.6408 13.6773 13.6381 13.6801C13.6371 13.6812 13.6361 13.6817 13.6351 13.6827C13.3212 13.9923 12.9798 14.2787 12.6122 14.5376C11.6501 15.2155 10.5789 15.6636 9.42837 15.8701C9.07929 15.9328 8.74583 15.7004 8.68321 15.3515C8.62061 15.0023 8.85279 14.6686 9.20176 14.6061Z" fill="#999999"/>
<path d="M8.40776 2.82227C8.69491 2.82227 8.92749 3.05506 8.92749 3.34178V8.51765L4.19376 10.9647C4.11757 11.0042 4.03599 11.0227 3.95571 11.0227C3.7677 11.0227 3.5861 10.9204 3.49377 10.7417C3.3621 10.4867 3.46174 10.1735 3.71671 10.0418L7.88862 7.885V3.34178C7.88866 3.05506 8.12097 2.82227 8.40776 2.82227Z" fill="#999999"/>
</svg>
