<svg width="20" height="12" xmlns="http://www.w3.org/2000/svg">
    <path d="M16.596 6.873c-.323-.42-.231-.606 0-.98.004-.005 2.673-3.794 2.948-5.08h.002c.137-.469 0-.813-.661-.813h-2.187c-.556 0-.813.295-.95.626 0 0-1.114 2.738-2.689 4.513-.508.513-.743.677-1.02.677-.137 0-.35-.164-.35-.633V.813c0-.562-.156-.813-.617-.813H7.634c-.349 0-.557.262-.557.506 0 .533.788.655.87 2.153V5.91c0 .713-.126.844-.405.844-.744 0-2.548-2.75-3.617-5.896C3.709.248 3.498 0 2.938 0H.75C.126 0 0 .296 0 .627 0 1.21.743 4.114 3.457 7.95c1.808 2.618 4.355 4.037 6.671 4.037 1.393 0 1.563-.315 1.563-.857 0-2.502-.126-2.739.571-2.739.324 0 .88.165 2.18 1.428 1.486 1.497 1.73 2.168 2.562 2.168h2.187c.623 0 .939-.315.757-.937-.416-1.307-3.226-3.997-3.352-4.177z" fill="#4D77A1" fill-rule="nonzero"/>
</svg>
