<svg width="9" height="8" viewBox="0 0 9 8" fill="none" xmlns="http://www.w3.org/2000/svg">
<path d="M8.59733 0.170344C8.49585 0.0993366 8.38137 0.0490184 8.26044 0.0222631C8.13951 -0.00449214 8.01449 -0.00716026 7.89253 0.0144114C7.77056 0.035983 7.65404 0.0813715 7.54962 0.147984C7.4452 0.214597 7.35493 0.301129 7.28396 0.402638L3.69852 5.52314L1.34764 3.91728C1.15909 3.78831 0.927028 3.73952 0.702505 3.78164C0.477982 3.82377 0.279389 3.95336 0.150415 4.14191C0.0214406 4.33046 -0.0273504 4.56252 0.0147753 4.78705C0.0569011 5.01157 0.186493 5.21016 0.375042 5.33914L3.52627 7.49155C3.62333 7.55779 3.73301 7.6033 3.84846 7.62522C3.96391 7.64714 4.08263 7.64501 4.19722 7.61894C4.31943 7.59758 4.43623 7.5523 4.54092 7.48571C4.6456 7.41912 4.73611 7.33252 4.80726 7.23088L8.82977 1.48443C8.97313 1.27924 9.02916 1.02552 8.98555 0.779034C8.94194 0.532548 8.8024 0.31389 8.59733 0.170344Z" fill="white"/>
</svg>
