<svg width="7" height="6" viewBox="0 0 7 6" fill="none" xmlns="http://www.w3.org/2000/svg">
<path d="M6.68681 0.13249C6.60788 0.0772618 6.51885 0.0381254 6.42479 0.0173158C6.33073 -0.00349389 6.23349 -0.00556909 6.13863 0.0112088C6.04377 0.0279868 5.95314 0.063289 5.87193 0.115099C5.79071 0.166909 5.7205 0.234212 5.6653 0.313163L2.87663 4.29577L1.04816 3.04678C0.901514 2.94646 0.721022 2.90851 0.546393 2.94128C0.371764 2.97404 0.217303 3.07484 0.116989 3.22149C0.016676 3.36814 -0.0212726 3.54863 0.0114919 3.72326C0.0442564 3.89789 0.14505 4.05235 0.291699 4.15266L2.74266 5.82676C2.81814 5.87828 2.90345 5.91368 2.99324 5.93073C3.08304 5.94778 3.17538 5.94612 3.2645 5.92584C3.35956 5.90923 3.4504 5.87401 3.53182 5.82222C3.61324 5.77043 3.68364 5.70307 3.73898 5.62402L6.8676 1.15456C6.9791 0.994962 7.02268 0.797627 6.98876 0.605915C6.95484 0.414204 6.84631 0.244137 6.68681 0.13249Z" fill="white"/>
</svg>
