<svg viewBox="0 0 97 12" fill="none" xmlns="http://www.w3.org/2000/svg">
<path d="M1.02746 9C0.944485 9 0.876599 8.9736 0.823798 8.9208C0.770998 8.86046 0.744598 8.79257 0.744598 8.71714V1.36283C0.744598 1.27985 0.770998 1.21197 0.823798 1.15917C0.876599 1.10637 0.944485 1.07997 1.02746 1.07997H6.45834C6.54131 1.07997 6.60919 1.10637 6.66199 1.15917C6.71479 1.21197 6.74119 1.27985 6.74119 1.36283V2.49426C6.74119 2.57723 6.71479 2.64889 6.66199 2.70923C6.60919 2.76203 6.54131 2.78843 6.45834 2.78843H2.78118V4.12352H4.35387C5.25902 4.12352 5.97182 4.3385 6.49228 4.76844C7.01274 5.19838 7.27297 5.78673 7.27297 6.53348C7.27297 6.88045 7.20885 7.20479 7.08062 7.50651C6.95239 7.80068 6.76382 8.06091 6.51491 8.2872C6.27353 8.50594 5.97182 8.67943 5.60976 8.80766C5.25524 8.93589 4.83661 9 4.35387 9H1.02746ZM2.78118 7.52914H4.17284C4.39158 7.52914 4.57261 7.48388 4.71593 7.39336C4.86679 7.29531 4.97993 7.17085 5.05536 7.01999C5.13079 6.86159 5.1685 6.69565 5.1685 6.52216C5.1685 6.25816 5.08176 6.03187 4.90827 5.8433C4.74233 5.65473 4.49718 5.56044 4.17284 5.56044H2.78118V7.52914ZM8.33908 11.1497C8.25611 11.1497 8.18822 11.1196 8.13542 11.0592C8.08262 11.0064 8.05622 10.9423 8.05622 10.8669V3.39941C8.05622 3.31643 8.08262 3.24855 8.13542 3.19575C8.18822 3.14295 8.25611 3.11655 8.33908 3.11655H9.6176C9.69303 3.11655 9.75714 3.14295 9.80994 3.19575C9.87028 3.24855 9.90046 3.31643 9.90046 3.39941V3.80672C10.0815 3.58044 10.3153 3.39186 10.6019 3.24101C10.8886 3.0826 11.2393 3.0034 11.6542 3.0034C12.0313 3.0034 12.3632 3.06375 12.6498 3.18443C12.9365 3.29758 13.1816 3.46729 13.3853 3.69358C13.5965 3.91987 13.7586 4.19518 13.8718 4.51952C13.9849 4.84387 14.049 5.21724 14.0641 5.63964C14.0717 5.7905 14.0754 5.93004 14.0754 6.05827C14.0754 6.1865 14.0717 6.32605 14.0641 6.4769C14.049 6.88422 13.9849 7.25005 13.8718 7.57439C13.7586 7.89874 13.6002 8.17405 13.3966 8.40034C13.1929 8.62663 12.944 8.80388 12.6498 8.93211C12.3632 9.0528 12.0313 9.11314 11.6542 9.11314C11.2846 9.11314 10.9602 9.04903 10.6811 8.9208C10.4096 8.78503 10.1833 8.59646 10.0023 8.35508V10.8669C10.0023 10.9423 9.97588 11.0064 9.92308 11.0592C9.87028 11.1196 9.8024 11.1497 9.71943 11.1497H8.33908ZM11.0432 7.59702C11.2997 7.59702 11.4995 7.54422 11.6429 7.43862C11.7862 7.33302 11.888 7.18971 11.9483 7.00868C12.0162 6.82765 12.0577 6.62776 12.0728 6.40902C12.0879 6.17519 12.0879 5.94136 12.0728 5.70753C12.0577 5.48879 12.0162 5.2889 11.9483 5.10787C11.888 4.92684 11.7862 4.78353 11.6429 4.67793C11.4995 4.57232 11.2997 4.51952 11.0432 4.51952C10.8018 4.51952 10.6057 4.5761 10.4549 4.68924C10.304 4.79484 10.1946 4.93438 10.1267 5.10787C10.0589 5.28136 10.0174 5.46993 10.0023 5.67359C9.99474 5.8169 9.99097 5.95644 9.99097 6.09222C9.99097 6.22799 9.99474 6.3713 10.0023 6.52216C10.0098 6.71073 10.0513 6.88799 10.1267 7.05393C10.2022 7.21234 10.3153 7.34434 10.4662 7.44994C10.617 7.54799 10.8094 7.59702 11.0432 7.59702ZM17.9773 9.11314C17.3437 9.11314 16.8081 9.01131 16.3707 8.80766C15.9407 8.604 15.6088 8.3136 15.375 7.93645C15.1487 7.55177 15.0205 7.09542 14.9903 6.56742C14.9828 6.41656 14.979 6.24685 14.979 6.05827C14.979 5.86216 14.9828 5.69244 14.9903 5.54913C15.0205 5.01358 15.1563 4.55724 15.3976 4.18009C15.639 3.80295 15.9747 3.51255 16.4046 3.30889C16.8421 3.10523 17.3663 3.0034 17.9773 3.0034C18.5958 3.0034 19.12 3.10523 19.55 3.30889C19.9875 3.51255 20.3269 3.80295 20.5683 4.18009C20.8097 4.55724 20.9454 5.01358 20.9756 5.54913C20.9831 5.69244 20.9869 5.86216 20.9869 6.05827C20.9869 6.24685 20.9831 6.41656 20.9756 6.56742C20.9454 7.09542 20.8134 7.55177 20.5796 7.93645C20.3533 8.3136 20.0214 8.604 19.5839 8.80766C19.154 9.01131 18.6184 9.11314 17.9773 9.11314ZM17.9773 7.73279C18.3167 7.73279 18.5619 7.63097 18.7127 7.42731C18.8711 7.22365 18.9616 6.91816 18.9843 6.51085C18.9918 6.3977 18.9956 6.24685 18.9956 6.05827C18.9956 5.8697 18.9918 5.71884 18.9843 5.6057C18.9616 5.20593 18.8711 4.90421 18.7127 4.70055C18.5619 4.48935 18.3167 4.38375 17.9773 4.38375C17.653 4.38375 17.4078 4.48935 17.2419 4.70055C17.0835 4.90421 16.9967 5.20593 16.9816 5.6057C16.9741 5.71884 16.9703 5.8697 16.9703 6.05827C16.9703 6.24685 16.9741 6.3977 16.9816 6.51085C16.9967 6.91816 17.0835 7.22365 17.2419 7.42731C17.4078 7.63097 17.653 7.73279 17.9773 7.73279ZM22.3936 9C22.3106 9 22.2427 8.9736 22.1899 8.9208C22.1371 8.86046 22.1107 8.79257 22.1107 8.71714V3.39941C22.1107 3.31643 22.1371 3.24855 22.1899 3.19575C22.2427 3.14295 22.3106 3.11655 22.3936 3.11655H23.7287C23.8117 3.11655 23.8795 3.14295 23.9323 3.19575C23.9851 3.24855 24.0115 3.31643 24.0115 3.39941V5.27758H26.0481V3.39941C26.0481 3.31643 26.0745 3.24855 26.1273 3.19575C26.1801 3.14295 26.248 3.11655 26.331 3.11655H27.6661C27.749 3.11655 27.8169 3.14295 27.8697 3.19575C27.9225 3.24855 27.9489 3.31643 27.9489 3.39941V8.71714C27.9489 8.79257 27.9225 8.86046 27.8697 8.9208C27.8169 8.9736 27.749 9 27.6661 9H26.331C26.248 9 26.1801 8.9736 26.1273 8.9208C26.0745 8.86046 26.0481 8.79257 26.0481 8.71714V6.75976H24.0115V8.71714C24.0115 8.79257 23.9851 8.86046 23.9323 8.9208C23.8795 8.9736 23.8117 9 23.7287 9H22.3936ZM29.5974 9C29.522 9 29.4578 8.9736 29.405 8.9208C29.3522 8.86046 29.3258 8.79634 29.3258 8.72846V3.39941C29.3258 3.31643 29.3522 3.24855 29.405 3.19575C29.4578 3.14295 29.5257 3.11655 29.6087 3.11655H30.9438C31.0268 3.11655 31.0946 3.14295 31.1474 3.19575C31.2002 3.24855 31.2266 3.31643 31.2266 3.39941V7.52914L30.7175 7.28022L33.5121 3.29758C33.5499 3.24478 33.5951 3.20329 33.6479 3.17312C33.7007 3.1354 33.7611 3.11655 33.8289 3.11655H35.0396C35.115 3.11655 35.1791 3.14295 35.2319 3.19575C35.2847 3.24855 35.3111 3.31266 35.3111 3.38809V8.71714C35.3111 8.79257 35.2847 8.86046 35.2319 8.9208C35.1791 8.9736 35.1112 9 35.0283 9H33.6932C33.6102 9 33.5423 8.9736 33.4895 8.9208C33.4367 8.86046 33.4103 8.79257 33.4103 8.71714V4.71187L33.9308 4.8137L31.1135 8.81897C31.0833 8.87177 31.0418 8.91703 30.989 8.95474C30.9362 8.98491 30.8721 9 30.7967 9H29.5974ZM36.8238 11.1497C36.7408 11.1497 36.6729 11.1196 36.6201 11.0592C36.5673 11.0064 36.5409 10.9423 36.5409 10.8669V3.39941C36.5409 3.31643 36.5673 3.24855 36.6201 3.19575C36.6729 3.14295 36.7408 3.11655 36.8238 3.11655H38.1023C38.1777 3.11655 38.2419 3.14295 38.2947 3.19575C38.355 3.24855 38.3852 3.31643 38.3852 3.39941V3.80672C38.5662 3.58044 38.8 3.39186 39.0867 3.24101C39.3733 3.0826 39.724 3.0034 40.1389 3.0034C40.516 3.0034 40.8479 3.06375 41.1346 3.18443C41.4212 3.29758 41.6663 3.46729 41.87 3.69358C42.0812 3.91987 42.2434 4.19518 42.3565 4.51952C42.4696 4.84387 42.5338 5.21724 42.5488 5.63964C42.5564 5.7905 42.5602 5.93004 42.5602 6.05827C42.5602 6.1865 42.5564 6.32605 42.5488 6.4769C42.5338 6.88422 42.4696 7.25005 42.3565 7.57439C42.2434 7.89874 42.085 8.17405 41.8813 8.40034C41.6776 8.62663 41.4287 8.80388 41.1346 8.93211C40.8479 9.0528 40.516 9.11314 40.1389 9.11314C39.7693 9.11314 39.4449 9.04903 39.1659 8.9208C38.8943 8.78503 38.668 8.59646 38.487 8.35508V10.8669C38.487 10.9423 38.4606 11.0064 38.4078 11.0592C38.355 11.1196 38.2871 11.1497 38.2041 11.1497H36.8238ZM39.5279 7.59702C39.7844 7.59702 39.9843 7.54422 40.1276 7.43862C40.2709 7.33302 40.3727 7.18971 40.4331 7.00868C40.5009 6.82765 40.5424 6.62776 40.5575 6.40902C40.5726 6.17519 40.5726 5.94136 40.5575 5.70753C40.5424 5.48879 40.5009 5.2889 40.4331 5.10787C40.3727 4.92684 40.2709 4.78353 40.1276 4.67793C39.9843 4.57232 39.7844 4.51952 39.5279 4.51952C39.2865 4.51952 39.0904 4.5761 38.9396 4.68924C38.7887 4.79484 38.6793 4.93438 38.6115 5.10787C38.5436 5.28136 38.5021 5.46993 38.487 5.67359C38.4795 5.8169 38.4757 5.95644 38.4757 6.09222C38.4757 6.22799 38.4795 6.3713 38.487 6.52216C38.4945 6.71073 38.536 6.88799 38.6115 7.05393C38.6869 7.21234 38.8 7.34434 38.9509 7.44994C39.1017 7.54799 39.2941 7.59702 39.5279 7.59702ZM44.2444 11.161C44.1614 11.161 44.0935 11.1309 44.0407 11.0705C43.9879 11.0177 43.9615 10.9498 43.9615 10.8669V9.96172C43.9615 9.87875 43.9879 9.80709 44.0407 9.74675C44.0935 9.69395 44.1614 9.66755 44.2444 9.66755H44.6404C44.7762 9.66755 44.8893 9.64115 44.9798 9.58835C45.0703 9.54309 45.1495 9.46012 45.2174 9.33943C45.2929 9.22629 45.3721 9.06789 45.455 8.86423L47.7179 3.35415C47.7405 3.28626 47.7782 3.22969 47.831 3.18443C47.8838 3.13918 47.9593 3.11655 48.0573 3.11655H49.268C49.3359 3.11655 49.3924 3.14295 49.4377 3.19575C49.4905 3.24101 49.5169 3.29381 49.5169 3.35415C49.5169 3.36923 49.5131 3.38809 49.5056 3.41072C49.5056 3.43335 49.498 3.46352 49.4829 3.50123L47.3332 8.6832C47.1824 9.0528 47.024 9.38846 46.858 9.69017C46.6921 9.99189 46.5148 10.2521 46.3262 10.4709C46.1377 10.6896 45.9189 10.8593 45.67 10.98C45.4211 11.1007 45.1307 11.161 44.7988 11.161H44.2444ZM45.5795 8.87554L43.2601 3.50123C43.2374 3.44843 43.2261 3.40318 43.2261 3.36546C43.2412 3.29758 43.2714 3.24101 43.3166 3.19575C43.3619 3.14295 43.4222 3.11655 43.4977 3.11655H44.7649C44.8629 3.11655 44.9346 3.14295 44.9798 3.19575C45.0326 3.24101 45.0703 3.29381 45.093 3.35415L46.7109 7.49519L45.5795 8.87554ZM50.6571 9C50.5816 9 50.5175 8.9736 50.4647 8.9208C50.4119 8.86046 50.3855 8.79634 50.3855 8.72846V3.39941C50.3855 3.31643 50.4119 3.24855 50.4647 3.19575C50.5175 3.14295 50.5854 3.11655 50.6684 3.11655H52.0035C52.0864 3.11655 52.1543 3.14295 52.2071 3.19575C52.2599 3.24855 52.2863 3.31643 52.2863 3.39941V7.52914L51.7772 7.28022L54.5718 3.29758C54.6095 3.24478 54.6548 3.20329 54.7076 3.17312C54.7604 3.1354 54.8207 3.11655 54.8886 3.11655H56.0993C56.1747 3.11655 56.2388 3.14295 56.2916 3.19575C56.3444 3.24855 56.3708 3.31266 56.3708 3.38809V8.71714C56.3708 8.79257 56.3444 8.86046 56.2916 8.9208C56.2388 8.9736 56.1709 9 56.0879 9H54.7528C54.6699 9 54.602 8.9736 54.5492 8.9208C54.4964 8.86046 54.47 8.79257 54.47 8.71714V4.71187L54.9905 4.8137L52.1732 8.81897C52.143 8.87177 52.1015 8.91703 52.0487 8.95474C51.9959 8.98491 51.9318 9 51.8564 9H50.6571ZM53.4743 2.34717C52.9991 2.34717 52.6144 2.27552 52.3203 2.1322C52.0261 1.98134 51.8111 1.78523 51.6754 1.54386C51.5471 1.29494 51.483 1.0234 51.483 0.729224C51.483 0.668881 51.4981 0.619852 51.5283 0.582137C51.566 0.53688 51.6226 0.514251 51.698 0.514251H52.6031C52.671 0.514251 52.7238 0.53688 52.7615 0.582137C52.7992 0.619852 52.8181 0.668881 52.8181 0.729224C52.8181 0.887624 52.8596 1.02717 52.9426 1.14785C53.0331 1.26854 53.2066 1.32888 53.463 1.32888C53.727 1.32888 53.9005 1.26854 53.9835 1.14785C54.074 1.02717 54.1192 0.887624 54.1192 0.729224C54.1192 0.668881 54.1381 0.619852 54.1758 0.582137C54.2135 0.53688 54.2663 0.514251 54.3342 0.514251H55.2394C55.3073 0.514251 55.3601 0.53688 55.3978 0.582137C55.4355 0.619852 55.4543 0.668881 55.4543 0.729224C55.4543 1.0234 55.3865 1.29494 55.2507 1.54386C55.1225 1.78523 54.9113 1.98134 54.6171 2.1322C54.3229 2.27552 53.942 2.34717 53.4743 2.34717ZM59.8057 9C59.7302 9 59.6699 8.98114 59.6246 8.94343C59.5794 8.89817 59.5568 8.8416 59.5568 8.77371C59.5568 8.72091 59.5718 8.67188 59.602 8.62663L61.4236 5.95644L59.8622 3.50123C59.8547 3.47861 59.8434 3.45221 59.8283 3.42203C59.8132 3.39186 59.8057 3.36546 59.8057 3.34283C59.8057 3.27495 59.8283 3.22215 59.8736 3.18443C59.9264 3.13918 59.9867 3.11655 60.0546 3.11655H61.5028C61.5933 3.11655 61.6612 3.13918 61.7065 3.18443C61.7593 3.22215 61.797 3.25986 61.8196 3.29758L63.0529 5.27758H63.5733V3.39941C63.5733 3.31643 63.5997 3.24855 63.6525 3.19575C63.7129 3.14295 63.7845 3.11655 63.8675 3.11655H65.1687C65.2516 3.11655 65.3195 3.14295 65.3723 3.19575C65.4251 3.24855 65.4515 3.31643 65.4515 3.39941V5.27758H65.972L67.2052 3.29758C67.2279 3.25986 67.2656 3.22215 67.3184 3.18443C67.3712 3.13918 67.4391 3.11655 67.522 3.11655H68.9703C69.0382 3.11655 69.0947 3.13918 69.14 3.18443C69.1928 3.22215 69.2192 3.27495 69.2192 3.34283C69.2192 3.36546 69.2117 3.39186 69.1966 3.42203C69.189 3.45221 69.1777 3.47861 69.1626 3.50123L67.6012 5.95644L69.4229 8.62663C69.453 8.67188 69.4681 8.72091 69.4681 8.77371C69.4681 8.8416 69.4455 8.89817 69.4002 8.94343C69.355 8.98114 69.2946 9 69.2192 9H67.6239C67.5258 9 67.4504 8.97737 67.3976 8.93211C67.3523 8.88686 67.3184 8.84914 67.2958 8.81897L65.9494 6.75976H65.4515V8.71714C65.4515 8.79257 65.4251 8.86046 65.3723 8.9208C65.3195 8.9736 65.2516 9 65.1687 9H63.8675C63.7845 9 63.7129 8.9736 63.6525 8.9208C63.5997 8.86046 63.5733 8.79257 63.5733 8.71714V6.75976H63.0755L61.7291 8.81897C61.714 8.84914 61.6801 8.88686 61.6273 8.93211C61.5745 8.97737 61.4991 9 61.401 9H59.8057ZM70.6229 9C70.5475 9 70.4833 8.9736 70.4305 8.9208C70.3777 8.86046 70.3513 8.79634 70.3513 8.72846V3.39941C70.3513 3.31643 70.3777 3.24855 70.4305 3.19575C70.4833 3.14295 70.5512 3.11655 70.6342 3.11655H71.9693C72.0523 3.11655 72.1201 3.14295 72.1729 3.19575C72.2257 3.24855 72.2521 3.31643 72.2521 3.39941V7.52914L71.743 7.28022L74.5376 3.29758C74.5754 3.24478 74.6206 3.20329 74.6734 3.17312C74.7262 3.1354 74.7866 3.11655 74.8544 3.11655H76.0651C76.1405 3.11655 76.2046 3.14295 76.2574 3.19575C76.3102 3.24855 76.3366 3.31266 76.3366 3.38809V8.71714C76.3366 8.79257 76.3102 8.86046 76.2574 8.9208C76.2046 8.9736 76.1367 9 76.0538 9H74.7187C74.6357 9 74.5678 8.9736 74.515 8.9208C74.4622 8.86046 74.4358 8.79257 74.4358 8.71714V4.71187L74.9563 4.8137L72.139 8.81897C72.1088 8.87177 72.0673 8.91703 72.0145 8.95474C71.9617 8.98491 71.8976 9 71.8222 9H70.6229ZM77.4759 9C77.3929 9 77.3213 8.9736 77.2609 8.9208C77.2081 8.86046 77.1817 8.7888 77.1817 8.70583V7.72148C77.1817 7.55554 77.2723 7.46125 77.4533 7.43862C77.672 7.41599 77.838 7.31416 77.9511 7.13314C78.0643 6.95211 78.1435 6.68433 78.1887 6.32982C78.234 5.9753 78.2566 5.53027 78.2566 4.99473V3.39941C78.2566 3.31643 78.283 3.24855 78.3358 3.19575C78.3961 3.14295 78.464 3.11655 78.5395 3.11655H82.9747C83.0576 3.11655 83.1255 3.14295 83.1783 3.19575C83.2387 3.24855 83.2688 3.31643 83.2688 3.39941V8.71714C83.2688 8.79257 83.2387 8.86046 83.1783 8.9208C83.1255 8.9736 83.0576 9 82.9747 9H81.6396C81.5642 9 81.4963 8.9736 81.4359 8.9208C81.3831 8.86046 81.3567 8.79257 81.3567 8.71714V4.59872H80.0669V5.19838C80.0669 5.9225 80.0292 6.5297 79.9537 7.01999C79.8783 7.51028 79.7425 7.89874 79.5464 8.18537C79.3503 8.472 79.0825 8.67943 78.7431 8.80766C78.4112 8.93589 77.9888 9 77.4759 9ZM84.9207 9C84.8378 9 84.7699 8.9736 84.7171 8.9208C84.6643 8.86046 84.6379 8.79257 84.6379 8.71714V3.39941C84.6379 3.31643 84.6643 3.24855 84.7171 3.19575C84.7699 3.14295 84.8378 3.11655 84.9207 3.11655H86.2671C86.3426 3.11655 86.4067 3.14295 86.4595 3.19575C86.5198 3.24855 86.55 3.31643 86.55 3.39941V4.92684H87.6249C88.3792 4.92684 88.9637 5.11164 89.3786 5.48124C89.801 5.8433 90.0122 6.3449 90.0122 6.98605C90.0122 7.64228 89.7934 8.14388 89.356 8.49086C88.926 8.83029 88.3264 9 87.557 9H84.9207ZM86.5161 7.69885H87.4552C87.7493 7.69885 87.9643 7.64228 88.1001 7.52914C88.2358 7.41599 88.3037 7.23496 88.3037 6.98605C88.3037 6.72959 88.2358 6.53725 88.1001 6.40902C87.9643 6.28079 87.7493 6.21667 87.4552 6.21667H86.5161V7.69885ZM93.6734 9.11314C92.7834 9.11314 92.0743 8.87177 91.5463 8.38903C91.0183 7.90628 90.743 7.18971 90.7204 6.2393C90.7204 6.1865 90.7204 6.11862 90.7204 6.03564C90.7204 5.95267 90.7204 5.88856 90.7204 5.8433C90.743 5.24741 90.875 4.73827 91.1164 4.31587C91.3653 3.88592 91.7047 3.56158 92.1347 3.34283C92.5722 3.11655 93.0813 3.0034 93.6621 3.0034C94.3259 3.0034 94.8728 3.1354 95.3027 3.39941C95.7402 3.66341 96.0683 4.02169 96.287 4.47427C96.5058 4.92684 96.6152 5.44353 96.6152 6.02433V6.29587C96.6152 6.37885 96.5888 6.44673 96.536 6.49953C96.4832 6.55233 96.4153 6.57873 96.3323 6.57873H92.7117C92.7117 6.58628 92.7117 6.59759 92.7117 6.61268C92.7117 6.62776 92.7117 6.64285 92.7117 6.65793C92.7193 6.87668 92.757 7.07656 92.8249 7.25759C92.9003 7.43862 93.0059 7.58194 93.1417 7.68754C93.285 7.79314 93.4585 7.84594 93.6621 7.84594C93.813 7.84594 93.9374 7.82331 94.0355 7.77805C94.1411 7.72525 94.2278 7.66868 94.2957 7.60834C94.3636 7.54045 94.4164 7.48388 94.4541 7.43862C94.522 7.35565 94.5748 7.30662 94.6125 7.29154C94.6578 7.26891 94.7257 7.25759 94.8162 7.25759H96.2192C96.2946 7.25759 96.3549 7.28022 96.4002 7.32548C96.453 7.37074 96.4756 7.43108 96.4681 7.50651C96.4605 7.63474 96.3964 7.78937 96.2757 7.9704C96.155 8.15143 95.9778 8.33245 95.744 8.51348C95.5177 8.68697 95.231 8.83029 94.8841 8.94343C94.5371 9.05657 94.1336 9.11314 93.6734 9.11314ZM92.7117 5.45861H94.6238V5.43599C94.6238 5.18707 94.5861 4.97587 94.5107 4.80238C94.4428 4.62135 94.3334 4.48181 94.1826 4.38375C94.0393 4.2857 93.8658 4.23667 93.6621 4.23667C93.466 4.23667 93.2963 4.2857 93.153 4.38375C93.0097 4.48181 92.9003 4.62135 92.8249 4.80238C92.7494 4.97587 92.7117 5.18707 92.7117 5.43599V5.45861ZM94.3297 2.1322C94.2542 2.1322 94.1901 2.10957 94.1373 2.06431C94.0921 2.01906 94.0694 1.95494 94.0694 1.87197V0.842367C94.0694 0.766938 94.0921 0.706595 94.1373 0.661337C94.1901 0.608537 94.2542 0.582137 94.3297 0.582137H95.3706C95.446 0.582137 95.5064 0.608537 95.5516 0.661337C95.6044 0.706595 95.6308 0.766938 95.6308 0.842367V1.87197C95.6308 1.95494 95.6044 2.01906 95.5516 2.06431C95.5064 2.10957 95.446 2.1322 95.3706 2.1322H94.3297ZM91.9876 2.1322C91.9122 2.1322 91.8518 2.10957 91.8066 2.06431C91.7613 2.01906 91.7387 1.95494 91.7387 1.87197V0.842367C91.7387 0.766938 91.7613 0.706595 91.8066 0.661337C91.8518 0.608537 91.9122 0.582137 91.9876 0.582137H93.0285C93.1039 0.582137 93.1643 0.608537 93.2095 0.661337C93.2623 0.706595 93.2887 0.766938 93.2887 0.842367V1.87197C93.2887 1.95494 93.2623 2.01906 93.2095 2.06431C93.1643 2.10957 93.1039 2.1322 93.0285 2.1322H91.9876Z" fill="#1C1C1C"/>
</svg>
