<svg viewBox="0 0 248 59" fill="none" xmlns="http://www.w3.org/2000/svg">
<path d="M0 7.50074C0 3.50274 3.24102 0.261719 7.23901 0.261719H240.761C244.759 0.261719 248 3.50274 248 7.50073V51.6195C248 55.6156 244.761 58.8551 240.764 58.8551H7.23562C3.2395 58.8551 0 55.6156 0 51.6195V7.50074Z" fill="#1C1C1C"/>
<path d="M22.7803 29.5117C22.6035 29.5117 22.4588 29.4554 22.3462 29.3429C22.2336 29.2142 22.1774 29.0695 22.1774 28.9087V13.231C22.1774 13.0541 22.2336 12.9094 22.3462 12.7968C22.4588 12.6843 22.6035 12.628 22.7803 12.628H34.3578C34.5346 12.628 34.6793 12.6843 34.7919 12.7968C34.9045 12.9094 34.9607 13.0541 34.9607 13.231V15.6429C34.9607 15.8198 34.9045 15.9726 34.7919 16.1012C34.6793 16.2138 34.5346 16.2701 34.3578 16.2701H26.5189V19.1162H29.8715C31.8011 19.1162 33.3206 19.5744 34.4301 20.491C35.5396 21.4075 36.0944 22.6618 36.0944 24.2536C36.0944 24.9933 35.9577 25.6847 35.6843 26.3279C35.411 26.955 35.009 27.5098 34.4784 27.9922C33.9638 28.4585 33.3206 28.8283 32.5488 29.1017C31.793 29.375 30.9006 29.5117 29.8715 29.5117H22.7803ZM26.5189 26.3762H29.4856C29.9519 26.3762 30.3378 26.2797 30.6433 26.0867C30.9649 25.8777 31.2061 25.6124 31.3669 25.2908C31.5277 24.9531 31.6081 24.5994 31.6081 24.2295C31.6081 23.6667 31.4232 23.1843 31.0534 22.7823C30.6996 22.3804 30.177 22.1794 29.4856 22.1794H26.5189V26.3762ZM38.3671 34.0944C38.1902 34.0944 38.0455 34.0301 37.9329 33.9015C37.8204 33.7889 37.7641 33.6523 37.7641 33.4915V17.5725C37.7641 17.3956 37.8204 17.2509 37.9329 17.1384C38.0455 17.0258 38.1902 16.9695 38.3671 16.9695H41.0926C41.2534 16.9695 41.3901 17.0258 41.5026 17.1384C41.6313 17.2509 41.6956 17.3956 41.6956 17.5725V18.4408C42.0815 17.9584 42.58 17.5564 43.191 17.2348C43.802 16.8972 44.5497 16.7283 45.4341 16.7283C46.2381 16.7283 46.9456 16.857 47.5566 17.1142C48.1677 17.3554 48.6903 17.7172 49.1244 18.1996C49.5746 18.682 49.9204 19.2689 50.1616 19.9604C50.4028 20.6518 50.5394 21.4477 50.5716 22.3482C50.5877 22.6698 50.5957 22.9673 50.5957 23.2406C50.5957 23.514 50.5877 23.8115 50.5716 24.133C50.5394 25.0014 50.4028 25.7812 50.1616 26.4726C49.9204 27.1641 49.5827 27.751 49.1485 28.2334C48.7144 28.7158 48.1837 29.0936 47.5566 29.367C46.9456 29.6243 46.2381 29.7529 45.4341 29.7529C44.6462 29.7529 43.9548 29.6162 43.3598 29.3429C42.781 29.0534 42.2986 28.6515 41.9127 28.1369V33.4915C41.9127 33.6523 41.8564 33.7889 41.7438 33.9015C41.6313 34.0301 41.4865 34.0944 41.3097 34.0944H38.3671ZM44.1317 26.5209C44.6784 26.5209 45.1045 26.4083 45.41 26.1832C45.7155 25.9581 45.9326 25.6526 46.0612 25.2667C46.2059 24.8808 46.2944 24.4546 46.3265 23.9883C46.3587 23.4899 46.3587 22.9914 46.3265 22.4929C46.2944 22.0266 46.2059 21.6005 46.0612 21.2146C45.9326 20.8287 45.7155 20.5231 45.41 20.298C45.1045 20.0729 44.6784 19.9604 44.1317 19.9604C43.6171 19.9604 43.199 20.081 42.8774 20.3222C42.5558 20.5473 42.3227 20.8447 42.178 21.2146C42.0333 21.5844 41.9448 21.9864 41.9127 22.4206C41.8966 22.7261 41.8885 23.0235 41.8885 23.313C41.8885 23.6024 41.8966 23.9079 41.9127 24.2295C41.9287 24.6315 42.0172 25.0094 42.178 25.3631C42.3388 25.7008 42.58 25.9822 42.9016 26.2073C43.2232 26.4164 43.6332 26.5209 44.1317 26.5209ZM58.9136 29.7529C57.5629 29.7529 56.4212 29.5358 55.4886 29.1017C54.5721 28.6675 53.8645 28.0485 53.3661 27.2445C52.8837 26.4244 52.6103 25.4516 52.546 24.326C52.5299 24.0044 52.5219 23.6426 52.5219 23.2406C52.5219 22.8225 52.5299 22.4608 52.546 22.1552C52.6103 21.0136 52.8998 20.0408 53.4143 19.2368C53.9289 18.4328 54.6444 17.8137 55.561 17.3796C56.4936 16.9454 57.6111 16.7283 58.9136 16.7283C60.2321 16.7283 61.3497 16.9454 62.2662 17.3796C63.1988 17.8137 63.9224 18.4328 64.437 19.2368C64.9515 20.0408 65.241 21.0136 65.3053 22.1552C65.3214 22.4608 65.3294 22.8225 65.3294 23.2406C65.3294 23.6426 65.3214 24.0044 65.3053 24.326C65.241 25.4516 64.9596 26.4244 64.4611 27.2445C63.9787 28.0485 63.2712 28.6675 62.3386 29.1017C61.422 29.5358 60.2804 29.7529 58.9136 29.7529ZM58.9136 26.8103C59.6372 26.8103 60.1598 26.5932 60.4814 26.1591C60.819 25.7249 61.012 25.0737 61.0602 24.2054C61.0763 23.9642 61.0843 23.6426 61.0843 23.2406C61.0843 22.8386 61.0763 22.517 61.0602 22.2758C61.012 21.4236 60.819 20.7804 60.4814 20.3463C60.1598 19.896 59.6372 19.6709 58.9136 19.6709C58.2222 19.6709 57.6996 19.896 57.3458 20.3463C57.0081 20.7804 56.8232 21.4236 56.7911 22.2758C56.775 22.517 56.7669 22.8386 56.7669 23.2406C56.7669 23.6426 56.775 23.9642 56.7911 24.2054C56.8232 25.0737 57.0081 25.7249 57.3458 26.1591C57.6996 26.5932 58.2222 26.8103 58.9136 26.8103ZM68.3281 29.5117C68.1513 29.5117 68.0065 29.4554 67.894 29.3429C67.7814 29.2142 67.7252 29.0695 67.7252 28.9087V17.5725C67.7252 17.3956 67.7814 17.2509 67.894 17.1384C68.0065 17.0258 68.1513 16.9695 68.3281 16.9695H71.1743C71.3511 16.9695 71.4958 17.0258 71.6084 17.1384C71.721 17.2509 71.7772 17.3956 71.7772 17.5725V21.5764H76.1188V17.5725C76.1188 17.3956 76.1751 17.2509 76.2876 17.1384C76.4002 17.0258 76.5449 16.9695 76.7218 16.9695H79.5679C79.7448 16.9695 79.8895 17.0258 80.002 17.1384C80.1146 17.2509 80.1709 17.3956 80.1709 17.5725V28.9087C80.1709 29.0695 80.1146 29.2142 80.002 29.3429C79.8895 29.4554 79.7448 29.5117 79.5679 29.5117H76.7218C76.5449 29.5117 76.4002 29.4554 76.2876 29.3429C76.1751 29.2142 76.1188 29.0695 76.1188 28.9087V24.736H71.7772V28.9087C71.7772 29.0695 71.721 29.2142 71.6084 29.3429C71.4958 29.4554 71.3511 29.5117 71.1743 29.5117H68.3281ZM83.685 29.5117C83.5242 29.5117 83.3875 29.4554 83.2749 29.3429C83.1624 29.2142 83.1061 29.0776 83.1061 28.9328V17.5725C83.1061 17.3956 83.1624 17.2509 83.2749 17.1384C83.3875 17.0258 83.5322 16.9695 83.7091 16.9695H86.5552C86.7321 16.9695 86.8768 17.0258 86.9894 17.1384C87.1019 17.2509 87.1582 17.3956 87.1582 17.5725V26.3762L86.0728 25.8455L92.0304 17.3554C92.1108 17.2429 92.2072 17.1544 92.3198 17.0901C92.4324 17.0097 92.561 16.9695 92.7057 16.9695H95.2865C95.4473 16.9695 95.584 17.0258 95.6965 17.1384C95.8091 17.2509 95.8654 17.3876 95.8654 17.5484V28.9087C95.8654 29.0695 95.8091 29.2142 95.6965 29.3429C95.584 29.4554 95.4393 29.5117 95.2624 29.5117H92.4163C92.2394 29.5117 92.0947 29.4554 91.9821 29.3429C91.8696 29.2142 91.8133 29.0695 91.8133 28.9087V20.3704L92.9228 20.5875L86.917 29.1258C86.8527 29.2384 86.7642 29.3348 86.6517 29.4152C86.5391 29.4796 86.4025 29.5117 86.2417 29.5117H83.685ZM99.09 34.0944C98.9132 34.0944 98.7685 34.0301 98.6559 33.9015C98.5433 33.7889 98.4871 33.6523 98.4871 33.4915V17.5725C98.4871 17.3956 98.5433 17.2509 98.6559 17.1384C98.7685 17.0258 98.9132 16.9695 99.09 16.9695H101.816C101.976 16.9695 102.113 17.0258 102.226 17.1384C102.354 17.2509 102.419 17.3956 102.419 17.5725V18.4408C102.804 17.9584 103.303 17.5564 103.914 17.2348C104.525 16.8972 105.273 16.7283 106.157 16.7283C106.961 16.7283 107.669 16.857 108.28 17.1142C108.891 17.3554 109.413 17.7172 109.847 18.1996C110.298 18.682 110.643 19.2689 110.885 19.9604C111.126 20.6518 111.262 21.4477 111.295 22.3482C111.311 22.6698 111.319 22.9673 111.319 23.2406C111.319 23.514 111.311 23.8115 111.295 24.133C111.262 25.0014 111.126 25.7812 110.885 26.4726C110.643 27.1641 110.306 27.751 109.872 28.2334C109.437 28.7158 108.907 29.0936 108.28 29.367C107.669 29.6243 106.961 29.7529 106.157 29.7529C105.369 29.7529 104.678 29.6162 104.083 29.3429C103.504 29.0534 103.022 28.6515 102.636 28.1369V33.4915C102.636 33.6523 102.579 33.7889 102.467 33.9015C102.354 34.0301 102.21 34.0944 102.033 34.0944H99.09ZM104.855 26.5209C105.401 26.5209 105.827 26.4083 106.133 26.1832C106.438 25.9581 106.656 25.6526 106.784 25.2667C106.929 24.8808 107.017 24.4546 107.05 23.9883C107.082 23.4899 107.082 22.9914 107.05 22.4929C107.017 22.0266 106.929 21.6005 106.784 21.2146C106.656 20.8287 106.438 20.5231 106.133 20.298C105.827 20.0729 105.401 19.9604 104.855 19.9604C104.34 19.9604 103.922 20.081 103.6 20.3222C103.279 20.5473 103.046 20.8447 102.901 21.2146C102.756 21.5844 102.668 21.9864 102.636 22.4206C102.62 22.7261 102.612 23.0235 102.612 23.313C102.612 23.6024 102.62 23.9079 102.636 24.2295C102.652 24.6315 102.74 25.0094 102.901 25.3631C103.062 25.7008 103.303 25.9822 103.625 26.2073C103.946 26.4164 104.356 26.5209 104.855 26.5209ZM114.909 34.1186C114.732 34.1186 114.588 34.0542 114.475 33.9256C114.362 33.813 114.306 33.6683 114.306 33.4915V31.5619C114.306 31.385 114.362 31.2323 114.475 31.1036C114.588 30.9911 114.732 30.9348 114.909 30.9348H115.753C116.043 30.9348 116.284 30.8785 116.477 30.7659C116.67 30.6695 116.839 30.4926 116.983 30.2353C117.144 29.9941 117.313 29.6564 117.49 29.2223L122.314 17.476C122.362 17.3313 122.442 17.2107 122.555 17.1142C122.668 17.0178 122.828 16.9695 123.037 16.9695H125.618C125.763 16.9695 125.884 17.0258 125.98 17.1384C126.093 17.2348 126.149 17.3474 126.149 17.476C126.149 17.5082 126.141 17.5484 126.125 17.5966C126.125 17.6449 126.109 17.7092 126.076 17.7896L121.494 28.8364C121.172 29.6243 120.834 30.3398 120.481 30.983C120.127 31.6262 119.749 32.181 119.347 32.6473C118.945 33.1136 118.479 33.4754 117.948 33.7326C117.418 33.9899 116.798 34.1186 116.091 34.1186H114.909ZM117.755 29.2464L112.811 17.7896C112.762 17.677 112.738 17.5806 112.738 17.5002C112.771 17.3554 112.835 17.2348 112.931 17.1384C113.028 17.0258 113.156 16.9695 113.317 16.9695H116.019C116.228 16.9695 116.38 17.0258 116.477 17.1384C116.589 17.2348 116.67 17.3474 116.718 17.476L120.167 26.3038L117.755 29.2464ZM128.579 29.5117C128.419 29.5117 128.282 29.4554 128.169 29.3429C128.057 29.2142 128.001 29.0776 128.001 28.9328V17.5725C128.001 17.3956 128.057 17.2509 128.169 17.1384C128.282 17.0258 128.427 16.9695 128.604 16.9695H131.45C131.627 16.9695 131.771 17.0258 131.884 17.1384C131.996 17.2509 132.053 17.3956 132.053 17.5725V26.3762L130.967 25.8455L136.925 17.3554C137.005 17.2429 137.102 17.1544 137.214 17.0901C137.327 17.0097 137.455 16.9695 137.6 16.9695H140.181C140.342 16.9695 140.478 17.0258 140.591 17.1384C140.704 17.2509 140.76 17.3876 140.76 17.5484V28.9087C140.76 29.0695 140.704 29.2142 140.591 29.3429C140.478 29.4554 140.334 29.5117 140.157 29.5117H137.311C137.134 29.5117 136.989 29.4554 136.877 29.3429C136.764 29.2142 136.708 29.0695 136.708 28.9087V20.3704L137.817 20.5875L131.811 29.1258C131.747 29.2384 131.659 29.3348 131.546 29.4152C131.434 29.4796 131.297 29.5117 131.136 29.5117H128.579ZM134.585 15.3294C133.572 15.3294 132.752 15.1766 132.125 14.8711C131.498 14.5495 131.04 14.1315 130.75 13.6169C130.477 13.0863 130.34 12.5074 130.34 11.8803C130.34 11.7517 130.372 11.6471 130.437 11.5667C130.517 11.4703 130.638 11.422 130.798 11.422H132.728C132.873 11.422 132.985 11.4703 133.066 11.5667C133.146 11.6471 133.186 11.7517 133.186 11.8803C133.186 12.218 133.275 12.5154 133.452 12.7727C133.645 13.03 134.014 13.1586 134.561 13.1586C135.124 13.1586 135.494 13.03 135.671 12.7727C135.864 12.5154 135.96 12.218 135.96 11.8803C135.96 11.7517 136 11.6471 136.081 11.5667C136.161 11.4703 136.274 11.422 136.418 11.422H138.348C138.493 11.422 138.605 11.4703 138.686 11.5667C138.766 11.6471 138.806 11.7517 138.806 11.8803C138.806 12.5074 138.661 13.0863 138.372 13.6169C138.099 14.1315 137.648 14.5495 137.021 14.8711C136.394 15.1766 135.582 15.3294 134.585 15.3294ZM148.082 29.5117C147.921 29.5117 147.793 29.4715 147.696 29.3911C147.6 29.2946 147.552 29.174 147.552 29.0293C147.552 28.9168 147.584 28.8123 147.648 28.7158L151.531 23.0235L148.203 17.7896C148.187 17.7414 148.163 17.6851 148.13 17.6208C148.098 17.5564 148.082 17.5002 148.082 17.4519C148.082 17.3072 148.13 17.1946 148.227 17.1142C148.34 17.0178 148.468 16.9695 148.613 16.9695H151.7C151.893 16.9695 152.038 17.0178 152.134 17.1142C152.247 17.1946 152.327 17.275 152.376 17.3554L155.005 21.5764H156.114V17.5725C156.114 17.3956 156.17 17.2509 156.283 17.1384C156.412 17.0258 156.564 16.9695 156.741 16.9695H159.515C159.692 16.9695 159.837 17.0258 159.949 17.1384C160.062 17.2509 160.118 17.3956 160.118 17.5725V21.5764H161.227L163.856 17.3554C163.905 17.275 163.985 17.1946 164.098 17.1142C164.21 17.0178 164.355 16.9695 164.532 16.9695H167.619C167.764 16.9695 167.884 17.0178 167.981 17.1142C168.093 17.1946 168.15 17.3072 168.15 17.4519C168.15 17.5002 168.134 17.5564 168.102 17.6208C168.085 17.6851 168.061 17.7414 168.029 17.7896L164.701 23.0235L168.584 28.7158C168.648 28.8123 168.68 28.9168 168.68 29.0293C168.68 29.174 168.632 29.2946 168.536 29.3911C168.439 29.4715 168.311 29.5117 168.15 29.5117H164.749C164.54 29.5117 164.379 29.4635 164.266 29.367C164.17 29.2705 164.098 29.1901 164.049 29.1258L161.179 24.736H160.118V28.9087C160.118 29.0695 160.062 29.2142 159.949 29.3429C159.837 29.4554 159.692 29.5117 159.515 29.5117H156.741C156.564 29.5117 156.412 29.4554 156.283 29.3429C156.17 29.2142 156.114 29.0695 156.114 28.9087V24.736H155.053L152.183 29.1258C152.15 29.1901 152.078 29.2705 151.965 29.367C151.853 29.4635 151.692 29.5117 151.483 29.5117H148.082ZM171.142 29.5117C170.981 29.5117 170.845 29.4554 170.732 29.3429C170.619 29.2142 170.563 29.0776 170.563 28.9328V17.5725C170.563 17.3956 170.619 17.2509 170.732 17.1384C170.845 17.0258 170.989 16.9695 171.166 16.9695H174.012C174.189 16.9695 174.334 17.0258 174.446 17.1384C174.559 17.2509 174.615 17.3956 174.615 17.5725V26.3762L173.53 25.8455L179.487 17.3554C179.568 17.2429 179.664 17.1544 179.777 17.0901C179.889 17.0097 180.018 16.9695 180.163 16.9695H182.744C182.904 16.9695 183.041 17.0258 183.154 17.1384C183.266 17.2509 183.322 17.3876 183.322 17.5484V28.9087C183.322 29.0695 183.266 29.2142 183.154 29.3429C183.041 29.4554 182.896 29.5117 182.719 29.5117H179.873C179.696 29.5117 179.552 29.4554 179.439 29.3429C179.327 29.2142 179.27 29.0695 179.27 28.9087V20.3704L180.38 20.5875L174.374 29.1258C174.31 29.2384 174.221 29.3348 174.109 29.4152C173.996 29.4796 173.86 29.5117 173.699 29.5117H171.142ZM185.751 29.5117C185.574 29.5117 185.422 29.4554 185.293 29.3429C185.18 29.2142 185.124 29.0615 185.124 28.8846V26.7862C185.124 26.4324 185.317 26.2315 185.703 26.1832C186.169 26.135 186.523 25.9179 186.764 25.532C187.005 25.1461 187.174 24.5752 187.271 23.8195C187.367 23.0637 187.415 22.115 187.415 20.9734V17.5725C187.415 17.3956 187.472 17.2509 187.584 17.1384C187.713 17.0258 187.858 16.9695 188.018 16.9695H197.473C197.65 16.9695 197.795 17.0258 197.907 17.1384C198.036 17.2509 198.1 17.3956 198.1 17.5725V28.9087C198.1 29.0695 198.036 29.2142 197.907 29.3429C197.795 29.4554 197.65 29.5117 197.473 29.5117H194.627C194.466 29.5117 194.322 29.4554 194.193 29.3429C194.081 29.2142 194.024 29.0695 194.024 28.9087V20.1292H191.275V21.4075C191.275 22.9512 191.194 24.2456 191.033 25.2908C190.873 26.336 190.583 27.1641 190.165 27.7751C189.747 28.3861 189.176 28.8283 188.453 29.1017C187.745 29.375 186.845 29.5117 185.751 29.5117ZM201.622 29.5117C201.445 29.5117 201.3 29.4554 201.188 29.3429C201.075 29.2142 201.019 29.0695 201.019 28.9087V17.5725C201.019 17.3956 201.075 17.2509 201.188 17.1384C201.3 17.0258 201.445 16.9695 201.622 16.9695H204.492C204.653 16.9695 204.79 17.0258 204.902 17.1384C205.031 17.2509 205.095 17.3956 205.095 17.5725V20.8287H207.386C208.994 20.8287 210.241 21.2226 211.125 22.0105C212.025 22.7823 212.476 23.8517 212.476 25.2184C212.476 26.6174 212.009 27.6867 211.077 28.4263C210.16 29.1499 208.882 29.5117 207.242 29.5117H201.622ZM205.023 26.738H207.025C207.652 26.738 208.11 26.6174 208.4 26.3762C208.689 26.135 208.834 25.7491 208.834 25.2184C208.834 24.6717 208.689 24.2617 208.4 23.9883C208.11 23.715 207.652 23.5783 207.025 23.5783H205.023V26.738ZM220.281 29.7529C218.383 29.7529 216.872 29.2384 215.746 28.2093C214.621 27.1802 214.034 25.6526 213.985 23.6265C213.985 23.514 213.985 23.3693 213.985 23.1924C213.985 23.0155 213.985 22.8788 213.985 22.7823C214.034 21.5121 214.315 20.4267 214.83 19.5262C215.36 18.6097 216.084 17.9182 217 17.4519C217.933 16.9695 219.018 16.7283 220.257 16.7283C221.672 16.7283 222.837 17.0097 223.754 17.5725C224.687 18.1353 225.386 18.8991 225.852 19.8639C226.319 20.8287 226.552 21.9301 226.552 23.1683V23.7471C226.552 23.924 226.495 24.0687 226.383 24.1813C226.27 24.2938 226.126 24.3501 225.949 24.3501H218.231C218.231 24.3662 218.231 24.3903 218.231 24.4225C218.231 24.4546 218.231 24.4868 218.231 24.519C218.247 24.9853 218.327 25.4114 218.472 25.7973C218.632 26.1832 218.858 26.4887 219.147 26.7138C219.453 26.939 219.822 27.0515 220.257 27.0515C220.578 27.0515 220.843 27.0033 221.052 26.9068C221.278 26.7942 221.463 26.6736 221.607 26.545C221.752 26.4003 221.865 26.2797 221.945 26.1832C222.09 26.0063 222.202 25.9018 222.283 25.8697C222.379 25.8214 222.524 25.7973 222.717 25.7973H225.708C225.868 25.7973 225.997 25.8455 226.093 25.942C226.206 26.0385 226.254 26.1671 226.238 26.3279C226.222 26.6013 226.085 26.9309 225.828 27.3168C225.571 27.7027 225.193 28.0887 224.695 28.4746C224.212 28.8444 223.601 29.1499 222.861 29.3911C222.122 29.6323 221.262 29.7529 220.281 29.7529ZM218.231 21.9623H222.307V21.914C222.307 21.3834 222.226 20.9332 222.066 20.5633C221.921 20.1774 221.688 19.88 221.366 19.6709C221.061 19.4619 220.691 19.3574 220.257 19.3574C219.838 19.3574 219.477 19.4619 219.171 19.6709C218.866 19.88 218.632 20.1774 218.472 20.5633C218.311 20.9332 218.231 21.3834 218.231 21.914V21.9623ZM221.68 14.8711C221.519 14.8711 221.382 14.8229 221.27 14.7264C221.173 14.6299 221.125 14.4932 221.125 14.3164V12.1215C221.125 11.9607 221.173 11.8321 221.27 11.7356C221.382 11.623 221.519 11.5667 221.68 11.5667H223.899C224.059 11.5667 224.188 11.623 224.285 11.7356C224.397 11.8321 224.453 11.9607 224.453 12.1215V14.3164C224.453 14.4932 224.397 14.6299 224.285 14.7264C224.188 14.8229 224.059 14.8711 223.899 14.8711H221.68ZM216.687 14.8711C216.526 14.8711 216.397 14.8229 216.301 14.7264C216.204 14.6299 216.156 14.4932 216.156 14.3164V12.1215C216.156 11.9607 216.204 11.8321 216.301 11.7356C216.397 11.623 216.526 11.5667 216.687 11.5667H218.906C219.067 11.5667 219.195 11.623 219.292 11.7356C219.404 11.8321 219.461 11.9607 219.461 12.1215V14.3164C219.461 14.4932 219.404 14.6299 219.292 14.7264C219.195 14.8229 219.067 14.8711 218.906 14.8711H216.687Z" fill="#FDFDFD"/>
<path d="M22.5277 47.6328C22.4456 47.6328 22.3799 47.6082 22.3307 47.5589C22.2814 47.5097 22.2568 47.444 22.2568 47.3619V41.5013C22.2568 41.4192 22.2814 41.3536 22.3307 41.3043C22.3799 41.2551 22.4456 41.2304 22.5277 41.2304H22.737C22.8191 41.2304 22.8847 41.2551 22.934 41.3043C22.9832 41.3536 23.0079 41.4192 23.0079 41.5013V44.0007H24.3253L26.1352 41.4151C26.1762 41.3495 26.2214 41.3043 26.2706 41.2797C26.3199 41.2469 26.3814 41.2304 26.4553 41.2304H26.7015C26.7754 41.2304 26.8329 41.2469 26.8739 41.2797C26.9232 41.3043 26.9478 41.3454 26.9478 41.4028C26.9478 41.4192 26.9396 41.4397 26.9232 41.4644C26.915 41.489 26.9026 41.5177 26.8862 41.5506L24.9778 44.2839L27.1202 47.3004C27.1612 47.3496 27.1817 47.403 27.1817 47.4604C27.1817 47.5179 27.1612 47.563 27.1202 47.5959C27.0791 47.6205 27.0217 47.6328 26.9478 47.6328H26.6277C26.5538 47.6328 26.4922 47.6205 26.443 47.5959C26.3937 47.563 26.3486 47.5179 26.3075 47.4604L24.3622 44.7394H23.0079V47.3619C23.0079 47.444 22.9832 47.5097 22.934 47.5589C22.8847 47.6082 22.8191 47.6328 22.737 47.6328H22.5277ZM28.756 47.6328C28.6739 47.6328 28.6082 47.6082 28.559 47.5589C28.5097 47.5097 28.4851 47.444 28.4851 47.3619V41.5013C28.4851 41.4192 28.5097 41.3536 28.559 41.3043C28.6082 41.2551 28.6739 41.2304 28.756 41.2304H31.1815C31.8628 41.2304 32.384 41.3823 32.7451 41.686C33.1145 41.9897 33.2992 42.396 33.2992 42.9049C33.2992 43.2989 33.2253 43.5903 33.0776 43.7791C32.9298 43.9679 32.7164 44.1279 32.4373 44.2593C32.7657 44.3824 33.0119 44.5999 33.1761 44.9118C33.3402 45.2237 33.4223 45.5356 33.4223 45.8475C33.4223 46.4303 33.2212 46.8736 32.819 47.1773C32.425 47.481 31.8997 47.6328 31.243 47.6328H28.756ZM29.2361 46.9187H31.1445C31.596 46.9187 31.9613 46.8284 32.2403 46.6478C32.5276 46.4673 32.6713 46.2005 32.6713 45.8475C32.6713 45.47 32.544 45.195 32.2896 45.0226C32.0351 44.8502 31.6534 44.7641 31.1445 44.7641H29.2361V46.9187ZM29.2361 44.0499H31.0584C31.5098 44.0499 31.871 43.9473 32.1418 43.7421C32.4127 43.5369 32.5481 43.2579 32.5481 42.9049C32.5481 42.5437 32.4127 42.2934 32.1418 42.1539C31.871 42.0143 31.5098 41.9445 31.0584 41.9445H29.2361V44.0499ZM36.882 47.7559C36.488 47.7559 36.1227 47.6739 35.7862 47.5097C35.4578 47.3455 35.1911 47.128 34.9859 46.8571C34.7807 46.5781 34.6781 46.2662 34.6781 45.9214C34.6781 45.3633 34.9038 44.9159 35.3552 44.5794C35.8067 44.2428 36.3936 44.0253 37.1159 43.9268L39.0612 43.656V43.225C39.0612 42.79 38.9258 42.4494 38.6549 42.2031C38.3923 41.9487 37.9695 41.8214 37.3868 41.8214C36.9599 41.8214 36.6152 41.9076 36.3525 42.08C36.0899 42.2441 35.9093 42.4617 35.8108 42.7325C35.7697 42.8557 35.6918 42.9172 35.5769 42.9172H35.3799C35.2814 42.9172 35.2116 42.8926 35.1705 42.8433C35.1295 42.7859 35.109 42.7202 35.109 42.6463C35.109 42.5314 35.15 42.3878 35.2321 42.2154C35.3224 42.043 35.4578 41.8748 35.6384 41.7106C35.819 41.5382 36.0529 41.3946 36.3402 41.2797C36.6275 41.1648 36.9763 41.1073 37.3868 41.1073C37.871 41.1073 38.2691 41.173 38.581 41.3043C38.9012 41.4356 39.1474 41.608 39.3198 41.8214C39.5004 42.0266 39.6276 42.2565 39.7015 42.5109C39.7753 42.7654 39.8123 43.0157 39.8123 43.262V47.3619C39.8123 47.444 39.7876 47.5097 39.7384 47.5589C39.6891 47.6082 39.6235 47.6328 39.5414 47.6328H39.3321C39.25 47.6328 39.1843 47.6082 39.1351 47.5589C39.0858 47.5097 39.0612 47.444 39.0612 47.3619V46.7833C38.9627 46.931 38.8232 47.0788 38.6426 47.2265C38.462 47.3743 38.2281 47.5015 37.9408 47.6082C37.6617 47.7067 37.3088 47.7559 36.882 47.7559ZM37.0051 47.0418C37.3827 47.0418 37.7274 46.9597 38.0393 46.7956C38.3512 46.6314 38.5975 46.3811 38.778 46.0445C38.9668 45.6998 39.0612 45.2689 39.0612 44.7517V44.3331L37.4729 44.5547C36.7999 44.645 36.291 44.801 35.9462 45.0226C35.6015 45.2442 35.4291 45.5233 35.4291 45.8598C35.4291 46.1307 35.5071 46.3523 35.663 46.5247C35.819 46.6971 36.016 46.8284 36.254 46.9187C36.5003 47.0008 36.7506 47.0418 37.0051 47.0418ZM42.0424 49.9721C41.9603 49.9721 41.8947 49.9475 41.8454 49.8983C41.7962 49.849 41.7716 49.7834 41.7716 49.7013V41.5013C41.7716 41.4192 41.7962 41.3536 41.8454 41.3043C41.8947 41.2551 41.9603 41.2304 42.0424 41.2304H42.2517C42.3338 41.2304 42.3995 41.2551 42.4487 41.3043C42.498 41.3536 42.5226 41.4192 42.5226 41.5013V42.08C42.7278 41.8009 42.9946 41.5711 43.3229 41.3905C43.6594 41.2017 44.0822 41.1073 44.5911 41.1073C45.0753 41.1073 45.4817 41.1935 45.81 41.3659C46.1383 41.53 46.4051 41.7517 46.6103 42.0307C46.8155 42.3098 46.9673 42.6217 47.0658 42.9665C47.1643 43.3112 47.2177 43.6642 47.2259 44.0253C47.2341 44.1484 47.2382 44.2839 47.2382 44.4316C47.2382 44.5794 47.2341 44.7148 47.2259 44.8379C47.2177 45.1991 47.1643 45.552 47.0658 45.8968C46.9673 46.2415 46.8155 46.5534 46.6103 46.8325C46.4051 47.1116 46.1383 47.3373 45.81 47.5097C45.4817 47.6739 45.0753 47.7559 44.5911 47.7559C44.0822 47.7559 43.6594 47.6615 43.3229 47.4728C42.9946 47.284 42.7278 47.0541 42.5226 46.7833V49.7013C42.5226 49.7834 42.498 49.849 42.4487 49.8983C42.3995 49.9475 42.3338 49.9721 42.2517 49.9721H42.0424ZM44.5172 47.0418C45.0015 47.0418 45.3832 46.9351 45.6622 46.7217C45.9413 46.5083 46.1424 46.2292 46.2655 45.8845C46.3887 45.5397 46.4584 45.1704 46.4748 44.7764C46.483 44.5465 46.483 44.3167 46.4748 44.0869C46.4584 43.6929 46.3887 43.3235 46.2655 42.9788C46.1424 42.634 45.9413 42.355 45.6622 42.1415C45.3832 41.9281 45.0015 41.8214 44.5172 41.8214C44.0493 41.8214 43.6717 41.9322 43.3845 42.1539C43.0972 42.3755 42.8838 42.6546 42.7442 42.9911C42.6129 43.3194 42.539 43.6518 42.5226 43.9884C42.5144 44.1115 42.5103 44.2716 42.5103 44.4686C42.5103 44.6656 42.5144 44.8256 42.5226 44.9487C42.5308 45.2771 42.6047 45.6013 42.7442 45.9214C42.892 46.2415 43.1095 46.5083 43.3968 46.7217C43.6923 46.9351 44.0657 47.0418 44.5172 47.0418ZM50.871 47.6328C50.7889 47.6328 50.7232 47.6082 50.674 47.5589C50.6247 47.5097 50.6001 47.444 50.6001 47.3619V41.9445H48.347C48.2649 41.9445 48.1992 41.9199 48.15 41.8707C48.1007 41.8214 48.0761 41.7558 48.0761 41.6737V41.5013C48.0761 41.4192 48.1007 41.3536 48.15 41.3043C48.1992 41.2551 48.2649 41.2304 48.347 41.2304H53.6043C53.6864 41.2304 53.7521 41.2551 53.8013 41.3043C53.8506 41.3536 53.8752 41.4192 53.8752 41.5013V41.6737C53.8752 41.7558 53.8506 41.8214 53.8013 41.8707C53.7521 41.9199 53.6864 41.9445 53.6043 41.9445H51.3512V47.3619C51.3512 47.444 51.3265 47.5097 51.2773 47.5589C51.228 47.6082 51.1624 47.6328 51.0803 47.6328H50.871ZM55.2796 47.6328C55.214 47.6328 55.1565 47.6082 55.1073 47.5589C55.058 47.5097 55.0334 47.4522 55.0334 47.3866V41.5013C55.0334 41.4192 55.058 41.3536 55.1073 41.3043C55.1565 41.2551 55.2222 41.2304 55.3043 41.2304H55.5136C55.5957 41.2304 55.6613 41.2551 55.7106 41.3043C55.7598 41.3536 55.7845 41.4192 55.7845 41.5013V47.0295L55.5628 46.6725L59.5766 41.4151C59.6177 41.3659 59.6587 41.3248 59.6998 41.292C59.749 41.251 59.8147 41.2304 59.8967 41.2304H60.1307C60.1963 41.2304 60.2538 41.2551 60.3031 41.3043C60.3523 41.3454 60.3769 41.3987 60.3769 41.4644V47.3619C60.3769 47.444 60.3523 47.5097 60.3031 47.5589C60.2538 47.6082 60.1881 47.6328 60.1061 47.6328H59.8967C59.8147 47.6328 59.749 47.6082 59.6998 47.5589C59.6505 47.5097 59.6259 47.444 59.6259 47.3619V42.2031L59.8844 42.1415L55.8337 47.4481C55.8009 47.4892 55.7598 47.5302 55.7106 47.5713C55.6613 47.6123 55.5957 47.6328 55.5136 47.6328H55.2796ZM62.651 49.9721C62.569 49.9721 62.5033 49.9475 62.454 49.8983C62.4048 49.849 62.3802 49.7834 62.3802 49.7013V41.5013C62.3802 41.4192 62.4048 41.3536 62.454 41.3043C62.5033 41.2551 62.569 41.2304 62.651 41.2304H62.8603C62.9424 41.2304 63.0081 41.2551 63.0573 41.3043C63.1066 41.3536 63.1312 41.4192 63.1312 41.5013V42.08C63.3364 41.8009 63.6032 41.5711 63.9315 41.3905C64.268 41.2017 64.6908 41.1073 65.1997 41.1073C65.684 41.1073 66.0903 41.1935 66.4186 41.3659C66.7469 41.53 67.0137 41.7517 67.2189 42.0307C67.4241 42.3098 67.5759 42.6217 67.6744 42.9665C67.7729 43.3112 67.8263 43.6642 67.8345 44.0253C67.8427 44.1484 67.8468 44.2839 67.8468 44.4316C67.8468 44.5794 67.8427 44.7148 67.8345 44.8379C67.8263 45.1991 67.7729 45.552 67.6744 45.8968C67.5759 46.2415 67.4241 46.5534 67.2189 46.8325C67.0137 47.1116 66.7469 47.3373 66.4186 47.5097C66.0903 47.6739 65.684 47.7559 65.1997 47.7559C64.6908 47.7559 64.268 47.6615 63.9315 47.4728C63.6032 47.284 63.3364 47.0541 63.1312 46.7833V49.7013C63.1312 49.7834 63.1066 49.849 63.0573 49.8983C63.0081 49.9475 62.9424 49.9721 62.8603 49.9721H62.651ZM65.1258 47.0418C65.6101 47.0418 65.9918 46.9351 66.2708 46.7217C66.5499 46.5083 66.751 46.2292 66.8741 45.8845C66.9973 45.5397 67.067 45.1704 67.0834 44.7764C67.0917 44.5465 67.0917 44.3167 67.0834 44.0869C67.067 43.6929 66.9973 43.3235 66.8741 42.9788C66.751 42.634 66.5499 42.355 66.2708 42.1415C65.9918 41.9281 65.6101 41.8214 65.1258 41.8214C64.6579 41.8214 64.2804 41.9322 63.9931 42.1539C63.7058 42.3755 63.4924 42.6546 63.3528 42.9911C63.2215 43.3194 63.1476 43.6518 63.1312 43.9884C63.123 44.1115 63.1189 44.2716 63.1189 44.4686C63.1189 44.6656 63.123 44.8256 63.1312 44.9487C63.1394 45.2771 63.2133 45.6013 63.3528 45.9214C63.5006 46.2415 63.7181 46.5083 64.0054 46.7217C64.3009 46.9351 64.6743 47.0418 65.1258 47.0418ZM69.7928 47.6328C69.7107 47.6328 69.6451 47.6082 69.5958 47.5589C69.5466 47.5097 69.522 47.444 69.522 47.3619V41.5013C69.522 41.4192 69.5466 41.3536 69.5958 41.3043C69.6451 41.2551 69.7107 41.2304 69.7928 41.2304H70.0021C70.0842 41.2304 70.1499 41.2551 70.1991 41.3043C70.2484 41.3536 70.273 41.4192 70.273 41.5013V43.3728H71.6273C72.4646 43.3728 73.0597 43.5698 73.4126 43.9638C73.7738 44.3578 73.9544 44.8872 73.9544 45.552C73.9544 46.2744 73.7492 46.8038 73.3388 47.1403C72.9366 47.4686 72.3045 47.6328 71.4427 47.6328H69.7928ZM70.273 46.9187H71.5535C72.128 46.9187 72.5467 46.8202 72.8093 46.6232C73.072 46.418 73.2033 46.0609 73.2033 45.552C73.2033 45.0595 73.0761 44.6943 72.8216 44.4562C72.5672 44.21 72.1445 44.0869 71.5535 44.0869H70.273V46.9187ZM75.161 47.6328C75.0789 47.6328 75.0132 47.6082 74.964 47.5589C74.9147 47.5097 74.8901 47.444 74.8901 47.3619V41.5013C74.8901 41.4192 74.9147 41.3536 74.964 41.3043C75.0132 41.2551 75.0789 41.2304 75.161 41.2304H75.3703C75.4524 41.2304 75.518 41.2551 75.5673 41.3043C75.6165 41.3536 75.6411 41.4192 75.6411 41.5013V47.3619C75.6411 47.444 75.6165 47.5097 75.5673 47.5589C75.518 47.6082 75.4524 47.6328 75.3703 47.6328H75.161ZM95.947 47.7559C95.3561 47.7559 94.8595 47.6328 94.4573 47.3866C94.0633 47.1403 93.7596 46.8038 93.5462 46.377C93.341 45.9501 93.2301 45.4741 93.2137 44.9487C93.2055 44.8256 93.2014 44.6532 93.2014 44.4316C93.2014 44.21 93.2055 44.0376 93.2137 43.9145C93.2301 43.381 93.341 42.9049 93.5462 42.4863C93.7596 42.0595 94.0633 41.7229 94.4573 41.4767C94.8595 41.2304 95.3561 41.1073 95.947 41.1073C96.538 41.1073 97.0305 41.2304 97.4245 41.4767C97.8267 41.7229 98.1304 42.0595 98.3356 42.4863C98.549 42.9049 98.664 43.381 98.6804 43.9145C98.6886 44.0376 98.6927 44.21 98.6927 44.4316C98.6927 44.6532 98.6886 44.8256 98.6804 44.9487C98.664 45.4741 98.549 45.9501 98.3356 46.377C98.1304 46.8038 97.8267 47.1403 97.4245 47.3866C97.0305 47.6328 96.538 47.7559 95.947 47.7559ZM95.947 47.0418C96.5216 47.0418 96.9895 46.8571 97.3506 46.4878C97.7118 46.1184 97.9047 45.5849 97.9293 44.8872C97.9375 44.7641 97.9416 44.6122 97.9416 44.4316C97.9416 44.251 97.9375 44.0992 97.9293 43.9761C97.9047 43.2702 97.7118 42.7366 97.3506 42.3755C96.9895 42.0061 96.5216 41.8214 95.947 41.8214C95.3725 41.8214 94.9046 42.0061 94.5434 42.3755C94.1823 42.7366 93.9894 43.2702 93.9648 43.9761C93.9566 44.0992 93.9525 44.251 93.9525 44.4316C93.9525 44.6122 93.9566 44.7641 93.9648 44.8872C93.9894 45.5849 94.1823 46.1184 94.5434 46.4878C94.9046 46.8571 95.3725 47.0418 95.947 47.0418ZM102.332 47.6328C102.25 47.6328 102.185 47.6082 102.135 47.5589C102.086 47.5097 102.062 47.444 102.062 47.3619V41.9445H99.8084C99.7263 41.9445 99.6606 41.9199 99.6114 41.8707C99.5621 41.8214 99.5375 41.7558 99.5375 41.6737V41.5013C99.5375 41.4192 99.5621 41.3536 99.6114 41.3043C99.6606 41.2551 99.7263 41.2304 99.8084 41.2304H105.066C105.148 41.2304 105.213 41.2551 105.263 41.3043C105.312 41.3536 105.337 41.4192 105.337 41.5013V41.6737C105.337 41.7558 105.312 41.8214 105.263 41.8707C105.213 41.9199 105.148 41.9445 105.066 41.9445H102.813V47.3619C102.813 47.444 102.788 47.5097 102.739 47.5589C102.689 47.6082 102.624 47.6328 102.542 47.6328H102.332ZM108.871 47.7559C108.075 47.7559 107.443 47.4974 106.975 46.9803C106.507 46.4549 106.24 45.7696 106.175 44.9241C106.166 44.801 106.162 44.6368 106.162 44.4316C106.162 44.2264 106.166 44.0623 106.175 43.9391C106.216 43.381 106.347 42.8885 106.569 42.4617C106.79 42.0348 107.094 41.7024 107.48 41.4644C107.874 41.2263 108.338 41.1073 108.871 41.1073C109.446 41.1073 109.934 41.2345 110.336 41.489C110.738 41.7434 111.046 42.1087 111.26 42.5848C111.481 43.0609 111.592 43.6272 111.592 44.2839V44.4686C111.592 44.5506 111.563 44.6163 111.506 44.6656C111.457 44.7148 111.391 44.7394 111.309 44.7394H106.926C106.926 44.7394 106.926 44.7558 106.926 44.7887C106.926 44.8215 106.926 44.8461 106.926 44.8626C106.942 45.2319 107.028 45.5849 107.184 45.9214C107.34 46.2497 107.562 46.5206 107.849 46.734C108.136 46.9392 108.477 47.0418 108.871 47.0418C109.224 47.0418 109.515 46.9885 109.745 46.8818C109.983 46.7751 110.172 46.6601 110.312 46.537C110.451 46.4057 110.541 46.3072 110.582 46.2415C110.656 46.1348 110.714 46.0733 110.755 46.0568C110.796 46.0322 110.862 46.0199 110.952 46.0199H111.149C111.223 46.0199 111.284 46.0445 111.334 46.0938C111.391 46.1348 111.416 46.1923 111.407 46.2662C111.399 46.3811 111.334 46.5247 111.21 46.6971C111.095 46.8612 110.927 47.0254 110.706 47.1896C110.492 47.3537 110.23 47.4892 109.918 47.5959C109.606 47.7026 109.257 47.7559 108.871 47.7559ZM106.926 44.0499H110.841V44.0007C110.841 43.5903 110.763 43.2209 110.607 42.8926C110.451 42.5643 110.225 42.3057 109.93 42.1169C109.634 41.9199 109.281 41.8214 108.871 41.8214C108.461 41.8214 108.108 41.9199 107.812 42.1169C107.525 42.3057 107.303 42.5643 107.147 42.8926C107 43.2209 106.926 43.5903 106.926 44.0007V44.0499ZM112.81 47.6328C112.728 47.6328 112.658 47.6082 112.6 47.5589C112.551 47.5015 112.527 47.4317 112.527 47.3496V47.1526C112.527 46.9803 112.609 46.8941 112.773 46.8941C113.035 46.8941 113.261 46.771 113.45 46.5247C113.647 46.2785 113.799 45.8722 113.906 45.3058C114.012 44.7312 114.066 43.9679 114.066 43.0157V41.5013C114.066 41.4192 114.09 41.3536 114.139 41.3043C114.189 41.2551 114.254 41.2304 114.336 41.2304H117.858C117.94 41.2304 118.006 41.2551 118.055 41.3043C118.104 41.3536 118.129 41.4192 118.129 41.5013V47.3619C118.129 47.444 118.104 47.5097 118.055 47.5589C118.006 47.6082 117.94 47.6328 117.858 47.6328H117.648C117.566 47.6328 117.501 47.6082 117.451 47.5589C117.402 47.5097 117.378 47.444 117.378 47.3619V41.9445H114.817V43.1019C114.817 43.8981 114.771 44.5835 114.681 45.158C114.591 45.7326 114.455 46.2046 114.275 46.574C114.103 46.9351 113.893 47.2019 113.647 47.3743C113.401 47.5466 113.122 47.6328 112.81 47.6328ZM120.364 47.6328C120.298 47.6328 120.241 47.6082 120.192 47.5589C120.142 47.5097 120.118 47.4522 120.118 47.3866V41.5013C120.118 41.4192 120.142 41.3536 120.192 41.3043C120.241 41.2551 120.306 41.2304 120.389 41.2304H120.598C120.68 41.2304 120.746 41.2551 120.795 41.3043C120.844 41.3536 120.869 41.4192 120.869 41.5013V47.0295L120.647 46.6725L124.661 41.4151C124.702 41.3659 124.743 41.3248 124.784 41.292C124.833 41.251 124.899 41.2304 124.981 41.2304H125.215C125.281 41.2304 125.338 41.2551 125.387 41.3043C125.437 41.3454 125.461 41.3987 125.461 41.4644V47.3619C125.461 47.444 125.437 47.5097 125.387 47.5589C125.338 47.6082 125.272 47.6328 125.19 47.6328H124.981C124.899 47.6328 124.833 47.6082 124.784 47.5589C124.735 47.5097 124.71 47.444 124.71 47.3619V42.2031L124.969 42.1415L120.918 47.4481C120.885 47.4892 120.844 47.5302 120.795 47.5713C120.746 47.6123 120.68 47.6328 120.598 47.6328H120.364ZM143.594 47.6328C143.512 47.6328 143.446 47.6082 143.397 47.5589C143.348 47.5097 143.323 47.444 143.323 47.3619V41.5013C143.323 41.4192 143.348 41.3536 143.397 41.3043C143.446 41.2551 143.512 41.2304 143.594 41.2304H147.079C147.161 41.2304 147.226 41.2551 147.276 41.3043C147.325 41.3536 147.349 41.4192 147.349 41.5013V41.6737C147.349 41.7558 147.325 41.8214 147.276 41.8707C147.226 41.9199 147.161 41.9445 147.079 41.9445H144.074V47.3619C144.074 47.444 144.05 47.5097 144.001 47.5589C143.951 47.6082 143.886 47.6328 143.804 47.6328H143.594ZM150.907 47.7559C150.316 47.7559 149.82 47.6328 149.418 47.3866C149.024 47.1403 148.72 46.8038 148.506 46.377C148.301 45.9501 148.19 45.4741 148.174 44.9487C148.166 44.8256 148.162 44.6532 148.162 44.4316C148.162 44.21 148.166 44.0376 148.174 43.9145C148.19 43.381 148.301 42.9049 148.506 42.4863C148.72 42.0595 149.024 41.7229 149.418 41.4767C149.82 41.2304 150.316 41.1073 150.907 41.1073C151.498 41.1073 151.991 41.2304 152.385 41.4767C152.787 41.7229 153.091 42.0595 153.296 42.4863C153.509 42.9049 153.624 43.381 153.641 43.9145C153.649 44.0376 153.653 44.21 153.653 44.4316C153.653 44.6532 153.649 44.8256 153.641 44.9487C153.624 45.4741 153.509 45.9501 153.296 46.377C153.091 46.8038 152.787 47.1403 152.385 47.3866C151.991 47.6328 151.498 47.7559 150.907 47.7559ZM150.907 47.0418C151.482 47.0418 151.95 46.8571 152.311 46.4878C152.672 46.1184 152.865 45.5849 152.89 44.8872C152.898 44.7641 152.902 44.6122 152.902 44.4316C152.902 44.251 152.898 44.0992 152.89 43.9761C152.865 43.2702 152.672 42.7366 152.311 42.3755C151.95 42.0061 151.482 41.8214 150.907 41.8214C150.333 41.8214 149.865 42.0061 149.504 42.3755C149.143 42.7366 148.95 43.2702 148.925 43.9761C148.917 44.0992 148.913 44.251 148.913 44.4316C148.913 44.6122 148.917 44.7641 148.925 44.8872C148.95 45.5849 149.143 46.1184 149.504 46.4878C149.865 46.8571 150.333 47.0418 150.907 47.0418ZM157.761 47.7559C157.186 47.7559 156.698 47.6451 156.295 47.4235C155.893 47.1937 155.585 46.8653 155.372 46.4385C155.167 46.0117 155.056 45.5069 155.04 44.9241C155.031 44.801 155.027 44.6368 155.027 44.4316C155.027 44.2264 155.031 44.0623 155.04 43.9391C155.056 43.3481 155.167 42.8433 155.372 42.4247C155.585 41.9979 155.893 41.6737 156.295 41.4521C156.698 41.2222 157.186 41.1073 157.761 41.1073C158.196 41.1073 158.569 41.1689 158.881 41.292C159.201 41.4069 159.464 41.5629 159.669 41.7599C159.874 41.9487 160.03 42.158 160.137 42.3878C160.244 42.6176 160.301 42.8433 160.309 43.065C160.317 43.147 160.293 43.2127 160.235 43.262C160.178 43.3112 160.112 43.3358 160.038 43.3358H159.866C159.784 43.3358 159.722 43.3194 159.681 43.2866C159.648 43.2455 159.612 43.1758 159.57 43.0773C159.398 42.6094 159.16 42.2852 158.856 42.1046C158.561 41.9158 158.196 41.8214 157.761 41.8214C157.202 41.8214 156.739 41.9938 156.369 42.3385C156.008 42.6751 155.815 43.2291 155.791 44.0007C155.774 44.288 155.774 44.5753 155.791 44.8626C155.815 45.6341 156.008 46.1923 156.369 46.537C156.739 46.8736 157.202 47.0418 157.761 47.0418C158.196 47.0418 158.561 46.9515 158.856 46.771C159.16 46.5822 159.398 46.2538 159.57 45.786C159.612 45.6875 159.648 45.6218 159.681 45.589C159.722 45.5479 159.784 45.5274 159.866 45.5274H160.038C160.112 45.5274 160.178 45.552 160.235 45.6013C160.293 45.6505 160.317 45.7162 160.309 45.7983C160.301 45.9789 160.264 46.1594 160.198 46.34C160.133 46.5206 160.03 46.6971 159.891 46.8695C159.759 47.0418 159.595 47.1937 159.398 47.325C159.201 47.4563 158.963 47.5589 158.684 47.6328C158.413 47.7149 158.105 47.7559 157.761 47.7559ZM163.894 47.6328C163.812 47.6328 163.746 47.6082 163.697 47.5589C163.647 47.5097 163.623 47.444 163.623 47.3619V41.9445H161.37C161.288 41.9445 161.222 41.9199 161.173 41.8707C161.123 41.8214 161.099 41.7558 161.099 41.6737V41.5013C161.099 41.4192 161.123 41.3536 161.173 41.3043C161.222 41.2551 161.288 41.2304 161.37 41.2304H166.627C166.709 41.2304 166.775 41.2551 166.824 41.3043C166.873 41.3536 166.898 41.4192 166.898 41.5013V41.6737C166.898 41.7558 166.873 41.8214 166.824 41.8707C166.775 41.9199 166.709 41.9445 166.627 41.9445H164.374V47.3619C164.374 47.444 164.349 47.5097 164.3 47.5589C164.251 47.6082 164.185 47.6328 164.103 47.6328H163.894ZM170.432 47.7559C169.636 47.7559 169.004 47.4974 168.536 46.9803C168.068 46.4549 167.802 45.7696 167.736 44.9241C167.728 44.801 167.724 44.6368 167.724 44.4316C167.724 44.2264 167.728 44.0623 167.736 43.9391C167.777 43.381 167.908 42.8885 168.13 42.4617C168.352 42.0348 168.655 41.7024 169.041 41.4644C169.435 41.2263 169.899 41.1073 170.432 41.1073C171.007 41.1073 171.495 41.2345 171.898 41.489C172.3 41.7434 172.608 42.1087 172.821 42.5848C173.043 43.0609 173.153 43.6272 173.153 44.2839V44.4686C173.153 44.5506 173.125 44.6163 173.067 44.6656C173.018 44.7148 172.952 44.7394 172.87 44.7394H168.487C168.487 44.7394 168.487 44.7558 168.487 44.7887C168.487 44.8215 168.487 44.8461 168.487 44.8626C168.503 45.2319 168.59 45.5849 168.746 45.9214C168.902 46.2497 169.123 46.5206 169.41 46.734C169.698 46.9392 170.038 47.0418 170.432 47.0418C170.785 47.0418 171.077 46.9885 171.307 46.8818C171.545 46.7751 171.733 46.6601 171.873 46.537C172.012 46.4057 172.103 46.3072 172.144 46.2415C172.218 46.1348 172.275 46.0733 172.316 46.0568C172.357 46.0322 172.423 46.0199 172.513 46.0199H172.71C172.784 46.0199 172.846 46.0445 172.895 46.0938C172.952 46.1348 172.977 46.1923 172.969 46.2662C172.961 46.3811 172.895 46.5247 172.772 46.6971C172.657 46.8612 172.489 47.0254 172.267 47.1896C172.053 47.3537 171.791 47.4892 171.479 47.5959C171.167 47.7026 170.818 47.7559 170.432 47.7559ZM168.487 44.0499H172.402V44.0007C172.402 43.5903 172.324 43.2209 172.168 42.8926C172.012 42.5643 171.787 42.3057 171.491 42.1169C171.196 41.9199 170.843 41.8214 170.432 41.8214C170.022 41.8214 169.669 41.9199 169.374 42.1169C169.086 42.3057 168.865 42.5643 168.709 42.8926C168.561 43.2209 168.487 43.5903 168.487 44.0007V44.0499ZM175.048 47.6328C174.966 47.6328 174.9 47.6082 174.851 47.5589C174.802 47.5097 174.777 47.444 174.777 47.3619V41.5013C174.777 41.4192 174.802 41.3536 174.851 41.3043C174.9 41.2551 174.966 41.2304 175.048 41.2304H177.474C178.155 41.2304 178.676 41.3823 179.037 41.686C179.407 41.9897 179.591 42.396 179.591 42.9049C179.591 43.2989 179.518 43.5903 179.37 43.7791C179.222 43.9679 179.009 44.1279 178.73 44.2593C179.058 44.3824 179.304 44.5999 179.468 44.9118C179.632 45.2237 179.715 45.5356 179.715 45.8475C179.715 46.4303 179.513 46.8736 179.111 47.1773C178.717 47.481 178.192 47.6328 177.535 47.6328H175.048ZM175.528 46.9187H177.437C177.888 46.9187 178.254 46.8284 178.533 46.6478C178.82 46.4673 178.964 46.2005 178.964 45.8475C178.964 45.47 178.836 45.195 178.582 45.0226C178.327 44.8502 177.946 44.7641 177.437 44.7641H175.528V46.9187ZM175.528 44.0499H177.351C177.802 44.0499 178.163 43.9473 178.434 43.7421C178.705 43.5369 178.84 43.2579 178.84 42.9049C178.84 42.5437 178.705 42.2934 178.434 42.1539C178.163 42.0143 177.802 41.9445 177.351 41.9445H175.528V44.0499ZM181.721 47.6328C181.639 47.6328 181.574 47.6082 181.524 47.5589C181.475 47.5097 181.451 47.444 181.451 47.3619V41.5013C181.451 41.4192 181.475 41.3536 181.524 41.3043C181.574 41.2551 181.639 41.2304 181.721 41.2304H181.931C182.013 41.2304 182.078 41.2551 182.128 41.3043C182.177 41.3536 182.202 41.4192 182.202 41.5013V43.3728H183.556C184.393 43.3728 184.988 43.5698 185.341 43.9638C185.702 44.3578 185.883 44.8872 185.883 45.552C185.883 46.2744 185.678 46.8038 185.267 47.1403C184.865 47.4686 184.233 47.6328 183.371 47.6328H181.721ZM182.202 46.9187H183.482C184.057 46.9187 184.475 46.8202 184.738 46.6232C185.001 46.418 185.132 46.0609 185.132 45.552C185.132 45.0595 185.005 44.6943 184.75 44.4562C184.496 44.21 184.073 44.0869 183.482 44.0869H182.202V46.9187ZM187.09 47.6328C187.007 47.6328 186.942 47.6082 186.893 47.5589C186.843 47.5097 186.819 47.444 186.819 47.3619V41.5013C186.819 41.4192 186.843 41.3536 186.893 41.3043C186.942 41.2551 187.007 41.2304 187.09 41.2304H187.299C187.381 41.2304 187.447 41.2551 187.496 41.3043C187.545 41.3536 187.57 41.4192 187.57 41.5013V47.3619C187.57 47.444 187.545 47.5097 187.496 47.5589C187.447 47.6082 187.381 47.6328 187.299 47.6328H187.09ZM191.943 47.7559C191.147 47.7559 190.515 47.4974 190.047 46.9803C189.579 46.4549 189.312 45.7696 189.246 44.9241C189.238 44.801 189.234 44.6368 189.234 44.4316C189.234 44.2264 189.238 44.0623 189.246 43.9391C189.287 43.381 189.419 42.8885 189.64 42.4617C189.862 42.0348 190.166 41.7024 190.551 41.4644C190.945 41.2263 191.409 41.1073 191.943 41.1073C192.517 41.1073 193.006 41.2345 193.408 41.489C193.81 41.7434 194.118 42.1087 194.331 42.5848C194.553 43.0609 194.664 43.6272 194.664 44.2839V44.4686C194.664 44.5506 194.635 44.6163 194.578 44.6656C194.528 44.7148 194.463 44.7394 194.381 44.7394H189.997C189.997 44.7394 189.997 44.7558 189.997 44.7887C189.997 44.8215 189.997 44.8461 189.997 44.8626C190.014 45.2319 190.1 45.5849 190.256 45.9214C190.412 46.2497 190.634 46.5206 190.921 46.734C191.208 46.9392 191.549 47.0418 191.943 47.0418C192.296 47.0418 192.587 46.9885 192.817 46.8818C193.055 46.7751 193.244 46.6601 193.383 46.537C193.523 46.4057 193.613 46.3072 193.654 46.2415C193.728 46.1348 193.786 46.0733 193.827 46.0568C193.868 46.0322 193.933 46.0199 194.024 46.0199H194.221C194.294 46.0199 194.356 46.0445 194.405 46.0938C194.463 46.1348 194.487 46.1923 194.479 46.2662C194.471 46.3811 194.405 46.5247 194.282 46.6971C194.167 46.8612 193.999 47.0254 193.777 47.1896C193.564 47.3537 193.301 47.4892 192.989 47.5959C192.677 47.7026 192.329 47.7559 191.943 47.7559ZM189.997 44.0499H193.913V44.0007C193.913 43.5903 193.835 43.2209 193.679 42.8926C193.523 42.5643 193.297 42.3057 193.002 42.1169C192.706 41.9199 192.353 41.8214 191.943 41.8214C191.532 41.8214 191.179 41.9199 190.884 42.1169C190.597 42.3057 190.375 42.5643 190.219 42.8926C190.071 43.2209 189.997 43.5903 189.997 44.0007V44.0499ZM198.982 48.9872C198.9 48.9872 198.834 48.9625 198.785 48.9133C198.736 48.864 198.711 48.7984 198.711 48.7163V47.1896C198.711 47.1075 198.736 47.0418 198.785 46.9926C198.834 46.9433 198.9 46.9187 198.982 46.9187H199.019C199.249 46.9105 199.45 46.7792 199.622 46.5247C199.794 46.2703 199.926 45.8598 200.016 45.2935C200.115 44.7189 200.164 43.9597 200.164 43.0157V41.5013C200.164 41.4192 200.188 41.3536 200.238 41.3043C200.287 41.2551 200.353 41.2304 200.435 41.2304H203.981C204.063 41.2304 204.128 41.2551 204.178 41.3043C204.227 41.3536 204.251 41.4192 204.251 41.5013V46.8941H204.855C204.937 46.8941 205.003 46.9187 205.052 46.968C205.101 47.0172 205.126 47.0829 205.126 47.1649V48.7163C205.126 48.7984 205.101 48.864 205.052 48.9133C205.003 48.9625 204.937 48.9872 204.855 48.9872H204.645C204.563 48.9872 204.498 48.9625 204.448 48.9133C204.399 48.864 204.375 48.7984 204.375 48.7163V47.6328H199.462V48.7163C199.462 48.7984 199.437 48.864 199.388 48.9133C199.339 48.9625 199.273 48.9872 199.191 48.9872H198.982ZM200.102 46.9187L203.5 46.8941V41.9445H200.915V43.1019C200.915 44.0869 200.845 44.8872 200.706 45.5028C200.566 46.1184 200.365 46.5904 200.102 46.9187ZM208.994 47.7559C208.403 47.7559 207.906 47.6328 207.504 47.3866C207.11 47.1403 206.806 46.8038 206.593 46.377C206.388 45.9501 206.277 45.4741 206.26 44.9487C206.252 44.8256 206.248 44.6532 206.248 44.4316C206.248 44.21 206.252 44.0376 206.26 43.9145C206.277 43.381 206.388 42.9049 206.593 42.4863C206.806 42.0595 207.11 41.7229 207.504 41.4767C207.906 41.2304 208.403 41.1073 208.994 41.1073C209.585 41.1073 210.077 41.2304 210.471 41.4767C210.873 41.7229 211.177 42.0595 211.382 42.4863C211.596 42.9049 211.711 43.381 211.727 43.9145C211.735 44.0376 211.739 44.21 211.739 44.4316C211.739 44.6532 211.735 44.8256 211.727 44.9487C211.711 45.4741 211.596 45.9501 211.382 46.377C211.177 46.8038 210.873 47.1403 210.471 47.3866C210.077 47.6328 209.585 47.7559 208.994 47.7559ZM208.994 47.0418C209.568 47.0418 210.036 46.8571 210.397 46.4878C210.759 46.1184 210.951 45.5849 210.976 44.8872C210.984 44.7641 210.988 44.6122 210.988 44.4316C210.988 44.251 210.984 44.0992 210.976 43.9761C210.951 43.2702 210.759 42.7366 210.397 42.3755C210.036 42.0061 209.568 41.8214 208.994 41.8214C208.419 41.8214 207.951 42.0061 207.59 42.3755C207.229 42.7366 207.036 43.2702 207.012 43.9761C207.003 44.0992 206.999 44.251 206.999 44.4316C206.999 44.6122 207.003 44.7641 207.012 44.8872C207.036 45.5849 207.229 46.1184 207.59 46.4878C207.951 46.8571 208.419 47.0418 208.994 47.0418ZM213.692 47.6328C213.61 47.6328 213.545 47.6082 213.495 47.5589C213.446 47.5097 213.422 47.444 213.422 47.3619V41.4644C213.422 41.3987 213.446 41.3454 213.495 41.3043C213.553 41.2551 213.61 41.2304 213.668 41.2304H213.951C214.074 41.2304 214.168 41.292 214.234 41.4151L216.512 45.7244L218.79 41.4151C218.855 41.292 218.95 41.2304 219.073 41.2304H219.356C219.422 41.2304 219.479 41.2551 219.528 41.3043C219.578 41.3454 219.602 41.3987 219.602 41.4644V47.3619C219.602 47.444 219.578 47.5097 219.528 47.5589C219.479 47.6082 219.413 47.6328 219.331 47.6328H219.122C219.04 47.6328 218.974 47.6082 218.925 47.5589C218.876 47.5097 218.851 47.444 218.851 47.3619V42.0677H219.208L217.054 46.2415C217.013 46.3236 216.963 46.4016 216.906 46.4755C216.848 46.5493 216.758 46.5863 216.635 46.5863H216.389C216.266 46.5863 216.175 46.5493 216.118 46.4755C216.06 46.4016 216.011 46.3236 215.97 46.2415L213.877 42.3016H214.173V47.3619C214.173 47.444 214.148 47.5097 214.099 47.5589C214.049 47.6082 213.984 47.6328 213.902 47.6328H213.692ZM223.321 47.7559C222.927 47.7559 222.562 47.6739 222.226 47.5097C221.897 47.3455 221.63 47.128 221.425 46.8571C221.22 46.5781 221.117 46.2662 221.117 45.9214C221.117 45.3633 221.343 44.9159 221.795 44.5794C222.246 44.2428 222.833 44.0253 223.555 43.9268L225.501 43.656V43.225C225.501 42.79 225.365 42.4494 225.094 42.2031C224.832 41.9487 224.409 41.8214 223.826 41.8214C223.399 41.8214 223.055 41.9076 222.792 42.08C222.529 42.2441 222.349 42.4617 222.25 42.7325C222.209 42.8557 222.131 42.9172 222.016 42.9172H221.819C221.721 42.9172 221.651 42.8926 221.61 42.8433C221.569 42.7859 221.548 42.7202 221.548 42.6463C221.548 42.5314 221.589 42.3878 221.671 42.2154C221.762 42.043 221.897 41.8748 222.078 41.7106C222.258 41.5382 222.492 41.3946 222.78 41.2797C223.067 41.1648 223.416 41.1073 223.826 41.1073C224.31 41.1073 224.709 41.173 225.02 41.3043C225.341 41.4356 225.587 41.608 225.759 41.8214C225.94 42.0266 226.067 42.2565 226.141 42.5109C226.215 42.7654 226.252 43.0157 226.252 43.262V47.3619C226.252 47.444 226.227 47.5097 226.178 47.5589C226.129 47.6082 226.063 47.6328 225.981 47.6328H225.771C225.689 47.6328 225.624 47.6082 225.574 47.5589C225.525 47.5097 225.501 47.444 225.501 47.3619V46.7833C225.402 46.931 225.263 47.0788 225.082 47.2265C224.901 47.3743 224.667 47.5015 224.38 47.6082C224.101 47.7067 223.748 47.7559 223.321 47.7559ZM223.444 47.0418C223.822 47.0418 224.167 46.9597 224.479 46.7956C224.791 46.6314 225.037 46.3811 225.217 46.0445C225.406 45.6998 225.501 45.2689 225.501 44.7517V44.3331L223.912 44.5547C223.239 44.645 222.73 44.801 222.386 45.0226C222.041 45.2442 221.868 45.5233 221.868 45.8598C221.868 46.1307 221.946 46.3523 222.102 46.5247C222.258 46.6971 222.455 46.8284 222.693 46.9187C222.94 47.0008 223.19 47.0418 223.444 47.0418Z" fill="#FDFDFD"/>
<circle cx="84.9251" cy="44.5247" r="2.05204" fill="#FDFDFD"/>
<circle cx="134.175" cy="44.5247" r="2.05204" fill="#FDFDFD"/>
</svg>
