<svg viewBox="0 0 187 49" fill="none" xmlns="http://www.w3.org/2000/svg">
<path d="M157.842 20.3901C157.842 18.729 156.51 17.3867 154.872 17.3867C153.222 17.3867 151.891 18.729 151.902 20.3901C151.902 22.0511 153.234 23.3934 154.872 23.3934C156.51 23.3934 157.842 22.0511 157.842 20.3901Z" fill="#EE204D"/>
<path fill-rule="evenodd" clip-rule="evenodd" d="M4.82319 8.86592C4.80088 8.75566 4.77538 8.64858 4.74862 8.54399C4.42928 7.36298 3.4031 7.91875 3.18512 7.10542C2.86834 5.92375 6.20249 5.71468 7.03937 5.5018C9.2109 4.95301 12.206 3.64765 15.3349 2.78336C18.4778 1.96687 21.7227 1.60038 23.879 0.989764C24.7089 0.755848 27.702 -0.730532 28.0188 0.451178C28.2362 1.26448 27.0704 1.29634 27.384 2.47933C27.8327 4.09956 29.0922 6.1105 29.7226 8.39485C30.4542 11.0355 30.5645 13.949 31.0266 15.6158C31.1752 16.1493 31.4785 16.4112 31.7347 16.6241C32.478 17.0983 32.5366 18.0761 31.6353 18.3176C31.1567 18.4457 30.488 18.6554 29.7226 18.6465C29.3229 18.642 29.1648 18.4642 29.1215 18.1538C28.9494 16.9485 28.7384 15.2888 28.37 13.9618C28.038 12.759 27.3107 10.8023 26.6466 9.72635C26.2807 9.13361 25.8001 8.41652 26.1717 7.94042C26.8078 7.12645 26.5962 5.84981 25.9467 5.08941C25.2284 4.24615 23.9893 4.27356 22.6795 4.62476C22.0682 4.78857 21.4079 5.04288 20.8782 5.24621C20.5939 5.35584 20.3549 5.44825 20.2867 5.46738C19.358 5.72998 18.0629 5.96772 16.6479 6.2265C15.1463 6.50185 13.51 6.80204 11.7675 7.25463L11.7553 7.25717C10.0191 7.7371 8.45245 8.29542 7.01451 8.80792C6.54478 8.97555 6.08903 9.13807 5.65497 9.28849C5.65497 9.28849 4.96978 9.56319 4.82319 8.86592ZM17.0934 27.1549C14.006 27.8312 10.8267 28.1448 8.63409 28.7038C7.09801 29.0882 6.52694 30.0544 5.75058 30.2629C4.84932 30.5044 4.48155 29.7504 4.88757 28.9683C5.00229 28.6553 5.1355 28.2774 4.99719 27.7407C4.59883 26.2518 3.20487 24.8572 2.18506 20.9239C1.16589 16.9912 1.96962 15.9842 1.58337 14.5431C1.26404 13.3614 0.239131 13.9171 0.0211463 13.1039C-0.295633 11.9215 3.03852 11.7131 3.87349 11.5009C6.69456 10.7857 9.36265 9.56064 12.1703 8.78179C14.9913 8.05259 17.915 7.77917 20.715 6.98815C21.5449 6.7536 24.5362 5.26788 24.8529 6.44958C25.0709 7.26291 23.9058 7.29478 24.22 8.47771C24.6063 9.91883 25.8058 10.3886 26.8888 14.3047C27.9729 18.2208 27.463 20.1253 27.862 21.6142C28.0106 22.1477 28.3152 22.409 28.5708 22.6219C29.3139 23.0968 29.3719 23.9336 28.4714 24.1745C27.6944 24.3829 26.7167 23.8316 25.1946 24.2663C23.0154 24.8782 20.1057 26.197 17.0934 27.1549ZM22.3213 11.2114C24.7586 15.053 23.4749 20.1986 22.6476 22.3179C22.6285 22.3676 22.5902 22.4989 22.7961 22.4096C25.8689 21.3216 25.8524 14.1638 22.4481 11.1235C22.4481 11.1235 22.1485 10.9387 22.3213 11.2114Z" fill="#EE204D"/>
<path fill-rule="evenodd" clip-rule="evenodd" d="M134.457 15.0464C134.457 10.4528 138.18 6.73047 142.773 6.73047C147.354 6.73047 151.088 10.4656 151.088 15.0464C151.088 19.6394 147.366 23.3617 142.773 23.3617C138.18 23.3617 134.457 19.6394 134.457 15.0464ZM142.773 18.8918C144.896 18.8918 146.619 17.1689 146.619 15.0464C146.619 12.9119 144.908 11.2004 142.773 11.2004C140.65 11.2004 138.927 12.9233 138.927 15.0464C138.927 17.1682 140.65 18.8918 142.773 18.8918Z" fill="#1C1C1C"/>
<path fill-rule="evenodd" clip-rule="evenodd" d="M163.686 22.9345C164.061 22.8632 164.329 22.5878 164.329 22.1978L164.332 20.5552C164.348 20.1671 164.664 19.8554 165.058 19.8554C168.106 19.8554 170.284 18.8184 171.474 17.2096C172.741 15.4957 172.931 13.0909 172.261 11.0805C171.672 9.31562 170.346 7.82925 168.38 7.27666C167.338 6.98469 166.006 6.86359 164.674 6.90119C163.328 6.9388 161.982 7.13899 160.934 7.48699C160.62 7.59597 160.344 7.7381 160.147 7.94461C159.952 8.1492 159.834 8.42071 159.834 8.7898L159.834 9.99874C159.831 13.6259 159.829 17.2532 159.831 20.8809C159.848 21.438 159.894 21.8746 160.076 22.2111C160.49 22.9754 161.559 23.0685 162.335 23.064C162.818 23.0621 163.309 23.013 163.686 22.9345ZM165.107 15.6779C164.763 15.6779 164.333 15.3943 164.332 15.0208V11.8097C164.332 11.5051 164.731 11.2309 165.006 11.1959C165.175 11.1449 165.496 11.1321 165.832 11.143C166.811 11.1748 167.576 11.3444 168.12 12.2928C168.542 13.0297 168.522 13.9507 168.023 14.6461C167.473 15.4122 166.696 15.6295 165.827 15.6671C165.586 15.6773 165.349 15.6779 165.107 15.6779Z" fill="#1C1C1C"/>
<path d="M73.5871 11.2875C73.8663 11.2875 74.0779 11.5177 74.0779 11.7892C74.0798 14.8231 74.0779 20.8853 74.0779 20.8853C74.0951 21.4423 74.1423 21.8815 74.3246 22.218C74.7388 22.9823 75.807 23.0747 76.5827 23.0709C77.0665 23.0683 77.5579 23.0199 77.9358 22.9414C78.3099 22.8694 78.577 22.5947 78.577 22.204L78.5725 11.7841C78.5725 11.5043 78.7816 11.2939 79.0601 11.2875H81.3259C82.0901 11.2875 82.5624 11.0071 82.8364 10.5552C83.113 10.1008 83.1921 9.47037 83.1698 8.77756C83.1079 8.18094 82.9594 7.02344 82.164 7.02344H71.2481C70.8357 7.03937 70.524 7.13185 70.2907 7.29693C69.6655 7.74052 69.575 8.9318 69.6158 9.587C69.6572 10.2588 69.8421 11.2875 70.7018 11.2875H73.5871Z" fill="#1C1C1C"/>
<path d="M115.178 22.9339C115.552 22.8625 115.82 22.5872 115.82 22.1971C115.82 21.0118 115.82 19.8264 115.82 18.641C115.821 15.4958 115.821 12.3507 115.819 9.20665C115.802 8.6496 115.756 8.21295 115.573 7.87579C115.16 7.11224 114.091 7.01912 113.315 7.02358C112.832 7.02613 112.34 7.07457 111.963 7.15239C111.589 7.22441 111.32 7.49975 111.32 7.88981C111.321 9.18817 111.321 10.4865 111.321 11.7849C111.321 12.9366 110.246 13.5657 109.18 13.5772C108.098 13.5899 106.967 12.9666 106.967 11.7849C106.967 11.4405 106.967 11.0965 106.967 10.7526C106.968 10.2378 106.968 9.72291 106.967 9.20665C106.95 8.6496 106.904 8.21295 106.722 7.87579C106.308 7.11224 105.239 7.01912 104.464 7.02358C103.98 7.02613 103.489 7.07457 103.111 7.15239C102.737 7.22441 102.469 7.49975 102.469 7.88981C102.469 9.50366 102.469 11.1162 102.469 12.7307C102.469 14.4249 103.278 15.8718 104.65 16.8597C105.768 17.6647 107.185 18.1051 108.588 18.1051C109.286 18.1051 109.98 17.984 110.654 17.8094C110.756 17.7839 110.851 17.7737 110.94 17.7909C111.183 17.8374 111.304 18.0414 111.321 18.2702C111.321 19.1403 111.322 20.0103 111.322 20.8803C111.339 21.4374 111.385 21.874 111.568 22.2105C111.981 22.9748 113.049 23.0678 113.826 23.0634C114.31 23.0615 114.801 23.0124 115.178 22.9339Z" fill="#1C1C1C"/>
<path d="M119.007 7.15239C118.633 7.22441 118.365 7.49975 118.365 7.88981C118.365 12.2202 118.367 16.5499 118.371 20.8803C118.388 21.4374 118.433 21.874 118.616 22.2105C119.029 22.9748 120.098 23.0678 120.874 23.0634C121.357 23.0615 121.849 23.0124 122.226 22.9339C122.601 22.8625 122.869 22.5872 122.869 22.1971C122.869 20.793 122.868 19.3901 122.866 17.9866C122.877 17.5921 123.198 17.2772 123.593 17.2772H127.17C127.539 17.2772 127.85 17.5545 127.892 17.9203C127.893 18.3601 127.894 18.7998 127.895 19.2394C127.896 19.7867 127.898 20.3338 127.898 20.8803C127.915 21.4374 127.962 21.874 128.144 22.2105C128.557 22.9748 129.626 23.0678 130.402 23.0634C130.885 23.0615 131.377 23.0124 131.754 22.9339C132.128 22.8625 132.397 22.5872 132.397 22.1971C132.396 20.4146 132.396 18.632 132.396 16.8495C132.396 14.3018 132.396 11.7541 132.393 9.20665C132.377 8.6496 132.33 8.21295 132.148 7.87579C131.735 7.11224 130.666 7.01912 129.89 7.02358C129.407 7.02613 128.915 7.07457 128.538 7.15239C128.164 7.22441 127.896 7.49975 127.896 7.88981C127.896 9.26025 127.896 10.6307 127.897 12.0011V12.0507C127.898 12.4535 127.574 12.7798 127.17 12.7798H123.595C123.194 12.7798 122.866 12.4554 122.866 12.0526L122.864 9.20665C122.846 8.6496 122.801 8.21295 122.618 7.87579C122.204 7.11224 121.135 7.01912 120.36 7.02358C119.876 7.02613 119.385 7.07457 119.007 7.15239Z" fill="#1C1C1C"/>
<path fill-rule="evenodd" clip-rule="evenodd" d="M86.4334 9.16593C87.9382 7.66107 90.0172 6.73047 92.3136 6.73047C94.6043 6.73047 96.6833 7.66426 98.1894 9.17039C99.6954 10.6765 100.63 12.7556 100.63 15.0464C100.63 17.3429 99.6986 19.422 98.1945 20.9263C96.6897 22.4311 94.6106 23.3617 92.3136 23.3617C90.0172 23.3617 87.9382 22.4311 86.4334 20.9263C84.9286 19.422 83.998 17.3423 83.998 15.0464C83.998 12.7499 84.9286 10.6701 86.4334 9.16593ZM95.0345 17.7642C95.7285 17.0694 96.1594 16.1096 96.1594 15.0464C96.1594 13.9775 95.7317 13.017 95.0383 12.3229C94.3429 11.6275 93.3793 11.1998 92.3136 11.1998C91.2505 11.1998 90.29 11.6313 89.5953 12.3261C88.898 13.0234 88.4678 13.9864 88.4678 15.0464C88.4678 16.1077 88.8987 17.0694 89.5947 17.7649C90.2906 18.4608 91.2524 18.8918 92.3136 18.8918C93.3729 18.8918 94.3372 18.4615 95.0345 17.7642Z" fill="#1C1C1C"/>
<path d="M50.4743 22.7655C49.4462 23.1728 48.2702 23.3417 47.3441 23.3595L47.1542 23.3614C44.8079 23.3614 42.6804 22.5099 41.1277 21.0675C39.5757 19.6251 38.5986 17.5912 38.5527 15.2265L38.5508 15.0506C38.5508 13.0677 39.2525 11.2186 40.4406 9.76986C41.6274 8.323 43.2999 7.27456 45.2439 6.89081C45.873 6.76652 46.6181 6.71745 47.3639 6.73338C48.1433 6.74931 48.9242 6.83727 49.5806 6.98322C50.074 7.09355 50.5508 7.27265 50.9638 7.51102C51.4336 7.78189 51.8217 8.12989 52.0626 8.54168C52.3029 8.9515 52.3972 9.42633 52.2793 9.95285C52.2245 10.1989 52.1225 10.4576 51.9683 10.7253C51.4814 11.4246 51.1397 11.7636 50.7866 11.8733C50.4354 11.9822 50.0657 11.8662 49.5214 11.6559C48.87 11.4003 48.1791 11.2078 47.4843 11.1485C46.7883 11.0893 46.0878 11.1625 45.4192 11.4386C44.6894 11.7401 44.0877 12.2474 43.6683 12.8746C43.2476 13.5043 43.0099 14.2552 43.0099 15.043C43.0099 16.1444 43.4178 17.0622 44.0903 17.7302C44.7971 18.4325 45.7978 18.859 46.9228 18.9323C47.4372 18.9654 48.0975 18.8685 48.7374 18.6907C49.3901 18.5096 50.0243 18.2445 50.466 17.9488C50.7018 17.7914 50.9383 17.697 51.206 17.7295C51.4763 17.7633 51.7816 17.9246 52.157 18.2789C52.5789 18.7309 52.8154 19.2465 52.8575 19.7768C52.9002 20.3046 52.751 20.847 52.4043 21.3588C51.9715 21.9955 51.2666 22.4519 50.4743 22.7655Z" fill="#1C1C1C"/>
<path d="M179.785 11.7424C180.003 12.1803 180.457 12.216 180.692 11.8068C180.718 11.7564 182.814 7.67015 182.814 7.67015C182.941 7.41458 183.082 7.23867 183.24 7.12069C183.398 7.00342 183.572 6.94287 183.764 6.91737C184.583 6.80775 185.321 6.8785 185.881 7.12197C187.046 7.62873 187.285 8.96468 186.675 10.0214L180.639 21.7206C180.129 22.7022 178.839 23.0489 177.811 23.0489C176.864 23.0489 175.946 22.6862 175.808 21.6429C175.769 21.3491 175.859 21.1758 176.062 20.7847V20.7843L177.503 17.976C177.649 17.7191 177.642 17.3208 177.474 17.0753L173.273 8.92453C173.064 8.51975 173.055 8.24059 173.175 8.00923C173.647 7.10348 175.339 6.78735 176.178 6.95052C176.879 7.08755 177.522 7.47449 177.913 8.11439L179.785 11.7424Z" fill="#1C1C1C"/>
<path d="M63.4525 8.09006C62.9694 9.02385 61.6685 11.539 61.5168 11.8481H61.557L61.5296 11.8953C61.4512 12.0317 61.3588 12.1215 61.2631 12.1687C61.202 12.1993 61.1382 12.2127 61.0763 12.2101C61.0145 12.2076 60.954 12.1897 60.8966 12.1566C60.8055 12.1043 60.7239 12.0132 60.6627 11.8908L58.8334 8.33799C58.8079 8.28892 58.7812 8.24175 58.7531 8.1965C58.3624 7.55596 57.7269 7.17285 57.0252 7.03645C56.3234 6.90006 55.5535 7.00968 54.8963 7.35392C54.8357 7.38642 54.7752 7.4202 54.7172 7.4559C54.3998 7.67323 54.1442 7.86253 54.0225 8.09516C53.9027 8.32588 53.9129 8.60568 54.1206 9.01047L58.3242 17.1747C58.4058 17.2945 58.4504 17.4507 58.4548 17.61C58.4599 17.7687 58.4255 17.9306 58.3503 18.0619L56.9092 20.8696C56.7064 21.2616 56.6172 21.4349 56.6561 21.7288C56.7186 22.2011 56.9423 22.537 57.2604 22.762C57.6313 23.0233 58.1316 23.1349 58.6588 23.1349C59.2311 23.1349 59.8762 23.0277 60.425 22.7696C60.8737 22.558 61.2587 22.2451 61.4862 21.8059C61.9005 21.0124 63.3047 18.2901 64.6562 15.6634C66.119 12.8232 67.5154 10.1081 67.5154 10.1036L67.5186 10.0908C67.7774 9.49549 67.8602 8.98179 67.8035 8.55215C67.7608 8.23538 67.6397 7.96387 67.4568 7.73952C67.2738 7.51453 67.0259 7.33735 66.7295 7.20797C66.1687 6.96443 65.4313 6.89369 64.611 7.00331C64.4198 7.0288 64.2445 7.08935 64.0877 7.20663C63.9296 7.3246 63.7875 7.50051 63.6609 7.75609C63.6607 7.75698 63.6437 7.78394 63.6132 7.83283L63.613 7.83302C63.5769 7.8907 63.5218 7.97878 63.4525 8.09006Z" fill="#1C1C1C"/>
<path opacity="0.9" d="M16.7336 44.096C15.9256 44.096 15.2336 43.924 14.6576 43.58C14.0816 43.228 13.6376 42.728 13.3256 42.08C13.0216 41.432 12.8696 40.66 12.8696 39.764C12.8696 39.092 12.9536 38.492 13.1216 37.964C13.2976 37.428 13.5496 36.976 13.8776 36.608C14.2136 36.232 14.6216 35.944 15.1016 35.744C15.5896 35.544 16.1336 35.444 16.7336 35.444C17.2616 35.444 17.7536 35.52 18.2096 35.672C18.6656 35.824 19.0576 36.048 19.3856 36.344C19.4656 36.416 19.5176 36.492 19.5416 36.572C19.5656 36.652 19.5656 36.728 19.5416 36.8C19.5256 36.864 19.4896 36.92 19.4336 36.968C19.3776 37.008 19.3096 37.028 19.2296 37.028C19.1576 37.02 19.0776 36.98 18.9896 36.908C18.6856 36.644 18.3456 36.448 17.9696 36.32C17.6016 36.192 17.1936 36.128 16.7456 36.128C16.0816 36.128 15.5176 36.272 15.0536 36.56C14.5976 36.84 14.2496 37.252 14.0096 37.796C13.7776 38.34 13.6616 38.996 13.6616 39.764C13.6616 40.54 13.7776 41.2 14.0096 41.744C14.2496 42.288 14.5976 42.704 15.0536 42.992C15.5176 43.272 16.0816 43.412 16.7456 43.412C17.1856 43.412 17.5936 43.348 17.9696 43.22C18.3456 43.084 18.6896 42.884 19.0016 42.62C19.0896 42.548 19.1696 42.512 19.2416 42.512C19.3216 42.512 19.3856 42.536 19.4336 42.584C19.4896 42.624 19.5296 42.68 19.5536 42.752C19.5776 42.816 19.5776 42.884 19.5536 42.956C19.5376 43.028 19.4936 43.096 19.4216 43.16C19.0776 43.472 18.6776 43.708 18.2216 43.868C17.7736 44.02 17.2776 44.096 16.7336 44.096ZM23.5634 44.096C22.9634 44.096 22.4474 43.976 22.0154 43.736C21.5834 43.496 21.2514 43.152 21.0194 42.704C20.7874 42.256 20.6714 41.724 20.6714 41.108C20.6714 40.5 20.7874 39.972 21.0194 39.524C21.2514 39.068 21.5714 38.712 21.9794 38.456C22.3954 38.2 22.8714 38.072 23.4074 38.072C23.7994 38.072 24.1434 38.14 24.4394 38.276C24.7434 38.404 24.9994 38.592 25.2074 38.84C25.4234 39.08 25.5874 39.376 25.6994 39.728C25.8114 40.072 25.8674 40.464 25.8674 40.904C25.8674 41.016 25.8354 41.1 25.7714 41.156C25.7154 41.212 25.6354 41.24 25.5314 41.24H21.1994V40.7H25.4114L25.2194 40.856C25.2194 40.392 25.1514 40 25.0154 39.68C24.8794 39.352 24.6754 39.1 24.4034 38.924C24.1394 38.748 23.8114 38.66 23.4194 38.66C22.9794 38.66 22.6074 38.764 22.3034 38.972C21.9994 39.172 21.7714 39.452 21.6194 39.812C21.4674 40.164 21.3914 40.572 21.3914 41.036V41.096C21.3914 41.864 21.5794 42.456 21.9554 42.872C22.3314 43.28 22.8594 43.484 23.5394 43.484C23.8354 43.484 24.1194 43.444 24.3914 43.364C24.6714 43.284 24.9434 43.148 25.2074 42.956C25.2874 42.9 25.3634 42.872 25.4354 42.872C25.5154 42.872 25.5794 42.892 25.6274 42.932C25.6834 42.972 25.7194 43.024 25.7354 43.088C25.7594 43.144 25.7554 43.208 25.7234 43.28C25.6994 43.344 25.6474 43.404 25.5674 43.46C25.3114 43.668 25.0034 43.828 24.6434 43.94C24.2834 44.044 23.9234 44.096 23.5634 44.096ZM27.8253 46.232C27.7053 46.232 27.6133 46.2 27.5493 46.136C27.4853 46.072 27.4533 45.98 27.4533 45.86V38.48C27.4533 38.352 27.4853 38.256 27.5493 38.192C27.6133 38.128 27.7053 38.096 27.8253 38.096C27.9373 38.096 28.0253 38.128 28.0893 38.192C28.1533 38.256 28.1853 38.352 28.1853 38.48V39.704L28.0533 39.632C28.1893 39.152 28.4493 38.772 28.8333 38.492C29.2173 38.212 29.6813 38.072 30.2253 38.072C30.7453 38.072 31.1973 38.196 31.5813 38.444C31.9733 38.692 32.2733 39.04 32.4813 39.488C32.6973 39.936 32.8053 40.468 32.8053 41.084C32.8053 41.7 32.6973 42.236 32.4813 42.692C32.2733 43.14 31.9773 43.488 31.5933 43.736C31.2093 43.976 30.7533 44.096 30.2253 44.096C29.6813 44.096 29.2173 43.956 28.8333 43.676C28.4493 43.396 28.1893 43.024 28.0533 42.56H28.1853V45.86C28.1853 45.98 28.1533 46.072 28.0893 46.136C28.0253 46.2 27.9373 46.232 27.8253 46.232ZM30.1173 43.484C30.5093 43.484 30.8493 43.392 31.1373 43.208C31.4333 43.016 31.6613 42.74 31.8213 42.38C31.9813 42.02 32.0613 41.588 32.0613 41.084C32.0613 40.324 31.8853 39.736 31.5333 39.32C31.1813 38.904 30.7093 38.696 30.1173 38.696C29.7253 38.696 29.3813 38.792 29.0853 38.984C28.7973 39.168 28.5733 39.44 28.4133 39.8C28.2533 40.152 28.1733 40.58 28.1733 41.084C28.1733 41.852 28.3493 42.444 28.7013 42.86C29.0533 43.276 29.5253 43.484 30.1173 43.484ZM34.8574 44C34.7214 44 34.6174 43.968 34.5454 43.904C34.4814 43.832 34.4494 43.732 34.4494 43.604V38.576C34.4494 38.448 34.4814 38.352 34.5454 38.288C34.6174 38.216 34.7214 38.18 34.8574 38.18H37.1494C37.5894 38.18 37.9534 38.24 38.2414 38.36C38.5294 38.472 38.7454 38.64 38.8894 38.864C39.0334 39.088 39.1054 39.372 39.1054 39.716C39.1054 40.092 38.9734 40.408 38.7094 40.664C38.4534 40.912 38.1134 41.06 37.6894 41.108V40.952C38.1694 40.96 38.5574 41.1 38.8534 41.372C39.1494 41.636 39.2974 41.98 39.2974 42.404C39.2974 42.892 39.1174 43.28 38.7574 43.568C38.3974 43.856 37.8934 44 37.2454 44H34.8574ZM35.1574 43.46H37.2454C37.6774 43.46 38.0054 43.368 38.2294 43.184C38.4614 42.992 38.5774 42.724 38.5774 42.38C38.5774 42.028 38.4614 41.764 38.2294 41.588C38.0054 41.404 37.6774 41.312 37.2454 41.312H35.1574V43.46ZM35.1574 40.772H37.1494C37.5414 40.772 37.8454 40.68 38.0614 40.496C38.2854 40.312 38.3974 40.06 38.3974 39.74C38.3974 39.412 38.2854 39.16 38.0614 38.984C37.8454 38.808 37.5414 38.72 37.1494 38.72H35.1574V40.772ZM41.2307 44.072C41.1667 44.072 41.1067 44.06 41.0507 44.036C41.0027 44.012 40.9627 43.972 40.9307 43.916C40.9067 43.852 40.8947 43.772 40.8947 43.676V38.468C40.8947 38.348 40.9227 38.256 40.9787 38.192C41.0427 38.128 41.1307 38.096 41.2427 38.096C41.3467 38.096 41.4267 38.128 41.4827 38.192C41.5387 38.256 41.5667 38.348 41.5667 38.468V43.352H41.2787L45.0107 38.336C45.0667 38.264 45.1267 38.208 45.1907 38.168C45.2547 38.12 45.3387 38.096 45.4427 38.096C45.5147 38.096 45.5747 38.112 45.6227 38.144C45.6707 38.168 45.7067 38.208 45.7307 38.264C45.7627 38.32 45.7787 38.396 45.7787 38.492V43.712C45.7787 43.824 45.7467 43.912 45.6827 43.976C45.6267 44.04 45.5467 44.072 45.4427 44.072C45.3307 44.072 45.2467 44.04 45.1907 43.976C45.1347 43.912 45.1067 43.824 45.1067 43.712V38.828H45.3947L41.6507 43.844C41.6027 43.908 41.5467 43.96 41.4827 44C41.4187 44.048 41.3347 44.072 41.2307 44.072ZM50.1731 44.096C49.6051 44.096 49.1171 43.972 48.7091 43.724C48.3011 43.468 47.9851 43.112 47.7611 42.656C47.5451 42.192 47.4371 41.656 47.4371 41.048C47.4371 40.584 47.4971 40.172 47.6171 39.812C47.7451 39.444 47.9251 39.132 48.1571 38.876C48.3971 38.62 48.6851 38.424 49.0211 38.288C49.3651 38.144 49.7491 38.072 50.1731 38.072C50.4691 38.072 50.7731 38.124 51.0851 38.228C51.3971 38.324 51.6811 38.488 51.9371 38.72C51.9931 38.768 52.0291 38.824 52.0451 38.888C52.0611 38.952 52.0571 39.016 52.0331 39.08C52.0091 39.136 51.9731 39.184 51.9251 39.224C51.8771 39.256 51.8171 39.276 51.7451 39.284C51.6811 39.284 51.6131 39.252 51.5411 39.188C51.3171 39.004 51.0891 38.88 50.8571 38.816C50.6331 38.744 50.4131 38.708 50.1971 38.708C49.8691 38.708 49.5811 38.76 49.3331 38.864C49.0851 38.968 48.8731 39.12 48.6971 39.32C48.5291 39.52 48.4011 39.768 48.3131 40.064C48.2251 40.352 48.1811 40.684 48.1811 41.06C48.1811 41.812 48.3531 42.404 48.6971 42.836C49.0491 43.26 49.5491 43.472 50.1971 43.472C50.4131 43.472 50.6331 43.44 50.8571 43.376C51.0891 43.304 51.3171 43.176 51.5411 42.992C51.6131 42.928 51.6811 42.9 51.7451 42.908C51.8171 42.908 51.8771 42.928 51.9251 42.968C51.9731 43 52.0051 43.048 52.0211 43.112C52.0451 43.168 52.0491 43.228 52.0331 43.292C52.0171 43.356 51.9811 43.412 51.9251 43.46C51.6771 43.692 51.3971 43.856 51.0851 43.952C50.7731 44.048 50.4691 44.096 50.1731 44.096ZM58.7501 44.096C58.1981 44.096 57.7181 43.972 57.3101 43.724C56.9101 43.476 56.5981 43.108 56.3741 42.62C56.1581 42.132 56.0501 41.532 56.0501 40.82V39.908C56.0501 39.132 56.1461 38.488 56.3381 37.976C56.5381 37.464 56.8341 37.052 57.2261 36.74C57.6261 36.42 58.1221 36.172 58.7141 35.996L60.5501 35.456C60.6621 35.424 60.7581 35.428 60.8381 35.468C60.9181 35.5 60.9701 35.564 60.9941 35.66C61.0261 35.772 61.0141 35.864 60.9581 35.936C60.9101 36.008 60.8261 36.06 60.7061 36.092L58.7621 36.656C58.3221 36.784 57.9501 36.976 57.6461 37.232C57.3501 37.488 57.1301 37.8 56.9861 38.168C56.8421 38.536 56.7701 38.948 56.7701 39.404V39.812H56.6261C56.7301 39.452 56.8861 39.148 57.0941 38.9C57.3101 38.644 57.5701 38.452 57.8741 38.324C58.1861 38.188 58.5221 38.12 58.8821 38.12C59.3941 38.12 59.8421 38.244 60.2261 38.492C60.6101 38.732 60.9061 39.076 61.1141 39.524C61.3221 39.964 61.4261 40.488 61.4261 41.096C61.4261 41.704 61.3141 42.232 61.0901 42.68C60.8741 43.128 60.5661 43.476 60.1661 43.724C59.7741 43.972 59.3021 44.096 58.7501 44.096ZM58.7261 43.484C59.1341 43.484 59.4821 43.392 59.7701 43.208C60.0661 43.024 60.2901 42.756 60.4421 42.404C60.6021 42.052 60.6821 41.62 60.6821 41.108C60.6821 40.356 60.5061 39.776 60.1541 39.368C59.8101 38.952 59.3381 38.744 58.7381 38.744C58.3381 38.744 57.9941 38.836 57.7061 39.02C57.4181 39.196 57.1941 39.456 57.0341 39.8C56.8741 40.136 56.7941 40.536 56.7941 41C56.7941 41.816 56.9661 42.436 57.3101 42.86C57.6541 43.276 58.1261 43.484 58.7261 43.484ZM63.4503 46.232C63.3303 46.232 63.2383 46.2 63.1743 46.136C63.1103 46.072 63.0783 45.98 63.0783 45.86V38.48C63.0783 38.352 63.1103 38.256 63.1743 38.192C63.2383 38.128 63.3303 38.096 63.4503 38.096C63.5623 38.096 63.6503 38.128 63.7143 38.192C63.7783 38.256 63.8103 38.352 63.8103 38.48V39.704L63.6783 39.632C63.8143 39.152 64.0743 38.772 64.4583 38.492C64.8423 38.212 65.3063 38.072 65.8503 38.072C66.3703 38.072 66.8223 38.196 67.2063 38.444C67.5983 38.692 67.8983 39.04 68.1063 39.488C68.3223 39.936 68.4303 40.468 68.4303 41.084C68.4303 41.7 68.3223 42.236 68.1063 42.692C67.8983 43.14 67.6023 43.488 67.2183 43.736C66.8343 43.976 66.3783 44.096 65.8503 44.096C65.3063 44.096 64.8423 43.956 64.4583 43.676C64.0743 43.396 63.8143 43.024 63.6783 42.56H63.8103V45.86C63.8103 45.98 63.7783 46.072 63.7143 46.136C63.6503 46.2 63.5623 46.232 63.4503 46.232ZM65.7423 43.484C66.1343 43.484 66.4743 43.392 66.7623 43.208C67.0583 43.016 67.2863 42.74 67.4463 42.38C67.6063 42.02 67.6863 41.588 67.6863 41.084C67.6863 40.324 67.5103 39.736 67.1583 39.32C66.8063 38.904 66.3343 38.696 65.7423 38.696C65.3503 38.696 65.0063 38.792 64.7103 38.984C64.4223 39.168 64.1983 39.44 64.0383 39.8C63.8783 40.152 63.7983 40.58 63.7983 41.084C63.7983 41.852 63.9743 42.444 64.3263 42.86C64.6783 43.276 65.1503 43.484 65.7423 43.484ZM72.3904 44.096C71.8464 44.096 71.3744 43.972 70.9744 43.724C70.5744 43.476 70.2624 43.128 70.0384 42.68C69.8224 42.232 69.7144 41.7 69.7144 41.084C69.7144 40.628 69.7744 40.216 69.8944 39.848C70.0224 39.48 70.2024 39.164 70.4344 38.9C70.6744 38.628 70.9584 38.424 71.2864 38.288C71.6224 38.144 71.9904 38.072 72.3904 38.072C72.9424 38.072 73.4184 38.196 73.8184 38.444C74.2184 38.692 74.5264 39.044 74.7424 39.5C74.9664 39.948 75.0784 40.476 75.0784 41.084C75.0784 41.548 75.0144 41.964 74.8864 42.332C74.7664 42.7 74.5864 43.016 74.3464 43.28C74.1144 43.544 73.8344 43.748 73.5064 43.892C73.1784 44.028 72.8064 44.096 72.3904 44.096ZM72.3904 43.484C72.7904 43.484 73.1344 43.392 73.4224 43.208C73.7184 43.016 73.9424 42.74 74.0944 42.38C74.2544 42.02 74.3344 41.588 74.3344 41.084C74.3344 40.324 74.1584 39.736 73.8064 39.32C73.4624 38.904 72.9904 38.696 72.3904 38.696C71.9984 38.696 71.6544 38.792 71.3584 38.984C71.0704 39.168 70.8464 39.44 70.6864 39.8C70.5344 40.152 70.4584 40.58 70.4584 41.084C70.4584 41.852 70.6344 42.444 70.9864 42.86C71.3384 43.276 71.8064 43.484 72.3904 43.484ZM77.1027 44.072C76.9827 44.072 76.8907 44.04 76.8267 43.976C76.7627 43.912 76.7307 43.82 76.7307 43.7V38.48C76.7307 38.352 76.7627 38.256 76.8267 38.192C76.8907 38.128 76.9827 38.096 77.1027 38.096C77.2147 38.096 77.3027 38.128 77.3667 38.192C77.4307 38.256 77.4627 38.352 77.4627 38.48V40.688H80.9067V38.48C80.9067 38.352 80.9387 38.256 81.0027 38.192C81.0667 38.128 81.1547 38.096 81.2667 38.096C81.3867 38.096 81.4787 38.128 81.5427 38.192C81.6067 38.256 81.6387 38.352 81.6387 38.48V43.7C81.6387 43.82 81.6067 43.912 81.5427 43.976C81.4787 44.04 81.3867 44.072 81.2667 44.072C81.1547 44.072 81.0667 44.04 81.0027 43.976C80.9387 43.912 80.9067 43.82 80.9067 43.7V41.3H77.4627V43.7C77.4627 43.82 77.4307 43.912 77.3667 43.976C77.3107 44.04 77.2227 44.072 77.1027 44.072ZM83.9924 44.072C83.9284 44.072 83.8684 44.06 83.8124 44.036C83.7644 44.012 83.7244 43.972 83.6924 43.916C83.6684 43.852 83.6564 43.772 83.6564 43.676V38.468C83.6564 38.348 83.6844 38.256 83.7404 38.192C83.8044 38.128 83.8924 38.096 84.0044 38.096C84.1084 38.096 84.1884 38.128 84.2444 38.192C84.3004 38.256 84.3284 38.348 84.3284 38.468V43.352H84.0404L87.7724 38.336C87.8284 38.264 87.8884 38.208 87.9524 38.168C88.0164 38.12 88.1004 38.096 88.2044 38.096C88.2764 38.096 88.3364 38.112 88.3844 38.144C88.4324 38.168 88.4684 38.208 88.4924 38.264C88.5244 38.32 88.5404 38.396 88.5404 38.492V43.712C88.5404 43.824 88.5084 43.912 88.4444 43.976C88.3884 44.04 88.3084 44.072 88.2044 44.072C88.0924 44.072 88.0084 44.04 87.9524 43.976C87.8964 43.912 87.8684 43.824 87.8684 43.712V38.828H88.1564L84.4124 43.844C84.3644 43.908 84.3084 43.96 84.2444 44C84.1804 44.048 84.0964 44.072 83.9924 44.072ZM90.9308 46.232C90.8108 46.232 90.7188 46.2 90.6548 46.136C90.5908 46.072 90.5588 45.98 90.5588 45.86V38.48C90.5588 38.352 90.5908 38.256 90.6548 38.192C90.7188 38.128 90.8108 38.096 90.9308 38.096C91.0428 38.096 91.1308 38.128 91.1948 38.192C91.2588 38.256 91.2908 38.352 91.2908 38.48V39.704L91.1588 39.632C91.2948 39.152 91.5548 38.772 91.9388 38.492C92.3228 38.212 92.7868 38.072 93.3308 38.072C93.8508 38.072 94.3028 38.196 94.6868 38.444C95.0788 38.692 95.3788 39.04 95.5868 39.488C95.8028 39.936 95.9108 40.468 95.9108 41.084C95.9108 41.7 95.8028 42.236 95.5868 42.692C95.3788 43.14 95.0828 43.488 94.6988 43.736C94.3148 43.976 93.8588 44.096 93.3308 44.096C92.7868 44.096 92.3228 43.956 91.9388 43.676C91.5548 43.396 91.2948 43.024 91.1588 42.56H91.2908V45.86C91.2908 45.98 91.2588 46.072 91.1948 46.136C91.1308 46.2 91.0428 46.232 90.9308 46.232ZM93.2228 43.484C93.6148 43.484 93.9548 43.392 94.2428 43.208C94.5388 43.016 94.7668 42.74 94.9268 42.38C95.0868 42.02 95.1668 41.588 95.1668 41.084C95.1668 40.324 94.9908 39.736 94.6388 39.32C94.2868 38.904 93.8148 38.696 93.2228 38.696C92.8308 38.696 92.4868 38.792 92.1908 38.984C91.9028 39.168 91.6788 39.44 91.5188 39.8C91.3588 40.152 91.2788 40.58 91.2788 41.084C91.2788 41.852 91.4548 42.444 91.8068 42.86C92.1588 43.276 92.6308 43.484 93.2228 43.484ZM99.8709 44.096C99.3269 44.096 98.8549 43.972 98.4549 43.724C98.0549 43.476 97.7429 43.128 97.5189 42.68C97.3029 42.232 97.1949 41.7 97.1949 41.084C97.1949 40.628 97.2549 40.216 97.3749 39.848C97.5029 39.48 97.6829 39.164 97.9149 38.9C98.1549 38.628 98.4389 38.424 98.7669 38.288C99.1029 38.144 99.4709 38.072 99.8709 38.072C100.423 38.072 100.899 38.196 101.299 38.444C101.699 38.692 102.007 39.044 102.223 39.5C102.447 39.948 102.559 40.476 102.559 41.084C102.559 41.548 102.495 41.964 102.367 42.332C102.247 42.7 102.067 43.016 101.827 43.28C101.595 43.544 101.315 43.748 100.987 43.892C100.659 44.028 100.287 44.096 99.8709 44.096ZM99.8709 43.484C100.271 43.484 100.615 43.392 100.903 43.208C101.199 43.016 101.423 42.74 101.575 42.38C101.735 42.02 101.815 41.588 101.815 41.084C101.815 40.324 101.639 39.736 101.287 39.32C100.943 38.904 100.471 38.696 99.8709 38.696C99.4789 38.696 99.1349 38.792 98.8389 38.984C98.5509 39.168 98.3269 39.44 98.1669 39.8C98.0149 40.152 97.9389 40.58 97.9389 41.084C97.9389 41.852 98.1149 42.444 98.4669 42.86C98.8189 43.276 99.2869 43.484 99.8709 43.484ZM104.619 44C104.483 44 104.379 43.968 104.307 43.904C104.243 43.832 104.211 43.732 104.211 43.604V38.576C104.211 38.448 104.243 38.352 104.307 38.288C104.379 38.216 104.483 38.18 104.619 38.18H106.911C107.351 38.18 107.715 38.24 108.003 38.36C108.291 38.472 108.507 38.64 108.651 38.864C108.795 39.088 108.867 39.372 108.867 39.716C108.867 40.092 108.735 40.408 108.471 40.664C108.215 40.912 107.875 41.06 107.451 41.108V40.952C107.931 40.96 108.319 41.1 108.615 41.372C108.911 41.636 109.059 41.98 109.059 42.404C109.059 42.892 108.879 43.28 108.519 43.568C108.159 43.856 107.655 44 107.007 44H104.619ZM104.919 43.46H107.007C107.439 43.46 107.767 43.368 107.991 43.184C108.223 42.992 108.339 42.724 108.339 42.38C108.339 42.028 108.223 41.764 107.991 41.588C107.767 41.404 107.439 41.312 107.007 41.312H104.919V43.46ZM104.919 40.772H106.911C107.303 40.772 107.607 40.68 107.823 40.496C108.047 40.312 108.159 40.06 108.159 39.74C108.159 39.412 108.047 39.16 107.823 38.984C107.607 38.808 107.303 38.72 106.911 38.72H104.919V40.772ZM112.456 44.096C112.064 44.096 111.712 44.02 111.4 43.868C111.096 43.716 110.852 43.508 110.668 43.244C110.492 42.98 110.404 42.684 110.404 42.356C110.404 41.924 110.512 41.584 110.728 41.336C110.944 41.088 111.308 40.916 111.82 40.82C112.332 40.716 113.036 40.664 113.932 40.664H114.448V41.204H113.944C113.224 41.204 112.66 41.236 112.252 41.3C111.852 41.356 111.572 41.464 111.412 41.624C111.252 41.784 111.172 42.008 111.172 42.296C111.172 42.656 111.296 42.948 111.544 43.172C111.792 43.396 112.128 43.508 112.552 43.508C112.896 43.508 113.196 43.428 113.452 43.268C113.716 43.1 113.924 42.872 114.076 42.584C114.228 42.296 114.304 41.968 114.304 41.6V40.232C114.304 39.696 114.196 39.308 113.98 39.068C113.764 38.82 113.42 38.696 112.948 38.696C112.644 38.696 112.348 38.736 112.06 38.816C111.78 38.896 111.48 39.024 111.16 39.2C111.072 39.248 110.992 39.264 110.92 39.248C110.856 39.232 110.804 39.2 110.764 39.152C110.732 39.104 110.708 39.048 110.692 38.984C110.684 38.912 110.696 38.844 110.728 38.78C110.76 38.716 110.816 38.664 110.896 38.624C111.232 38.44 111.572 38.304 111.916 38.216C112.268 38.12 112.608 38.072 112.936 38.072C113.408 38.072 113.796 38.152 114.1 38.312C114.412 38.472 114.64 38.712 114.784 39.032C114.936 39.352 115.012 39.764 115.012 40.268V43.7C115.012 43.82 114.984 43.912 114.928 43.976C114.872 44.04 114.788 44.072 114.676 44.072C114.564 44.072 114.476 44.04 114.412 43.976C114.348 43.912 114.316 43.82 114.316 43.7V42.596H114.436C114.364 42.908 114.236 43.176 114.052 43.4C113.868 43.624 113.64 43.796 113.368 43.916C113.096 44.036 112.792 44.096 112.456 44.096ZM117.38 44.072C117.26 44.072 117.168 44.04 117.104 43.976C117.04 43.912 117.008 43.82 117.008 43.7V38.48C117.008 38.352 117.04 38.256 117.104 38.192C117.168 38.128 117.26 38.096 117.38 38.096C117.492 38.096 117.58 38.128 117.644 38.192C117.708 38.256 117.74 38.352 117.74 38.48V40.688H121.184V38.48C121.184 38.352 121.216 38.256 121.28 38.192C121.344 38.128 121.432 38.096 121.544 38.096C121.664 38.096 121.756 38.128 121.82 38.192C121.884 38.256 121.916 38.352 121.916 38.48V43.7C121.916 43.82 121.884 43.912 121.82 43.976C121.756 44.04 121.664 44.072 121.544 44.072C121.432 44.072 121.344 44.04 121.28 43.976C121.216 43.912 121.184 43.82 121.184 43.7V41.3H117.74V43.7C117.74 43.82 117.708 43.912 117.644 43.976C117.588 44.04 117.5 44.072 117.38 44.072ZM124.27 44.072C124.206 44.072 124.146 44.06 124.09 44.036C124.042 44.012 124.002 43.972 123.97 43.916C123.946 43.852 123.934 43.772 123.934 43.676V38.468C123.934 38.348 123.962 38.256 124.018 38.192C124.082 38.128 124.17 38.096 124.282 38.096C124.386 38.096 124.466 38.128 124.522 38.192C124.578 38.256 124.606 38.348 124.606 38.468V43.352H124.318L128.05 38.336C128.106 38.264 128.166 38.208 128.23 38.168C128.294 38.12 128.378 38.096 128.482 38.096C128.554 38.096 128.614 38.112 128.662 38.144C128.71 38.168 128.746 38.208 128.77 38.264C128.802 38.32 128.818 38.396 128.818 38.492V43.712C128.818 43.824 128.786 43.912 128.722 43.976C128.666 44.04 128.586 44.072 128.482 44.072C128.37 44.072 128.286 44.04 128.23 43.976C128.174 43.912 128.146 43.824 128.146 43.712V38.828H128.434L124.69 43.844C124.642 43.908 124.586 43.96 124.522 44C124.458 44.048 124.374 44.072 124.27 44.072ZM134.82 44.072C134.708 44.072 134.62 44.04 134.556 43.976C134.492 43.912 134.46 43.824 134.46 43.712V41.684H133.512C133.152 41.684 132.852 41.772 132.612 41.948C132.372 42.124 132.176 42.34 132.024 42.596L131.304 43.856C131.248 43.952 131.18 44.016 131.1 44.048C131.028 44.08 130.956 44.084 130.884 44.06C130.812 44.044 130.748 44.008 130.692 43.952C130.636 43.896 130.6 43.832 130.584 43.76C130.576 43.688 130.596 43.608 130.644 43.52L131.304 42.38C131.448 42.14 131.632 41.94 131.856 41.78C132.088 41.612 132.316 41.528 132.54 41.528H132.648V41.612C132.016 41.612 131.52 41.464 131.16 41.168C130.8 40.864 130.62 40.44 130.62 39.896C130.62 39.552 130.696 39.252 130.848 38.996C131 38.732 131.228 38.532 131.532 38.396C131.844 38.252 132.232 38.18 132.696 38.18H134.772C134.9 38.18 134.996 38.216 135.06 38.288C135.132 38.352 135.168 38.448 135.168 38.576V43.712C135.168 43.824 135.136 43.912 135.072 43.976C135.008 44.04 134.924 44.072 134.82 44.072ZM132.828 41.12H134.46V38.732H132.828C132.316 38.732 131.94 38.836 131.7 39.044C131.46 39.252 131.34 39.544 131.34 39.92C131.34 40.296 131.46 40.592 131.7 40.808C131.94 41.016 132.316 41.12 132.828 41.12ZM143.799 44.072C143.679 44.072 143.587 44.04 143.523 43.976C143.467 43.912 143.439 43.82 143.439 43.7V41.288H142.611C142.371 41.288 142.167 41.316 141.999 41.372C141.839 41.42 141.691 41.512 141.555 41.648C141.419 41.784 141.279 41.972 141.135 42.212L140.115 43.88C140.067 43.96 140.007 44.012 139.935 44.036C139.863 44.068 139.791 44.076 139.719 44.06C139.655 44.052 139.595 44.024 139.539 43.976C139.491 43.92 139.463 43.86 139.455 43.796C139.447 43.724 139.463 43.648 139.503 43.568L140.427 42.056C140.627 41.736 140.803 41.484 140.955 41.3C141.115 41.116 141.275 40.984 141.435 40.904C141.603 40.816 141.799 40.76 142.023 40.736L141.783 40.964L139.971 38.696C139.907 38.616 139.875 38.54 139.875 38.468C139.875 38.388 139.895 38.324 139.935 38.276C139.975 38.22 140.027 38.18 140.091 38.156C140.155 38.132 140.223 38.132 140.295 38.156C140.367 38.172 140.431 38.22 140.487 38.3L142.407 40.688H143.439V38.516C143.439 38.388 143.467 38.292 143.523 38.228C143.587 38.164 143.679 38.132 143.799 38.132C143.919 38.132 144.011 38.164 144.075 38.228C144.139 38.292 144.171 38.388 144.171 38.516V40.688H145.203L147.111 38.3C147.167 38.22 147.231 38.172 147.303 38.156C147.383 38.132 147.451 38.132 147.507 38.156C147.571 38.172 147.623 38.208 147.663 38.264C147.711 38.32 147.731 38.388 147.723 38.468C147.723 38.54 147.691 38.616 147.627 38.696L145.815 40.964L145.575 40.736C145.799 40.76 145.991 40.812 146.151 40.892C146.319 40.972 146.479 41.104 146.631 41.288C146.791 41.472 146.971 41.728 147.171 42.056L148.083 43.568C148.131 43.648 148.151 43.724 148.143 43.796C148.135 43.86 148.103 43.92 148.047 43.976C147.999 44.024 147.939 44.052 147.867 44.06C147.803 44.076 147.735 44.068 147.663 44.036C147.599 44.012 147.539 43.96 147.483 43.88L146.463 42.212C146.319 41.972 146.179 41.788 146.043 41.66C145.915 41.524 145.767 41.428 145.599 41.372C145.439 41.316 145.235 41.288 144.987 41.288H144.171V43.7C144.171 43.82 144.139 43.912 144.075 43.976C144.011 44.04 143.919 44.072 143.799 44.072ZM149.735 44.072C149.671 44.072 149.611 44.06 149.555 44.036C149.507 44.012 149.467 43.972 149.435 43.916C149.411 43.852 149.399 43.772 149.399 43.676V38.468C149.399 38.348 149.427 38.256 149.483 38.192C149.547 38.128 149.635 38.096 149.747 38.096C149.851 38.096 149.931 38.128 149.987 38.192C150.043 38.256 150.071 38.348 150.071 38.468V43.352H149.783L153.515 38.336C153.571 38.264 153.631 38.208 153.695 38.168C153.759 38.12 153.843 38.096 153.947 38.096C154.019 38.096 154.079 38.112 154.127 38.144C154.175 38.168 154.211 38.208 154.235 38.264C154.267 38.32 154.283 38.396 154.283 38.492V43.712C154.283 43.824 154.251 43.912 154.187 43.976C154.131 44.04 154.051 44.072 153.947 44.072C153.835 44.072 153.751 44.04 153.695 43.976C153.639 43.912 153.611 43.824 153.611 43.712V38.828H153.899L150.155 43.844C150.107 43.908 150.051 43.96 149.987 44C149.923 44.048 149.839 44.072 149.735 44.072ZM160.681 44.072C160.569 44.072 160.481 44.04 160.417 43.976C160.353 43.912 160.321 43.82 160.321 43.7V38.78H157.729V39.548C157.729 40.204 157.701 40.78 157.645 41.276C157.589 41.764 157.497 42.184 157.369 42.536C157.249 42.888 157.085 43.184 156.877 43.424C156.677 43.664 156.421 43.864 156.109 44.024C156.029 44.064 155.953 44.076 155.881 44.06C155.809 44.052 155.749 44.024 155.701 43.976C155.653 43.928 155.621 43.872 155.605 43.808C155.589 43.744 155.593 43.676 155.617 43.604C155.649 43.532 155.709 43.476 155.797 43.436C156.037 43.3 156.237 43.132 156.397 42.932C156.557 42.724 156.685 42.468 156.781 42.164C156.877 41.852 156.941 41.484 156.973 41.06C157.013 40.628 157.033 40.116 157.033 39.524V38.6C157.033 38.464 157.069 38.36 157.141 38.288C157.213 38.216 157.317 38.18 157.453 38.18H160.621C160.757 38.18 160.861 38.216 160.933 38.288C161.013 38.36 161.053 38.464 161.053 38.6V43.7C161.053 43.82 161.021 43.912 160.957 43.976C160.893 44.04 160.801 44.072 160.681 44.072ZM163.482 44C163.346 44 163.242 43.968 163.17 43.904C163.106 43.832 163.074 43.732 163.074 43.604V38.48C163.074 38.352 163.106 38.256 163.17 38.192C163.234 38.128 163.326 38.096 163.446 38.096C163.558 38.096 163.646 38.128 163.71 38.192C163.774 38.256 163.806 38.352 163.806 38.48V40.328H165.666C166.394 40.328 166.946 40.488 167.322 40.808C167.706 41.128 167.898 41.576 167.898 42.152C167.898 42.536 167.81 42.868 167.634 43.148C167.466 43.428 167.218 43.64 166.89 43.784C166.562 43.928 166.154 44 165.666 44H163.482ZM163.806 43.436H165.642C166.122 43.436 166.494 43.332 166.758 43.124C167.03 42.916 167.166 42.596 167.166 42.164C167.166 41.724 167.03 41.4 166.758 41.192C166.494 40.984 166.122 40.88 165.642 40.88H163.806V43.436ZM173.539 44.072C173.427 44.072 173.339 44.04 173.275 43.976C173.211 43.912 173.179 43.824 173.179 43.712V41.684H172.231C171.871 41.684 171.571 41.772 171.331 41.948C171.091 42.124 170.895 42.34 170.743 42.596L170.023 43.856C169.967 43.952 169.899 44.016 169.819 44.048C169.747 44.08 169.675 44.084 169.603 44.06C169.531 44.044 169.467 44.008 169.411 43.952C169.355 43.896 169.319 43.832 169.303 43.76C169.295 43.688 169.315 43.608 169.363 43.52L170.023 42.38C170.167 42.14 170.351 41.94 170.575 41.78C170.807 41.612 171.035 41.528 171.259 41.528H171.367V41.612C170.735 41.612 170.239 41.464 169.879 41.168C169.519 40.864 169.339 40.44 169.339 39.896C169.339 39.552 169.415 39.252 169.567 38.996C169.719 38.732 169.947 38.532 170.251 38.396C170.563 38.252 170.951 38.18 171.415 38.18H173.491C173.619 38.18 173.715 38.216 173.779 38.288C173.851 38.352 173.887 38.448 173.887 38.576V43.712C173.887 43.824 173.855 43.912 173.791 43.976C173.727 44.04 173.643 44.072 173.539 44.072ZM171.547 41.12H173.179V38.732H171.547C171.035 38.732 170.659 38.836 170.419 39.044C170.179 39.252 170.059 39.544 170.059 39.92C170.059 40.296 170.179 40.592 170.419 40.808C170.659 41.016 171.035 41.12 171.547 41.12Z" fill="#1C1C1C"/>
</svg>
