<svg viewBox="0 0 187 31" fill="none" xmlns="http://www.w3.org/2000/svg">
<path d="M157.842 20.3901C157.842 18.729 156.51 17.3867 154.872 17.3867C153.222 17.3867 151.891 18.729 151.902 20.3901C151.902 22.0511 153.234 23.3934 154.872 23.3934C156.51 23.3934 157.842 22.0511 157.842 20.3901Z" fill="#EE204D"/>
<path fill-rule="evenodd" clip-rule="evenodd" d="M4.82319 8.86592C4.80088 8.75566 4.77538 8.64858 4.74862 8.54399C4.42928 7.36298 3.4031 7.91875 3.18512 7.10542C2.86834 5.92375 6.20249 5.71468 7.03937 5.5018C9.2109 4.95301 12.206 3.64765 15.3349 2.78336C18.4778 1.96687 21.7227 1.60038 23.879 0.989764C24.7089 0.755848 27.702 -0.730532 28.0188 0.451178C28.2362 1.26448 27.0704 1.29634 27.384 2.47933C27.8327 4.09956 29.0922 6.1105 29.7226 8.39485C30.4542 11.0355 30.5645 13.949 31.0266 15.6158C31.1752 16.1493 31.4785 16.4112 31.7347 16.6241C32.478 17.0983 32.5366 18.0761 31.6353 18.3176C31.1567 18.4457 30.488 18.6554 29.7226 18.6465C29.3229 18.642 29.1648 18.4642 29.1215 18.1538C28.9494 16.9485 28.7384 15.2888 28.37 13.9618C28.038 12.759 27.3107 10.8023 26.6466 9.72635C26.2807 9.13361 25.8001 8.41652 26.1717 7.94042C26.8078 7.12645 26.5962 5.84981 25.9467 5.08941C25.2284 4.24615 23.9893 4.27356 22.6795 4.62476C22.0682 4.78857 21.4079 5.04288 20.8782 5.24621C20.5939 5.35584 20.3549 5.44825 20.2867 5.46738C19.358 5.72998 18.0629 5.96772 16.6479 6.2265C15.1463 6.50185 13.51 6.80204 11.7675 7.25463L11.7553 7.25717C10.0191 7.7371 8.45245 8.29542 7.01451 8.80792C6.54478 8.97555 6.08903 9.13807 5.65497 9.28849C5.65497 9.28849 4.96978 9.56319 4.82319 8.86592ZM17.0934 27.1549C14.006 27.8312 10.8267 28.1448 8.63409 28.7038C7.09801 29.0882 6.52694 30.0544 5.75058 30.2629C4.84932 30.5044 4.48155 29.7504 4.88757 28.9683C5.00229 28.6553 5.1355 28.2774 4.99719 27.7407C4.59883 26.2518 3.20487 24.8572 2.18506 20.9239C1.16589 16.9912 1.96962 15.9842 1.58337 14.5431C1.26404 13.3614 0.239131 13.9171 0.0211463 13.1039C-0.295633 11.9215 3.03852 11.7131 3.87349 11.5009C6.69456 10.7857 9.36265 9.56064 12.1703 8.78179C14.9913 8.05259 17.915 7.77917 20.715 6.98815C21.5449 6.7536 24.5362 5.26788 24.8529 6.44958C25.0709 7.26291 23.9058 7.29478 24.22 8.47771C24.6063 9.91883 25.8058 10.3886 26.8888 14.3047C27.9729 18.2208 27.463 20.1253 27.862 21.6142C28.0106 22.1477 28.3152 22.409 28.5708 22.6219C29.3139 23.0968 29.3719 23.9336 28.4714 24.1745C27.6944 24.3829 26.7167 23.8316 25.1946 24.2663C23.0154 24.8782 20.1057 26.197 17.0934 27.1549ZM22.3213 11.2114C24.7586 15.053 23.4749 20.1986 22.6476 22.3179C22.6285 22.3676 22.5902 22.4989 22.7961 22.4096C25.8689 21.3216 25.8524 14.1638 22.4481 11.1235C22.4481 11.1235 22.1485 10.9387 22.3213 11.2114Z" fill="#EE204D"/>
<path fill-rule="evenodd" clip-rule="evenodd" d="M134.457 15.0464C134.457 10.4528 138.18 6.73047 142.773 6.73047C147.354 6.73047 151.088 10.4656 151.088 15.0464C151.088 19.6394 147.366 23.3617 142.773 23.3617C138.18 23.3617 134.457 19.6394 134.457 15.0464ZM142.773 18.8918C144.896 18.8918 146.619 17.1689 146.619 15.0464C146.619 12.9119 144.908 11.2004 142.773 11.2004C140.65 11.2004 138.927 12.9233 138.927 15.0464C138.927 17.1682 140.65 18.8918 142.773 18.8918Z" fill="#111111"/>
<path fill-rule="evenodd" clip-rule="evenodd" d="M163.686 22.9345C164.061 22.8632 164.329 22.5878 164.329 22.1978L164.332 20.5552C164.348 20.1671 164.664 19.8554 165.058 19.8554C168.106 19.8554 170.284 18.8184 171.474 17.2096C172.741 15.4957 172.931 13.0909 172.261 11.0805C171.672 9.31562 170.346 7.82925 168.38 7.27666C167.338 6.98469 166.006 6.86359 164.674 6.90119C163.328 6.9388 161.982 7.13899 160.934 7.48699C160.62 7.59597 160.344 7.7381 160.147 7.94461C159.952 8.1492 159.834 8.42071 159.834 8.7898L159.834 9.99874C159.831 13.6259 159.829 17.2532 159.831 20.8809C159.848 21.438 159.894 21.8746 160.076 22.2111C160.49 22.9754 161.559 23.0685 162.335 23.064C162.818 23.0621 163.309 23.013 163.686 22.9345ZM165.107 15.6779C164.763 15.6779 164.333 15.3943 164.332 15.0208V11.8097C164.332 11.5051 164.731 11.2309 165.006 11.1959C165.175 11.1449 165.496 11.1321 165.832 11.143C166.811 11.1748 167.576 11.3444 168.12 12.2928C168.542 13.0297 168.522 13.9507 168.023 14.6461C167.473 15.4122 166.696 15.6295 165.827 15.6671C165.586 15.6773 165.349 15.6779 165.107 15.6779Z" fill="#111111"/>
<path d="M73.5871 11.2875C73.8663 11.2875 74.0779 11.5177 74.0779 11.7892C74.0798 14.8231 74.0779 20.8853 74.0779 20.8853C74.0951 21.4423 74.1423 21.8815 74.3246 22.218C74.7388 22.9823 75.807 23.0747 76.5827 23.0709C77.0665 23.0683 77.5579 23.0199 77.9358 22.9414C78.3099 22.8694 78.577 22.5947 78.577 22.204L78.5725 11.7841C78.5725 11.5043 78.7816 11.2939 79.0601 11.2875H81.3259C82.0901 11.2875 82.5624 11.0071 82.8364 10.5552C83.113 10.1008 83.1921 9.47037 83.1698 8.77756C83.1079 8.18094 82.9594 7.02344 82.164 7.02344H71.2481C70.8357 7.03937 70.524 7.13185 70.2907 7.29693C69.6655 7.74052 69.575 8.9318 69.6158 9.587C69.6572 10.2588 69.8421 11.2875 70.7018 11.2875H73.5871Z" fill="#111111"/>
<path d="M115.178 22.9339C115.552 22.8625 115.82 22.5872 115.82 22.1971C115.82 21.0118 115.82 19.8264 115.82 18.641C115.821 15.4958 115.821 12.3507 115.819 9.20665C115.802 8.6496 115.756 8.21295 115.573 7.87579C115.16 7.11224 114.091 7.01912 113.315 7.02358C112.832 7.02613 112.34 7.07457 111.963 7.15239C111.589 7.22441 111.32 7.49975 111.32 7.88981C111.321 9.18817 111.321 10.4865 111.321 11.7849C111.321 12.9366 110.246 13.5657 109.18 13.5772C108.098 13.5899 106.967 12.9666 106.967 11.7849C106.967 11.4405 106.967 11.0965 106.967 10.7526C106.968 10.2378 106.968 9.72291 106.967 9.20665C106.95 8.6496 106.904 8.21295 106.722 7.87579C106.308 7.11224 105.239 7.01912 104.464 7.02358C103.98 7.02613 103.489 7.07457 103.111 7.15239C102.737 7.22441 102.469 7.49975 102.469 7.88981C102.469 9.50366 102.469 11.1162 102.469 12.7307C102.469 14.4249 103.278 15.8718 104.65 16.8597C105.768 17.6647 107.185 18.1051 108.588 18.1051C109.286 18.1051 109.98 17.984 110.654 17.8094C110.756 17.7839 110.851 17.7737 110.94 17.7909C111.183 17.8374 111.304 18.0414 111.321 18.2702C111.321 19.1403 111.322 20.0103 111.322 20.8803C111.339 21.4374 111.385 21.874 111.568 22.2105C111.981 22.9748 113.049 23.0678 113.826 23.0634C114.31 23.0615 114.801 23.0124 115.178 22.9339Z" fill="#111111"/>
<path d="M119.007 7.15239C118.633 7.22441 118.365 7.49975 118.365 7.88981C118.365 12.2202 118.367 16.5499 118.371 20.8803C118.388 21.4374 118.433 21.874 118.616 22.2105C119.029 22.9748 120.098 23.0678 120.874 23.0634C121.357 23.0615 121.849 23.0124 122.226 22.9339C122.601 22.8625 122.869 22.5872 122.869 22.1971C122.869 20.793 122.868 19.3901 122.866 17.9866C122.877 17.5921 123.198 17.2772 123.593 17.2772H127.17C127.539 17.2772 127.85 17.5545 127.892 17.9203C127.893 18.3601 127.894 18.7998 127.895 19.2394C127.896 19.7867 127.898 20.3338 127.898 20.8803C127.915 21.4374 127.962 21.874 128.144 22.2105C128.557 22.9748 129.626 23.0678 130.402 23.0634C130.885 23.0615 131.377 23.0124 131.754 22.9339C132.128 22.8625 132.397 22.5872 132.397 22.1971C132.396 20.4146 132.396 18.632 132.396 16.8495C132.396 14.3018 132.396 11.7541 132.393 9.20665C132.377 8.6496 132.33 8.21295 132.148 7.87579C131.735 7.11224 130.666 7.01912 129.89 7.02358C129.407 7.02613 128.915 7.07457 128.538 7.15239C128.164 7.22441 127.896 7.49975 127.896 7.88981C127.896 9.26025 127.896 10.6307 127.897 12.0011V12.0507C127.898 12.4535 127.574 12.7798 127.17 12.7798H123.595C123.194 12.7798 122.866 12.4554 122.866 12.0526L122.864 9.20665C122.846 8.6496 122.801 8.21295 122.618 7.87579C122.204 7.11224 121.135 7.01912 120.36 7.02358C119.876 7.02613 119.385 7.07457 119.007 7.15239Z" fill="#111111"/>
<path fill-rule="evenodd" clip-rule="evenodd" d="M86.4334 9.16593C87.9382 7.66107 90.0172 6.73047 92.3136 6.73047C94.6043 6.73047 96.6833 7.66426 98.1894 9.17039C99.6954 10.6765 100.63 12.7556 100.63 15.0464C100.63 17.3429 99.6986 19.422 98.1945 20.9263C96.6897 22.4311 94.6106 23.3617 92.3136 23.3617C90.0172 23.3617 87.9382 22.4311 86.4334 20.9263C84.9286 19.422 83.998 17.3423 83.998 15.0464C83.998 12.7499 84.9286 10.6701 86.4334 9.16593ZM95.0345 17.7642C95.7285 17.0694 96.1594 16.1096 96.1594 15.0464C96.1594 13.9775 95.7317 13.017 95.0383 12.3229C94.3429 11.6275 93.3793 11.1998 92.3136 11.1998C91.2505 11.1998 90.29 11.6313 89.5953 12.3261C88.898 13.0234 88.4678 13.9864 88.4678 15.0464C88.4678 16.1077 88.8987 17.0694 89.5947 17.7649C90.2906 18.4608 91.2524 18.8918 92.3136 18.8918C93.3729 18.8918 94.3372 18.4615 95.0345 17.7642Z" fill="#111111"/>
<path d="M50.4743 22.7655C49.4462 23.1728 48.2702 23.3417 47.3441 23.3595L47.1542 23.3614C44.8079 23.3614 42.6804 22.5099 41.1277 21.0675C39.5757 19.6251 38.5986 17.5912 38.5527 15.2265L38.5508 15.0506C38.5508 13.0677 39.2525 11.2186 40.4406 9.76986C41.6274 8.323 43.2999 7.27456 45.2439 6.89081C45.873 6.76652 46.6181 6.71745 47.3639 6.73338C48.1433 6.74931 48.9242 6.83727 49.5806 6.98322C50.074 7.09355 50.5508 7.27265 50.9638 7.51102C51.4336 7.78189 51.8217 8.12989 52.0626 8.54168C52.3029 8.9515 52.3972 9.42633 52.2793 9.95285C52.2245 10.1989 52.1225 10.4576 51.9683 10.7253C51.4814 11.4246 51.1397 11.7636 50.7866 11.8733C50.4354 11.9822 50.0657 11.8662 49.5214 11.6559C48.87 11.4003 48.1791 11.2078 47.4843 11.1485C46.7883 11.0893 46.0878 11.1625 45.4192 11.4386C44.6894 11.7401 44.0877 12.2474 43.6683 12.8746C43.2476 13.5043 43.0099 14.2552 43.0099 15.043C43.0099 16.1444 43.4178 17.0622 44.0903 17.7302C44.7971 18.4325 45.7978 18.859 46.9228 18.9323C47.4372 18.9654 48.0975 18.8685 48.7374 18.6907C49.3901 18.5096 50.0243 18.2445 50.466 17.9488C50.7018 17.7914 50.9383 17.697 51.206 17.7295C51.4763 17.7633 51.7816 17.9246 52.157 18.2789C52.5789 18.7309 52.8154 19.2465 52.8575 19.7768C52.9002 20.3046 52.751 20.847 52.4043 21.3588C51.9715 21.9955 51.2666 22.4519 50.4743 22.7655Z" fill="#111111"/>
<path d="M179.785 11.7424C180.003 12.1803 180.457 12.216 180.692 11.8068C180.718 11.7564 182.814 7.67015 182.814 7.67015C182.941 7.41458 183.082 7.23867 183.24 7.12069C183.398 7.00342 183.572 6.94287 183.764 6.91737C184.583 6.80775 185.321 6.8785 185.881 7.12197C187.046 7.62873 187.285 8.96468 186.675 10.0214L180.639 21.7206C180.129 22.7022 178.839 23.0489 177.811 23.0489C176.864 23.0489 175.946 22.6862 175.808 21.6429C175.769 21.3491 175.859 21.1758 176.062 20.7847V20.7843L177.503 17.976C177.649 17.7191 177.642 17.3208 177.474 17.0753L173.273 8.92453C173.064 8.51975 173.055 8.24059 173.175 8.00923C173.647 7.10348 175.339 6.78735 176.178 6.95052C176.879 7.08755 177.522 7.47449 177.913 8.11439L179.785 11.7424Z" fill="#111111"/>
<path d="M63.4525 8.09006C62.9694 9.02385 61.6685 11.539 61.5168 11.8481H61.557L61.5296 11.8953C61.4512 12.0317 61.3588 12.1215 61.2631 12.1687C61.202 12.1993 61.1382 12.2127 61.0763 12.2101C61.0145 12.2076 60.954 12.1897 60.8966 12.1566C60.8055 12.1043 60.7239 12.0132 60.6627 11.8908L58.8334 8.33799C58.8079 8.28892 58.7812 8.24175 58.7531 8.1965C58.3624 7.55596 57.7269 7.17285 57.0252 7.03645C56.3234 6.90006 55.5535 7.00968 54.8963 7.35392C54.8357 7.38642 54.7752 7.4202 54.7172 7.4559C54.3998 7.67323 54.1442 7.86253 54.0225 8.09516C53.9027 8.32588 53.9129 8.60568 54.1206 9.01047L58.3242 17.1747C58.4058 17.2945 58.4504 17.4507 58.4548 17.61C58.4599 17.7687 58.4255 17.9306 58.3503 18.0619L56.9092 20.8696C56.7064 21.2616 56.6172 21.4349 56.6561 21.7288C56.7186 22.2011 56.9423 22.537 57.2604 22.762C57.6313 23.0233 58.1316 23.1349 58.6588 23.1349C59.2311 23.1349 59.8762 23.0277 60.425 22.7696C60.8737 22.558 61.2587 22.2451 61.4862 21.8059C61.9005 21.0124 63.3047 18.2901 64.6562 15.6634C66.119 12.8232 67.5154 10.1081 67.5154 10.1036L67.5186 10.0908C67.7774 9.49549 67.8602 8.98179 67.8035 8.55215C67.7608 8.23538 67.6397 7.96387 67.4568 7.73952C67.2738 7.51453 67.0259 7.33735 66.7295 7.20797C66.1687 6.96443 65.4313 6.89369 64.611 7.00331C64.4198 7.0288 64.2445 7.08935 64.0877 7.20663C63.9296 7.3246 63.7875 7.50051 63.6609 7.75609C63.6607 7.75698 63.6437 7.78394 63.6132 7.83283L63.613 7.83302C63.5769 7.8907 63.5218 7.97878 63.4525 8.09006Z" fill="#111111"/>
</svg>
