<svg xmlns="http://www.w3.org/2000/svg" width="16" height="16" viewBox="0 0 16 16">
    <defs>
        <filter id="z49uiy3twa" color-interpolation-filters="auto">
            <feColorMatrix in="SourceGraphic" values="0 0 0 0 0.023529 0 0 0 0 0.349020 0 0 0 0 1.000000 0 0 0 1.000000 0"/>
        </filter>
    </defs>
    <g fill="none" fill-rule="evenodd">
        <g filter="url(#z49uiy3twa)" transform="translate(-824.000000, -716.000000)">
            <g>
                <path fill="#000" fill-rule="nonzero" d="M13.657 2.344C10.53-.781 5.47-.781 2.344 2.344-.17 4.857-.646 8.593.84 11.568l-.824 3.623c-.107.471.315.893.786.786l3.625-.823C9.698 17.784 16 13.976 16 7.998c0-2.136-.832-4.144-2.343-5.654zM9.669 9.989H4.663c-.363 0-.657-.294-.657-.657 0-.363.294-.657.657-.657h5.006c.363 0 .657.294.657.657 0 .363-.294.657-.657.657zm1.669-2.669H4.663c-.363 0-.657-.294-.657-.657 0-.362.294-.656.657-.656h6.675c.363 0 .657.294.657.656 0 .363-.294.657-.657.657z" transform="translate(824.000000, 716.000000)"/>
            </g>
        </g>
    </g>
</svg>
