<svg width="16" height="16" viewBox="0 0 16 16" xmlns="http://www.w3.org/2000/svg">
    <defs>
        <filter color-interpolation-filters="auto" id="joaz8z60sa">
            <feColorMatrix in="SourceGraphic" values="0 0 0 0 0.600000 0 0 0 0 0.600000 0 0 0 0 0.600000 0 0 0 1.000000 0"/>
        </filter>
    </defs>
    <g transform="translate(-28 -97)" filter="url(#joaz8z60sa)" fill="none" fill-rule="evenodd">
        <g fill="#000" fill-rule="nonzero">
            <path d="M36 97a8 8 0 1 0 8 8 8.01 8.01 0 0 0-8-8zm0 14.545A6.545 6.545 0 1 1 42.545 105 6.553 6.553 0 0 1 36 111.545z"/>
            <path d="M36.727 104.699v-4.063a.727.727 0 1 0-1.454 0V105c0 .193.076.378.213.514l2.182 2.182a.727.727 0 0 0 1.028-1.028l-1.969-1.97z"/>
        </g>
    </g>
</svg>
