<svg width="11" height="11" viewBox="0 0 11 11" fill="none" xmlns="http://www.w3.org/2000/svg">
<path d="M5.81442 4.39043C5.69366 4.51118 5.69366 4.70485 5.81442 4.8256C6.31338 5.32456 6.31338 6.13567 5.81442 6.63463L3.19428 9.25476C2.69532 9.75373 1.88422 9.75373 1.38525 9.25476L0.991094 8.86061C0.492129 8.36164 0.492129 7.55054 0.991094 7.05157L3.61123 4.43144C3.73198 4.31069 3.73198 4.11703 3.61123 3.99627C3.49047 3.87552 3.29681 3.87552 3.17606 3.99627L0.555924 6.6164C0.198219 6.97411 0 7.45029 0 7.95609C0 8.46189 0.19594 8.93807 0.555924 9.29577L0.950083 9.68993C1.31918 10.059 1.80447 10.2436 2.28977 10.2436C2.77506 10.2436 3.26036 10.059 3.62945 9.68993L6.24959 7.0698C6.98778 6.33161 6.98778 5.12862 6.24959 4.39043C6.13111 4.26968 5.93517 4.26968 5.81442 4.39043Z" fill="white"/>
<path d="M10.4464 0.947804L10.0522 0.553645C9.314 -0.184548 8.11102 -0.184548 7.37283 0.553645L4.75269 3.17378C4.0145 3.91197 4.0145 5.11495 4.75269 5.85315C4.87345 5.9739 5.06711 5.9739 5.18786 5.85315C5.30862 5.73239 5.30862 5.53873 5.18786 5.41798C4.6889 4.91901 4.6889 4.10791 5.18786 3.60895L7.808 0.988815C8.30696 0.489851 9.11806 0.489851 9.61703 0.988815L10.0112 1.38297C10.5101 1.88194 10.5101 2.69304 10.0112 3.192L7.39105 5.81214C7.2703 5.93289 7.2703 6.12655 7.39105 6.24731C7.45029 6.30654 7.53003 6.33844 7.6075 6.33844C7.68496 6.33844 7.76471 6.30882 7.82394 6.24731L10.4441 3.62717C10.8018 3.26947 11 2.79329 11 2.28749C11 1.78169 10.8041 1.30551 10.4464 0.947804Z" fill="white"/>
</svg>
