<svg viewBox="0 0 12 16" version="1.1" xmlns="http://www.w3.org/2000/svg" xmlns:xlink="http://www.w3.org/1999/xlink">
    <defs>
        <filter color-interpolation-filters="auto" id="filter-1">
            <feColorMatrix in="SourceGraphic" type="matrix" values="0 0 0 0 0.023529 0 0 0 0 0.349020 0 0 0 0 1.000000 0 0 0 1.000000 0"></feColorMatrix>
        </filter>
        <filter color-interpolation-filters="auto" id="filter-2">
            <feColorMatrix in="SourceGraphic" type="matrix" values="0 0 0 0 0.019608 0 0 0 0 0.768627 0 0 0 0 0.498039 0 0 0 1.000000 0"></feColorMatrix>
        </filter>
    </defs>
    <g id="карточка-в-поиске---состояния" stroke="none" stroke-width="1" fill="none" fill-rule="evenodd">
        <g id="Group-5" transform="translate(-340.000000, -917.000000)" filter="url(#filter-1)">
            <g transform="translate(340.000000, 917.000000)" filter="url(#filter-2)" id="Group-9">
                <g id="cutlery" fill="#000000" fill-rule="nonzero">
                    <path d="M5,3 C5,1.343 3.881,0 2.5,0 C1.119,0 0,1.343 0,3 C0,4.431 0.836,5.623 1.953,5.923 L1.01,14.331 C1.003,14.386 1,14.443 1,14.5 C1,15.328 1.672,16 2.5,16 C3.328,16 4,15.328 4,14.5 C4,14.452 3.998,14.404 3.993,14.357 L3.191,5.869 C4.233,5.508 5,4.367 5,3 Z" id="Path"></path>
                    <path d="M11.5,0 C11.224,0 11,0.224 11,0.5 L11,3 C11,3.276 10.776,3.5 10.5,3.5 C10.224,3.5 10,3.276 10,3 L10,0.5 C10,0.224 9.776,0 9.5,0 C9.224,0 9,0.224 9,0.5 L9,3 C9,3.276 8.776,3.5 8.5,3.5 C8.224,3.5 8,3.276 8,3 L8,0.5 C8,0.224 7.776,0 7.5,0 C7.224,0 7,0.224 7,0.5 L7,3.5 C7,4.689 7.836,5.684 8.951,5.935 L8.009,14.331 C8.003,14.386 8,14.443 8,14.5 C8,15.328 8.672,16 9.5,16 C10.328,16 11,15.328 11,14.5 C11,14.452 10.998,14.404 10.993,14.357 L10.193,5.89 C11.233,5.587 12,4.636 12,3.5 L12,0.5 C12,0.224 11.776,0 11.5,0 Z" id="Path"></path>
                </g>
            </g>
        </g>
    </g>
</svg>