<svg width="12" height="11" viewBox="0 0 12 11" fill="none" xmlns="http://www.w3.org/2000/svg">
<path d="M6.47852 0C3.44091 0 0.978516 2.46239 0.978516 5.5C0.978516 8.53761 3.44091 11 6.47852 11C9.51612 11 11.9785 8.53761 11.9785 5.5C11.9749 2.46391 9.51461 0.00360871 6.47852 0ZM6.47852 10.3125C3.82066 10.3125 1.66602 8.15785 1.66602 5.5C1.66602 2.84215 3.82066 0.6875 6.47852 0.6875C9.13637 0.6875 11.291 2.84215 11.291 5.5C11.2882 8.15668 9.13519 10.3096 6.47852 10.3125Z" fill="white"/>
<path d="M9.15224 2.82626C9.01796 2.69207 8.80035 2.69207 8.66615 2.82626L6.47852 5.01389L4.29089 2.82626C4.15897 2.68972 3.94135 2.68594 3.80481 2.81787C3.66827 2.94972 3.66449 3.16733 3.79642 3.30387C3.79919 3.30673 3.80196 3.30958 3.80481 3.31235L5.99244 5.49998L3.80481 7.68761C3.66827 7.81945 3.66449 8.03707 3.79642 8.17369C3.92826 8.31024 4.14587 8.31401 4.28242 8.18209C4.28527 8.17932 4.28812 8.17655 4.29089 8.17369L6.47852 5.98606L8.66615 8.17369C8.8027 8.30554 9.02031 8.30176 9.15215 8.16522C9.28081 8.03203 9.28081 7.82079 9.15215 7.68761L6.96461 5.49998L9.15224 3.31235C9.28643 3.17815 9.28643 2.96054 9.15224 2.82626Z" fill="white"/>
</svg>
