<svg width="9" height="11" viewBox="0 0 9 11" fill="none" xmlns="http://www.w3.org/2000/svg">
<path d="M5.92777 0.0850145C5.87733 0.0318909 5.80818 0 5.73651 0H1.44541C0.653596 0 0 0.650995 0 1.44273V9.55721C0 10.349 0.653596 11 1.44541 11H7.26954C8.06136 11 8.71495 10.349 8.71495 9.55721V3.11398C8.71495 3.04491 8.68306 2.97853 8.63791 2.92801L5.92777 0.0850145ZM6.00481 0.937929L7.81957 2.84299H6.63986C6.28914 2.84299 6.00481 2.56135 6.00481 2.21063V0.937929ZM7.26954 10.4686H1.44541C0.948587 10.4686 0.531404 10.0568 0.531404 9.55721V1.44273C0.531404 0.945902 0.945902 0.531404 1.44541 0.531404H5.47341V2.21063C5.47341 2.85625 5.99424 3.3744 6.63986 3.3744H8.18355V9.55721C8.18355 10.0568 7.76905 10.4686 7.26954 10.4686Z" fill="white"/>
<path d="M6.54412 8.63534H2.1707C2.02459 8.63534 1.905 8.75485 1.905 8.90105C1.905 9.04716 2.02459 9.16676 2.1707 9.16676H6.54681C6.69292 9.16676 6.81251 9.04716 6.81251 8.90105C6.81251 8.75485 6.69292 8.63534 6.54412 8.63534Z" fill="white"/>
<path d="M4.16351 7.68142C4.21404 7.73454 4.28311 7.76643 4.35746 7.76643C4.4319 7.76643 4.50097 7.73454 4.55141 7.68142L6.10844 6.01017C6.2094 5.90384 6.20143 5.73381 6.09518 5.63553C5.98885 5.53457 5.81882 5.54246 5.72055 5.64879L4.62316 6.82582V3.92442C4.62316 3.77822 4.50357 3.65871 4.35746 3.65871C4.21135 3.65871 4.09176 3.77822 4.09176 3.92442V6.82582L2.99706 5.64879C2.8961 5.54254 2.72867 5.53457 2.62243 5.63553C2.51618 5.73649 2.50821 5.90392 2.60917 6.01017L4.16351 7.68142Z" fill="white"/>
</svg>
