<svg width="14" height="14" fill="none" xmlns="http://www.w3.org/2000/svg"><path fill-rule="evenodd" clip-rule="evenodd" d="M4.997 10.771c0 .817.662 1.479 1.478 1.479h3.17c.817 0 1.48-.662 1.48-1.479v-.709H4.996v.71z" fill="#000"/><path fill-rule="evenodd" clip-rule="evenodd" d="M14 0v.966l-5.502 2.58v2.579h1.313a3.066 3.066 0 013.062 3.063v1.75A3.066 3.066 0 019.811 14h-3.5a3.066 3.066 0 01-3.063-3.063v-1.75a3.066 3.066 0 013.063-3.062h1.312v-2.17L0 7.53v-.966L14 0zm-2.002 10.938v-1.75A2.19 2.19 0 009.811 7h-3.5a2.19 2.19 0 00-2.188 2.188v1.75a2.19 2.19 0 002.188 2.187h3.5a2.19 2.19 0 002.187-2.188z" fill="#000"/></svg>