<svg width="16" height="16" viewBox="0 0 16 16" fill="none" xmlns="http://www.w3.org/2000/svg">
<path d="M15.4995 7.49994H9.16633C8.89034 7.49994 8.66635 7.27595 8.66635 6.99996C8.66635 6.72396 8.89034 6.49997 9.16633 6.49997H15.4995C15.7755 6.49997 15.9995 6.72396 15.9995 6.99996C15.9995 7.27595 15.7755 7.49994 15.4995 7.49994Z" fill="#313131"/>
<path d="M12.9996 9.99987C12.8715 9.99987 12.7436 9.95117 12.6462 9.85327C12.4509 9.65784 12.4509 9.3412 12.6462 9.14589L14.7929 6.99935L12.6462 4.85268C12.4509 4.65737 12.4509 4.34073 12.6462 4.14543C12.8416 3.95 13.1583 3.95 13.3536 4.14543L15.8535 6.64536C16.0488 6.84066 16.0488 7.1573 15.8535 7.35261L13.3536 9.85254C13.2556 9.95117 13.1276 9.99987 12.9996 9.99987Z" fill="#313131"/>
<path d="M5.33322 15.9995C5.19052 15.9995 5.05515 15.9795 4.9199 15.9375L0.907932 14.6009C0.36205 14.4102 0 13.9016 0 13.333V1.33333C0 0.598004 0.598005 0 1.33333 0C1.47591 0 1.61128 0.0200189 1.74665 0.0620099L5.7585 1.39864C6.3045 1.58931 6.66643 2.09796 6.66643 2.66654V14.6662C6.66643 15.4015 6.06855 15.9995 5.33322 15.9995ZM1.33333 0.99997C1.14999 0.99997 0.999971 1.14999 0.999971 1.33333V13.333C0.999971 13.4749 1.0953 13.6069 1.23129 13.6542L5.22446 14.9849C5.25314 14.9942 5.29049 14.9995 5.33322 14.9995C5.51656 14.9995 5.66646 14.8495 5.66646 14.6662V2.66654C5.66646 2.52458 5.57113 2.39263 5.43514 2.34527L1.44197 1.01462C1.41329 1.00534 1.37594 0.99997 1.33333 0.99997Z" fill="#313131"/>
<path d="M10.1663 5.33338C9.89032 5.33338 9.66633 5.10939 9.66633 4.83339V1.83348C9.66633 1.37415 9.29244 1.00013 8.8331 1.00013L1.33333 0.99997C1.05734 0.99997 0.833332 0.776142 0.833332 0.50015C0.833332 0.224157 1.05734 0 1.33333 0L8.8331 0.000164795C9.84442 0.000164795 10.6663 0.822161 10.6663 1.83348V4.83339C10.6663 5.10939 10.4423 5.33338 10.1663 5.33338Z" fill="#313131"/>
<path d="M8.8331 13.9997H6.16642C5.89043 13.9997 5.66644 13.7757 5.66644 13.4997C5.66644 13.2238 5.89043 12.9998 6.16642 12.9998H8.8331C9.29244 12.9998 9.66633 12.6257 9.66633 12.1664V9.16651C9.66633 8.89052 9.89032 8.66653 10.1663 8.66653C10.4423 8.66653 10.6663 8.89052 10.6663 9.16651V12.1664C10.6663 13.1777 9.84442 13.9997 8.8331 13.9997Z" fill="#313131"/>
</svg>
