<svg xmlns="http://www.w3.org/2000/svg" viewBox="0 0 15 16"><defs><filter id="a" color-interpolation-filters="auto"><feColorMatrix in="SourceGraphic" values="0 0 0 0 1.000000 0 0 0 0 1.000000 0 0 0 0 1.000000 0 0 0 1.000000 0"/></filter></defs><g fill="none" fill-rule="evenodd" filter="url(#a)" transform="translate(-7 -5)"><g fill="#000" fill-rule="nonzero"><path d="M18.742 7.818h-.94a.47.47 0 1 0 0 .94h.94a.47.47 0 1 0 0-.94zM13.996 6.199l-.47-.94a.47.47 0 0 0-.84.42l.47.94a.47.47 0 0 0 .84-.42zM17.073 5.05a.47.47 0 0 0-.63.21l-.47.939a.47.47 0 1 0 .84.42l.47-.94a.47.47 0 0 0-.21-.63zM12.166 7.818h-.939a.47.47 0 1 0 0 .94h.94a.47.47 0 1 0 0-.94zM9.348 12.546H7.47a.47.47 0 0 0-.47.47v7.514c0 .26.21.47.47.47h1.878c.26 0 .47-.21.47-.47v-7.514a.47.47 0 0 0-.47-.47zM21.08 13.79c-.082-.728-.763-1.244-1.496-1.244h-3.662c.312-.557.479-2.133.471-2.777-.012-1.066-.895-1.92-1.96-1.92h-.388a.47.47 0 0 0-.47.47c0 1.086-.422 3.046-1.22 3.844-.537.537-.996.731-1.598 1.032v7.047c.922.308 2.092.758 3.875.758h3.072c1.012 0 1.8-.938 1.408-1.928a1.411 1.411 0 0 0 .94-1.879 1.41 1.41 0 0 0 .679-2.299c.256-.287.398-.68.35-1.103z"/></g></g></svg>