<svg xmlns="http://www.w3.org/2000/svg" width="11" height="16" viewBox="0 0 11 16">
    <g fill="none" fill-rule="evenodd">
        <g fill="#F51449" fill-rule="nonzero">
            <g>
                <path d="M.86 9.333h3.036l-.627 5.748c-.003.017-.003.068-.003.086 0 .459.385.833.859.833.27 0 .527-.125.697-.347l6.006-8.32c.11-.143.172-.32.172-.5 0-.459-.386-.833-.86-.833H6.425L7.043.931c.002-.019.003-.078.003-.098C7.046.374 6.661 0 6.187 0c-.269 0-.526.125-.702.354L.172 8c-.11.143-.172.32-.172.5 0 .46.386.833.86.833z" transform="translate(-745.000000, -471.000000) translate(745.000000, 471.000000)"/>
            </g>
        </g>
    </g>
</svg>
