<svg width="11" height="9" viewBox="0 0 11 9" fill="none" xmlns="http://www.w3.org/2000/svg">
<path d="M10.6071 3.19196H9.28125V1.79732C9.28125 1.58002 9.10569 1.40446 8.88839 1.40446H5.02121L3.58114 0.0270089C3.56282 0.0098555 3.53871 0.000215208 3.51362 0H0.392857C0.175558 0 0 0.175558 0 0.392857V7.66071C0 7.87801 0.175558 8.05357 0.392857 8.05357H8.96205C9.12165 8.05357 9.26652 7.95659 9.32667 7.80804L10.9718 3.73214C10.9902 3.68549 11 3.63516 11 3.58482C11 3.36752 10.8244 3.19196 10.6071 3.19196ZM0.883929 0.883929H3.1981L4.66641 2.28839H8.39732V3.19196H2.13616C1.97656 3.19196 1.8317 3.28895 1.77154 3.4375L0.883929 5.6375V0.883929ZM8.68337 7.16964H1.16629L2.43449 4.02679H9.95279L8.68337 7.16964Z" fill="#313131"/>
</svg>
