<svg width="16" height="14" viewBox="0 0 16 14" xmlns="http://www.w3.org/2000/svg">
    <defs>
        <filter color-interpolation-filters="auto" id="9ev34h89ja">
            <feColorMatrix in="SourceGraphic" values="0 0 0 0 0.000000 0 0 0 0 0.000000 0 0 0 0 0.000000 0 0 0 1.000000 0"/>
        </filter>
    </defs>
    <g transform="translate(0 -2)" filter="url(#9ev34h89ja)" fill="none" fill-rule="evenodd">
        <g fill="#000" fill-rule="nonzero">
            <path d="M8.518 5.935H.78a.781.781 0 0 1 0-1.562H8.52a.781.781 0 0 1 0 1.562h-.001zM15.219 5.935h-1.956a.781.781 0 1 1 0-1.562h1.956a.781.781 0 1 1 0 1.562zM15.219 13.15H7.482a.781.781 0 1 1 0-1.562h7.737a.781.781 0 1 1 0 1.562zM2.737 13.15H.78a.781.781 0 1 1 0-1.562h1.956a.781.781 0 0 1 0 1.562z"/>
            <path d="M5.11 15.465a3.154 3.154 0 1 1 0-6.308 3.154 3.154 0 0 1 0 6.308zm0-4.745a1.592 1.592 0 1 0 0 3.183 1.592 1.592 0 0 0 0-3.183zM10.89 8.308a3.154 3.154 0 1 1 0-6.308 3.154 3.154 0 0 1 0 6.308zm0-4.745a1.592 1.592 0 1 0 0 3.183 1.592 1.592 0 0 0 0-3.183z"/>
        </g>
    </g>
</svg>
