<svg width="195" height="57" viewBox="0 0 195 57" fill="none" xmlns="http://www.w3.org/2000/svg">
<path d="M0 7.6C0 3.40264 3.45077 0 7.70751 0H187.292C191.549 0 195 3.40264 195 7.6V49.4C195 53.5974 191.549 57 187.292 57H7.70751C3.45077 57 0 53.5974 0 49.4V7.6Z" fill="#424242"/>
<path d="M57.6396 21.451C57.5497 21.451 57.4778 21.4242 57.4238 21.3706C57.3699 21.3169 57.3429 21.2454 57.3429 21.156V19.0771C57.3429 18.9877 57.3699 18.9162 57.4238 18.8625C57.4778 18.8089 57.5497 18.7821 57.6396 18.7821H57.9498C58.1566 18.7821 58.3455 18.6882 58.5163 18.5004C58.6871 18.3037 58.831 17.9953 58.9479 17.575C59.0738 17.1548 59.1682 16.6049 59.2311 15.9254C59.2941 15.2458 59.3255 14.4233 59.3255 13.4576V10.4936C59.3255 10.4042 59.3525 10.3327 59.4064 10.279C59.4604 10.2254 59.5323 10.1985 59.6222 10.1985H64.4236C64.5225 10.1985 64.5989 10.2254 64.6529 10.279C64.7068 10.3327 64.7338 10.4087 64.7338 10.507V18.7821H65.4082C65.5071 18.7821 65.5835 18.8089 65.6375 18.8625C65.6914 18.9162 65.7184 18.9877 65.7184 19.0771V21.156C65.7184 21.2454 65.6914 21.3169 65.6375 21.3706C65.5835 21.4242 65.5071 21.451 65.4082 21.451H65.1654C65.0755 21.451 65.0036 21.4242 64.9496 21.3706C64.8957 21.3169 64.8687 21.2454 64.8687 21.156V19.5868H58.1926V21.156C58.1926 21.2454 58.1656 21.3169 58.1117 21.3706C58.0577 21.4242 57.9813 21.451 57.8824 21.451H57.6396ZM59.1906 18.7821H63.8841V11.0033H60.1752V13.5649C60.1752 14.9776 60.0898 16.1042 59.9189 16.9447C59.7571 17.7762 59.5143 18.3887 59.1906 18.7821Z" fill="white"/>
<path d="M69.9504 19.7209C69.303 19.7209 68.759 19.5868 68.3184 19.3186C67.8868 19.0503 67.5542 18.6837 67.3204 18.2188C67.0956 17.7538 66.9742 17.2353 66.9562 16.663C66.9472 16.5289 66.9427 16.3411 66.9427 16.0997C66.9427 15.8583 66.9472 15.6705 66.9562 15.5364C66.9742 14.9553 67.0956 14.4367 67.3204 13.9807C67.5542 13.5157 67.8868 13.1491 68.3184 12.8809C68.759 12.6127 69.303 12.4785 69.9504 12.4785C70.5977 12.4785 71.1372 12.6127 71.5688 12.8809C72.0094 13.1491 72.3421 13.5157 72.5668 13.9807C72.8006 14.4367 72.9265 14.9553 72.9445 15.5364C72.9535 15.6705 72.958 15.8583 72.958 16.0997C72.958 16.3411 72.9535 16.5289 72.9445 16.663C72.9265 17.2353 72.8006 17.7538 72.5668 18.2188C72.3421 18.6837 72.0094 19.0503 71.5688 19.3186C71.1372 19.5868 70.5977 19.7209 69.9504 19.7209ZM69.9504 18.943C70.5797 18.943 71.0923 18.7418 71.4879 18.3395C71.8835 17.9371 72.0948 17.356 72.1218 16.596C72.1308 16.4618 72.1353 16.2964 72.1353 16.0997C72.1353 15.903 72.1308 15.7376 72.1218 15.6035C72.0948 14.8345 71.8835 14.2534 71.4879 13.86C71.0923 13.4576 70.5797 13.2564 69.9504 13.2564C69.321 13.2564 68.8084 13.4576 68.4128 13.86C68.0172 14.2534 67.8059 14.8345 67.7789 15.6035C67.7699 15.7376 67.7655 15.903 67.7655 16.0997C67.7655 16.2964 67.7699 16.4618 67.7789 16.596C67.8059 17.356 68.0172 17.9371 68.4128 18.3395C68.8084 18.7418 69.321 18.943 69.9504 18.943Z" fill="white"/>
<path d="M77.4575 19.7209C76.8281 19.7209 76.2931 19.6002 75.8525 19.3588C75.4119 19.1084 75.0748 18.7508 74.841 18.2858C74.6162 17.8209 74.4948 17.271 74.4768 16.6362C74.4678 16.5021 74.4633 16.3233 74.4633 16.0997C74.4633 15.8762 74.4678 15.6974 74.4768 15.5633C74.4948 14.9195 74.6162 14.3696 74.841 13.9136C75.0748 13.4487 75.4119 13.0955 75.8525 12.8541C76.2931 12.6037 76.8281 12.4785 77.4575 12.4785C77.934 12.4785 78.3431 12.5456 78.6848 12.6797C79.0354 12.8049 79.3232 12.9748 79.548 13.1894C79.7727 13.395 79.9436 13.623 80.0605 13.8734C80.1774 14.1237 80.2403 14.3696 80.2493 14.611C80.2583 14.7004 80.2313 14.772 80.1684 14.8256C80.1054 14.8793 80.0335 14.9061 79.9526 14.9061H79.7637C79.6738 14.9061 79.6064 14.8882 79.5614 14.8524C79.5255 14.8077 79.485 14.7317 79.4401 14.6244C79.2512 14.1148 78.9905 13.7616 78.6578 13.5649C78.3341 13.3593 77.934 13.2564 77.4575 13.2564C76.8461 13.2564 76.338 13.4442 75.9334 13.8197C75.5378 14.1863 75.3265 14.7898 75.2995 15.6303C75.2816 15.9433 75.2816 16.2562 75.2995 16.5691C75.3265 17.4096 75.5378 18.0176 75.9334 18.3931C76.338 18.7597 76.8461 18.943 77.4575 18.943C77.934 18.943 78.3341 18.8447 78.6578 18.648C78.9905 18.4423 79.2512 18.0847 79.4401 17.575C79.485 17.4677 79.5255 17.3962 79.5614 17.3604C79.6064 17.3157 79.6738 17.2934 79.7637 17.2934H79.9526C80.0335 17.2934 80.1054 17.3202 80.1684 17.3738C80.2313 17.4275 80.2583 17.499 80.2493 17.5884C80.2403 17.7851 80.1998 17.9818 80.1279 18.1785C80.056 18.3753 79.9436 18.5675 79.7907 18.7553C79.6469 18.943 79.467 19.1084 79.2512 19.2515C79.0354 19.3945 78.7747 19.5063 78.469 19.5868C78.1723 19.6762 77.8351 19.7209 77.4575 19.7209Z" fill="white"/>
<path d="M84.1758 19.5868C84.0859 19.5868 84.014 19.56 83.96 19.5063C83.9061 19.4527 83.8791 19.3811 83.8791 19.2917V13.3905H81.411C81.321 13.3905 81.2491 13.3637 81.1952 13.3101C81.1412 13.2564 81.1142 13.1849 81.1142 13.0955V12.9077C81.1142 12.8183 81.1412 12.7468 81.1952 12.6931C81.2491 12.6395 81.321 12.6127 81.411 12.6127H87.1699C87.2598 12.6127 87.3318 12.6395 87.3857 12.6931C87.4397 12.7468 87.4666 12.8183 87.4666 12.9077V13.0955C87.4666 13.1849 87.4397 13.2564 87.3857 13.3101C87.3318 13.3637 87.2598 13.3905 87.1699 13.3905H84.7018V19.2917C84.7018 19.3811 84.6748 19.4527 84.6209 19.5063C84.5669 19.56 84.495 19.5868 84.4051 19.5868H84.1758Z" fill="white"/>
<path d="M88.8972 22.135C88.8073 22.135 88.7354 22.1082 88.6814 22.0546C88.6275 22.0009 88.6005 21.9294 88.6005 21.84V21.6522C88.6005 21.5628 88.6275 21.4913 88.6814 21.4376C88.7354 21.384 88.8073 21.3571 88.8972 21.3571H89.2074C89.4232 21.3571 89.5985 21.3124 89.7334 21.223C89.8683 21.1336 89.9942 20.9816 90.111 20.767C90.2279 20.5524 90.3628 20.2574 90.5157 19.8818L93.5368 12.8138C93.5637 12.7513 93.5997 12.7021 93.6446 12.6663C93.6896 12.6305 93.757 12.6127 93.8469 12.6127H94.0897C94.1616 12.6127 94.2246 12.6395 94.2785 12.6931C94.3325 12.7468 94.3595 12.8094 94.3595 12.8809C94.3595 12.9167 94.3505 12.9524 94.3325 12.9882C94.3235 13.024 94.3055 13.0776 94.2785 13.1491L91.716 19.1308C91.5991 19.408 91.4687 19.7164 91.3249 20.0562C91.181 20.4049 91.0192 20.7357 90.8393 21.0487C90.6595 21.3706 90.4482 21.6298 90.2055 21.8266C89.9627 22.0322 89.6795 22.135 89.3558 22.135H88.8972ZM90.8933 19.3588L88.1959 13.1491C88.1419 13.015 88.115 12.9256 88.115 12.8809C88.115 12.8094 88.1419 12.7468 88.1959 12.6931C88.2498 12.6395 88.3128 12.6127 88.3847 12.6127H88.641C88.7309 12.6127 88.7983 12.635 88.8433 12.6797C88.8882 12.7155 88.9242 12.7602 88.9512 12.8138L91.3249 18.3261L90.8933 19.3588Z" fill="white"/>
<path d="M96.1707 19.5868C96.0808 19.5868 96.0089 19.56 95.9549 19.5063C95.901 19.4527 95.874 19.3811 95.874 19.2917V12.9077C95.874 12.8183 95.901 12.7468 95.9549 12.6931C96.0089 12.6395 96.0808 12.6127 96.1707 12.6127H101.161C101.251 12.6127 101.323 12.6395 101.377 12.6931C101.431 12.7468 101.458 12.8183 101.458 12.9077V19.2917C101.458 19.3811 101.431 19.4527 101.377 19.5063C101.323 19.56 101.251 19.5868 101.161 19.5868H100.932C100.842 19.5868 100.77 19.56 100.716 19.5063C100.662 19.4527 100.635 19.3811 100.635 19.2917V13.3905H96.6967V19.2917C96.6967 19.3811 96.6697 19.4527 96.6158 19.5063C96.5618 19.56 96.4899 19.5868 96.4 19.5868H96.1707Z" fill="white"/>
<path d="M103.942 19.5868C103.852 19.5868 103.78 19.56 103.726 19.5063C103.672 19.4527 103.645 19.3811 103.645 19.2917V12.9077C103.645 12.8183 103.672 12.7468 103.726 12.6931C103.78 12.6395 103.852 12.6127 103.942 12.6127H104.171C104.261 12.6127 104.333 12.6395 104.387 12.6931C104.441 12.7468 104.468 12.8183 104.468 12.9077V15.6303H108.676V12.9077C108.676 12.8183 108.702 12.7468 108.756 12.6931C108.81 12.6395 108.882 12.6127 108.972 12.6127H109.202C109.291 12.6127 109.363 12.6395 109.417 12.6931C109.471 12.7468 109.498 12.8183 109.498 12.9077V19.2917C109.498 19.3811 109.471 19.4527 109.417 19.5063C109.363 19.56 109.291 19.5868 109.202 19.5868H108.972C108.882 19.5868 108.81 19.56 108.756 19.5063C108.702 19.4527 108.676 19.3811 108.676 19.2917V16.4082H104.468V19.2917C104.468 19.3811 104.441 19.4527 104.387 19.5063C104.333 19.56 104.261 19.5868 104.171 19.5868H103.942Z" fill="white"/>
<path d="M114.35 19.7209C113.702 19.7209 113.158 19.5868 112.718 19.3186C112.286 19.0503 111.953 18.6837 111.72 18.2188C111.495 17.7538 111.373 17.2353 111.355 16.663C111.346 16.5289 111.342 16.3411 111.342 16.0997C111.342 15.8583 111.346 15.6705 111.355 15.5364C111.373 14.9553 111.495 14.4367 111.72 13.9807C111.953 13.5157 112.286 13.1491 112.718 12.8809C113.158 12.6127 113.702 12.4785 114.35 12.4785C114.997 12.4785 115.536 12.6127 115.968 12.8809C116.409 13.1491 116.741 13.5157 116.966 13.9807C117.2 14.4367 117.326 14.9553 117.344 15.5364C117.353 15.6705 117.357 15.8583 117.357 16.0997C117.357 16.3411 117.353 16.5289 117.344 16.663C117.326 17.2353 117.2 17.7538 116.966 18.2188C116.741 18.6837 116.409 19.0503 115.968 19.3186C115.536 19.5868 114.997 19.7209 114.35 19.7209ZM114.35 18.943C114.979 18.943 115.491 18.7418 115.887 18.3395C116.283 17.9371 116.494 17.356 116.521 16.596C116.53 16.4618 116.534 16.2964 116.534 16.0997C116.534 15.903 116.53 15.7376 116.521 15.6035C116.494 14.8345 116.283 14.2534 115.887 13.86C115.491 13.4576 114.979 13.2564 114.35 13.2564C113.72 13.2564 113.208 13.4576 112.812 13.86C112.416 14.2534 112.205 14.8345 112.178 15.6035C112.169 15.7376 112.165 15.903 112.165 16.0997C112.165 16.2964 112.169 16.4618 112.178 16.596C112.205 17.356 112.416 17.9371 112.812 18.3395C113.208 18.7418 113.72 18.943 114.35 18.943Z" fill="white"/>
<path d="M122.974 19.5868C122.884 19.5868 122.812 19.56 122.758 19.5063C122.704 19.4527 122.677 19.3811 122.677 19.2917V12.9077C122.677 12.8183 122.704 12.7468 122.758 12.6931C122.812 12.6395 122.884 12.6127 122.974 12.6127H125.631C126.377 12.6127 126.948 12.7781 127.343 13.1089C127.748 13.4397 127.95 13.8823 127.95 14.4367C127.95 14.8658 127.869 15.1833 127.708 15.3889C127.546 15.5945 127.312 15.7689 127.006 15.912C127.366 16.0461 127.636 16.283 127.815 16.6228C127.995 16.9625 128.085 17.3023 128.085 17.6421C128.085 18.2769 127.865 18.7597 127.424 19.0905C126.993 19.4214 126.417 19.5868 125.698 19.5868H122.974ZM123.5 18.8089H125.59C126.085 18.8089 126.485 18.7105 126.79 18.5138C127.105 18.3171 127.262 18.0265 127.262 17.6421C127.262 17.2308 127.123 16.9313 126.844 16.7435C126.566 16.5557 126.148 16.4618 125.59 16.4618H123.5V18.8089ZM123.5 15.684H125.496C125.99 15.684 126.386 15.5722 126.683 15.3487C126.979 15.1251 127.128 14.8211 127.128 14.4367C127.128 14.0433 126.979 13.7705 126.683 13.6185C126.386 13.4665 125.99 13.3905 125.496 13.3905H123.5V15.684Z" fill="white"/>
<path d="M41.3974 29.6609C41.3775 26.3201 42.9125 23.8023 46.0124 21.9458C44.2786 19.4966 41.6557 18.1495 38.1981 17.8899C34.9244 17.6352 31.3427 19.7709 30.0312 19.7709C28.6452 19.7709 25.4758 17.9781 22.982 17.9781C17.8354 18.0565 12.3659 22.0242 12.3659 30.0968C12.3659 32.4824 12.8081 34.9463 13.6923 37.4837C14.8746 40.8244 19.137 49.0097 23.5831 48.8775C25.908 48.8236 27.5523 47.2512 30.5776 47.2512C33.5136 47.2512 35.0337 48.8775 37.6269 48.8775C42.1127 48.8138 45.9677 41.373 47.0904 38.0225C41.0745 35.2255 41.3974 29.8323 41.3974 29.6609ZM36.1763 14.7206C38.6949 11.7718 38.4664 9.08743 38.3919 8.12244C36.1663 8.2498 33.5931 9.61646 32.1276 11.2966C30.5131 13.0993 29.5642 15.328 29.7679 17.8409C32.1723 18.0222 34.368 16.8025 36.1763 14.7206Z" fill="white"/>
<path d="M74.0455 45.0169H70.9032L69.1819 39.6853H63.1989L61.5593 45.0169H58.5L64.4276 26.8657H68.0888L74.0455 45.0169ZM68.663 37.4485L67.1064 32.7088C66.9417 32.2246 66.6332 31.0843 66.178 29.2894H66.1226C65.9413 30.0614 65.6494 31.2016 65.2481 32.7088L63.7192 37.4485H68.663Z" fill="white"/>
<path d="M89.2893 38.3119C89.2893 40.5379 88.6791 42.2973 87.4587 43.589C86.3657 44.7388 85.0083 45.313 83.388 45.313C81.639 45.313 80.3827 44.6938 79.6175 43.4553H79.5622V50.35H76.6122V36.2374C76.6122 34.838 76.5748 33.4018 76.5029 31.9287H79.0972L79.2619 34.0033H79.3172C80.301 32.4402 81.794 31.66 83.7976 31.66C85.3639 31.66 86.6714 32.2697 87.7175 33.4904C88.7663 34.7125 89.2893 36.3192 89.2893 38.3119ZM86.284 38.4183C86.284 37.1444 85.9934 36.0942 85.4095 35.2676C84.7717 34.4056 83.9152 33.9746 82.8414 33.9746C82.1136 33.9746 81.4522 34.2147 80.8614 34.688C80.2692 35.1653 79.8818 35.7886 79.7005 36.5606C79.6092 36.9207 79.5635 37.2153 79.5635 37.4472V39.6295C79.5635 40.5815 79.8596 41.3849 80.4519 42.0409C81.0441 42.697 81.8134 43.0243 82.7598 43.0243C83.8709 43.0243 84.7357 42.6015 85.3542 41.7586C85.9741 40.9143 86.284 39.8013 86.284 38.4183Z" fill="white"/>
<path d="M104.561 38.3119C104.561 40.5379 103.951 42.2973 102.729 43.589C101.638 44.7388 100.28 45.313 98.66 45.313C96.9111 45.313 95.6547 44.6938 94.8909 43.4553H94.8356V50.35H91.8856V36.2374C91.8856 34.838 91.8482 33.4018 91.7763 31.9287H94.3707L94.5353 34.0033H94.5907C95.5731 32.4402 97.0661 31.66 99.071 31.66C100.636 31.66 101.944 32.2697 102.992 33.4904C104.037 34.7125 104.561 36.3192 104.561 38.3119ZM101.556 38.4183C101.556 37.1444 101.264 36.0942 100.68 35.2676C100.042 34.4056 99.1886 33.9746 98.1135 33.9746C97.3843 33.9746 96.7243 34.2147 96.1321 34.688C95.5399 35.1653 95.1538 35.7886 94.9726 36.5606C94.8826 36.9207 94.8356 37.2153 94.8356 37.4472V39.6295C94.8356 40.5815 95.1317 41.3849 95.7211 42.0409C96.3133 42.6956 97.0827 43.0243 98.0319 43.0243C99.143 43.0243 100.008 42.6015 100.626 41.7586C101.246 40.9143 101.556 39.8013 101.556 38.4183Z" fill="white"/>
<path d="M121.636 39.9269C121.636 41.4709 121.092 42.7271 120.001 43.6969C118.801 44.7566 117.131 45.2858 114.985 45.2858C113.003 45.2858 111.415 44.9094 110.213 44.1551L110.896 41.7314C112.191 42.5034 113.612 42.8908 115.161 42.8908C116.272 42.8908 117.136 42.6425 117.758 42.1488C118.376 41.655 118.685 40.9922 118.685 40.1656C118.685 39.4291 118.43 38.8085 117.92 38.3052C117.412 37.8019 116.564 37.3341 115.379 36.9017C112.155 35.7165 110.545 33.9802 110.545 31.697C110.545 30.2048 111.109 28.9814 112.24 28.0294C113.366 27.076 114.869 26.6 116.748 26.6C118.423 26.6 119.815 26.8878 120.926 27.462L120.189 29.8325C119.151 29.276 117.978 28.9978 116.665 28.9978C115.627 28.9978 114.816 29.2501 114.235 29.752C113.744 30.2008 113.497 30.7477 113.497 31.3956C113.497 32.113 113.778 32.7063 114.343 33.1728C114.834 33.6038 115.726 34.0702 117.022 34.5735C118.606 35.2023 119.77 35.9374 120.518 36.7804C121.264 37.6205 121.636 38.6721 121.636 39.9269Z" fill="white"/>
<path d="M131.389 34.1113H128.137V40.4658C128.137 42.0821 128.71 42.8895 129.859 42.8895C130.386 42.8895 130.823 42.8445 131.169 42.7545L131.251 44.9627C130.67 45.1769 129.904 45.2846 128.957 45.2846C127.792 45.2846 126.881 44.9341 126.224 44.2344C125.569 43.5333 125.24 42.3576 125.24 40.7059V34.1086H123.303V31.9263H125.24V29.5298L128.137 28.6678V31.9263H131.389V34.1113Z" fill="white"/>
<path d="M146.06 38.3651C146.06 40.3769 145.476 42.0286 144.311 43.3203C143.09 44.6501 141.468 45.313 139.446 45.313C137.498 45.313 135.947 44.676 134.79 43.4021C133.634 42.1282 133.055 40.5201 133.055 38.582C133.055 36.5538 133.65 34.8926 134.844 33.6009C136.036 32.3079 137.643 31.6614 139.665 31.6614C141.613 31.6614 143.181 32.2984 144.364 33.5736C145.496 34.8107 146.06 36.4079 146.06 38.3651ZM143 38.4592C143 37.2522 142.738 36.2169 142.208 35.3536C141.59 34.3088 140.706 33.7878 139.56 33.7878C138.374 33.7878 137.473 34.3102 136.855 35.3536C136.325 36.2183 136.063 37.2699 136.063 38.5138C136.063 39.7209 136.325 40.7561 136.855 41.6181C137.493 42.6629 138.384 43.1839 139.534 43.1839C140.66 43.1839 141.544 42.652 142.182 41.5908C142.726 40.7111 143 39.6649 143 38.4592Z" fill="white"/>
<path d="M155.649 34.4861C155.357 34.4329 155.046 34.4056 154.719 34.4056C153.681 34.4056 152.879 34.7916 152.314 35.565C151.823 36.2469 151.577 37.1089 151.577 38.1496V45.017H148.628L148.656 36.0505C148.656 34.542 148.618 33.1685 148.545 31.9301H151.115L151.223 34.4343H151.304C151.616 33.5736 152.107 32.8807 152.779 32.3611C153.436 31.8933 154.146 31.66 154.911 31.66C155.184 31.66 155.43 31.6791 155.649 31.7132V34.4861Z" fill="white"/>
<path d="M168.841 37.8537C168.841 38.3747 168.807 38.8139 168.734 39.1726H159.884C159.918 40.4657 160.346 41.4545 161.168 42.1365C161.913 42.7461 162.878 43.0517 164.062 43.0517C165.373 43.0517 166.568 42.8457 167.643 42.4324L168.105 44.4511C166.849 44.9912 165.366 45.2599 163.654 45.2599C161.595 45.2599 159.979 44.6625 158.803 43.469C157.63 42.2756 157.042 40.673 157.042 38.6625C157.042 36.6889 157.588 35.0454 158.683 33.7347C159.828 32.3353 161.377 31.6356 163.325 31.6356C165.238 31.6356 166.687 32.3353 167.671 33.7347C168.45 34.8463 168.841 36.2211 168.841 37.8537ZM166.028 37.0995C166.048 36.2375 165.856 35.4928 165.456 34.864C164.945 34.0552 164.161 33.6515 163.105 33.6515C162.14 33.6515 161.356 34.0456 160.757 34.8367C160.266 35.4655 159.974 36.2197 159.884 37.0981H166.028V37.0995Z" fill="white"/>
</svg>
