<svg width="195" height="57" viewBox="0 0 195 57" fill="none" xmlns="http://www.w3.org/2000/svg">
<path d="M0 7.6C0 3.40264 3.45077 0 7.70751 0H187.292C191.549 0 195 3.40264 195 7.6V49.4C195 53.5974 191.549 57 187.292 57H7.70751C3.45077 57 0 53.5974 0 49.4V7.6Z" fill="#424242"/>
<path d="M57.6396 20.976C57.5497 20.976 57.4778 20.9492 57.4238 20.8955C57.3699 20.8419 57.3429 20.7703 57.3429 20.6809V18.6021C57.3429 18.5127 57.3699 18.4412 57.4238 18.3875C57.4778 18.3339 57.5497 18.307 57.6396 18.307H57.9498C58.867 18.307 59.3255 16.5322 59.3255 12.9826V10.0186C59.3255 9.92916 59.3525 9.85763 59.4064 9.80398C59.4604 9.75033 59.5323 9.72351 59.6222 9.72351H64.4236C64.5225 9.72351 64.5989 9.75033 64.6529 9.80398C64.7068 9.85763 64.7338 9.93363 64.7338 10.032V18.307H65.4082C65.4981 18.307 65.57 18.3339 65.624 18.3875C65.6869 18.4412 65.7184 18.5127 65.7184 18.6021V20.6809C65.7184 20.7703 65.6869 20.8419 65.624 20.8955C65.57 20.9492 65.4981 20.976 65.4082 20.976H65.1654C65.0755 20.976 65.0036 20.9492 64.9496 20.8955C64.8957 20.8419 64.8687 20.7703 64.8687 20.6809V19.1117H58.1926V20.6809C58.1926 20.7703 58.1611 20.8419 58.0982 20.8955C58.0442 20.9492 57.9723 20.976 57.8824 20.976H57.6396ZM63.8841 18.307V10.5282H60.1752V13.0899C60.1752 14.4847 60.0943 15.6023 59.9324 16.4428C59.7706 17.2833 59.5233 17.9047 59.1906 18.307H63.8841Z" fill="white"/>
<path d="M69.9503 19.2459C69.0152 19.2459 68.2869 18.9642 67.7654 18.4009C67.2529 17.8287 66.9832 17.091 66.9562 16.188L66.9427 15.6247L66.9562 15.0614C66.9832 14.1583 67.2529 13.4252 67.7654 12.8619C68.2869 12.2896 69.0152 12.0035 69.9503 12.0035C70.8854 12.0035 71.6092 12.2896 72.1218 12.8619C72.6433 13.4252 72.9175 14.1583 72.9445 15.0614C72.9535 15.1508 72.958 15.3386 72.958 15.6247C72.958 15.9108 72.9535 16.0986 72.9445 16.188C72.9175 17.091 72.6433 17.8287 72.1218 18.4009C71.6092 18.9642 70.8854 19.2459 69.9503 19.2459ZM69.9503 18.468C70.5887 18.468 71.1012 18.2668 71.4879 17.8645C71.8835 17.4532 72.0948 16.872 72.1218 16.1209C72.1307 16.0315 72.1352 15.8661 72.1352 15.6247C72.1352 15.3833 72.1307 15.2179 72.1218 15.1285C72.0948 14.3774 71.8835 13.8007 71.4879 13.3983C71.1012 12.987 70.5887 12.7814 69.9503 12.7814C69.312 12.7814 68.795 12.987 68.3993 13.3983C68.0127 13.8007 67.8059 14.3774 67.7789 15.1285L67.7654 15.6247L67.7789 16.1209C67.8059 16.872 68.0127 17.4532 68.3993 17.8645C68.795 18.2668 69.312 18.468 69.9503 18.468Z" fill="white"/>
<path d="M77.4575 19.2459C76.5224 19.2459 75.7986 18.9776 75.286 18.4412C74.7735 17.8957 74.5038 17.1357 74.4768 16.1612L74.4633 15.6247L74.4768 15.0882C74.5038 14.1136 74.7735 13.3581 75.286 12.8216C75.7986 12.2762 76.5224 12.0035 77.4575 12.0035C78.0509 12.0035 78.5544 12.1108 78.968 12.3254C79.3906 12.531 79.7053 12.7993 79.9121 13.1301C80.1189 13.452 80.2313 13.7873 80.2493 14.136C80.2583 14.2165 80.2313 14.288 80.1684 14.3506C80.1054 14.4042 80.0335 14.431 79.9526 14.431H79.7637C79.6738 14.431 79.6064 14.4132 79.5614 14.3774C79.5255 14.3327 79.485 14.2567 79.4401 14.1494C79.2602 13.6576 79.0085 13.3089 78.6848 13.1033C78.3611 12.8887 77.952 12.7814 77.4575 12.7814C76.8101 12.7814 76.2931 12.9781 75.9064 13.3715C75.5288 13.756 75.3265 14.3506 75.2995 15.1553L75.286 15.6247L75.2995 16.0941C75.3265 16.8988 75.5288 17.4979 75.9064 17.8913C76.2931 18.2757 76.8101 18.468 77.4575 18.468C77.952 18.468 78.3611 18.3652 78.6848 18.1595C79.0085 17.9449 79.2602 17.5917 79.4401 17.1C79.485 16.9927 79.5255 16.9212 79.5614 16.8854C79.6064 16.8407 79.6738 16.8183 79.7637 16.8183H79.9526C80.0335 16.8183 80.1054 16.8496 80.1684 16.9122C80.2313 16.9659 80.2583 17.0329 80.2493 17.1134C80.2313 17.4621 80.1189 17.8019 79.9121 18.1327C79.7053 18.4546 79.3906 18.7228 78.968 18.9374C78.5544 19.143 78.0509 19.2459 77.4575 19.2459Z" fill="white"/>
<path d="M84.1758 19.1117C84.0859 19.1117 84.0139 19.0849 83.96 19.0313C83.906 18.9776 83.8791 18.9061 83.8791 18.8167V12.9155H81.4109C81.321 12.9155 81.2491 12.8887 81.1952 12.835C81.1412 12.7814 81.1142 12.7099 81.1142 12.6205V12.4327C81.1142 12.3433 81.1412 12.2717 81.1952 12.2181C81.2491 12.1645 81.321 12.1376 81.4109 12.1376H87.1699C87.2598 12.1376 87.3318 12.1645 87.3857 12.2181C87.4397 12.2717 87.4666 12.3433 87.4666 12.4327V12.6205C87.4666 12.7099 87.4397 12.7814 87.3857 12.835C87.3318 12.8887 87.2598 12.9155 87.1699 12.9155H84.7018V18.8167C84.7018 18.9061 84.6748 18.9776 84.6209 19.0313C84.5669 19.0849 84.495 19.1117 84.4051 19.1117H84.1758Z" fill="white"/>
<path d="M94.0897 12.1376C94.1616 12.1376 94.2246 12.1645 94.2785 12.2181C94.3325 12.2717 94.3594 12.3343 94.3594 12.4059C94.3594 12.4506 94.3325 12.54 94.2785 12.6741L91.716 18.6557L91.5272 19.1117C91.3114 19.6393 91.1136 20.0685 90.9337 20.3993C90.7629 20.739 90.5426 21.0341 90.2729 21.2845C90.0121 21.5348 89.7064 21.66 89.3558 21.66H88.8972C88.8073 21.66 88.7354 21.6332 88.6814 21.5795C88.6275 21.5259 88.6005 21.4543 88.6005 21.3649V21.1772C88.6005 21.0877 88.6275 21.0162 88.6814 20.9626C88.7354 20.9089 88.8073 20.8821 88.8972 20.8821H89.2074C89.4232 20.8821 89.594 20.8374 89.7199 20.748C89.8548 20.6586 89.9762 20.5155 90.0841 20.3188C90.192 20.131 90.3358 19.827 90.5156 19.4068L90.8124 18.7094L88.1959 12.6741C88.1419 12.54 88.115 12.4506 88.115 12.4059C88.115 12.3343 88.1419 12.2717 88.1959 12.2181C88.2498 12.1645 88.3128 12.1376 88.3847 12.1376H88.6409C88.7848 12.1376 88.8882 12.2047 88.9511 12.3388L91.2574 17.6767L93.5367 12.3388C93.5997 12.2047 93.7031 12.1376 93.8469 12.1376H94.0897Z" fill="white"/>
<path d="M96.1707 19.1117C96.0808 19.1117 96.0089 19.0849 95.9549 19.0313C95.901 18.9776 95.874 18.9061 95.874 18.8167V12.4327C95.874 12.3433 95.901 12.2717 95.9549 12.2181C96.0089 12.1645 96.0808 12.1376 96.1707 12.1376H101.161C101.251 12.1376 101.323 12.1645 101.377 12.2181C101.431 12.2717 101.458 12.3433 101.458 12.4327V18.8167C101.458 18.9061 101.431 18.9776 101.377 19.0313C101.323 19.0849 101.251 19.1117 101.161 19.1117H100.932C100.842 19.1117 100.77 19.0849 100.716 19.0313C100.662 18.9776 100.635 18.9061 100.635 18.8167V12.9155H96.6967V18.8167C96.6967 18.9061 96.6697 18.9776 96.6158 19.0313C96.5618 19.0849 96.4899 19.1117 96.4 19.1117H96.1707Z" fill="white"/>
<path d="M103.942 19.1117C103.852 19.1117 103.78 19.0849 103.726 19.0313C103.672 18.9776 103.645 18.9061 103.645 18.8167V12.4327C103.645 12.3433 103.672 12.2717 103.726 12.2181C103.78 12.1645 103.852 12.1376 103.942 12.1376H104.171C104.261 12.1376 104.333 12.1645 104.387 12.2181C104.441 12.2717 104.468 12.3433 104.468 12.4327V15.1553H108.676V12.4327C108.676 12.3433 108.702 12.2717 108.756 12.2181C108.81 12.1645 108.882 12.1376 108.972 12.1376H109.202C109.291 12.1376 109.363 12.1645 109.417 12.2181C109.471 12.2717 109.498 12.3433 109.498 12.4327V18.8167C109.498 18.9061 109.471 18.9776 109.417 19.0313C109.363 19.0849 109.291 19.1117 109.202 19.1117H108.972C108.882 19.1117 108.81 19.0849 108.756 19.0313C108.702 18.9776 108.676 18.9061 108.676 18.8167V15.9332H104.468V18.8167C104.468 18.9061 104.441 18.9776 104.387 19.0313C104.333 19.0849 104.261 19.1117 104.171 19.1117H103.942Z" fill="white"/>
<path d="M114.35 19.2459C113.414 19.2459 112.686 18.9642 112.165 18.4009C111.652 17.8287 111.382 17.091 111.355 16.188L111.342 15.6247L111.355 15.0614C111.382 14.1583 111.652 13.4252 112.165 12.8619C112.686 12.2896 113.414 12.0035 114.35 12.0035C115.285 12.0035 116.008 12.2896 116.521 12.8619C117.042 13.4252 117.317 14.1583 117.344 15.0614C117.353 15.1508 117.357 15.3386 117.357 15.6247C117.357 15.9108 117.353 16.0986 117.344 16.188C117.317 17.091 117.042 17.8287 116.521 18.4009C116.008 18.9642 115.285 19.2459 114.35 19.2459ZM114.35 18.468C114.988 18.468 115.5 18.2668 115.887 17.8645C116.283 17.4532 116.494 16.872 116.521 16.1209C116.53 16.0315 116.534 15.8661 116.534 15.6247C116.534 15.3833 116.53 15.2179 116.521 15.1285C116.494 14.3774 116.283 13.8007 115.887 13.3983C115.5 12.987 114.988 12.7814 114.35 12.7814C113.711 12.7814 113.194 12.987 112.799 13.3983C112.412 13.8007 112.205 14.3774 112.178 15.1285L112.165 15.6247L112.178 16.1209C112.205 16.872 112.412 17.4532 112.799 17.8645C113.194 18.2668 113.711 18.468 114.35 18.468Z" fill="white"/>
<path d="M122.974 19.1117C122.884 19.1117 122.812 19.0849 122.758 19.0313C122.704 18.9776 122.677 18.9061 122.677 18.8167V12.4327C122.677 12.3433 122.704 12.2717 122.758 12.2181C122.812 12.1645 122.884 12.1376 122.974 12.1376H125.631C126.359 12.1376 126.925 12.303 127.33 12.6339C127.743 12.9647 127.95 13.4073 127.95 13.9616C127.95 14.364 127.874 14.6725 127.721 14.887C127.577 15.1016 127.339 15.2849 127.006 15.4369C127.348 15.5621 127.613 15.7901 127.802 16.1209C127.991 16.4517 128.085 16.8005 128.085 17.167C128.085 17.7929 127.869 18.2757 127.438 18.6155C127.015 18.9463 126.435 19.1117 125.698 19.1117H122.974ZM125.496 15.2089C125.99 15.2089 126.386 15.0972 126.682 14.8736C126.979 14.6501 127.128 14.3461 127.128 13.9616C127.128 13.5861 126.984 13.3179 126.696 13.1569C126.417 12.996 126.017 12.9155 125.496 12.9155H123.5V15.2089H125.496ZM125.59 18.3339C126.103 18.3339 126.507 18.2355 126.804 18.0388C127.11 17.8332 127.262 17.5426 127.262 17.167C127.262 16.7647 127.123 16.4696 126.844 16.2819C126.575 16.0852 126.157 15.9868 125.59 15.9868H123.5V18.3339H125.59Z" fill="white"/>
<path d="M39.1219 33.1124L34.5785 28.6375L39.2908 23.9699C42.3285 25.7011 44.6061 26.9926 45.0707 27.2442C46.6873 28.1434 45.8658 29.301 45.0707 29.7386C44.8987 29.8271 43.464 30.6428 41.3355 31.853L41.3336 31.8541C40.9908 32.049 40.6301 32.2543 40.2537 32.4685C39.8903 32.6753 39.5123 32.8903 39.1219 33.1124Z" fill="white"/>
<path d="M37.9566 33.7746L33.6622 29.545L18.059 45C18.2027 44.9457 18.3531 44.8741 18.5111 44.7843L19.6328 44.1502L19.6356 44.1486C22.8104 42.3543 31.6009 37.3862 37.9566 33.7746Z" fill="white"/>
<path d="M16.4692 44.7595C16.1604 44.4088 16 43.8449 16 43.1635V13.9722C16 13.3294 16.1547 12.8612 16.397 12.5406L32.7433 28.64L16.4692 44.7595Z" fill="white"/>
<path d="M17.6859 12L33.6595 27.7324L38.1113 23.323C37.4143 22.9296 19.6086 12.8809 18.5108 12.2769C18.2495 12.1161 17.9651 12.0266 17.6859 12Z" fill="white"/>
<path d="M97.2555 31.0643C93.9023 31.0643 91.1318 33.6655 91.1318 37.2321C91.1318 40.7695 93.8732 43.3999 97.2558 43.3999C100.638 43.3999 103.379 40.7987 103.379 37.2321C103.379 33.6655 100.638 31.0643 97.2555 31.0643ZM97.2555 40.9456C95.418 40.9456 93.8151 39.3958 93.8151 37.2046C93.8151 34.9829 95.4193 33.4635 97.2555 33.4635C99.0918 33.4635 100.696 34.9829 100.696 37.2046C100.696 39.3958 99.0918 40.9456 97.2555 40.9456ZM83.9292 31.0643C80.5466 31.0643 77.8051 33.6655 77.8051 37.2321C77.8051 40.7695 80.5466 43.3999 83.9292 43.3999C87.3114 43.3999 90.0529 40.7987 90.0529 37.2321C90.0529 33.6655 87.3114 31.0643 83.9288 31.0643H83.9292ZM83.9292 40.9456C82.0913 40.9456 80.4888 39.3958 80.4888 37.2046C80.4888 34.9829 82.0929 33.4635 83.9292 33.4635C85.7667 33.4635 87.3696 34.9829 87.3696 37.2046C87.3696 39.3958 85.7942 40.9456 83.9292 40.9456ZM68.0948 32.9646V35.5658H74.2763C74.1007 37.0272 73.6064 38.1088 72.8768 38.8401C71.9732 39.7459 70.5734 40.7404 68.0948 40.7404C64.2741 40.7404 61.3299 37.6421 61.3299 33.8124C61.3299 29.9828 64.2757 26.8259 68.0948 26.8259C70.1644 26.8259 71.6526 27.6446 72.7606 28.6973L74.5969 26.855C73.0508 25.3648 70.9812 24.225 68.0948 24.225C62.8743 24.225 58.5 28.5213 58.5 33.7542C58.5 38.9874 62.8743 43.2837 68.0948 43.2837C70.9231 43.2837 73.0234 42.3488 74.7144 40.5938C76.4347 38.8693 76.9596 36.4425 76.9596 34.4843C76.9596 33.8707 76.9018 33.315 76.8134 32.8471L68.0948 32.9646ZM132.89 34.9813C132.394 33.6073 130.82 31.0643 127.67 31.0643C124.519 31.0643 121.924 33.5493 121.924 37.2321C121.924 40.6809 124.519 43.3999 127.961 43.3999C130.761 43.3999 132.365 41.6753 133.035 40.6809L130.965 39.278C130.265 40.3016 129.332 40.9731 127.961 40.9731C126.591 40.9731 125.629 40.3595 125.016 39.1019L133.151 35.6823L132.89 34.9813ZM124.608 37.0576C124.55 34.6891 126.446 33.4619 127.786 33.4619C128.865 33.4619 129.74 33.9881 130.06 34.7778L124.608 37.0576ZM117.988 42.9911H120.672V24.9256H117.988V42.9911ZM113.615 32.4384H113.528C112.916 31.707 111.779 31.0643 110.32 31.0643C107.258 31.0643 104.488 33.7833 104.488 37.2321C104.488 40.6809 107.287 43.3711 110.32 43.3711C111.777 43.3711 112.915 42.728 113.528 41.9676H113.615V42.8446C113.615 45.2131 112.36 46.4691 110.349 46.4691C108.716 46.4691 107.695 45.271 107.287 44.2766L104.955 45.271C105.625 46.9082 107.404 48.925 110.349 48.925C113.498 48.925 116.152 47.0538 116.152 42.5232V31.4439H113.615V32.4384ZM110.553 40.9456C108.716 40.9456 107.171 39.3958 107.171 37.2337C107.171 35.0716 108.717 33.4924 110.553 33.4924C112.362 33.4924 113.82 35.0716 113.82 37.2337C113.818 39.3666 112.36 40.9456 110.553 40.9456ZM145.4 24.9259H138.985V42.9911H141.668V36.1502H145.4C148.375 36.1502 151.29 33.9865 151.29 30.5381C151.29 27.0893 148.375 24.9256 145.4 24.9256V24.9259ZM145.487 33.638H141.695V27.4395H145.487C147.47 27.4395 148.636 29.1058 148.636 30.5378C148.608 31.941 147.471 33.638 145.487 33.638ZM161.993 31.0352C160.068 31.0352 158.056 31.883 157.24 33.8124L159.602 34.8069C160.128 33.8124 161.06 33.4911 162.052 33.4911C163.452 33.4911 164.852 34.3386 164.881 35.8289V36.0049C164.384 35.7127 163.365 35.3027 162.081 35.3027C159.516 35.3027 156.919 36.735 156.919 39.3666C156.919 41.7931 159.019 43.3419 161.352 43.3419C163.16 43.3419 164.151 42.5232 164.763 41.5591H164.85V42.9623H167.445V36.0337C167.416 32.848 165.055 31.0348 161.993 31.0348V31.0352ZM161.672 40.9164C160.798 40.9164 159.572 40.4773 159.572 39.3971C159.572 37.9939 161.088 37.4677 162.4 37.4677C163.566 37.4677 164.121 37.7308 164.85 38.0812C164.646 39.7475 163.217 40.9164 161.672 40.9164ZM176.806 31.4455L173.744 39.2501H173.657L170.479 31.4452H167.593L172.375 42.3776L169.662 48.4874H172.462L179.78 31.4452H176.806L176.806 31.4455ZM152.778 42.9911H155.461V24.9256H152.778V42.9911Z" fill="white"/>
</svg>
