<svg xmlns="http://www.w3.org/2000/svg" width="18" height="16" viewBox="0 0 18 16">
    <g fill="none" fill-rule="evenodd">
        <g fill="#F51449">
            <g>
                <path d="M18.002 7c-1.336 0-2.592.528-3.537 1.487L14 8.96l-.465-.473C12.59 7.528 11.334 7 9.999 7c-1.336 0-2.592.528-3.537 1.487-1.95 1.982-1.95 5.205 0 7.185l6.987 7.098c.115.116.257.188.405.215.05.01.1.015.15.015.198 0 .396-.077.547-.23l6.987-7.098c1.95-1.98 1.95-5.203 0-7.185C20.592 7.528 19.337 7 18.001 7z" transform="translate(-343.000000, -1121.000000) translate(338.000000, 1114.000000)"/>
            </g>
        </g>
    </g>
</svg>
