<svg width="293" height="38" viewBox="0 0 293 38" fill="none" xmlns="http://www.w3.org/2000/svg">
<g clip-path="url(#clip0)">
<path d="M35.8902 6.81002L32.2902 10.36C30.6585 8.66985 28.7024 7.32657 26.539 6.41069C24.3756 5.49481 22.0495 5.02521 19.7002 5.03002C17.7861 4.96943 15.8791 5.29207 14.0914 5.97899C12.3037 6.66591 10.6713 7.70324 9.29024 9.03002C7.98435 10.2955 6.94389 11.8087 6.22968 13.4811C5.51548 15.1534 5.14186 16.9514 5.13069 18.7698C5.11952 20.5883 5.47101 22.3907 6.16461 24.0717C6.85821 25.7527 7.88 27.2786 9.17024 28.56C11.8369 31.3667 15.5436 32.7734 20.2902 32.78C27.3802 32.78 32.3702 29.37 33.6602 23.55H24.2002L29.1402 18.69H39.2102C39.2102 21.12 38.8402 25.69 36.6602 29.19C32.0802 36.69 22.8702 37.87 20.1802 37.87C14.0402 37.87 9.14024 35.9434 5.48024 32.09C1.97085 28.5775 -0.000234777 23.8153 0.000237759 18.85C-0.0386249 16.3593 0.439911 13.8876 1.40557 11.5914C2.37122 9.29517 3.80298 7.22437 5.61024 5.51002C7.38699 3.72281 9.50682 2.31339 11.8423 1.36649C14.1777 0.419596 16.6805 -0.0452112 19.2002 2.01301e-05C22.1526 -0.0357226 25.0879 0.45181 27.8702 1.44002C30.8816 2.66473 33.6108 4.49214 35.8902 6.81002Z" fill="#F6921E"/>
<path d="M43.1202 18.69C43.0959 16.2058 43.6005 13.7449 44.6005 11.4708C45.6006 9.1966 47.073 7.16128 48.9202 5.49999C50.7756 3.70516 52.9679 2.29516 55.3706 1.35123C57.7734 0.407288 60.3392 -0.0519401 62.9202 -6.50529e-06C65.4575 -0.0345135 67.9761 0.437713 70.3286 1.389C72.6811 2.3403 74.82 3.75152 76.6202 5.53999C78.4389 7.21047 79.8868 9.244 80.8704 11.5091C81.854 13.7743 82.3513 16.2206 82.3302 18.69C82.3795 21.23 81.9 23.7525 80.9222 26.0972C79.9443 28.4419 78.4895 30.5577 76.6502 32.31C74.8207 34.1277 72.6429 35.5571 70.2475 36.5125C67.8521 37.4679 65.2884 37.9296 62.7102 37.87C60.1405 37.9172 57.5877 37.4456 55.2045 36.4834C52.8213 35.5212 50.6567 34.0882 48.8402 32.27C46.9995 30.525 45.5409 28.4172 44.5563 26.0797C43.5718 23.7423 43.0827 21.226 43.1202 18.69ZM77.1702 18.91C77.2043 17.0513 76.843 15.2067 76.1103 13.4982C75.3776 11.7897 74.2902 10.2565 72.9202 8.99999C71.5315 7.67812 69.895 6.64413 68.1049 5.95762C66.3148 5.27111 64.4066 4.94565 62.4902 4.99999C60.6192 4.97124 58.7617 5.31943 57.0282 6.02382C55.2947 6.72821 53.7207 7.77439 52.4002 9.09999C51.0545 10.3581 49.986 11.883 49.2628 13.5772C48.5397 15.2715 48.1777 17.098 48.2002 18.94C48.1745 20.7942 48.5458 22.6325 49.2891 24.3314C50.0325 26.0303 51.1308 27.5506 52.5102 28.79C55.3679 31.459 59.1613 32.896 63.0702 32.79C64.9167 32.8144 66.7489 32.4636 68.4558 31.7588C70.1627 31.054 71.7087 30.01 73.0002 28.69C74.3338 27.4369 75.393 25.9207 76.1108 24.2373C76.8286 22.5539 77.1893 20.7399 77.1702 18.91Z" fill="#F6921E"/>
<path d="M86.1899 18.69C86.1669 16.205 86.6731 13.7437 87.6749 11.4695C88.6766 9.19527 90.151 7.16035 91.9999 5.49998C93.8548 3.70424 96.0469 2.29366 98.4498 1.34966C100.853 0.40566 103.419 -0.0530606 106 -2.43746e-05C108.539 -0.0347466 111.059 0.437344 113.413 1.38861C115.767 2.33988 117.908 3.7512 119.71 5.53998C121.524 7.21273 122.966 9.24739 123.945 11.5125C124.923 13.7776 125.415 16.2227 125.39 18.69C125.439 21.23 124.96 23.7524 123.982 26.0972C123.004 28.4419 121.549 30.5576 119.71 32.31C115.969 35.8917 110.989 37.891 105.81 37.891C100.631 37.891 95.6512 35.8917 91.9099 32.31C90.0623 30.5619 88.5994 28.4479 87.6146 26.1028C86.6297 23.7577 86.1445 21.2331 86.1899 18.69ZM120.19 18.91C120.232 17.0557 119.881 15.2136 119.158 13.5053C118.436 11.797 117.36 10.2614 116 8.99998C114.609 7.67871 112.97 6.64519 111.179 5.95876C109.387 5.27233 107.478 4.9465 105.56 4.99998C103.689 4.97463 101.833 5.32438 100.1 6.02858C98.3669 6.73278 96.7926 7.77714 95.4699 9.09998C94.1243 10.3581 93.0558 11.8829 92.3326 13.5772C91.6094 15.2715 91.2475 17.098 91.2699 18.94C91.2455 20.795 91.6184 22.6337 92.3635 24.3327C93.1086 26.0317 94.2087 27.5515 95.5899 28.79C98.4465 31.4609 102.241 32.8981 106.15 32.79C107.993 32.8111 109.821 32.4587 111.524 31.754C113.228 31.0494 114.77 30.0071 116.06 28.69C117.392 27.4357 118.45 25.9193 119.168 24.2362C119.886 22.5531 120.247 20.7396 120.23 18.91H120.19Z" fill="#F6921E"/>
<path d="M129.79 1.69H140.41C147.243 1.69 152.323 3.49334 155.65 7.1C158.865 10.4144 160.659 14.8527 160.65 19.47C160.654 21.7741 160.199 24.0559 159.314 26.1829C158.428 28.3099 157.128 30.2396 155.49 31.86C152.05 35.4467 147.05 37.24 140.49 37.24H129.79V1.69ZM134.64 6.44V32.44H134.92C138.31 32.4855 141.7 32.3252 145.07 31.96C146.93 31.6154 148.698 30.8865 150.26 29.82C151.908 28.7129 153.252 27.2105 154.17 25.45C155.254 23.3457 155.745 20.9865 155.592 18.6245C155.439 16.2625 154.647 13.9866 153.3 12.04C151.976 10.0011 150.035 8.43846 147.76 7.58C144.955 6.72756 142.03 6.34241 139.1 6.44H134.64Z" fill="#F6921E"/>
<path d="M166 1.12H170.8V31.87H182.38L186.74 36.67H166V1.12Z" fill="#626366"/>
<path d="M185.2 18.69C185.176 16.2059 185.681 13.7452 186.681 11.4711C187.681 9.19707 189.153 7.16167 191 5.49998C192.855 3.70424 195.047 2.29366 197.45 1.34966C199.853 0.40566 202.419 -0.0530606 205 -2.43746e-05C207.537 -0.0345314 210.056 0.437695 212.408 1.38899C214.761 2.34028 216.9 3.7515 218.7 5.53998C220.521 7.20888 221.97 9.24212 222.954 11.5076C223.937 13.7731 224.434 16.2202 224.41 18.69C224.459 21.23 223.98 23.7524 223.002 26.0972C222.024 28.4419 220.569 30.5576 218.73 32.31C214.986 35.8901 210.005 37.8881 204.825 37.8881C199.645 37.8881 194.664 35.8901 190.92 32.31C189.074 30.5604 187.613 28.4461 186.628 26.1014C185.643 23.7566 185.157 21.2327 185.2 18.69ZM219.25 18.91C219.285 17.0512 218.924 15.2064 218.191 13.4978C217.458 11.7892 216.37 10.256 215 8.99998C213.609 7.67871 211.97 6.64519 210.179 5.95876C208.387 5.27233 206.478 4.9465 204.56 4.99998C202.689 4.97463 200.833 5.32438 199.1 6.02858C197.367 6.73278 195.793 7.77714 194.47 9.09998C193.124 10.3581 192.056 11.8829 191.333 13.5772C190.609 15.2715 190.247 17.098 190.27 18.94C190.244 20.7942 190.615 22.6325 191.359 24.3314C192.102 26.0303 193.201 27.5505 194.58 28.79C197.441 31.4596 201.238 32.8964 205.15 32.79C206.996 32.8138 208.828 32.4627 210.535 31.758C212.242 31.0532 213.788 30.0095 215.08 28.69C216.412 27.4357 217.47 25.9193 218.188 24.2362C218.906 22.5531 219.267 20.7396 219.25 18.91Z" fill="#626366"/>
<path d="M259.49 2.35001V7.84001C256.222 6.11347 252.604 5.15258 248.91 5.03001C245.041 4.92911 241.29 6.36772 238.48 9.03001C237.117 10.2725 236.034 11.7906 235.303 13.4837C234.572 15.1768 234.21 17.0061 234.24 18.85C234.2 20.7171 234.566 22.5706 235.314 24.2819C236.061 25.9932 237.173 27.5212 238.57 28.76C241.544 31.4494 245.443 32.883 249.45 32.76C252.986 32.6371 256.43 31.6038 259.45 29.76V35.31C256.234 37.0206 252.642 37.9006 249 37.87C246.394 37.9194 243.803 37.4507 241.38 36.4911C238.956 35.5315 236.746 34.1001 234.88 32.28C233.006 30.5737 231.514 28.4909 230.501 26.1679C229.487 23.845 228.976 21.3342 229 18.8C228.972 16.3049 229.472 13.832 230.466 11.5434C231.46 9.2548 232.927 7.20216 234.77 5.52001C236.602 3.72565 238.773 2.31356 241.156 1.3659C243.539 0.418238 246.086 -0.0460636 248.65 9.00682e-06C252.385 0.0444956 256.072 0.843852 259.49 2.35001Z" fill="#626366"/>
<path d="M265.27 1.12H270.12V15.56L285.21 1.12H292L274.81 17.62L292.11 36.62H285.9L270.12 19.33V36.69H265.27V1.12Z" fill="#626366"/>
<path d="M207.39 18.08V25.69C207.39 26.4047 207.106 27.0902 206.601 27.5956C206.095 28.101 205.41 28.385 204.695 28.385C203.98 28.385 203.295 28.101 202.789 27.5956C202.284 27.0902 202 26.4047 202 25.69V18.08C201.328 17.5259 200.843 16.7777 200.612 15.9376C200.38 15.0975 200.414 14.2066 200.709 13.3865C201.003 12.5664 201.543 11.8573 202.256 11.3559C202.969 10.8546 203.819 10.5855 204.69 10.5855C205.561 10.5855 206.411 10.8546 207.124 11.3559C207.837 11.8573 208.377 12.5664 208.671 13.3865C208.966 14.2066 209 15.0975 208.768 15.9376C208.537 16.7777 208.052 17.5259 207.38 18.08H207.39Z" fill="#F6921E"/>
</g>
<defs>
<clipPath id="clip0">
<path d="M0 0H292.09V37.87H0V0Z" fill="white"/>
</clipPath>
</defs>
</svg>
