<svg width="150" height="20" viewBox="0 0 150 20" fill="none" xmlns="http://www.w3.org/2000/svg">
<g clip-path="url(#clip0)">
<path d="M18.4309 3.49717L16.5821 5.32024C15.7442 4.45227 14.7396 3.76244 13.6286 3.2921C12.5176 2.82176 11.3231 2.5806 10.1166 2.58307C9.13364 2.55195 8.15433 2.71764 7.23628 3.0704C6.31822 3.42316 5.47994 3.95587 4.77069 4.63723C4.10007 5.28712 3.56575 6.0642 3.19898 6.92302C2.8322 7.78184 2.64034 8.70517 2.6346 9.63902C2.62886 10.5729 2.80937 11.4985 3.16556 12.3617C3.52175 13.225 4.04648 14.0086 4.70907 14.6667C6.07851 16.108 7.98203 16.8304 10.4196 16.8338C14.0606 16.8338 16.6232 15.0826 17.2857 12.0938H12.4276L14.9645 9.59803H20.1358C20.1358 10.8459 19.9458 13.1928 18.8263 14.9902C16.4743 18.8418 11.7446 19.4477 10.3631 19.4477C7.21001 19.4477 4.69366 18.4583 2.81411 16.4795C1.01189 14.6757 -0.000338262 12.23 -9.5596e-05 9.6802C-0.0200531 8.40111 0.225695 7.13181 0.721598 5.9526C1.2175 4.7734 1.95277 3.70995 2.88087 2.82957C3.7933 1.91176 4.88192 1.18797 6.08126 0.701698C7.28061 0.215428 8.56591 -0.0232688 9.85988 -4.07194e-05C11.376 -0.018396 12.8835 0.231971 14.3123 0.739458C15.8587 1.36839 17.2603 2.30684 18.4309 3.49717Z" fill="#F6921E"/>
<path d="M22.144 9.59803C22.1315 8.3223 22.3907 7.05852 22.9042 5.89066C23.4178 4.72279 24.1739 3.67757 25.1225 2.82443C26.0754 1.90271 27.2012 1.17862 28.4351 0.693871C29.669 0.209121 30.9866 -0.0267112 32.3121 -4.11749e-05C33.6151 -0.0177619 34.9085 0.224745 36.1166 0.713272C37.3247 1.2018 38.4231 1.92652 39.3476 2.84497C40.2816 3.70283 41.0252 4.74713 41.5303 5.91037C42.0354 7.07361 42.2907 8.3299 42.2799 9.59803C42.3052 10.9024 42.059 12.1978 41.5568 13.4019C41.0547 14.606 40.3076 15.6926 39.363 16.5924C38.4235 17.5259 37.3051 18.2599 36.075 18.7506C34.8448 19.2412 33.5283 19.4784 32.2042 19.4477C30.8846 19.472 29.5736 19.2298 28.3498 18.7357C27.1259 18.2415 26.0143 17.5056 25.0814 16.5719C24.1362 15.6758 23.3871 14.5933 22.8815 13.393C22.3759 12.1926 22.1248 10.9004 22.144 9.59803ZM39.63 9.71101C39.6475 8.75652 39.462 7.8092 39.0857 6.93183C38.7095 6.05446 38.151 5.26707 37.4475 4.62182C36.7344 3.94299 35.8939 3.41199 34.9747 3.05944C34.0554 2.70689 33.0754 2.53975 32.0912 2.56766C31.1305 2.55289 30.1765 2.7317 29.2863 3.09344C28.3961 3.45517 27.5878 3.99243 26.9096 4.67318C26.2186 5.31926 25.6699 6.10234 25.2985 6.97242C24.9271 7.8425 24.7412 8.78046 24.7528 9.72641C24.7396 10.6786 24.9302 11.6227 25.312 12.4951C25.6937 13.3676 26.2577 14.1483 26.9661 14.7848C28.4337 16.1555 30.3818 16.8934 32.3891 16.8389C33.3374 16.8515 34.2783 16.6713 35.1549 16.3094C36.0314 15.9475 36.8254 15.4113 37.4886 14.7334C38.1735 14.0899 38.7174 13.3113 39.086 12.4468C39.4546 11.5823 39.6398 10.6507 39.63 9.71101Z" fill="#F6921E"/>
<path d="M44.2621 9.59811C44.2503 8.322 44.5103 7.05798 45.0247 5.89009C45.5391 4.7222 46.2963 3.67719 47.2458 2.82452C48.1983 1.90233 49.3241 1.17794 50.5581 0.69316C51.792 0.208379 53.1098 -0.0271925 54.4353 4.36807e-05C55.7391 -0.0177876 57.0334 0.22465 58.2423 0.713163C59.4513 1.20168 60.5506 1.92645 61.476 2.84506C62.4074 3.70408 63.1483 4.74896 63.6507 5.91218C64.1532 7.0754 64.406 8.33109 64.3929 9.59811C64.4182 10.9025 64.172 12.1979 63.6698 13.402C63.1677 14.6061 62.4206 15.6926 61.476 16.5925C59.5547 18.4319 56.9976 19.4586 54.3378 19.4586C51.678 19.4586 49.1208 18.4319 47.1996 16.5925C46.2508 15.6948 45.4995 14.6092 44.9937 13.4049C44.488 12.2006 44.2388 10.9041 44.2621 9.59811ZM61.7225 9.71109C61.7442 8.75887 61.5637 7.81287 61.1927 6.93559C60.8218 6.05831 60.269 5.26972 59.5707 4.62191C58.8564 3.94338 58.015 3.41263 57.0949 3.06012C56.1749 2.70761 55.1943 2.54029 54.2094 2.56775C53.2488 2.55473 52.2954 2.73434 51.4054 3.09597C50.5155 3.45761 49.707 3.99393 49.0278 4.67326C48.3367 5.31934 47.788 6.10242 47.4166 6.9725C47.0453 7.84259 46.8594 8.78055 46.8709 9.7265C46.8583 10.6791 47.0498 11.6234 47.4325 12.4959C47.8151 13.3684 48.3801 14.1488 49.0894 14.7849C50.5563 16.1565 52.5048 16.8946 54.5124 16.839C55.4589 16.8499 56.3978 16.6689 57.2724 16.307C58.1471 15.9452 58.9394 15.4099 59.6016 14.7335C60.2857 14.0894 60.8292 13.3107 61.1977 12.4463C61.5662 11.582 61.7519 10.6507 61.743 9.71109H61.7225Z" fill="#F6921E"/>
<path d="M66.6523 0.86792H72.1061C75.6153 0.86792 78.2241 1.794 79.9325 3.64617C81.5833 5.34827 82.5046 7.62751 82.5002 9.99867C82.502 11.1819 82.2687 12.3537 81.8138 13.446C81.3589 14.5383 80.6915 15.5293 79.8503 16.3614C78.0838 18.2033 75.5161 19.1243 72.1472 19.1243H66.6523V0.86792ZM69.143 3.30724V16.6593H69.2868C71.0277 16.6827 72.7684 16.6004 74.4992 16.4128C75.4544 16.2358 76.3622 15.8615 77.1645 15.3138C78.0108 14.7453 78.7012 13.9737 79.1725 13.0696C79.729 11.989 79.9815 10.7775 79.9028 9.56448C79.8241 8.3515 79.4172 7.18271 78.7257 6.18306C78.0456 5.13599 77.0488 4.33353 75.8807 3.89267C74.4404 3.45491 72.9379 3.25712 71.4334 3.30724H69.143Z" fill="#F6921E"/>
<path d="M85.2477 0.575195H87.7127V16.3666H93.6595L95.8985 18.8316H85.2477V0.575195Z" fill="#626366"/>
<path d="M95.1078 9.59811C95.0957 8.32243 95.355 7.05876 95.8685 5.89094C96.382 4.72312 97.138 3.67786 98.0863 2.82452C99.0389 1.90233 100.165 1.17794 101.399 0.69316C102.633 0.208379 103.95 -0.0271925 105.276 4.36804e-05C106.579 -0.0176771 107.872 0.22483 109.08 0.713357C110.289 1.20188 111.387 1.9266 112.311 2.84506C113.246 3.70211 113.991 4.74626 114.496 5.90968C115.001 7.07311 115.256 8.3298 115.244 9.59811C115.269 10.9025 115.023 12.1979 114.521 13.402C114.018 14.6061 113.271 15.6926 112.327 16.5925C110.404 18.4311 107.846 19.4571 105.186 19.4571C102.526 19.4571 99.968 18.4311 98.0452 16.5925C97.0974 15.694 96.3468 14.6083 95.8412 13.4042C95.3355 12.2 95.0857 10.9039 95.1078 9.59811ZM112.594 9.71109C112.612 8.75655 112.426 7.80914 112.05 6.93172C111.674 6.0543 111.115 5.26695 110.411 4.62191C109.697 3.94338 108.856 3.41263 107.935 3.06012C107.015 2.70761 106.035 2.54029 105.05 2.56775C104.089 2.55473 103.136 2.73434 102.246 3.09597C101.356 3.45761 100.548 3.99393 99.8683 4.67326C99.1773 5.31934 98.6285 6.10242 98.2572 6.9725C97.8858 7.84258 97.6999 8.78054 97.7114 9.7265C97.6982 10.6787 97.8889 11.6228 98.2707 12.4952C98.6524 13.3677 99.2164 14.1484 99.9248 14.7849C101.394 16.1558 103.344 16.8937 105.353 16.839C106.301 16.8513 107.242 16.671 108.118 16.309C108.995 15.9471 109.789 15.4112 110.452 14.7335C111.137 14.0894 111.68 13.3107 112.049 12.4463C112.417 11.582 112.603 10.6507 112.594 9.71109Z" fill="#626366"/>
<path d="M133.259 1.20684V4.02617C131.58 3.13952 129.722 2.64607 127.825 2.58312C125.838 2.53131 123.912 3.27009 122.469 4.63729C121.769 5.27533 121.213 6.05498 120.838 6.92445C120.462 7.79392 120.276 8.73332 120.292 9.68025C120.271 10.6391 120.459 11.5909 120.843 12.4697C121.227 13.3486 121.798 14.1333 122.515 14.7694C124.042 16.1506 126.045 16.8868 128.103 16.8236C129.919 16.7605 131.687 16.2298 133.238 15.283V18.1331C131.587 19.0116 129.742 19.4635 127.872 19.4478C126.533 19.4731 125.203 19.2324 123.958 18.7396C122.713 18.2469 121.579 17.5118 120.62 16.5771C119.658 15.7008 118.892 14.6312 118.371 13.4383C117.851 12.2454 117.588 10.956 117.601 9.65457C117.586 8.37323 117.843 7.1033 118.354 5.92801C118.864 4.75272 119.617 3.69861 120.564 2.83476C121.505 1.91328 122.619 1.18812 123.843 0.701455C125.067 0.214794 126.375 -0.0236439 127.692 1.6256e-05C129.61 0.0228619 131.503 0.433363 133.259 1.20684Z" fill="#626366"/>
<path d="M136.227 0.575195H138.717V7.99072L146.467 0.575195H149.954L141.126 9.04861L150.01 18.8059H146.821L138.717 9.92676V18.8418H136.227V0.575195Z" fill="#626366"/>
<path d="M106.503 9.28475V13.1928C106.503 13.5599 106.357 13.9119 106.098 14.1714C105.838 14.431 105.486 14.5768 105.119 14.5768C104.752 14.5768 104.4 14.431 104.141 14.1714C103.881 13.9119 103.735 13.5599 103.735 13.1928V9.28475C103.39 9.0002 103.141 8.61597 103.022 8.18455C102.903 7.75314 102.921 7.29559 103.072 6.87445C103.223 6.45331 103.501 6.08913 103.867 5.83167C104.233 5.57421 104.669 5.43604 105.117 5.43604C105.564 5.43604 106.001 5.57421 106.367 5.83167C106.733 6.08913 107.01 6.45331 107.161 6.87445C107.312 7.29559 107.33 7.75314 107.211 8.18455C107.092 8.61597 106.843 9.0002 106.498 9.28475H106.503Z" fill="#F6921E"/>
</g>
<defs>
<clipPath id="clip0">
<path d="M0 0H150V19.4478H0V0Z" fill="white"/>
</clipPath>
</defs>
</svg>
