<svg width="16" height="16" viewBox="0 0 16 16" fill="none" xmlns="http://www.w3.org/2000/svg">
<path d="M15.5887 11.8016L13.5996 9.81243C13.0512 9.26407 12.1588 9.26407 11.6105 9.81243L10.7063 10.7166C10.2909 11.132 9.61484 11.1319 9.19954 10.7167L5.28062 6.79446C4.8642 6.37803 4.86413 5.70403 5.28062 5.28755C5.42625 5.14191 5.84443 4.72374 6.18475 4.38341C6.73075 3.83745 6.73837 2.94788 6.18422 2.39379L4.19563 0.411456C3.64724 -0.136912 2.75491 -0.136912 2.20798 0.410018C1.79872 0.815724 1.66671 0.946604 1.4832 1.12852C-0.494385 3.10608 -0.494385 6.32381 1.48311 8.3013L7.69251 14.514C9.67472 16.4962 12.883 16.4964 14.8654 14.514L15.5887 13.7906C16.1371 13.2422 16.1371 12.35 15.5887 11.8016ZM2.86958 1.07449C3.05237 0.891696 3.34975 0.891665 3.53314 1.07499L5.52172 3.05732C5.70495 3.24055 5.70495 3.53709 5.52172 3.72035L5.19018 4.05187L2.53975 1.40144L2.86958 1.07449ZM8.35566 13.851L2.14623 7.63831C0.616226 6.1083 0.532129 3.70585 1.8876 2.07537L4.53034 4.71812C3.83593 5.50531 3.86487 6.70483 4.61743 7.45739L8.53636 11.3796C9.28811 12.1314 10.4876 12.1622 11.2757 11.4669L13.9185 14.1097C12.2932 15.4628 9.8962 15.3916 8.35566 13.851ZM14.9257 13.1276L14.5942 13.4592L11.942 10.807L12.2735 10.4755C12.4563 10.2927 12.7537 10.2926 12.9366 10.4755L14.9257 12.4646C15.1085 12.6474 15.1085 12.9449 14.9257 13.1276Z" fill="#313131"/>
</svg>
