<svg width="16" height="16" viewBox="0 0 16 16" fill="none" xmlns="http://www.w3.org/2000/svg">
<path d="M0.5 4C0.5 3.17157 1.17157 2.5 2 2.5H11.1534C11.6283 2.5 12.0752 2.7249 12.3581 3.10632L14.7646 6.35027C15.1401 6.85649 15.1591 7.54348 14.8121 8.06968L12.3354 11.8257C12.0578 12.2467 11.5873 12.5 11.0831 12.5H2C1.17157 12.5 0.5 11.8284 0.5 11V4Z" stroke="#E10600"/>
<path d="M11.5 7.5C11.5 8.05228 11.0523 8.5 10.5 8.5C9.94772 8.5 9.5 8.05228 9.5 7.5C9.5 6.94772 9.94772 6.5 10.5 6.5C11.0523 6.5 11.5 6.94772 11.5 7.5Z" stroke="#E10600"/>
</svg>
