<svg width="11" height="11" viewBox="0 0 11 11" fill="none" xmlns="http://www.w3.org/2000/svg">
<path d="M10.7166 3.46196C10.3396 3.08497 9.72621 3.08499 9.34911 3.46204C9.23313 3.57813 8.49262 4.31924 8.3795 4.43247V1.87843C8.3795 1.62017 8.27892 1.37737 8.09629 1.19477L7.18475 0.283184C7.00214 0.100554 6.75933 0 6.50107 0H0.966865C0.433736 0 0 0.433736 0 0.966865V10.0339C0 10.567 0.433736 11.0008 0.966865 11.0008H7.41263C7.94576 11.0008 8.3795 10.567 8.3795 10.0339V7.16836L10.7166 4.82932C11.0944 4.45147 11.0945 3.83985 10.7166 3.46196ZM6.44579 0.644577C6.50668 0.644577 6.62401 0.634027 6.72897 0.738964L7.64053 1.65055C7.74281 1.75284 7.73494 1.86493 7.73494 1.93373H6.44579V0.644577ZM7.73492 10.0339C7.73492 10.2116 7.59036 10.3562 7.41263 10.3562H0.966865C0.789155 10.3562 0.644577 10.2116 0.644577 10.0339V0.966865C0.644577 0.789155 0.789155 0.644577 0.966865 0.644577H5.80119V2.25602C5.80119 2.43401 5.94549 2.57831 6.12348 2.57831H7.73492V5.07761L6.78404 6.02928L6.32848 6.48487C6.29311 6.52024 6.26642 6.56338 6.25061 6.61084L5.79481 7.97821C5.7562 8.09401 5.78634 8.22171 5.87267 8.30801C5.95911 8.39445 6.08685 8.42445 6.20248 8.38588L7.56984 7.9301C7.61731 7.91429 7.66045 7.88762 7.69582 7.85223L7.73492 7.81313V10.0339ZM7.01214 6.71277L7.46792 7.16855L7.29382 7.34265L6.61016 7.57053L6.83804 6.88685L7.01214 6.71277ZM7.92361 6.71267L7.46783 6.25689C7.71053 6.01399 8.78846 4.93514 9.01707 4.70633L9.47285 5.16211L7.92361 6.71267ZM10.2607 4.37362L9.92846 4.70614L9.47268 4.25036L9.80502 3.91774C9.93076 3.79207 10.1352 3.79209 10.2608 3.91774C10.3865 4.04343 10.3871 4.24718 10.2607 4.37362Z" fill="white"/>
<path d="M6.12348 3.22288H1.61144C1.43345 3.22288 1.28915 3.36718 1.28915 3.54517C1.28915 3.72316 1.43345 3.86746 1.61144 3.86746H6.12348C6.30147 3.86746 6.44577 3.72316 6.44577 3.54517C6.44577 3.36718 6.30147 3.22288 6.12348 3.22288Z" fill="white"/>
<path d="M4.83433 4.51204H1.61144C1.43345 4.51204 1.28915 4.65634 1.28915 4.83433C1.28915 5.01231 1.43345 5.15661 1.61144 5.15661H4.83433C5.01231 5.15661 5.15661 5.01231 5.15661 4.83433C5.15661 4.65634 5.01231 4.51204 4.83433 4.51204Z" fill="white"/>
<path d="M4.83433 5.80119H1.61144C1.43345 5.80119 1.28915 5.94549 1.28915 6.12348C1.28915 6.30147 1.43345 6.44577 1.61144 6.44577H4.83433C5.01231 6.44577 5.15661 6.30147 5.15661 6.12348C5.15661 5.94549 5.01231 5.80119 4.83433 5.80119Z" fill="white"/>
<path d="M4.83433 7.09034H1.61144C1.43345 7.09034 1.28915 7.23464 1.28915 7.41263C1.28915 7.59062 1.43345 7.73492 1.61144 7.73492H4.83433C5.01231 7.73492 5.15661 7.59062 5.15661 7.41263C5.15661 7.23464 5.01231 7.09034 4.83433 7.09034Z" fill="white"/>
<path d="M6.12348 9.06705H4.18975C4.01176 9.06705 3.86746 9.21135 3.86746 9.38933C3.86746 9.56732 4.01176 9.71162 4.18975 9.71162H6.12348C6.30147 9.71162 6.44577 9.56732 6.44577 9.38933C6.44577 9.21135 6.30147 9.06705 6.12348 9.06705Z" fill="white"/>
</svg>
