<svg width="12" height="12" viewBox="0 0 12 12" fill="none" xmlns="http://www.w3.org/2000/svg">
<path d="M11.6875 10.7031L8.29469 7.30977C8.84146 6.5584 9.13558 5.65285 9.13469 4.72359C9.13469 2.29137 7.15582 0.3125 4.72359 0.3125C2.29137 0.3125 0.3125 2.29137 0.3125 4.72359C0.3125 7.15582 2.29137 9.13469 4.72359 9.13469C5.65285 9.13558 6.5584 8.84146 7.30977 8.29469L10.7031 11.6875L11.6875 10.7031ZM4.72359 7.74152C4.12663 7.74158 3.54305 7.5646 3.04667 7.23298C2.55028 6.90136 2.16339 6.42998 1.93492 5.87846C1.70644 5.32695 1.64665 4.72006 1.7631 4.13457C1.87955 3.54907 2.16701 3.01125 2.58913 2.58913C3.01125 2.16701 3.54907 1.87955 4.13457 1.7631C4.72006 1.64665 5.32695 1.70644 5.87846 1.93492C6.42998 2.16339 6.90136 2.55028 7.23298 3.04667C7.5646 3.54305 7.74158 4.12663 7.74152 4.72359C7.74058 5.52371 7.42232 6.29079 6.85655 6.85655C6.29079 7.42232 5.52371 7.74058 4.72359 7.74152Z" fill="black"/>
</svg>
