<?xml version="1.0" encoding="UTF-8"?>
<svg width="16px" height="16px" viewBox="0 0 16 16" version="1.1" xmlns="http://www.w3.org/2000/svg" xmlns:xlink="http://www.w3.org/1999/xlink">
    <!-- Generator: Sketch 62 (91390) - https://sketch.com -->
    <title>top_ico_lupa</title>
    <desc>Created with Sketch.</desc>
    <g id="карта+поиск" stroke="none" stroke-width="1" fill="none" fill-rule="evenodd">
        <g id="Artboard" transform="translate(-37.000000, -28.000000)" fill="#444444">
            <g id="Group-5">
                <g id="Group" transform="translate(20.000000, 15.000000)">
                    <g id="top_ico_lupa" transform="translate(15.000000, 11.000000)">
                        <path d="M14.1325066,12.2416824 C14.1140337,12.2232094 14.0923647,12.2102975 14.0730608,12.193103 C14.7570073,11.1556138 15.1561891,9.91370769 15.1561891,8.57815846 C15.1561891,8.02456111 15.0878054,7.48693654 14.9590245,6.97327106 C14.2426687,4.11595915 11.657477,2 8.57809454,2 C4.94512448,2 2,4.94512448 2,8.57809454 C2,12.2110007 4.94506056,15.1561891 8.57803062,15.1561891 C9.91364377,15.1561891 11.155486,14.7570073 12.1929752,14.0730608 C12.2101697,14.0923008 12.2230177,14.1139698 12.2414906,14.1324427 L15.7174726,17.6084247 C16.2396369,18.1305251 17.0861964,18.1305251 17.6084247,17.6084247 C18.1305251,17.0862603 18.1305251,16.2397009 17.6084247,15.7175365 L14.1325066,12.2416824 Z M8.57781201,13.9111125 C5.63222523,13.9111125 3.24443902,11.5233263 3.24443902,8.5778188 C3.24443902,5.63223201 5.63230456,3.2444458 8.57781201,3.2444458 C11.5232401,3.2444458 13.9111057,5.63231134 13.9111057,8.5778188 C13.9111057,11.5233263 11.5232401,13.9111125 8.57781201,13.9111125 L8.57781201,13.9111125 Z" id="Shape"></path>
                    </g>
                </g>
            </g>
        </g>
    </g>
</svg>