<svg xmlns="http://www.w3.org/2000/svg" viewBox="0 0 16 16"><defs><filter id="a" color-interpolation-filters="auto"><feColorMatrix in="SourceGraphic" values="0 0 0 0 1.000000 0 0 0 0 1.000000 0 0 0 0 1.000000 0 0 0 1.000000 0"/></filter></defs><g fill="#999" fill-rule="evenodd"><path fill-rule="nonzero" d="M15.723 14.385l-3.076-3.076a6.989 6.989 0 0 0 1.443-4.262 7 7 0 0 0-2.064-4.983A7 7 0 0 0 7.043 0a7 7 0 0 0-4.982 2.064 7.054 7.054 0 0 0 0 9.966 7 7 0 0 0 4.982 2.064 6.989 6.989 0 0 0 4.263-1.444l3.075 3.076a.945.945 0 0 0 1.342 0c.37-.37.37-.97 0-1.341zM3.402 10.688a5.156 5.156 0 0 1 0-7.283 5.117 5.117 0 0 1 3.641-1.508c1.376 0 2.67.536 3.642 1.508a5.117 5.117 0 0 1 1.509 3.642 5.116 5.116 0 0 1-1.509 3.641 5.116 5.116 0 0 1-3.642 1.509 5.117 5.117 0 0 1-3.641-1.509z"/></g></svg>