<svg width="9" height="12" viewBox="0 0 9 12" fill="none" xmlns="http://www.w3.org/2000/svg">
<path d="M8.05263 3.31578C7.85794 3.31578 7.67651 3.37499 7.52588 3.47589C7.3961 3.10737 7.04415 2.8421 6.63158 2.8421C6.43689 2.8421 6.25546 2.90132 6.10483 3.00221C5.97505 2.63369 5.6231 2.36842 5.21053 2.36842C5.03811 2.36842 4.87611 2.41485 4.73685 2.49585V0.947374C4.73685 0.424894 4.31195 0 3.78947 0C3.26699 0 2.8421 0.424894 2.8421 0.947374V6.48521L1.53995 5.8339C1.34385 5.73583 1.12405 5.6842 0.904743 5.6842C0.405488 5.6842 0 6.09016 0 6.59179C0 6.83383 0.0942556 7.06073 0.26527 7.23173L3.3281 10.2946C4.02015 10.9871 4.94148 11.3684 5.92105 11.3684C7.61874 11.3684 9 9.98714 9 8.28945V4.26315C9 3.74067 8.57511 3.31578 8.05263 3.31578ZM8.5263 8.28945C8.5263 9.72614 7.35724 10.8947 5.92056 10.8947C5.06747 10.8947 4.26599 10.5626 3.66347 9.95919L0.600172 6.89636C0.518706 6.81536 0.473698 6.70689 0.473698 6.58894C0.473698 6.35116 0.666961 6.1579 0.904743 6.1579C1.05111 6.1579 1.19701 6.19247 1.32822 6.25784L2.97333 7.08016C3.04675 7.11664 3.13437 7.11285 3.20354 7.06975C3.27317 7.02665 3.3158 6.95038 3.3158 6.86842V0.947374C3.3158 0.686367 3.528 0.473698 3.78947 0.473698C4.05095 0.473698 4.26315 0.68639 4.26315 0.947374V5.44737C4.26315 5.57811 4.36926 5.68422 4.5 5.68422C4.63074 5.68422 4.73685 5.57811 4.73685 5.44737V3.3158C4.73685 3.05479 4.94905 2.84212 5.21053 2.84212C5.472 2.84212 5.6842 3.05481 5.6842 3.3158V5.44737C5.6842 5.57811 5.79031 5.68422 5.92105 5.68422C6.05179 5.68422 6.1579 5.57811 6.1579 5.44737V3.78947C6.1579 3.52847 6.3701 3.3158 6.63158 3.3158C6.89305 3.3158 7.10525 3.52849 7.10525 3.78947V5.44737C7.10525 5.57811 7.21136 5.68422 7.3421 5.68422C7.47284 5.68422 7.57895 5.57811 7.57895 5.44737V4.26315C7.57895 4.00214 7.79115 3.78947 8.05263 3.78947C8.3141 3.78947 8.5263 4.00217 8.5263 4.26315V8.28945Z" fill="white"/>
</svg>
