<svg width="163" height="26" viewBox="0 0 163 26" xmlns="http://www.w3.org/2000/svg">
    <g fill="none" fill-rule="evenodd">
        <path d="M41.269 20.04c.807-.016 1.832-.16 2.728-.51.69-.269 1.305-.66 1.682-1.207.303-.439.433-.904.395-1.357-.036-.455-.242-.897-.61-1.285-.328-.304-.594-.442-.83-.471-.233-.028-.439.053-.644.188-.385.254-.938.481-1.507.637-.558.152-1.133.235-1.582.207-.98-.063-1.853-.429-2.469-1.031-.586-.573-.941-1.36-.941-2.306 0-.675.207-1.32.574-1.86.365-.538.89-.973 1.526-1.232.582-.236 1.193-.3 1.8-.248.605.05 1.208.216 1.775.435.475.18.797.28 1.103.186.308-.094.606-.385 1.03-.984.135-.23.224-.452.271-.663.103-.452.02-.86-.189-1.21-.21-.354-.548-.652-.957-.885a4.359 4.359 0 0 0-1.206-.453 10.28 10.28 0 0 0-1.932-.214c-.65-.014-1.3.029-1.848.135a7.236 7.236 0 0 0-4.187 2.47 7.066 7.066 0 0 0-1.647 4.53l.001.15c.04 2.03.892 3.774 2.245 5.011 1.353 1.238 3.208 1.968 5.253 1.968l.166-.001z" fill="#ffffff" fill-rule="nonzero"/>
        <path d="M4.204 7.606a5.46 5.46 0 0 0-.065-.277c-.278-1.013-1.173-.536-1.363-1.234-.276-1.013 2.63-1.193 3.36-1.375 1.893-.471 4.503-1.59 7.23-2.332 2.74-.7 5.569-1.015 7.448-1.539.724-.2 3.333-1.476 3.609-.462.19.698-.827.725-.554 1.74.392 1.39 1.49 3.115 2.039 5.074.638 2.266.734 4.765 1.137 6.195.129.457.394.682.617.865.648.407.699 1.245-.087 1.453-.417.11-1 .29-1.667.282-.348-.004-.486-.157-.524-.423-.15-1.034-.334-2.458-.655-3.596-.29-1.032-.923-2.71-1.502-3.633-.32-.509-.738-1.124-.414-1.532.554-.699.37-1.794-.196-2.446-.627-.723-1.707-.7-2.848-.399-.533.14-1.109.359-1.57.533-.248.094-.456.174-.516.19-.81.225-1.938.43-3.172.651-1.309.237-2.735.494-4.254.882l-.01.002c-1.514.412-2.88.891-4.133 1.33-.41.145-.806.284-1.185.413 0 0-.597.236-.725-.362zm130.791 7.31a2.582 2.582 0 0 1 2.589 2.576 2.582 2.582 0 0 1-2.589 2.577 2.583 2.583 0 0 1-2.589-2.577c-.01-1.425 1.151-2.576 2.59-2.576zM14.9 23.295c-2.692.58-5.463.849-7.374 1.328-1.339.33-1.837 1.159-2.513 1.338-.786.207-1.107-.44-.753-1.11.1-.27.216-.594.096-1.054-.347-1.277-1.562-2.474-2.451-5.848-.889-3.373-.188-4.237-.525-5.473-.278-1.014-1.172-.537-1.362-1.235-.276-1.014 2.63-1.193 3.358-1.375 2.46-.614 4.785-1.664 7.232-2.333 2.46-.625 5.008-.86 7.448-1.538.724-.201 3.331-1.476 3.607-.462.19.697-.825.725-.551 1.74.336 1.236 1.382 1.639 2.326 4.998.945 3.36.5 4.993.848 6.27.13.458.395.682.618.865.648.407.698 1.125-.087 1.332-.677.179-1.53-.294-2.856.079-1.9.525-4.436 1.656-7.061 2.478zm4.556-13.677c2.125 3.295 1.006 7.71.285 9.527-.017.043-.05.155.13.079 2.678-.933 2.663-7.074-.304-9.682 0 0-.261-.158-.11.076z" fill="#EE204D"/>
        <path d="M157.501 10.13c-.205.351-.6.32-.79-.055l-1.632-3.112c-.34-.55-.901-.881-1.512-.999-.731-.14-2.207.131-2.618.908-.104.199-.096.438.085.785l3.662 6.993c.147.21.153.552.026.772l-1.256 2.41c-.177.335-.255.484-.222.736.12.895.92 1.206 1.747 1.206.895 0 2.02-.298 2.464-1.14l5.262-10.036c.531-.906.323-2.052-.693-2.487-.488-.209-1.13-.27-1.845-.175a.961.961 0 0 0-.456.174 1.277 1.277 0 0 0-.372.471l-1.85 3.549zM55.309 6.94a580.3 580.3 0 0 0-1.688 3.223h.035l-.024.04a.57.57 0 0 1-.232.235.337.337 0 0 1-.32-.01.533.533 0 0 1-.203-.228l-1.595-3.048a1.837 1.837 0 0 0-.07-.121c-.34-.55-.894-.878-1.506-.995a2.913 2.913 0 0 0-2.012.36c-.276.186-.5.348-.605.548-.105.198-.096.438.085.785l3.664 7.004c.072.102.11.236.114.373a.733.733 0 0 1-.09.388l-1.257 2.408c-.177.337-.254.485-.22.737.054.406.249.694.526.887.323.224.76.32 1.22.32.498 0 1.06-.092 1.539-.314.39-.181.726-.45.925-.826.36-.681 1.585-3.016 2.763-5.27C57.633 11 58.85 8.671 58.85 8.666l.003-.01c.225-.51.297-.952.248-1.32a1.366 1.366 0 0 0-.302-.697 1.657 1.657 0 0 0-.634-.456c-.49-.209-1.132-.27-1.846-.176a.96.96 0 0 0-.456.175 1.278 1.278 0 0 0-.373.471c0 .002-.07.11-.181.287zM124.449 5.774c-4.004 0-7.249 3.194-7.249 7.134 0 3.94 3.245 7.133 7.249 7.133 4.003 0 7.248-3.193 7.248-7.133 0-3.93-3.255-7.134-7.248-7.134zm18.792 7.112c.001.32.376.563.676.563.211 0 .418 0 .628-.009.757-.032 1.434-.219 1.914-.876a1.843 1.843 0 0 0 .084-2.018c-.474-.814-1.141-.96-1.994-.987-.293-.01-.572.002-.72.046-.24.03-.588.265-.588.526v2.755zm-.002 6.156c0 .335-.233.571-.56.632-.329.068-.757.11-1.178.112-.677.003-1.608-.077-1.97-.732-.158-.289-.198-.663-.213-1.141-.002-3.458 0-6.915.003-10.373 0-.316.103-.55.273-.725.172-.177.412-.299.686-.392.913-.299 2.086-.47 3.26-.503 1.16-.032 2.321.072 3.23.322 1.713.474 2.87 1.75 3.383 3.264.584 1.724.418 3.787-.686 5.257-1.037 1.38-2.936 2.27-5.592 2.27a.63.63 0 0 0-.634.6l-.002 1.41zm-78.668-8.929a.428.428 0 0 0-.428-.43h-2.515c-.75 0-.91-.883-.946-1.46-.036-.561.043-1.583.588-1.964.203-.141.475-.22.834-.234h9.515c.694 0 .823.993.877 1.505.02.594-.05 1.135-.29 1.524-.24.388-.651.629-1.317.629h-1.975a.42.42 0 0 0-.425.426l.004 8.938c0 .335-.233.571-.559.633-.33.067-.758.109-1.18.111-.676.003-1.607-.076-1.968-.732-.159-.288-.2-.665-.215-1.143 0 0 .002-5.2 0-7.803zm36.385 8.93c0 .334-.234.57-.56.631a6.32 6.32 0 0 1-1.178.112c-.677.003-1.608-.077-1.969-.732-.159-.289-.2-.663-.214-1.141v-2.24c-.016-.196-.121-.37-.333-.41a.584.584 0 0 0-.249.015c-.588.15-1.193.254-1.801.254-1.222 0-2.458-.378-3.432-1.068-1.196-.848-1.901-2.089-1.901-3.542V6.769c0-.335.233-.57.56-.633a6.417 6.417 0 0 1 1.178-.11c.676-.004 1.608.076 1.969.73.159.29.199.665.214 1.143v2.211c0 1.014.985 1.549 1.928 1.538.929-.01 1.866-.55 1.866-1.538V6.77c0-.335.234-.57.56-.633a6.421 6.421 0 0 1 1.179-.11c.676-.004 1.608.076 1.968.73.159.29.199.665.214 1.143.003 3.713.001 7.429.001 11.143zm2.218-12.274c0-.335.233-.57.56-.633.329-.066.757-.108 1.178-.11.677-.004 1.608.076 1.969.73.16.29.199.665.214 1.143l.001 2.44a.63.63 0 0 0 .636.625h3.117c.351 0 .634-.28.633-.626l-.001-3.569c0-.335.234-.57.56-.633a6.415 6.415 0 0 1 1.178-.11c.677-.004 1.609.076 1.969.73.159.29.2.665.214 1.143.003 3.714 0 7.429.003 11.143 0 .335-.234.571-.56.632a6.32 6.32 0 0 1-1.18.112c-.676.003-1.607-.077-1.967-.732-.16-.289-.2-.663-.215-1.141 0-.846-.004-1.693-.005-2.54a.63.63 0 0 0-.63-.551h-3.118a.63.63 0 0 0-.634.608c.003 1.204.003 2.408.003 3.612 0 .335-.233.571-.56.632-.328.068-.757.11-1.178.112-.676.003-1.608-.077-1.969-.732-.159-.289-.199-.663-.213-1.141-.003-3.715-.005-7.43-.005-11.144zm-22.708-.995a7.285 7.285 0 0 0-5.125 2.09 7.055 7.055 0 0 0 0 10.088 7.285 7.285 0 0 0 5.125 2.09 7.285 7.285 0 0 0 5.126-2.09 7.056 7.056 0 0 0 2.123-5.044 7.056 7.056 0 0 0-2.127-5.04 7.285 7.285 0 0 0-5.122-2.094zm3.352 7.134c0 .912-.375 1.736-.98 2.332a3.373 3.373 0 0 1-2.372.967 3.37 3.37 0 0 1-2.37-.967 3.261 3.261 0 0 1 0-4.666 3.368 3.368 0 0 1 2.37-.966c.93 0 1.769.367 2.375.964.604.595.977 1.42.977 2.336zm43.983 0c0 1.82-1.502 3.299-3.352 3.299-1.85 0-3.353-1.479-3.353-3.299 0-1.821 1.502-3.3 3.353-3.3 1.86 0 3.352 1.469 3.352 3.3z" fill="#ffffff" fill-rule="nonzero"/>
    </g>
</svg>
