<svg width="11" height="14" viewBox="0 0 11 14" fill="none" xmlns="http://www.w3.org/2000/svg">
<path d="M7.48202 0.107305C7.41836 0.0402527 7.33107 0 7.24061 0H1.8244C0.824968 0 0 0.821684 0 1.82101V12.0631C0 13.0625 0.824968 13.8842 1.8244 13.8842H9.1756C10.175 13.8842 11 13.0625 11 12.0631V3.93046C11 3.84328 10.9597 3.75949 10.9028 3.69573L7.48202 0.107305ZM7.57926 1.18385L9.86985 3.58842H8.38082C7.93815 3.58842 7.57926 3.23293 7.57926 2.79025V1.18385ZM9.1756 13.2135H1.8244C1.19731 13.2135 0.670737 12.6937 0.670737 12.0631V1.82101C0.670737 1.19392 1.19392 0.670737 1.8244 0.670737H6.90853V2.79025C6.90853 3.60516 7.56592 4.25916 8.38082 4.25916H10.3293V12.0631C10.3293 12.6937 9.80608 13.2135 9.1756 13.2135Z" fill="white"/>
<path d="M8.26004 10.8995H2.73991C2.55549 10.8995 2.40454 11.0503 2.40454 11.2348C2.40454 11.4193 2.55549 11.5702 2.73991 11.5702H8.26343C8.44785 11.5702 8.59879 11.4193 8.59879 11.2348C8.59879 11.0503 8.44785 10.8995 8.26004 10.8995Z" fill="white"/>
<path d="M3.78288 7.29093L5.1646 5.80518V9.46743C5.1646 9.65185 5.31555 9.8028 5.49997 9.8028C5.6845 9.8028 5.83534 9.65185 5.83534 9.46743V5.80518L7.21707 7.29093C7.28412 7.36126 7.37141 7.39823 7.46187 7.39823C7.54237 7.39823 7.62627 7.36804 7.68993 7.30766C7.82414 7.18023 7.83421 6.9689 7.70677 6.8348L5.74149 4.72535C5.67772 4.6583 5.59054 4.61804 5.49669 4.61804C5.40273 4.61804 5.31555 4.6583 5.25189 4.72535L3.28661 6.8348C3.15917 6.9689 3.16924 7.18352 3.30334 7.30766C3.44423 7.43509 3.65545 7.42503 3.78288 7.29093Z" fill="white"/>
</svg>
