<svg width="9" height="11" viewBox="0 0 9 11" fill="none" xmlns="http://www.w3.org/2000/svg">
<path d="M5.92777 0.0850145C5.87733 0.0318909 5.80818 0 5.73651 0H1.44541C0.653596 0 0 0.650995 0 1.44273V9.55721C0 10.349 0.653596 11 1.44541 11H7.26954C8.06136 11 8.71495 10.349 8.71495 9.55721V3.11398C8.71495 3.04491 8.68306 2.97853 8.63791 2.92801L5.92777 0.0850145ZM6.00481 0.937929L7.81957 2.84299H6.63986C6.28914 2.84299 6.00481 2.56135 6.00481 2.21063V0.937929ZM7.26954 10.4686H1.44541C0.948587 10.4686 0.531404 10.0568 0.531404 9.55721V1.44273C0.531404 0.945902 0.945902 0.531404 1.44541 0.531404H5.47341V2.21063C5.47341 2.85625 5.99424 3.3744 6.63986 3.3744H8.18355V9.55721C8.18355 10.0568 7.76905 10.4686 7.26954 10.4686Z" fill="white"/>
<path d="M6.54418 8.63531H2.17076C2.02465 8.63531 1.90506 8.75482 1.90506 8.90102C1.90506 9.04713 2.02465 9.16673 2.17076 9.16673H6.54687C6.69298 9.16673 6.81257 9.04713 6.81257 8.90102C6.81257 8.75482 6.69298 8.63531 6.54418 8.63531Z" fill="white"/>
<path d="M2.99705 5.77636L4.09175 4.59924V7.50073C4.09175 7.64684 4.21134 7.76643 4.35745 7.76643C4.50364 7.76643 4.62315 7.64684 4.62315 7.50073V4.59924L5.71784 5.77636C5.77097 5.83208 5.84012 5.86137 5.91179 5.86137C5.97557 5.86137 6.04204 5.83745 6.09247 5.78962C6.19881 5.68866 6.20678 5.52123 6.10582 5.41498L4.54879 3.74373C4.49827 3.6906 4.4292 3.65871 4.35485 3.65871C4.28041 3.65871 4.21134 3.6906 4.1609 3.74373L2.60387 5.41498C2.50291 5.52123 2.51089 5.69126 2.61713 5.78962C2.72875 5.89058 2.89609 5.8826 2.99705 5.77636Z" fill="white"/>
</svg>
